<?xml version="1.0" encoding="utf-8"?>
<!-- Generator: Adobe Illustrator 26.0.3, SVG Export Plug-In . SVG Version: 6.00 Build 0)  -->
<svg version="1.1" id="Layer_1" xmlns="http://www.w3.org/2000/svg" xmlns:xlink="http://www.w3.org/1999/xlink" x="0px" y="0px"
	 viewBox="0 0 400 400" style="enable-background:new 0 0 400 400;" xml:space="preserve">
<style type="text/css">
	.st0{fill:#FFFFFF;}
	.st1{fill:#FFFFFF;stroke:#000000;stroke-width:20;stroke-linejoin:round;stroke-miterlimit:10;}
	.st2{fill:none;stroke:#000000;stroke-width:20;stroke-linejoin:round;stroke-miterlimit:10;}
	.st3{fill:none;stroke:#000000;stroke-width:20;stroke-miterlimit:10;}
	.st4{stroke:#000000;stroke-width:20;stroke-linejoin:round;stroke-miterlimit:10;}
	.st5{fill:#E78F00;}
</style>
<path class="st0" d="M275.6,158.2c33.8,0,61.4,27,61.4,60.3s-27.5,60.3-61.4,60.3c-33.8,0-61.4-27-61.4-60.3
	S241.8,158.2,275.6,158.2 M275.6,142.4c-42.7,0-77.4,34-77.4,76s34.6,76,77.4,76s77.4-34,77.4-76S318.4,142.4,275.6,142.4
	L275.6,142.4z"/>
<g>
	<line class="st0" x1="275.6" y1="175.4" x2="275.6" y2="261.6"/>
	<rect x="267.6" y="175.4" class="st0" width="16" height="86.2"/>
</g>
<g>
	<line class="st0" x1="319" y1="218.4" x2="231.2" y2="218.4"/>
	<rect x="231.2" y="210.6" class="st0" width="87.8" height="15.8"/>
</g>
<path class="st1" d="M118.8,91"/>
<path class="st1" d="M167.2,31"/>
<g>
	<path d="M-116,178.3c6.9,1.7,13.6,4,20,6.8V21h-144v20h124V178.3z"/>
	<path d="M-254.8,326H-329V130h-20v216h102.6C-249.8,339.7-252.6,333-254.8,326z"/>
</g>
<g>
	<path d="M-143.5,215c42.2,0,76.5,34.3,76.5,76.5s-34.3,76.5-76.5,76.5s-76.5-34.3-76.5-76.5S-185.7,215-143.5,215 M-143.5,195
		c-53.3,0-96.5,43.2-96.5,96.5s43.2,96.5,96.5,96.5S-47,344.8-47,291.5S-90.2,195-143.5,195L-143.5,195z"/>
</g>
<line class="st2" x1="-143.5" y1="236.8" x2="-143.5" y2="346.2"/>
<line class="st2" x1="-89.4" y1="291.4" x2="-198.8" y2="291.4"/>
<path class="st1" d="M-339,129.6"/>
<path class="st1" d="M-240,31"/>
<g>
	<path d="M-260,68v41.6l-41.7-0.3L-260,68 M-240,20l-110,109l110,0.7V20L-240,20z"/>
</g>
<g>
	<circle class="st0" cx="635.5" cy="291.5" r="86.5"/>
	<path d="M635.5,215c42.2,0,76.5,34.3,76.5,76.5S677.7,368,635.5,368S559,333.7,559,291.5S593.3,215,635.5,215 M635.5,195
		c-53.3,0-96.5,43.2-96.5,96.5s43.2,96.5,96.5,96.5s96.5-43.2,96.5-96.5S688.8,195,635.5,195L635.5,195z"/>
</g>
<line class="st2" x1="635.5" y1="236.8" x2="635.5" y2="346.2"/>
<line class="st2" x1="689.6" y1="291.4" x2="580.2" y2="291.4"/>
<path class="st1" d="M440,129.6"/>
<path class="st1" d="M539,31"/>
<polyline class="st3" points="440,130 440,336 673,336 673,31 539,31 "/>
<g>
	<path d="M519,68v41.6l-41.7-0.3L519,68 M539,20L429,129l110,0.7V20L539,20z"/>
</g>
<path d="M244.6,543.3c33.8,0,61.4,27,61.4,60.3c0,33.3-27.5,60.3-61.4,60.3c-33.8,0-61.4-27-61.4-60.3S210.8,543.3,244.6,543.3
	 M244.6,527.5c-42.7,0-77.4,34-77.4,76s34.6,76,77.4,76s77.4-34,77.4-76S287.4,527.5,244.6,527.5L244.6,527.5z"/>
<g>
	<line x1="244.6" y1="560.4" x2="244.6" y2="646.7"/>
	<rect x="236.6" y="560.4" width="16" height="86.2"/>
</g>
<g>
	<line x1="288" y1="603.5" x2="200.2" y2="603.5"/>
	<rect x="200.2" y="595.6" width="87.8" height="15.8"/>
</g>
<path class="st4" d="M87.8,476"/>
<path class="st3" d="M236.5,635.6h-104c-28.4,0-51.5-23.1-51.5-51.5v-80c0-28.4,23.1-51.5,51.5-51.5h104c28.4,0,51.5,23.1,51.5,51.5
	v80C288,612.5,264.9,635.6,236.5,635.6z"/>
<path class="st5" d="M-503.9,96.7L-503.9,96.7c12.5-6.9,20.6-20.7,19.2-36.3c-1.6-18.2-16.4-32.7-34.6-34
	c-22-1.6-40.3,15.8-40.3,37.4c0,15.4,9.3,28.7,22.6,34.4v0c0,3-2.4,5.4-5.4,5.4h-59.9c-5.7,0-10.4,4.6-10.4,10.4v47.4h6.1
	c3,0,6-1.3,7.9-3.7c5.8-7.1,14.8-11.6,24.8-11.3c15.8,0.5,28.9,13.1,29.9,28.9c1.1,18-13.1,32.9-30.8,32.9
	c-10.9,0-20.4-5.6-25.9-14.1v0.4h-12V251h174c5.7,0,10.4-4.6,10.4-10.4V113.2c0-5.2-4.2-9.5-9.5-9.5h-59.2
	C-500.7,103.7-503.9,100.6-503.9,96.7z"/>
<path class="st0" d="M178.2,218.5c0-52.9,43.7-96,97.4-96c1.9,0,3.8,0.1,5.7,0.2V116c0-5.8-4.7-10.5-10.5-10.5h-65.4
	c-4.3,0-7.7-3.5-7.7-7.7c13.8-7.6,22.8-22.9,21.3-40.1c-1.8-20.1-18.1-36.1-38.2-37.5c-24.3-1.7-44.5,17.4-44.5,41.3
	c0,17,10.3,31.7,25,38.1c0,3.3-2.7,6-6,6H89.1c-6.3,0-11.4,5.1-11.4,11.4v52.4h6.8c3.4,0,6.6-1.4,8.7-4c6.5-7.9,16.4-12.8,27.4-12.5
	c17.5,0.5,32,14.5,33,31.9c1.2,19.8-14.5,36.3-34,36.3c-12,0-22.6-6.2-28.7-15.6v0.4H77.6v62.5h114.8
	C183.4,253.8,178.2,236.7,178.2,218.5z"/>
</svg>
