<?xml version="1.0" encoding="utf-8"?>
<!-- Generator: Adobe Illustrator 26.0.3, SVG Export Plug-In . SVG Version: 6.00 Build 0)  -->
<svg version="1.1" xmlns="http://www.w3.org/2000/svg" xmlns:xlink="http://www.w3.org/1999/xlink" x="0px" y="0px"
	 viewBox="0 0 400 400" style="enable-background:new 0 0 400 400;" xml:space="preserve">
<style type="text/css">
	.st0{fill:#FFFFFF;stroke:#000000;stroke-width:20;stroke-linejoin:round;stroke-miterlimit:10;}
	.st1{fill:#FFFFFF;}
</style>
<g id="Layer_1">
	<path class="st0" d="M112.8,80"/>
	<path class="st0" d="M161.2,31"/>
	<circle class="st1" cx="145.2" cy="96.7" r="24.6"/>
</g>
<g id="Layer_2">
	<path class="st1" d="M188.2,207.4c0-46.6,37.8-84.6,84.8-86l-35.5-24.7l-82.2,71.8l-31.2-31.2l-36.3,36.3v61.4h105
		C189.8,226.4,188.2,217.1,188.2,207.4z"/>
	<path class="st1" d="M203.1,255.4H72V48h226.8v76.5c5.9,1.6,11.6,3.8,17,6.6V31H55v241.4h163.4
		C212.6,267.4,207.4,261.7,203.1,255.4z"/>
	<path class="st1" d="M275.6,147.2c33.8,0,61.4,27,61.4,60.3s-27.5,60.3-61.4,60.3c-33.8,0-61.4-27-61.4-60.3
		S241.8,147.2,275.6,147.2 M275.6,131.4c-42.7,0-77.4,34-77.4,76s34.6,76,77.4,76s77.4-34,77.4-76S318.4,131.4,275.6,131.4
		L275.6,131.4z"/>
	<g>
		<line class="st1" x1="275.6" y1="164.4" x2="275.6" y2="250.6"/>
		<rect x="267.6" y="164.4" class="st1" width="16" height="86.2"/>
	</g>
	<g>
		<line class="st1" x1="319" y1="207.4" x2="231.2" y2="207.4"/>
		<rect x="231.2" y="199.6" class="st1" width="87.8" height="15.8"/>
	</g>
</g>
</svg>
