<?xml version="1.0" encoding="utf-8"?>
<!-- Generator: Adobe Illustrator 26.0.3, SVG Export Plug-In . SVG Version: 6.00 Build 0)  -->
<svg version="1.1" id="Layer_1" xmlns="http://www.w3.org/2000/svg" xmlns:xlink="http://www.w3.org/1999/xlink" x="0px" y="0px"
	 viewBox="0 0 400 400" style="enable-background:new 0 0 400 400;" xml:space="preserve">
<style type="text/css">
	.st0{fill:#FFFFFF;}
	.st1{fill:#FFFFFF;stroke:#000000;stroke-width:20;stroke-linejoin:round;stroke-miterlimit:10;}
	.st2{stroke:#000000;stroke-width:20;stroke-linejoin:round;stroke-miterlimit:10;}
	.st3{fill:#E78F00;}
	.st4{fill:none;}
</style>
<path class="st0" d="M140.8,235.4v8.4h55.7c-5.3-11.1-8.2-23.4-8.2-36.4c0-14.6,3.7-28.3,10.2-40.3V80.6c0-6.3,4.6-9.5,13.9-9.5
	c27.5,0,42.3,14.9,44.6,44.8l7.6-1.1V56.3c-4.3,0.6-8.5,1-12.6,1.4c-4.1,0.4-8.1,0.6-12,0.6H132.1c-3.5,0-7.2-0.2-11.1-0.6
	c-3.8-0.4-7.9-0.8-12.2-1.4l-7.6,59.6l8.7,2.2c3.7-16,9.4-28,17.1-36c7.6-7.9,17.6-11.9,30-11.9c9.1,0,13.7,3.5,13.7,10.4v129
	C170.7,226.9,160.7,235.4,140.8,235.4z"/>
<path class="st0" d="M275.6,147.2c33.8,0,61.4,27,61.4,60.3s-27.5,60.3-61.4,60.3c-33.8,0-61.4-27-61.4-60.3
	S241.8,147.2,275.6,147.2 M275.6,131.4c-42.7,0-77.4,34-77.4,76s34.6,76,77.4,76s77.4-34,77.4-76S318.4,131.4,275.6,131.4
	L275.6,131.4z"/>
<g>
	<line class="st0" x1="275.6" y1="164.4" x2="275.6" y2="250.6"/>
	<rect x="267.6" y="164.4" class="st0" width="16" height="86.2"/>
</g>
<g>
	<line class="st0" x1="319" y1="207.4" x2="231.2" y2="207.4"/>
	<rect x="231.2" y="199.6" class="st0" width="87.8" height="15.8"/>
</g>
<path class="st1" d="M112.8,80"/>
<path class="st1" d="M161.2,31"/>
<path class="st1" d="M-339,129.6"/>
<path class="st2" d="M87.8,476"/>
<path class="st3" d="M-178.1,96.7L-178.1,96.7c12.5-6.9,20.6-20.7,19.2-36.3c-1.6-18.2-16.4-32.7-34.6-34
	c-22-1.6-40.3,15.8-40.3,37.4c0,15.4,9.3,28.7,22.6,34.4l0,0c0,3-2.4,5.4-5.4,5.4h-59.9c-5.7,0-10.4,4.6-10.4,10.4v47.4h6.1
	c3,0,6-1.3,7.9-3.7c5.8-7.1,14.8-11.6,24.8-11.3c15.8,0.5,28.9,13.1,29.9,28.9c1.1,18-13.1,32.9-30.8,32.9
	c-10.9,0-20.4-5.6-25.9-14.1v0.4h-12V251h174c5.7,0,10.4-4.6,10.4-10.4V113.2c0-5.2-4.2-9.5-9.5-9.5h-59.2
	C-174.9,103.7-178.1,100.6-178.1,96.7z"/>
<path class="st0" d="M275.6-196.3c33.8,0,61.4,27,61.4,60.3s-27.5,60.3-61.4,60.3c-33.8,0-61.4-27-61.4-60.3
	S241.8-196.3,275.6-196.3 M275.6-212.1c-42.7,0-77.4,34-77.4,76s34.6,76,77.4,76s77.4-34,77.4-76S318.4-212.1,275.6-212.1
	L275.6-212.1z"/>
<g>
	<line class="st4" x1="275.6" y1="-179.1" x2="275.6" y2="-92.9"/>
	<rect x="267.6" y="-179.1" class="st0" width="16" height="86.2"/>
</g>
<g>
	<line class="st4" x1="319" y1="-136.1" x2="231.2" y2="-136.1"/>
	<rect x="231.2" y="-143.9" class="st0" width="87.8" height="15.8"/>
</g>
<path class="st1" d="M118.8-263.5"/>
<path class="st1" d="M167.2-323.5"/>
<path class="st0" d="M178.2-136c0-52.9,43.7-96,97.4-96c1.9,0,3.8,0.1,5.7,0.2v-6.7c0-5.8-4.7-10.5-10.5-10.5h-65.4
	c-4.3,0-7.7-3.5-7.7-7.7c13.8-7.6,22.8-22.9,21.3-40.1c-1.8-20.1-18.1-36.1-38.2-37.5c-24.3-1.7-44.5,17.4-44.5,41.3
	c0,17,10.3,31.7,25,38.1c0,3.3-2.7,6-6,6H89.1c-6.3,0-11.4,5.1-11.4,11.4v52.4h6.8c3.4,0,6.6-1.4,8.7-4c6.5-7.9,16.4-12.8,27.4-12.5
	c17.5,0.5,32,14.5,33,31.9c1.2,19.8-14.5,36.3-34,36.3c-12,0-22.6-6.2-28.7-15.6v0.4H77.6v62.5h114.8
	C183.4-100.7,178.2-117.8,178.2-136z"/>
<polygon class="st0" points="98.5,29.7 50,29.7 50,77.2 64,77.2 64,43.7 98.5,43.7 "/>
<polygon class="st0" points="267.3,29.7 267.3,43.7 301.8,43.7 301.8,77.2 315.8,77.2 315.8,29.7 "/>
<polygon class="st0" points="98.5,257.5 64,257.5 64,224.1 50,224.1 50,271.5 98.5,271.5 "/>
<g>
	<path d="M547.3,264.4v-9.3c22,0,33-9.5,33-28.4V84.6c0-7.6-5-11.4-15.1-11.4c-13.6,0-24.6,4.4-33,13.1c-8.4,8.7-14.7,22-18.8,39.6
		l-9.6-2.5l8.3-65.7c4.7,0.6,9.2,1.1,13.4,1.5c4.2,0.4,8.3,0.6,12.2,0.6h118.8c4.3,0,8.7-0.2,13.3-0.6c4.5-0.4,9.1-0.9,13.9-1.5
		v64.5l-8.3,1.2c-2.5-32.9-18.8-49.4-49.1-49.4c-10.2,0-15.4,3.5-15.4,10.5v142.2c0,18.9,11.1,28.4,33.3,28.4v9.3H547.3z"/>
</g>
<g>
	<polygon points="501.3,40.7 452.8,40.7 452.8,88.2 466.8,88.2 466.8,54.7 501.3,54.7 	"/>
	<polygon points="691.1,40.7 691.1,54.7 725.6,54.7 725.6,88.2 739.6,88.2 739.6,40.7 	"/>
</g>
<g>
	<polygon points="501.3,268.5 466.8,268.5 466.8,235.1 452.8,235.1 452.8,282.5 501.3,282.5 	"/>
	<polygon points="725.6,235.1 725.6,268.5 691.1,268.5 691.1,282.5 739.6,282.5 739.6,235.1 	"/>
</g>
</svg>
