<?xml version="1.0" encoding="utf-8"?>
<!-- Generator: Adobe Illustrator 26.0.3, SVG Export Plug-In . SVG Version: 6.00 Build 0)  -->
<svg version="1.1" id="Layer_1" xmlns="http://www.w3.org/2000/svg" xmlns:xlink="http://www.w3.org/1999/xlink" x="0px" y="0px"
	 viewBox="0 0 36 24" style="enable-background:new 0 0 36 24;" xml:space="preserve">
<style type="text/css">
	.st0{fill:#FFFFFF;}
</style>
<path class="st0" d="M15,11.8c-0.7,0-1.2,0.6-1.2,1.2s0.6,1.2,1.2,1.2s1.2-0.6,1.2-1.2S15.6,11.8,15,11.8z M21,11.8
	c-0.7,0-1.2,0.6-1.2,1.2s0.6,1.2,1.2,1.2c0.7,0,1.2-0.6,1.2-1.2S21.6,11.8,21,11.8z M18,2C12.4,2,8,6.5,8,12s4.5,10,10,10
	s10-4.5,10-10S23.5,2,18,2z M18,20c-4.4,0-8-3.6-8-8c0-0.3,0-0.6,0.1-0.9c2.4-1.1,4.2-3,5.2-5.4C17,8.3,20,10,23.4,10
	c0.8,0,1.5-0.1,2.2-0.3c0.2,0.7,0.3,1.5,0.3,2.3C26,16.4,22.4,20,18,20z"/>
</svg>
