<?xml version="1.0" encoding="utf-8"?>
<!-- Generator: Adobe Illustrator 26.0.3, SVG Export Plug-In . SVG Version: 6.00 Build 0)  -->
<svg version="1.1" xmlns="http://www.w3.org/2000/svg" xmlns:xlink="http://www.w3.org/1999/xlink" x="0px" y="0px"
	 viewBox="0 0 36 24" style="enable-background:new 0 0 36 24;" xml:space="preserve">
<style type="text/css">
	.st0{fill:#FFFFFF;}
</style>
<g id="Layer_1">
</g>
<g id="Layer_2">
	<path class="st0" d="M32.6,15.9h-9.2c-1.3,0-2.4-1.1-2.4-2.4V4.3c0-1.3,1.1-2.4,2.4-2.4h9.2c1.2,0,2.3,1,2.4,2.3l0,9.3
		C35,14.8,33.9,15.9,32.6,15.9z M23.3,3.5c-0.4,0-0.8,0.3-0.8,0.8v9.2c0,0.4,0.3,0.8,0.8,0.8h9.2c0.4,0,0.8-0.3,0.8-0.8V4.3
		c0-0.3-0.3-0.8-0.8-0.8H23.3z"/>
	<rect x="17" y="11.4" class="st0" width="1" height="2"/>
	<path class="st0" d="M17,17.4h1.2c-0.1-0.3-0.2-0.6-0.2-1v-1h-1V17.4z"/>
	<rect x="13" y="15.4" class="st0" width="2" height="2"/>
	<rect x="13" y="11.4" class="st0" width="2" height="2"/>
	<path class="st0" d="M20.4,6.5H19v9.9c0,0.8,0.6,1.4,1.4,1.4h9.9v-1.4h-9.9V6.5z"/>
	<path class="st0" d="M26.5,8.8c-0.4,0-0.6,0.3-0.6,0.6c0,0.4,0.3,0.6,0.6,0.6c0.4,0,0.6-0.3,0.6-0.6C27.1,9,26.8,8.8,26.5,8.8z
		 M29.5,8.8c-0.4,0-0.6,0.3-0.6,0.6c0,0.4,0.3,0.6,0.6,0.6c0.4,0,0.6-0.3,0.6-0.6C30.1,9,29.8,8.8,29.5,8.8z M28,3.9
		c-2.7,0-4.9,2.2-4.9,4.9s2.2,5,4.9,5s4.9-2.2,4.9-4.9S30.7,3.9,28,3.9z M28,12.8c-2.1,0-3.9-1.8-3.9-3.9c0-0.2,0-0.3,0-0.4
		c1.1-0.5,2.1-1.5,2.5-2.6c0.9,1.3,2.4,2.1,3.9,2.1c0.4,0,0.8-0.1,1.1-0.2c0.1,0.4,0.2,0.7,0.2,1.1C31.9,11,30.2,12.8,28,12.8z"/>
	<path class="st0" d="M25,19.4H11v-10h7v-2h-7v-2h8.9V4.3c0-0.3,0-0.6,0.1-0.9H14v-2h-2v2h-1c-1.1,0-2,0.9-2,2v14c0,1.1,0.9,2,2,2
		h14c1.1,0,2-0.9,2-2v-0.6h-2V19.4z"/>
</g>
</svg>
