<?xml version="1.0" encoding="utf-8"?>
<!-- Generator: Adobe Illustrator 26.0.3, SVG Export Plug-In . SVG Version: 6.00 Build 0)  -->
<svg version="1.1" xmlns="http://www.w3.org/2000/svg" xmlns:xlink="http://www.w3.org/1999/xlink" x="0px" y="0px"
	 viewBox="0 0 36 24" style="enable-background:new 0 0 36 24;" xml:space="preserve">
<style type="text/css">
	.st0{fill:#FFFFFF;}
</style>
<g id="Layer_1">
</g>
<g id="Layer_2">
	<path class="st0" d="M23.9,10.4c-0.5,0-0.9,0.4-0.9,0.9c0,0.5,0.4,0.9,0.9,0.9c0.5,0,0.9-0.4,0.9-0.9
		C24.8,10.7,24.4,10.4,23.9,10.4z"/>
	<path class="st0" d="M18.3,13.8c0-0.2-0.1-0.4-0.4-0.5V4.9h-0.4v8.3c-0.3,0.1-0.4,0.3-0.4,0.6c0,0.2,0.1,0.4,0.2,0.4l-0.5,1.9h1.8
		L18,14.2C18.1,14.2,18.3,14,18.3,13.8z"/>
	<path class="st0" d="M28.4,10.4c-0.5,0-0.9,0.4-0.9,0.9c0,0.5,0.4,0.9,0.9,0.9c0.5,0,0.9-0.4,0.9-0.9
		C29.3,10.7,28.8,10.4,28.4,10.4z"/>
	<path class="st0" d="M32,6.1l-0.3-2.9l2-0.2l-0.1-1L17,3.8l0.1,1L19,4.6l0.3,2.9l0,0c-0.4,1-0.6,1.9-0.6,3c0,4.1,3.3,7.4,7.4,7.4
		s7.4-3.3,7.4-7.4C33.5,8.9,32.9,7.3,32,6.1L32,6.1z M26.2,16.5c-3.1,0-5.7-2.5-5.9-5.6c1.3-0.8,2-2.2,1.9-3.7l8.2-0.9l0,0
		c0,0.1-0.1,0.1-0.1,0.3c-0.4,1.8,0.4,3.5,1.9,4.4C31.8,14,29.2,16.5,26.2,16.5z"/>
	<polygon class="st0" points="19.1,2.6 19.1,1.7 17.1,1.7 17.1,2.8 	"/>
	<path class="st0" d="M16.1,13.4c0.1-0.3,0.2-0.6,0.4-0.8v-1h-0.4V13.4z"/>
	<path class="st0" d="M20.1,16.5v3.2h-14v-10h10.4v-2H6.1v-2h10l-0.2-2H9.1v-2h-2v2h-1c-1.1,0-2,0.9-2,2v14c0,1.1,0.9,2,2,2h14
		c1.1,0,2-0.9,2-2V18C21.4,17.6,20.7,17.1,20.1,16.5z"/>
	<rect x="16.1" y="17.1" class="st0" width="2" height="0.6"/>
	<rect x="12.1" y="11.7" class="st0" width="2" height="2"/>
	<rect x="8.1" y="15.7" class="st0" width="2" height="2"/>
	<rect x="8.1" y="11.7" class="st0" width="2" height="2"/>
	<rect x="12.1" y="15.7" class="st0" width="2" height="2"/>
</g>
</svg>
