<?xml version="1.0" encoding="utf-8"?>
<!-- Generator: Adobe Illustrator 26.0.3, SVG Export Plug-In . SVG Version: 6.00 Build 0)  -->
<svg version="1.1" id="Layer_1" xmlns="http://www.w3.org/2000/svg" xmlns:xlink="http://www.w3.org/1999/xlink" x="0px" y="0px"
	 viewBox="0 0 400 400" style="enable-background:new 0 0 400 400;" xml:space="preserve">
<style type="text/css">
	.st0{fill:#FFFFFF;}
	.st1{fill:#FC9322;stroke:#000000;stroke-width:20;stroke-linejoin:round;stroke-miterlimit:10;}
	.st2{fill:#FC9322;}
	.st3{fill:#FFFFFF;stroke:#000000;stroke-width:20;stroke-linejoin:round;stroke-miterlimit:10;}
	.st4{fill:none;stroke:#FC9322;stroke-width:15;stroke-miterlimit:10;}
</style>
<path class="st0" d="M-348,102v241.4h260.8V102H-348z M-103.1,326.5h-228.1V118.9h228.1C-103.1,118.9-103.1,326.5-103.1,326.5z"/>
<g id="Layer_1_00000114783152641938966560000013148462418804126633_">
	<path class="st1" d="M111.8,151"/>
	<path class="st1" d="M160.2,102"/>
	<circle class="st2" cx="144.2" cy="167.7" r="24.6"/>
</g>
<path class="st2" d="M187.2,278.4c0-46.6,37.8-84.6,84.8-86l-35.5-24.7l-82.2,71.8l-31.2-31.2l-36.3,36.3V306h105
	C188.8,297.4,187.2,288.1,187.2,278.4z"/>
<path class="st2" d="M202.1,326.4H71V119h226.8v76.5c5.9,1.6,11.6,3.8,17,6.6V102H54v241.4h163.4
	C211.6,338.4,206.4,332.7,202.1,326.4z"/>
<path class="st2" d="M274.6,218.2c33.8,0,61.4,27,61.4,60.3s-27.5,60.3-61.4,60.3c-33.8,0-61.4-27-61.4-60.3
	S240.8,218.2,274.6,218.2 M274.6,202.4c-42.7,0-77.4,34-77.4,76s34.6,76,77.4,76s77.4-34,77.4-76S317.4,202.4,274.6,202.4
	L274.6,202.4z"/>
<g>
	<line class="st2" x1="274.6" y1="235.4" x2="274.6" y2="321.6"/>
	<rect x="266.6" y="235.4" class="st2" width="16" height="86.2"/>
</g>
<g id="Layer_1_00000165208300123362163180000016449205101247973532_">
	<path class="st3" d="M-290.2,151"/>
	<path class="st3" d="M-241.8,102"/>
	<circle class="st0" cx="-257.8" cy="167.7" r="24.6"/>
</g>
<polygon class="st0" points="-165.5,167.7 -247.7,239.5 -278.9,208.3 -315.2,244.6 -315.2,306 -225.1,306 -210.2,306 -117.8,306 
	-117.8,200 "/>
<polyline class="st4" points="246.5,263.5 274.6,235.4 304.4,265.1 "/>
</svg>
