<?xml version="1.0" encoding="utf-8"?>
<!-- Generator: Adobe Illustrator 26.0.3, SVG Export Plug-In . SVG Version: 6.00 Build 0)  -->
<svg version="1.1" id="Layer_1" xmlns="http://www.w3.org/2000/svg" xmlns:xlink="http://www.w3.org/1999/xlink" x="0px" y="0px"
	 viewBox="0 0 36 24" style="enable-background:new 0 0 36 24;" xml:space="preserve">
<style type="text/css">
	.st0{fill:#FFFFFF;}
</style>
<path class="st0" d="M19.9,19.6H8.2c-1.7,0-3-1.4-3-3V4.9c0-1.7,1.4-3,3-3h11.7c1.6,0,2.9,1.3,3,3l0,11.8
	C23,18.3,21.6,19.6,19.9,19.6z M8.2,3.9c-0.5,0-1,0.4-1,1v11.7c0,0.5,0.4,1,1,1h11.7c0.5,0,1-0.4,1-1V4.9c0-0.4-0.4-1-1-1H8.2z"/>
<path class="st0" d="M4.5,7.7H2.7v12.6c0,1,0.8,1.8,1.8,1.8h12.6v-1.8H4.5V7.7z"/>
<path class="st0" d="M12.2,10.6c-0.5,0-0.8,0.4-0.8,0.8c0,0.5,0.4,0.8,0.8,0.8c0.5,0,0.8-0.4,0.8-0.8C13,10.9,12.6,10.6,12.2,10.6z
	 M16,10.6c-0.5,0-0.8,0.4-0.8,0.8c0,0.5,0.4,0.8,0.8,0.8c0.5,0,0.8-0.4,0.8-0.8C16.7,10.9,16.4,10.6,16,10.6z M14.1,4.5
	c-3.4,0-6.2,2.8-6.2,6.2s2.8,6.3,6.2,6.3s6.2-2.8,6.2-6.2S17.5,4.5,14.1,4.5z M14.1,15.7c-2.7,0-5-2.3-5-5c0-0.2,0-0.4,0-0.5
	c1.4-0.6,2.6-1.9,3.2-3.3c1.1,1.6,3,2.6,5,2.6c0.5,0,1-0.1,1.4-0.2c0.1,0.5,0.2,0.9,0.2,1.4C19,13.4,16.9,15.7,14.1,15.7z"/>
<path class="st0" d="M34.1,24.8l-4.6,4.6l-4.6-4.6l-1.4,1.4l6,6l6-6L34.1,24.8z"/>
<circle class="st0" cx="27.5" cy="12" r="1.3"/>
<circle class="st0" cx="31.1" cy="12" r="1.3"/>
<circle class="st0" cx="34.7" cy="12" r="1.3"/>
</svg>
