<?xml version="1.0" encoding="utf-8"?>
<!-- Generator: Adobe Illustrator 26.0.3, SVG Export Plug-In . SVG Version: 6.00 Build 0)  -->
<svg version="1.1" id="Layer_1" xmlns="http://www.w3.org/2000/svg" xmlns:xlink="http://www.w3.org/1999/xlink" x="0px" y="0px"
	 viewBox="0 0 36 24" style="enable-background:new 0 0 36 24;" xml:space="preserve">
<style type="text/css">
	.st0{fill:#FFFFFF;}
</style>
<rect x="25.6" y="16" class="st0" width="8.8" height="2"/>
<polygon class="st0" points="34.4,11 25.6,11 25.6,11.2 25.6,11.2 25.6,11.2 25.6,13 34.4,13 "/>
<rect x="25.6" y="6" class="st0" width="8.8" height="2"/>
<path class="st0" d="M19.8,19.6H8.1c-1.7,0-3-1.4-3-3V4.9c0-1.7,1.4-3,3-3h11.7c1.6,0,2.9,1.3,3,3l0,11.8
	C22.8,18.3,21.5,19.6,19.8,19.6z M8.1,3.9c-0.5,0-1,0.4-1,1v11.7c0,0.5,0.4,1,1,1h11.7c0.5,0,1-0.4,1-1V4.9c0-0.4-0.4-1-1-1H8.1z"/>
<path class="st0" d="M4.4,7.7H2.6v12.6c0,1,0.8,1.8,1.8,1.8H17v-1.8H4.4V7.7z"/>
<path class="st0" d="M12.1,10.6c-0.5,0-0.8,0.4-0.8,0.8c0,0.5,0.4,0.8,0.8,0.8c0.5,0,0.8-0.4,0.8-0.8C12.9,10.9,12.5,10.6,12.1,10.6
	z M15.9,10.6c-0.5,0-0.8,0.4-0.8,0.8c0,0.5,0.4,0.8,0.8,0.8c0.5,0,0.8-0.4,0.8-0.8C16.6,10.9,16.3,10.6,15.9,10.6z M14,4.5
	c-3.4,0-6.2,2.8-6.2,6.2S10.6,17,14,17s6.2-2.8,6.2-6.2S17.4,4.5,14,4.5z M14,15.7c-2.7,0-5-2.3-5-5c0-0.2,0-0.4,0-0.5
	c1.4-0.6,2.6-1.9,3.2-3.3c1.1,1.6,3,2.6,5,2.6c0.5,0,1-0.1,1.4-0.2c0.1,0.5,0.2,0.9,0.2,1.4C18.9,13.4,16.8,15.7,14,15.7z"/>
</svg>
