<?xml version="1.0" encoding="utf-8"?>
<!-- Generator: Adobe Illustrator 26.0.3, SVG Export Plug-In . SVG Version: 6.00 Build 0)  -->
<svg version="1.1" id="Layer_1" xmlns="http://www.w3.org/2000/svg" xmlns:xlink="http://www.w3.org/1999/xlink" x="0px" y="0px"
	 viewBox="0 0 36 24" style="enable-background:new 0 0 36 24;" xml:space="preserve">
<style type="text/css">
	.st0{fill:#FFFFFF;}
</style>
<g>
	<circle class="st0" cx="9.7" cy="12" r="1.2"/>
	<circle class="st0" cx="15.7" cy="12" r="1.2"/>
</g>
<g>
	<path class="st0" d="M2.7,12c0,0.4,0,0.8,0.1,1.1c3.3-1.6,5.5-5,5.5-8.9c0-0.4,0-0.8-0.1-1.1C4.9,4.7,2.7,8.1,2.7,12z"/>
</g>
<g>
	<path class="st0" d="M12.7,15.8c0,0-1-0.7-2.1-0.4s-1.3,1-2.1,1.3C8.1,17,9.3,18.1,12.7,15.8z"/>
	<path class="st0" d="M16.8,16.7c-0.7-0.3-1-1-2.1-1.3s-2.1,0.4-2.1,0.4C16.1,18.1,17.3,17,16.8,16.7z"/>
</g>
<g>
	<path class="st0" d="M19.2,10.3c0.1-0.3,0.3-0.5,0.5-0.6l0.9-0.7c0-0.1,0-0.1,0-0.2c0-0.1,0-0.1,0-0.2l-1-0.8l0,0
		c-0.7-0.7-0.4-1.4-0.3-1.6L19.8,5c-0.8-0.8-1.7-1.5-2.7-2c0,0.4-0.1,0.8-0.1,1.1C17.1,6.5,17.9,8.6,19.2,10.3
		C19.2,10.3,19.2,10.3,19.2,10.3z"/>
</g>
<path class="st0" d="M22.3,14.3c-0.1,0.1-0.3,0.1-0.5,0.1c-0.5,0-1-0.3-1.2-0.7l-0.1-0.2c-0.7,3.7-4,6.5-7.9,6.5c-4.4,0-8-3.6-8-8
	s3.6-8,8-8c3.5,0,6.4,2.2,7.5,5.3l0.4-0.3c0-0.1,0-0.1,0-0.2c0-0.1,0-0.1,0-0.2l-1-0.8l0,0c-0.7-0.7-0.4-1.4-0.3-1.6L19.8,5
	c-1.8-1.9-4.4-3-7.2-3c-5.5,0-10,4.5-10,10s4.5,10,10,10C17.4,22,21.4,18.7,22.3,14.3L22.3,14.3z"/>
<path class="st0" d="M31.6,9.4c0-0.2,0.1-0.4,0.1-0.6s0-0.4-0.1-0.6L33,7c0.1-0.1,0.1-0.3,0.1-0.4l-1.3-2.3
	c-0.1-0.1-0.3-0.2-0.4-0.1l-1.7,0.7c-0.4-0.3-0.7-0.5-1.1-0.6l-0.3-1.9C28.3,2.1,28.2,2,28,2h-2.7C25.2,2,25,2.1,25,2.3l-0.2,1.8
	c-0.4,0.1-0.8,0.4-1.2,0.6L21.9,4c-0.1-0.1-0.4,0-0.4,0.1l-1.3,2.4c-0.1,0.1,0,0.3,0.1,0.4l1.4,1.1c0,0.2-0.1,0.4-0.1,0.6
	s0,0.4,0.1,0.6l-1.4,1.1c-0.1,0.1-0.1,0.3-0.1,0.4l1.3,2.3c0.1,0.1,0.3,0.2,0.4,0.1l1.7-0.7c0.4,0.3,0.7,0.5,1.1,0.6L25,15
	c0.1,0.1,0.1,0.3,0.4,0.3h2.7c0.1,0,0.3-0.1,0.4-0.3l0.3-1.8c0.4-0.1,0.8-0.4,1.1-0.6l1.7,0.7c0.1,0.1,0.4,0,0.4-0.1l1.3-2.3
	c0.1-0.1,0.1-0.4-0.1-0.4L31.6,9.4z M26.7,11.3c-1.4,0-2.5-1.1-2.5-2.5s1.1-2.5,2.5-2.5c1.4,0,2.5,1.1,2.5,2.5S28.1,11.3,26.7,11.3z
	"/>
</svg>
