<?xml version="1.0" encoding="utf-8"?>
<!-- Generator: Adobe Illustrator 26.0.3, SVG Export Plug-In . SVG Version: 6.00 Build 0)  -->
<svg version="1.1" id="Layer_1" xmlns="http://www.w3.org/2000/svg" xmlns:xlink="http://www.w3.org/1999/xlink" x="0px" y="0px"
	 viewBox="0 0 36 24" style="enable-background:new 0 0 36 24;" xml:space="preserve">
<style type="text/css">
	.st0{fill:#FFFFFF;}
</style>
<path class="st0" d="M34.1,24.8l-4.6,4.6l-4.6-4.6l-1.4,1.4l6,6l6-6L34.1,24.8z"/>
<circle class="st0" cx="27.5" cy="12" r="1.3"/>
<circle class="st0" cx="31.1" cy="12" r="1.3"/>
<circle class="st0" cx="34.7" cy="12" r="1.3"/>
<g>
	<circle class="st0" cx="9.7" cy="12" r="1.2"/>
	<circle class="st0" cx="15.7" cy="12" r="1.2"/>
</g>
<path class="st0" d="M12.7,4c4.4,0,8,3.6,8,8s-3.6,8-8,8s-8-3.6-8-8S8.3,4,12.7,4 M12.7,2c-5.5,0-10,4.5-10,10s4.5,10,10,10
	s10-4.5,10-10S18.2,2,12.7,2L12.7,2z"/>
<g>
	<path class="st0" d="M2.7,12c0,0.4,0,0.8,0.1,1.1c3.3-1.6,5.5-5,5.5-8.9c0-0.4,0-0.8-0.1-1.1C4.9,4.7,2.7,8.1,2.7,12z"/>
</g>
<g>
	<path class="st0" d="M17.1,3.1c0,0.4-0.1,0.8-0.1,1.1c0,3.9,2.3,7.3,5.5,8.9c0-0.4,0.1-0.8,0.1-1.1C22.7,8.1,20.4,4.7,17.1,3.1z"/>
</g>
<g>
	<path class="st0" d="M12.7,15.8c0,0-1-0.7-2.1-0.4s-1.3,1-2.1,1.3C8.1,17,9.3,18.1,12.7,15.8z"/>
	<path class="st0" d="M16.8,16.7c-0.7-0.3-1-1-2.1-1.3s-2.1,0.4-2.1,0.4C16.1,18.1,17.3,17,16.8,16.7z"/>
</g>
</svg>
