<?xml version="1.0" encoding="utf-8"?>
<!-- Generator: Adobe Illustrator 26.0.3, SVG Export Plug-In . SVG Version: 6.00 Build 0)  -->
<svg version="1.1" id="Layer_1" xmlns="http://www.w3.org/2000/svg" xmlns:xlink="http://www.w3.org/1999/xlink" x="0px" y="0px"
	 viewBox="0 0 36 24" style="enable-background:new 0 0 36 24;" xml:space="preserve">
<style type="text/css">
	.st0{fill:#FFFFFF;}
</style>
<circle class="st0" cx="27.5" cy="12" r="1.3"/>
<circle class="st0" cx="31.1" cy="12" r="1.3"/>
<circle class="st0" cx="34.7" cy="12" r="1.3"/>
<g>
	<path class="st0" d="M11.8,12.5c-0.7,0-1.1,0.5-1.1,1.1c0,0.7,0.5,1.1,1.1,1.1c0.7,0,1.1-0.5,1.1-1.1C12.9,13,12.3,12.5,11.8,12.5z
		"/>
	<path class="st0" d="M4.6,16.8c0-0.3-0.2-0.6-0.5-0.7V5.6H3.7v10.5c-0.4,0.1-0.6,0.4-0.6,0.8c0,0.3,0.1,0.5,0.3,0.6l-0.7,2.4H5
		l-0.8-2.4C4.4,17.3,4.6,17.1,4.6,16.8z"/>
	<path class="st0" d="M17.4,12.5c-0.7,0-1.1,0.5-1.1,1.1c0,0.7,0.5,1.1,1.1,1.1c0.7,0,1.1-0.5,1.1-1.1C18.6,13,18,12.5,17.4,12.5z"
		/>
	<path class="st0" d="M22,7.1l-0.4-3.7l2.5-0.3L24.1,2L3,4.2l0.1,1.2l2.4-0.3l0.4,3.7l0,0c-0.5,1.2-0.8,2.4-0.8,3.9
		c0,5.2,4.2,9.4,9.4,9.4s9.4-4.2,9.4-9.4C23.9,10.6,23.2,8.6,22,7.1L22,7.1z M14.6,20.2c-4,0-7.3-3.1-7.5-7.1c1.6-1,2.5-2.7,2.4-4.7
		l10.4-1.1l0,0c0,0.1-0.1,0.2-0.1,0.4c-0.5,2.3,0.6,4.4,2.4,5.6C21.8,17.1,18.5,20.2,14.6,20.2z"/>
</g>
</svg>
