<?xml version="1.0" encoding="utf-8"?>
<!-- Generator: Adobe Illustrator 26.0.3, SVG Export Plug-In . SVG Version: 6.00 Build 0)  -->
<svg version="1.1" id="Layer_1" xmlns="http://www.w3.org/2000/svg" xmlns:xlink="http://www.w3.org/1999/xlink" x="0px" y="0px"
	 viewBox="0 0 36 24" style="enable-background:new 0 0 36 24;" xml:space="preserve">
<style type="text/css">
	.st0{fill:#FFFFFF;}
</style>
<path class="st0" d="M11.8,12.5c-0.7,0-1.1,0.5-1.1,1.1c0,0.7,0.5,1.1,1.1,1.1c0.7,0,1.1-0.5,1.1-1.1C12.9,13,12.3,12.5,11.8,12.5z"
	/>
<path class="st0" d="M4.6,16.8c0-0.3-0.2-0.6-0.5-0.7V5.6H3.7v10.5c-0.4,0.1-0.6,0.4-0.6,0.8c0,0.3,0.1,0.5,0.3,0.6l-0.7,2.4H5
	l-0.8-2.4C4.4,17.3,4.6,17.1,4.6,16.8z"/>
<path class="st0" d="M17.4,12.5c-0.7,0-1.1,0.5-1.1,1.1c0,0.7,0.5,1.1,1.1,1.1c0.7,0,1.1-0.5,1.1-1.1C18.6,13,18,12.5,17.4,12.5z"/>
<g>
	<path class="st0" d="M23.5,13.8l-1.2,0.5c-0.1,0-0.2,0.1-0.3,0.1c-0.8,3.3-3.9,5.8-7.4,5.8c-4,0-7.3-3.1-7.5-7.1
		c1.6-1,2.5-2.7,2.4-4.7l9.8-1c-0.3-0.6-0.2-1.1-0.1-1.2l1.4-2.4C20.8,3.3,21.3,3,21.8,3c0.2,0,0.4,0,0.6,0.1l0.3,0.1l1.2-0.1L24,2
		L3,4.2l0.1,1.2l2.4-0.3l0.4,3.7c-0.5,1.2-0.8,2.4-0.8,3.9c0,5.2,4.2,9.4,9.4,9.4c4.8,0,8.7-3.5,9.3-8.1
		C23.7,13.9,23.6,13.9,23.5,13.8z"/>
	<path class="st0" d="M19.8,7.9c-0.1,0.6-0.1,1.2,0,1.8l0.8-0.7c0-0.1,0-0.1,0-0.2c0-0.1,0-0.1,0-0.2L19.8,7.9z"/>
</g>
<path class="st0" d="M31.6,9.4c0-0.2,0.1-0.4,0.1-0.6s0-0.4-0.1-0.6L33,7c0.1-0.1,0.1-0.3,0.1-0.4l-1.3-2.3
	c-0.1-0.1-0.3-0.2-0.4-0.1l-1.7,0.7c-0.4-0.3-0.7-0.5-1.1-0.6l-0.3-1.9C28.3,2.1,28.2,2,28,2h-2.7C25.2,2,25,2.1,25,2.3l-0.2,1.8
	c-0.4,0.1-0.8,0.4-1.2,0.6L21.9,4c-0.1-0.1-0.4,0-0.4,0.1l-1.3,2.4c-0.1,0.1,0,0.3,0.1,0.4l1.4,1.1c0,0.2-0.1,0.4-0.1,0.6
	s0,0.4,0.1,0.6l-1.4,1.1c-0.1,0.1-0.1,0.3-0.1,0.4l1.3,2.3c0.1,0.1,0.3,0.2,0.4,0.1l1.7-0.7c0.4,0.3,0.7,0.5,1.1,0.6L25,15
	c0.1,0.1,0.1,0.3,0.4,0.3h2.7c0.1,0,0.3-0.1,0.4-0.3l0.3-1.8c0.4-0.1,0.8-0.4,1.1-0.6l1.7,0.7c0.1,0.1,0.4,0,0.4-0.1l1.3-2.3
	c0.1-0.1,0.1-0.4-0.1-0.4L31.6,9.4z M26.7,11.3c-1.4,0-2.5-1.1-2.5-2.5s1.1-2.5,2.5-2.5c1.4,0,2.5,1.1,2.5,2.5S28.1,11.3,26.7,11.3z
	"/>
</svg>
