<?xml version="1.0" encoding="utf-8"?>
<!-- Generator: Adobe Illustrator 26.0.3, SVG Export Plug-In . SVG Version: 6.00 Build 0)  -->
<svg version="1.1" id="Layer_1" xmlns="http://www.w3.org/2000/svg" xmlns:xlink="http://www.w3.org/1999/xlink" x="0px" y="0px"
	 viewBox="0 0 400 400" style="enable-background:new 0 0 400 400;" xml:space="preserve">
<style type="text/css">
	.st0{fill:none;stroke:#FFFFFF;stroke-width:12;stroke-miterlimit:10;}
	.st1{fill:#FFFFFF;}
</style>
<line class="st0" x1="507.2" y1="76" x2="507.2" y2="350"/>
<line class="st0" x1="583.7" y1="76" x2="583.7" y2="350"/>
<line class="st0" x1="660.3" y1="76" x2="660.3" y2="350"/>
<line class="st0" x1="736.8" y1="76" x2="736.8" y2="350"/>
<line class="st0" x1="485" y1="327.8" x2="759" y2="327.8"/>
<line class="st0" x1="485" y1="251.3" x2="759" y2="251.3"/>
<line class="st0" x1="485" y1="174.7" x2="759" y2="174.7"/>
<line class="st0" x1="485" y1="98.2" x2="759" y2="98.2"/>
<polygon class="st1" points="26,294.5 346,76.8 364.2,104.5 44.2,322.2 "/>
<g>
	<path class="st1" d="M78.2,297.2l12-8.2v-31.7h46.6l17.6-12H90.2v-64.6h64.5v64.4l12-8.2v-56.2h64.6V193l12-8.2v-4.1h6.1l17.6-12
		h-23.7v-64.5h64.5V141l12-8.2v-28.6H336v-12h-16.2V76h-12v16.2h-64.5V76h-12v16.2h-64.6V76h-12v16.2H90.2V76h-12v16.2H62v12h16.2
		v64.5H62v12h16.2v64.6H62v12h16.2V297.2z M166.7,104.2h64.6v64.5h-64.6V104.2z M90.2,104.2h64.5v64.5H90.2V104.2z"/>
	<path class="st1" d="M307.8,181v64.3h-64.5v-20.4l-12,8.2v12.2h-18l-17.6,12h35.6v64.5h-64.6V277l-12,8.2v36.6h-53.8l-22.7,15.4
		V350h12v-16.2h64.5V350h12v-16.2h64.6V350h12v-16.2h64.5V350h12v-16.2H336v-12h-16.2v-64.5H336v-12h-16.2v-64.6H336v-12h-10.1
		L307.8,181z M307.8,321.8h-64.5v-64.5h64.5V321.8z"/>
</g>
</svg>
