<?xml version="1.0" encoding="utf-8"?>
<!-- Generator: Adobe Illustrator 26.0.3, SVG Export Plug-In . SVG Version: 6.00 Build 0)  -->
<svg version="1.1" id="Layer_1" xmlns="http://www.w3.org/2000/svg" xmlns:xlink="http://www.w3.org/1999/xlink" x="0px" y="0px"
	 viewBox="0 0 400 400" style="enable-background:new 0 0 400 400;" xml:space="preserve">
<style type="text/css">
	.st0{fill:#FFFFFF;}
	.st1{fill:none;stroke:#FFFFFF;stroke-width:12;stroke-miterlimit:10;}
</style>
<rect x="78.2" y="76" class="st0" width="12" height="274"/>
<rect x="154.7" y="76" class="st0" width="12" height="274"/>
<rect x="231.3" y="76" class="st0" width="12" height="274"/>
<rect x="307.8" y="76" class="st0" width="12" height="274"/>
<rect x="62" y="321.8" class="st0" width="274" height="12"/>
<rect x="62" y="245.3" class="st0" width="274" height="12"/>
<rect x="62" y="168.7" class="st0" width="274" height="12"/>
<rect x="62" y="92.2" class="st0" width="274" height="12"/>
<line class="st1" x1="507.2" y1="76" x2="507.2" y2="350"/>
<line class="st1" x1="583.7" y1="76" x2="583.7" y2="350"/>
<line class="st1" x1="660.3" y1="76" x2="660.3" y2="350"/>
<line class="st1" x1="736.8" y1="76" x2="736.8" y2="350"/>
<line class="st1" x1="485" y1="327.8" x2="759" y2="327.8"/>
<line class="st1" x1="485" y1="251.3" x2="759" y2="251.3"/>
<line class="st1" x1="485" y1="174.7" x2="759" y2="174.7"/>
<line class="st1" x1="485" y1="98.2" x2="759" y2="98.2"/>
</svg>
