<?xml version="1.0" encoding="utf-8"?>
<!-- Generator: Adobe Illustrator 26.0.3, SVG Export Plug-In . SVG Version: 6.00 Build 0)  -->
<svg version="1.1" id="Layer_1" xmlns="http://www.w3.org/2000/svg" xmlns:xlink="http://www.w3.org/1999/xlink" x="0px" y="0px"
	 viewBox="0 0 36 24" style="enable-background:new 0 0 36 24;" xml:space="preserve">
<style type="text/css">
	.st0{fill:#FFFFFF;}
</style>
<g>
	<path class="st0" d="M23.9,20.6H12.2c-1.7,0-3-1.4-3-3V5.9c0-1.7,1.4-3,3-3h11.6c1.7,0,3,1.2,3.1,3l0,11.8
		C27,19.3,25.6,20.6,23.9,20.6z M12.2,4.9c-0.5,0-1,0.4-1,1v11.7c0,0.5,0.4,1,1,1h11.7c0.5,0,1-0.4,1-1V5.9c0-0.4-0.3-1-1.1-1H12.2z
		"/>
	<path class="st0" d="M16.2,11.6c-0.5,0-0.8,0.4-0.8,0.8c0,0.5,0.4,0.8,0.8,0.8c0.5,0,0.8-0.4,0.8-0.8C17,11.9,16.5,11.6,16.2,11.6z
		 M20,11.6c-0.5,0-0.8,0.4-0.8,0.8c0,0.5,0.4,0.8,0.8,0.8c0.5,0,0.8-0.4,0.8-0.8C20.7,11.9,20.3,11.6,20,11.6z M18,5.5
		c-3.4,0-6.2,2.8-6.2,6.2S14.7,18,18,18s6.2-2.8,6.2-6.2S21.5,5.5,18,5.5z M18,16.7c-2.7,0-5-2.3-5-5c0-0.2,0-0.4,0-0.5
		c1.4-0.6,2.6-1.9,3.2-3.3c1.1,1.6,3,2.6,5,2.6c0.5,0,1-0.1,1.4-0.2c0.1,0.5,0.2,0.9,0.2,1.4C23,14.4,20.8,16.7,18,16.7z"/>
</g>
</svg>
