<?xml version="1.0" encoding="utf-8"?>
<!-- Generator: Adobe Illustrator 26.0.3, SVG Export Plug-In . SVG Version: 6.00 Build 0)  -->
<svg version="1.1" id="Layer_1" xmlns="http://www.w3.org/2000/svg" xmlns:xlink="http://www.w3.org/1999/xlink" x="0px" y="0px"
	 viewBox="0 0 400 400" style="enable-background:new 0 0 400 400;" xml:space="preserve">
<style type="text/css">
	.st0{fill:none;stroke:#000000;stroke-width:60;stroke-miterlimit:10;}
	.st1{fill:#FFFFFF;}
</style>
<path class="st0" d="M493.7,101.2c0,0,0,56.7,0,123.1s30.9,97.6,97.6,97.6"/>
<path class="st0" d="M679.4,101.2c0,0,0,56.7,0,123.1s-30.9,97.6-97.6,97.6"/>
<g>
	<path class="st1" d="M267.6,225.9c0,49.9-17.7,67.6-67.6,67.6s-67.6-17.7-67.6-67.6v-66.8h-60v66.8c0,41.9,10.7,73,32.6,94.9
		c21.9,22,53,32.7,95,32.7c42,0,73-10.7,95-32.7c21.9-21.9,32.6-53,32.6-94.9v-66.8h-60V225.9z"/>
	<rect x="72.4" y="102.8" class="st1" width="60" height="37.7"/>
	<rect x="267.6" y="102.8" class="st1" width="60" height="37.7"/>
</g>
<polyline class="st1" points="118.1,22.5 86.8,57.6 118.1,65.5 86.8,87.9 "/>
<polyline class="st1" points="313.2,22.5 281.9,57.6 313.2,65.5 281.9,87.9 "/>
</svg>
