<?xml version="1.0" encoding="utf-8"?>
<!-- Generator: Adobe Illustrator 26.0.3, SVG Export Plug-In . SVG Version: 6.00 Build 0)  -->
<svg version="1.1" id="Layer_1" xmlns="http://www.w3.org/2000/svg" xmlns:xlink="http://www.w3.org/1999/xlink" x="0px" y="0px"
	 viewBox="0 0 400 400" style="enable-background:new 0 0 400 400;" xml:space="preserve">
<style type="text/css">
	.st0{fill:#FFFFFF;}
	.st1{fill:none;stroke:#000000;stroke-width:60;stroke-miterlimit:10;}
</style>
<rect x="241.1" y="109.9" class="st0" width="60" height="40.6"/>
<rect x="102.3" y="109.9" class="st0" width="60" height="40.6"/>
<polyline class="st0" points="216.5,57.8 176.8,108.3 225.6,109.3 183.2,144.5 "/>
<path class="st1" d="M-200.4,109.9c0,0,0,91.9,0,133.9s15.7,69.4,69.4,69.4"/>
<path class="st1" d="M-64.9,109.9c0,0,0,91.9,0,133.9s-15.7,69.4-69.4,69.4"/>
<rect x="34.9" y="186" transform="matrix(0.8316 -0.5553 0.5553 0.8316 -77.455 144.5748)" class="st0" width="329.6" height="28"/>
<g>
	<polygon class="st0" points="273.9,161.3 241.1,161.3 241.1,183.1 	"/>
	<path class="st0" d="M162.3,235.8v-74.6h-60v82.5c0,11,1,21.1,2.9,30.2L162.3,235.8z"/>
	<path class="st0" d="M241.1,216.8v27c0,15-2.4,25.3-7.1,30.7c-6.4,7.3-21.1,8.8-32.3,8.8c-11.2,0-26-1.5-32.3-8.8
		c-1.6-1.8-2.9-4.2-3.9-7.1L115.1,301c2.7,4.7,5.7,9.1,9.3,13.1c17,19.3,43,29.1,77.4,29.1s60.4-9.8,77.4-29.1
		c14.8-16.9,22.1-39.9,22.1-70.3v-67L241.1,216.8z"/>
</g>
</svg>
