<?xml version="1.0" encoding="utf-8"?>
<!-- Generator: Adobe Illustrator 26.0.3, SVG Export Plug-In . SVG Version: 6.00 Build 0)  -->
<svg version="1.1" id="Layer_1" xmlns="http://www.w3.org/2000/svg" xmlns:xlink="http://www.w3.org/1999/xlink" x="0px" y="0px"
	 viewBox="0 0 36 24" style="enable-background:new 0 0 36 24;" xml:space="preserve">
<style type="text/css">
	.st0{fill:#FFFFFF;}
</style>
<path class="st0" d="M22.4,23.6c-3.9,0-7-3.1-7-7s3.1-7,7-7s7,3.1,7,7S26.2,23.6,22.4,23.6z M22.4,11.1c-3,0-5.5,2.5-5.5,5.5
	s2.5,5.5,5.5,5.5s5.5-2.5,5.5-5.5S25.4,11.1,22.4,11.1z"/>
<circle class="st0" cx="20.3" cy="16.6" r="0.8"/>
<circle class="st0" cx="24.4" cy="16.6" r="0.8"/>
<path class="st0" d="M20.4,10.6c0.6,2.5,2.8,4.3,5.5,4.3c0.8,0,1.6-0.2,2.3-0.5c-0.9-2.4-3.2-4.1-5.9-4.1
	C21.7,10.4,21,10.4,20.4,10.6z"/>
<circle class="st0" cx="9.9" cy="12.9" r="0.8"/>
<circle class="st0" cx="14" cy="12.9" r="0.8"/>
<circle class="st0" cx="19.3" cy="7.4" r="0.8"/>
<circle class="st0" cx="23.4" cy="7.4" r="0.8"/>
<path class="st0" d="M19.4,1.4c0.6,2.5,2.8,4.3,5.5,4.3c0.8,0,1.6-0.2,2.3-0.5c-0.9-2.4-3.2-4.1-5.9-4.1C20.7,1.2,20,1.2,19.4,1.4z"
	/>
<path class="st0" d="M14.5,17.8c-0.7,0.4-1.6,0.6-2.5,0.6c-3,0-5.5-2.5-5.5-5.5S9,7.4,12,7.4c2.2,0,4.1,1.3,5,3.2
	c0.4-0.3,0.8-0.7,1.2-0.9c-1.1-2.3-3.5-3.8-6.2-3.8c-3.9,0-7,3.1-7,7s3.1,7,7,7c1,0,2-0.2,2.8-0.6C14.7,18.8,14.6,18.3,14.5,17.8z"
	/>
<path class="st0" d="M16.5,11.1c0.3-0.3,0.7-0.6,1-0.9c-1-2.1-3.2-3.6-5.7-3.6c-0.6,0.1-1.3,0.1-1.9,0.3c0.6,2.5,2.8,4.3,5.5,4.3
	C15.9,11.2,16.2,11.2,16.5,11.1z"/>
<path class="st0" d="M21.4,0.4c-3.2,0-5.8,2.1-6.7,5c0.5,0.2,1,0.4,1.4,0.6c0.6-2.3,2.8-4.1,5.3-4.1c3,0,5.5,2.5,5.5,5.5
	c0,0.8-0.2,1.6-0.5,2.2c0.4,0.3,0.9,0.5,1.2,0.9c0.5-0.9,0.7-2,0.7-3.1C28.4,3.5,25.3,0.4,21.4,0.4z"/>
</svg>
