<?xml version="1.0" encoding="utf-8"?>
<!-- Generator: Adobe Illustrator 26.0.3, SVG Export Plug-In . SVG Version: 6.00 Build 0)  -->
<svg version="1.1" id="Layer_1" xmlns="http://www.w3.org/2000/svg" xmlns:xlink="http://www.w3.org/1999/xlink" x="0px" y="0px"
	 viewBox="0 0 24 24" style="enable-background:new 0 0 24 24;" xml:space="preserve">
<style type="text/css">
	.st0{fill:#FFFFFF;}
</style>
<g>
	<path class="st0" d="M16.5,6.2l-1.7,4.7c-0.4,1-0.4,2.2-0.1,3.2L9.1,12c0.9-0.6,1.6-1.4,2-2.5l1.7-4.7L16.5,6.2 M20,5.3l-9.4-3.4
		C10.1,1.7,9.5,2,9.3,2.5s0,1.1,0.6,1.3l0,0l0.9,0.3L9.2,8.8c-0.6,1.6-2.2,2.4-3.8,1.8l-0.7,1.9l5.6,2.1l-2.4,6.6l0.6,1.3l1.3-0.6
		l2.4-6.6l5.6,2.1l0.7-1.9l0,0c-1.6-0.6-2.4-2.2-1.8-3.8L18.4,7l0.9,0.3l0,0c0.5,0.2,1.1-0.1,1.3-0.6C20.8,6.1,20.5,5.5,20,5.3
		L20,5.3z"/>
</g>
</svg>
