<?xml version="1.0" encoding="utf-8"?>
<!-- Generator: Adobe Illustrator 26.0.3, SVG Export Plug-In . SVG Version: 6.00 Build 0)  -->
<svg version="1.1" id="Layer_1" xmlns="http://www.w3.org/2000/svg" xmlns:xlink="http://www.w3.org/1999/xlink" x="0px" y="0px"
	 viewBox="0 0 36 24" style="enable-background:new 0 0 36 24;" xml:space="preserve">
<style type="text/css">
	.st0{fill:#FF7400;stroke:#000000;stroke-miterlimit:10;}
	.st1{stroke:#000000;stroke-linecap:round;stroke-linejoin:round;stroke-miterlimit:10;}
	.st2{fill:none;stroke:#000000;stroke-linecap:round;stroke-linejoin:round;stroke-miterlimit:10;}
	.st3{fill:#FFFFFF;}
	.st4{stroke:#000000;stroke-width:2;stroke-linecap:round;stroke-linejoin:round;stroke-miterlimit:10;}
</style>
<polygon points="-14.6,17.4 -19,13 -26,13 -26,22 -19.2,22 "/>
<polygon points="-12.5,13 -17.7,13 -13.3,17.4 -17.9,22 -12.7,22 -8.1,17.4 "/>
<polygon points="-6,13 -11.2,13 -6.8,17.4 -11.5,22 -6.3,22 -1.6,17.4 "/>
<path d="M-22.4,3c-1.8,0-3.2,1.4-3.2,3.2s1.4,3.2,3.2,3.2s3.2-1.4,3.2-3.2S-20.7,3-22.4,3z M-20.9,5.4l-1.7,2.2
	c-0.1,0.1-0.2,0.2-0.3,0.2c0,0,0,0,0,0c-0.1,0-0.3-0.1-0.4-0.2L-24,6.3c-0.1-0.2-0.1-0.5,0.1-0.6c0.2-0.1,0.5-0.1,0.6,0.1l0.4,0.6
	l1.4-1.7c0.2-0.2,0.4-0.2,0.6-0.1C-20.7,4.9-20.7,5.2-20.9,5.4z"/>
<path d="M-15.2,5.4c-1.8,0-3.2,1.4-3.2,3.2s1.4,3.2,3.2,3.2s3.2-1.4,3.2-3.2S-13.5,5.4-15.2,5.4z M-13.6,7.8l-1.7,2.2
	c-0.1,0.1-0.2,0.2-0.3,0.2c0,0,0,0,0,0c-0.1,0-0.3-0.1-0.4-0.2l-0.7-1.1c-0.1-0.2-0.1-0.5,0.1-0.6c0.2-0.1,0.5-0.1,0.6,0.1l0.4,0.6
	l1.4-1.7c0.2-0.2,0.4-0.2,0.6-0.1C-13.5,7.3-13.5,7.6-13.6,7.8z"/>
<path d="M-8.5,1.5c-1.8,0-3.2,1.4-3.2,3.2s1.4,3.2,3.2,3.2s3.2-1.4,3.2-3.2S-6.8,1.5-8.5,1.5z M-7,3.8L-8.7,6
	C-8.8,6.1-8.9,6.2-9,6.2c0,0,0,0,0,0c-0.1,0-0.3-0.1-0.4-0.2l-0.7-1.1c-0.1-0.2-0.1-0.5,0.1-0.6c0.2-0.1,0.5-0.1,0.6,0.1L-9,4.9
	l1.4-1.7C-7.5,3.1-7.2,3-7,3.2C-6.8,3.4-6.8,3.6-7,3.8z"/>
<line class="st0" x1="-22.4" y1="15.2" x2="-22.4" y2="8.6"/>
<line class="st0" x1="-15.2" y1="14.6" x2="-15.2" y2="10.9"/>
<line class="st0" x1="-8.5" y1="13.4" x2="-8.5" y2="6.8"/>
<rect x="44.5" y="3.1" width="14.2" height="4.6"/>
<rect x="44.5" y="9.5" width="14.2" height="4.6"/>
<rect x="44.5" y="15.8" width="14.2" height="4.6"/>
<line class="st1" x1="43.6" y1="5.4" x2="39.4" y2="5.4"/>
<line class="st1" x1="64" y1="17.7" x2="59.9" y2="17.7"/>
<polyline class="st2" points="62.1,19.6 64,17.7 62.1,15.8 "/>
<path class="st2" d="M59.7,5.5c1.8,0,3.2,1.4,3.2,3.2s-1.4,3.2-3.2,3.2"/>
<path class="st2" d="M43.6,18.4c-1.8,0-3.2-1.4-3.2-3.2s1.4-3.2,3.2-3.2"/>
<g>
	<line class="st3" x1="12.4" y1="29.3" x2="8.3" y2="29.3"/>
	<path class="st3" d="M12.4,29.8H8.3c-0.3,0-0.5-0.2-0.5-0.5s0.2-0.5,0.5-0.5h4.1c0.3,0,0.5,0.2,0.5,0.5S12.7,29.8,12.4,29.8z"/>
</g>
<path class="st3" d="M10.5,31.8c-0.1,0-0.3,0-0.4-0.1c-0.2-0.2-0.2-0.5,0-0.7l1.5-1.5l-1.6-1.6c-0.2-0.2-0.2-0.5,0-0.7
	s0.5-0.2,0.7,0l1.9,1.9c0.1,0.1,0.1,0.2,0.1,0.4s-0.1,0.3-0.1,0.4l-1.9,1.9C10.8,31.7,10.7,31.8,10.5,31.8z"/>
<g>
	<line class="st3" x1="28.7" y1="42.3" x2="32.9" y2="42.3"/>
	<path class="st3" d="M32.9,42.8h-4.1c-0.3,0-0.5-0.2-0.5-0.5s0.2-0.5,0.5-0.5h4.1c0.3,0,0.5,0.2,0.5,0.5S33.2,42.8,32.9,42.8z"/>
</g>
<path class="st3" d="M31,44.7c-0.1,0-0.3,0-0.4-0.1c-0.2-0.2-0.2-0.5,0-0.7l1.5-1.5l-1.6-1.6c-0.2-0.2-0.2-0.5,0-0.7s0.5-0.2,0.7,0
	l1.9,1.9c0.2,0.2,0.2,0.5,0,0.7l-1.9,1.9C31.2,44.7,31.1,44.7,31,44.7z"/>
<path class="st3" d="M26.3,42.8H12.4c-2,0-3.7-1.6-3.7-3.7c0-2,1.6-3.7,3.7-3.7l16.2-0.1c1.5,0,2.7-1.2,2.7-2.7
	c0-1.5-1.2-2.7-2.7-2.7H14.9c-0.3,0-0.5-0.2-0.5-0.5s0.2-0.5,0.5-0.5h13.7c2,0,3.7,1.6,3.7,3.7c0,2-1.6,3.7-3.7,3.7l-16.2,0.1
	c-1.5,0-2.7,1.2-2.7,2.7s1.2,2.7,2.7,2.7h13.9c0.3,0,0.5,0.2,0.5,0.5S26.6,42.8,26.3,42.8z"/>
<circle class="st3" cx="17.3" cy="29.3" r="3.1"/>
<circle class="st3" cx="25" cy="35.5" r="3.1"/>
<circle class="st3" cx="17.3" cy="42.3" r="3.1"/>
<path class="st3" d="M26.3,19.5H12.4c-2.3,0-4.2-1.9-4.2-4.2s1.9-4.2,4.2-4.2L28.6,11c1.2,0,2.2-1,2.2-2.2s-1-2.2-2.2-2.2H14.9
	c-0.6,0-1-0.4-1-1s0.4-1,1-1h13.7c2.3,0,4.2,1.9,4.2,4.2c0,2.3-1.9,4.2-4.2,4.2l-16.2,0.1c-1.2,0-2.2,1-2.2,2.2s1,2.2,2.2,2.2h13.9
	c0.6,0,1,0.4,1,1S26.8,19.5,26.3,19.5z"/>
<circle class="st3" cx="15.5" cy="5.7" r="3.1"/>
<circle class="st3" cx="25" cy="12.1" r="3.1"/>
<circle class="st3" cx="17.3" cy="18.5" r="3.1"/>
<g>
	<line class="st3" x1="29.5" y1="18.5" x2="30.8" y2="18.5"/>
	<path class="st3" d="M30.8,19.5h-1.3c-0.6,0-1-0.4-1-1s0.4-1,1-1h1.3c0.6,0,1,0.4,1,1S31.4,19.5,30.8,19.5z"/>
</g>
<g>
	<line class="st3" x1="9.3" y1="5.7" x2="10.7" y2="5.7"/>
	<path class="st3" d="M10.7,6.7H9.3c-0.6,0-1-0.4-1-1s0.4-1,1-1h1.3c0.6,0,1,0.4,1,1S11.2,6.7,10.7,6.7z"/>
</g>
<path d="M26.3-7.2H12.4c-2.3,0-4.2-1.9-4.2-4.2s1.9-4.2,4.2-4.2l16.2-0.1c1.2,0,2.2-1,2.2-2.2s-1-2.2-2.2-2.2H14.9c-0.6,0-1-0.4-1-1
	s0.4-1,1-1h13.7c2.3,0,4.2,1.9,4.2,4.2c0,2.3-1.9,4.2-4.2,4.2l-16.2,0.1c-1.2,0-2.2,1-2.2,2.2s1,2.2,2.2,2.2h13.9c0.6,0,1,0.4,1,1
	S26.8-7.2,26.3-7.2z"/>
<circle cx="15.5" cy="-21" r="3.1"/>
<circle cx="25" cy="-14.6" r="3.1"/>
<circle cx="17.3" cy="-8.2" r="3.1"/>
<line class="st4" x1="29.5" y1="-8.2" x2="30.8" y2="-8.2"/>
<line class="st4" x1="9.3" y1="-21" x2="10.7" y2="-21"/>
</svg>
