<?xml version="1.0" encoding="utf-8"?>
<!-- Generator: Adobe Illustrator 26.0.3, SVG Export Plug-In . SVG Version: 6.00 Build 0)  -->
<svg version="1.1" id="Layer_1" xmlns="http://www.w3.org/2000/svg" xmlns:xlink="http://www.w3.org/1999/xlink" x="0px" y="0px"
	 viewBox="0 0 36 24" style="enable-background:new 0 0 36 24;" xml:space="preserve">
<style type="text/css">
	.st0{fill:#FFFFFF;stroke:#1D1D1B;stroke-width:1.4;stroke-linecap:round;stroke-miterlimit:10;}
	.st1{fill:#FFFFFF;}
</style>
<path class="st0" d="M2.6,10.1"/>
<path class="st1" d="M14.1,17.3l-0.5-0.5c-0.7-0.5-1.6-0.5-2.1,0.1L10,18.4C9.4,19,9.4,20,10,20.6l0.5,0.5c0.3,0.3,0.6,0.4,1,0.4
	c0,0,0.1,0,0.1,0c0.4,0,0.8-0.2,1-0.5l1.5-1.5C14.7,18.9,14.7,17.9,14.1,17.3z M13.1,18.5L11.6,20l-0.1,0.1c0,0,0,0,0,0L11,19.6
	c0,0,0-0.2,0-0.2l1.5-1.5c0,0,0.1,0,0.1,0c0,0,0.1,0,0.1,0l0.4,0.4C13.1,18.3,13.1,18.5,13.1,18.5z"/>
<path class="st1" d="M20,16c-0.1,0-0.2,0-0.4-0.1l-3.8-2.3c-0.3-0.2-0.4-0.6-0.2-1c0.2-0.3,0.6-0.4,1-0.2l3.8,2.3
	c0.3,0.2,0.4,0.6,0.2,1C20.5,15.9,20.2,16,20,16z"/>
<path class="st1" d="M18.4,18c-0.1,0-0.2,0-0.3-0.1l-3.6-2c-0.3-0.2-0.5-0.6-0.3-1c0.2-0.3,0.6-0.5,1-0.3l3.6,2
	c0.3,0.2,0.5,0.6,0.3,1C18.9,17.9,18.6,18,18.4,18z"/>
<path class="st1" d="M16.7,19.8c-0.1,0-0.2,0-0.3-0.1l-2.6-1.3c-0.3-0.2-0.5-0.6-0.3-0.9c0.2-0.3,0.6-0.5,0.9-0.3l2.6,1.3
	c0.3,0.2,0.5,0.6,0.3,0.9C17.2,19.6,17,19.8,16.7,19.8z"/>
<path class="st1" d="M4.3,14.1c-0.1,0-0.2,0-0.4-0.1l-3.2-1.9c-0.3-0.2-0.4-0.6-0.2-1l4.3-7.5c0.2-0.3,0.6-0.4,1-0.3l3.2,1.8
	c0.2,0.1,0.3,0.2,0.3,0.4s0,0.4-0.1,0.5l-4.3,7.6c-0.1,0.2-0.2,0.3-0.4,0.3C4.4,14.1,4.4,14.1,4.3,14.1z M2.1,11.2l2,1.2l3.6-6.4
	L5.7,5L2.1,11.2z"/>
<path class="st1" d="M4.3,14.1c-0.1,0-0.2,0-0.4-0.1l-3.2-1.9c-0.3-0.2-0.4-0.6-0.2-1l4.3-7.5c0.2-0.3,0.6-0.4,1-0.3l3.2,1.8
	c0.2,0.1,0.3,0.2,0.3,0.4s0,0.4-0.1,0.5l-4.3,7.6c-0.1,0.2-0.2,0.3-0.4,0.3C4.4,14.1,4.4,14.1,4.3,14.1z M2.1,11.2l2,1.2l3.6-6.4
	L5.7,5L2.1,11.2z"/>
<path class="st1" d="M23.4,11.6l-3.6-6.2l-5.3,0c-0.3,0-2.1-0.1-3,0.7C10.7,6.7,9.1,8.6,9,8.9L8.8,9.1c0,0.1-0.3,0.9,0.2,1.7
	c0.3,0.5,1,0.9,1.8,0.9c1.6,0.3,2.6-1.1,3.2-2c0.1-0.1,0.2-0.3,0.3-0.4c1.5,1,6.8,4.7,6.9,4.8l0.5,0.3l2.2-2.3l-0.3-0.6L23.4,11.6z
	 M21.5,12.6c-1.6-1.1-6.2-4.3-6.7-4.7c-0.2-0.1-0.3-0.2-0.5-0.2c-0.6,0-1,0.6-1.4,1.1c-0.6,0.9-1.2,1.6-1.9,1.5
	c-0.4,0-0.7-0.1-0.8-0.3c-0.1-0.1-0.1-0.3-0.1-0.4c0.5-0.6,1.7-2.1,2.2-2.5c0.3-0.3,1.4-0.4,2-0.3H19l3.1,5.1L21.5,12.6z"/>
<path class="st1" d="M26.8,10.5L22.5,3c-0.1-0.2-0.2-0.3-0.4-0.3s-0.4,0-0.5,0.1l-3.1,1.8c-0.3,0.2-0.4,0.6-0.3,1l4.3,7.5
	c0.1,0.2,0.2,0.3,0.4,0.3c0.1,0,0.1,0,0.2,0c0.1,0,0.2,0,0.4-0.1l3.1-1.8C26.9,11.2,27,10.8,26.8,10.5z M23.4,11.6l-3.6-6.3l1.9-1.1
	l3.6,6.3L23.4,11.6z"/>
<path class="st1" d="M13,15.2l-0.5-0.5c-0.7-0.5-1.6-0.5-2.1,0.1L8.3,17c-0.6,0.6-0.6,1.6,0,2.2l0.4,0.4C9,19.9,9.4,20,9.8,20
	c0.4,0,0.7-0.1,1.1-0.4l2.2-2.3C13.6,16.8,13.6,15.8,13,15.2z M12,16.4l-2.1,2.1c-0.1,0.1-0.2,0.1-0.2,0l-0.4-0.4c0,0,0-0.2,0-0.2
	l2.1-2.2c0,0,0.1,0,0.1,0c0,0,0.1,0,0.1,0l0.4,0.4C12,16.2,12,16.4,12,16.4z"/>
<path class="st1" d="M11.6,13.4L11.2,13l-0.1-0.1C10.4,12.4,9.6,12.5,9,13l-0.9,0.9c0,0,0,0.1,0,0.1l-1.5,1.5
	c-0.1,0.1-0.1,0.1-0.2,0.1l-0.2,0.2c-0.3,0.3-0.4,0.7-0.4,1.1c0,0.4,0.2,0.8,0.4,1.1l0.4,0.4l0.1,0.1c0.3,0.2,0.7,0.4,1.1,0.4
	c0.4,0,0.8-0.1,1.1-0.4l2.8-2.8C12.2,15,12.2,14,11.6,13.4z M10.6,14.6l-2.8,2.8c0,0-0.1,0-0.3,0L7.2,17c0,0,0-0.2,0-0.2L10,14
	c0,0,0.1,0,0.3,0l0.4,0.4C10.6,14.4,10.6,14.6,10.6,14.6z"/>
<g>
	<path class="st1" d="M9.2,16l-1,1c0.4,0.3,0.7,0.7,1.1,1l1-1C9.9,16.6,9.6,16.3,9.2,16z"/>
	<path class="st1" d="M11,17.5l-1,1c0.4,0.3,0.7,0.6,1,0.8l1-1C11.7,18.1,11.3,17.8,11,17.5z"/>
	<path class="st1" d="M22.1,13c-0.1-0.1-0.3-0.3-0.5-0.4l0,0c-1.1-0.7-3.6-2.5-5.2-3.6c-0.6-0.4-1.1-0.7-1.5-1c0,0,0,0,0,0
		c-0.2-0.1-0.3-0.2-0.5-0.2c-0.5,0-0.9,0.4-1.2,0.8c0.2,0.1,0.3,0.1,0.4,0.2C13.7,8.9,13.9,9,14,9.1c0.7,0.5,1.7,1.2,2.8,1.9
		c1.7,1.1,3.7,2.4,4.3,3c0.3,0.2,0.2,0.4,0.1,0.6c-0.1,0.2-0.5,0.3-0.9,0.1l-0.7,1.2c0.2,0.1,0.2,0.2,0.2,0.2c0,0.2-0.3,0.5-0.6,0.6
		c-0.2,0.1-0.4,0.1-0.5,0l-0.9,1c0.3,0.3,0.2,0.7,0.1,0.8c-0.1,0.2-0.4,0.3-0.7,0.1l-0.6-0.4l-0.4,0.6c-0.4,0.6-0.9,1.3-2.4,0.7
		c-0.3-0.1-0.6-0.3-1.1-0.7l-1,1c0.6,0.4,1.1,0.8,1.5,1c0.6,0.2,1.1,0.3,1.6,0.3c0.9,0,1.6-0.4,2.2-1.1c0.7,0.2,1.5-0.1,1.9-0.7
		c0.3-0.4,0.4-0.8,0.4-1.3c0.1,0,0.2-0.1,0.3-0.1c0.8-0.3,1.4-1,1.4-1.8c0,0,0-0.1,0-0.1c0.5-0.1,0.9-0.4,1.1-0.8
		C22.9,14.6,22.8,13.6,22.1,13z"/>
	<path class="st1" d="M7.6,14.5l-1,1c0.3,0.3,0.6,0.6,1,0.9l1-1C8.3,15.1,7.9,14.8,7.6,14.5z"/>
	<path class="st1" d="M7,13.9c-0.6-0.5-1.1-1-1.5-1.4l3.1-5.2c0.8,0.1,1.9,0.4,3,0.7c0,0,0,0,0,0c0.3-0.4,0.6-0.7,0.8-0.9
		c0.1-0.1,0.2-0.1,0.4-0.2c-2-0.7-4.3-1.1-4.5-1.1L7.8,5.7L7.6,6.1l0,0L4,12.4l-0.1-0.1l-0.2,0.4l0.4,0.4C4.3,13.3,5,14,6,14.9
		L7,13.9z"/>
</g>
<path class="st1" d="M9.3,14.7c0.4-0.6,0.3-1.4-0.2-1.9l-0.5-0.5c-0.7-0.5-1.6-0.5-2.1,0.1L4.9,14c-0.6,0.6-0.6,1.6,0,2.2l0.4,0.4
	c0.3,0.3,0.6,0.4,1,0.4c0.3,0,0.6-0.1,0.9-0.3L9.3,14.7z M6.3,15.6l-0.4-0.4c0,0,0-0.2,0-0.2l1.6-1.6c0,0,0.1,0,0.1,0
	c0,0,0.1,0,0.1,0l0.4,0.4c0,0,0,0.2,0,0.2l-1.5,1.5C6.4,15.6,6.3,15.6,6.3,15.6z"/>
</svg>
