<?xml version="1.0" encoding="utf-8"?>
<!-- Generator: Adobe Illustrator 26.0.3, SVG Export Plug-In . SVG Version: 6.00 Build 0)  -->
<svg version="1.1" id="Layer_1" xmlns="http://www.w3.org/2000/svg" xmlns:xlink="http://www.w3.org/1999/xlink" x="0px" y="0px"
	 viewBox="0 0 36 24" style="enable-background:new 0 0 36 24;" xml:space="preserve">
<style type="text/css">
	.st0{fill:#FFFFFF;}
</style>
<circle class="st0" cx="9.7" cy="12" r="1.2"/>
<circle class="st0" cx="15.7" cy="12" r="1.2"/>
<polygon class="st0" points="2.7,12 2.7,19.8 7.7,19.8 "/>
<circle class="st0" cx="2.7" cy="11.8" r="1.9"/>
<path class="st0" d="M12.7,18C12.7,18,12.7,18,12.7,18l-8.1-0.6c-0.2,0-0.4-0.1-0.4-0.3l-1.9-4.9c-0.1-0.3,0-0.5,0.3-0.6
	c0.3-0.1,0.5,0,0.6,0.3l1.8,4.6l7.8,0.6c0.3,0,0.5,0.3,0.5,0.5C13.2,17.8,13,18,12.7,18z"/>
<path class="st0" d="M13.1,18.4l-1.8-0.1c-0.5,0-0.8-0.4-0.8-0.9l0-0.3c0-0.5,0.4-0.8,0.9-0.8l1.8,0.1c0.5,0,0.8,0.4,0.8,0.9l0,0.3
	C14,18.1,13.6,18.5,13.1,18.4z"/>
<path class="st0" d="M22.4,14c-0.2,0.1-0.4,0.2-0.6,0.2c-0.4,0-0.7-0.2-1-0.4l-0.1-0.1l-0.1-0.2c-0.7,3.7-3.9,6.6-7.9,6.6
	c-4.4,0-8-3.6-8-8s3.6-8,8-8c3.4,0,6.3,2.1,7.5,5.1l0.4-0.3c0-0.1,0-0.1,0-0.2c0-0.1,0-0.1,0-0.2l-1-0.8l0,0C19.1,7.1,19,6.4,19.4,6
	L19.9,5c-1.8-1.9-4.4-3-7.2-3c-5.5,0-10,4.5-10,10s4.5,10,10,10c4.8,0,8.9-3.5,9.8-8.1L22.4,14z"/>
<path class="st0" d="M31.6,9.4c0-0.2,0.1-0.4,0.1-0.6s0-0.4-0.1-0.6L33,7c0.1-0.1,0.1-0.3,0.1-0.4l-1.3-2.3
	c-0.1-0.1-0.3-0.2-0.4-0.1l-1.7,0.7c-0.4-0.3-0.7-0.5-1.1-0.6l-0.3-1.9C28.3,2.1,28.2,2,28,2h-2.7C25.2,2,25,2.1,25,2.3l-0.2,1.8
	c-0.4,0.1-0.8,0.4-1.2,0.6L21.9,4c-0.1-0.1-0.4,0-0.4,0.1l-1.3,2.4c-0.1,0.1,0,0.3,0.1,0.4L21.7,8c0,0.2-0.1,0.4-0.1,0.6
	s0,0.4,0.1,0.6l-1.4,1.1c-0.1,0.1-0.1,0.3-0.1,0.4l1.3,2.3c0.1,0.1,0.3,0.2,0.4,0.1l1.7-0.7c0.4,0.3,0.7,0.5,1.1,0.6l0.3,2
	c0.1,0.1,0.1,0.3,0.4,0.3h2.7c0.1,0,0.3-0.1,0.4-0.3l0.3-1.8c0.4-0.1,0.8-0.4,1.1-0.6l1.7,0.7c0.1,0.1,0.4,0,0.4-0.1l1.3-2.3
	c0.1-0.1,0.1-0.4-0.1-0.4L31.6,9.4z M26.7,11.3c-1.4,0-2.5-1.1-2.5-2.5s1.1-2.5,2.5-2.5s2.5,1.1,2.5,2.5S28.1,11.3,26.7,11.3z"/>
<path class="st0" d="M22.4,14c-0.2,0.1-0.4,0.2-0.6,0.2c-0.1,0-0.3,0-0.4-0.1l-3.5,5.7h4.8v-5.9L22.4,14z"/>
<path class="st0" d="M20.6,8.8c0-0.1,0-0.1,0-0.2c0-0.1,0-0.1,0-0.2l-1-0.8l0,0C19.1,7.1,19,6.4,19.4,6l0.2-0.3
	c-1.6-1.7-3.9-2.7-6.4-2.7c-0.9,0.1-1.8,0.1-2.7,0.4c0.9,3.5,4,6.1,7.8,6.1c0.6,0,1.2-0.1,1.7-0.2L20.6,8.8z"/>
</svg>
