<?xml version="1.0" encoding="utf-8"?>
<!-- Generator: Adobe Illustrator 26.0.3, SVG Export Plug-In . SVG Version: 6.00 Build 0)  -->
<svg version="1.1" id="Layer_1" xmlns="http://www.w3.org/2000/svg" xmlns:xlink="http://www.w3.org/1999/xlink" x="0px" y="0px"
	 viewBox="0 0 36 24" style="enable-background:new 0 0 36 24;" xml:space="preserve">
<style type="text/css">
	.st0{fill:#FFFFFF;}
</style>
<circle class="st0" cx="9.7" cy="12" r="1.2"/>
<circle class="st0" cx="15.7" cy="12" r="1.2"/>
<path class="st0" d="M12.7,4c4.4,0,8,3.6,8,8s-3.6,8-8,8s-8-3.6-8-8S8.3,4,12.7,4 M12.7,2c-5.5,0-10,4.5-10,10s4.5,10,10,10
	s10-4.5,10-10S18.2,2,12.7,2L12.7,2z"/>
<path class="st0" d="M10.5,3.3c0.9,3.5,4,6.1,7.8,6.1c1.1,0,2.3-0.3,3.3-0.7c-1.3-3.4-4.5-5.8-8.4-5.8C12.3,3.1,11.3,3.1,10.5,3.3z"
	/>
<polygon class="st0" points="2.7,12 2.7,19.8 7.7,19.8 "/>
<polygon class="st0" points="22.7,12 22.7,19.8 17.9,19.8 "/>
<circle class="st0" cx="22.7" cy="11.8" r="1.9"/>
<circle class="st0" cx="2.7" cy="11.8" r="1.9"/>
<path class="st0" d="M12.7,18C12.7,18,12.7,18,12.7,18l-8.1-0.6c-0.2,0-0.4-0.1-0.4-0.3l-1.9-4.9c-0.1-0.3,0-0.5,0.3-0.6
	c0.3-0.1,0.5,0,0.6,0.3l1.8,4.6l7.8,0.6c0.3,0,0.5,0.3,0.5,0.5C13.2,17.8,13,18,12.7,18z"/>
<path class="st0" d="M13.1,18.4l-1.8-0.1c-0.5,0-0.8-0.4-0.8-0.9l0-0.3c0-0.5,0.4-0.8,0.9-0.8l1.8,0.1c0.5,0,0.8,0.4,0.8,0.9l0,0.3
	C14,18.1,13.6,18.5,13.1,18.4z"/>
</svg>
