<?xml version="1.0" encoding="utf-8"?>
<!-- Generator: Adobe Illustrator 26.0.3, SVG Export Plug-In . SVG Version: 6.00 Build 0)  -->
<svg version="1.1" id="Layer_1" xmlns="http://www.w3.org/2000/svg" xmlns:xlink="http://www.w3.org/1999/xlink" x="0px" y="0px"
	 viewBox="0 0 36 24" style="enable-background:new 0 0 36 24;" xml:space="preserve">
<style type="text/css">
	.st0{fill:#FFFFFF;}
</style>
<circle class="st0" cx="23.9" cy="11.8" r="0.8"/>
<circle class="st0" cx="28" cy="11.8" r="0.8"/>
<path class="st0" d="M24,5.8c0.6,2.5,2.8,4.3,5.5,4.3c0.8,0,1.6-0.2,2.3-0.5c-0.9-2.4-3.2-4.1-5.9-4.1C25.3,5.6,24.6,5.6,24,5.8z"/>
<circle class="st0" cx="7.8" cy="11.8" r="0.8"/>
<circle class="st0" cx="11.9" cy="11.8" r="0.8"/>
<path class="st0" d="M7.9,5.8c0.6,2.5,2.8,4.3,5.5,4.3c0.8,0,1.6-0.2,2.3-0.5c-0.9-2.4-3.2-4.1-5.9-4.1C9.2,5.6,8.5,5.6,7.9,5.8z"/>
<path class="st0" d="M27.1,18.4V18c0-2-1.7-3.6-3.8-3.6l-3.6,0c0.6,0.5,1.3,1.2,1.3,2.2h2.3c0.9,0,1.6,0.6,1.6,1.4v0.5
	c0,0.8-0.7,1.4-1.6,1.4h-3.8c-0.9,0-1.6-0.6-1.6-1.4V18c0-0.6-0.5-1.1-1.1-1.1c-0.6,0-1.1,0.5-1.1,1.1v0.5c0,2,1.7,3.6,3.8,3.6h3.8
	C25.3,22,27.1,20.4,27.1,18.4z"/>
<path class="st0" d="M8.9,17.6V18c0,2,1.7,3.6,3.8,3.6h3.6c-0.6-0.5-1.3-1.2-1.3-2.2l-2.3,0c-0.9,0-1.6-0.6-1.6-1.4v-0.5
	c0-0.8,0.7-1.4,1.6-1.4h3.8c0.9,0,1.6,0.6,1.6,1.4V18c0,0.6,0.5,1.1,1.1,1.1s1.1-0.5,1.1-1.1v-0.5c0-2-1.7-3.6-3.8-3.6h-3.8
	C10.7,14,8.9,15.6,8.9,17.6z"/>
<path class="st0" d="M26,4.8c-3.9,0-7,3.1-7,7c0,0.6,0.1,1.1,0.2,1.6h1.6c-0.2-0.5-0.3-1.1-0.3-1.6c0-3,2.5-5.5,5.5-5.5
	s5.5,2.5,5.5,5.5c0,2.3-1.5,4.4-3.6,5.2c0.1,0.3,0.1,0.7,0.1,1.1v0.5c0,0,0,0,0,0c2.8-0.9,5-3.5,5-6.7C33,7.9,29.9,4.8,26,4.8z"/>
<path class="st0" d="M7.9,18v-0.5c0-0.2,0-0.4,0.1-0.7c-2.1-0.8-3.6-2.8-3.6-5.2c0-3,2.5-5.5,5.5-5.5s5.5,2.5,5.5,5.5
	c0,0.4-0.1,0.8-0.2,1.2h1.4c0.1,0,0.1,0,0.2,0c0.1-0.4,0.1-0.8,0.1-1.3c0-3.9-3.1-7-7-7c-3.9,0-7,3.1-7,7C2.9,15,5,17.7,8,18.5
	C8,18.4,7.9,18.2,7.9,18z"/>
</svg>
