<?xml version="1.0" encoding="utf-8"?>
<!-- Generator: Adobe Illustrator 26.0.3, SVG Export Plug-In . SVG Version: 6.00 Build 0)  -->
<svg version="1.1" id="Layer_1" xmlns="http://www.w3.org/2000/svg" xmlns:xlink="http://www.w3.org/1999/xlink" x="0px" y="0px"
	 viewBox="0 0 36 24" style="enable-background:new 0 0 36 24;" xml:space="preserve">
<style type="text/css">
	.st0{fill:#FFFFFF;}
</style>
<path class="st0" d="M29.9,18.2v-0.5c0-2.6-2.2-4.7-5-4.7h-4.7c0.8,0.7,1.7,1.6,1.7,2.9h3c1.2,0,2.1,0.8,2.1,1.8v0.7
	c0,1-0.9,1.8-2.1,1.8h-5c-1.2,0-2.1-0.8-2.1-1.8v-0.7c0-0.8-0.7-1.4-1.4-1.4S15,16.9,15,17.7v0.7c0,2.6,2.2,4.7,5,4.7h5
	C27.5,22.9,29.9,20.8,29.9,18.2z"/>
<path class="st0" d="M6.1,17.1v0.5c0,2.6,2.2,4.7,5,4.7h4.7c-0.8-0.7-1.7-1.6-1.7-2.9h-3c-1.2,0-2.1-0.8-2.1-1.8V17
	c0-1,0.9-1.8,2.1-1.8h5c1.2,0,2.1,0.8,2.1,1.8v0.7c0,0.8,0.7,1.4,1.4,1.4s1.4-0.7,1.4-1.4V17c0-2.6-2.2-4.7-5-4.7h-5
	C8.5,12.4,6.1,14.5,6.1,17.1z"/>
<circle class="st0" cx="16" cy="8.6" r="0.8"/>
<circle class="st0" cx="20.1" cy="8.6" r="0.8"/>
<path class="st0" d="M16.1,2.6c0.6,2.5,2.8,4.3,5.5,4.3c0.8,0,1.6-0.2,2.3-0.5C23,4,20.7,2.3,18,2.3C17.4,2.4,16.7,2.4,16.1,2.6z"/>
<path class="st0" d="M18.1,3.1c3,0,5.5,2.5,5.5,5.5c0,1.3-0.5,2.5-1.2,3.4h1.8c0.6-1,0.9-2.2,0.9-3.4c0-3.9-3.1-7-7-7
	c-3.9,0-7,3.1-7,7c0,1,0.2,1.9,0.6,2.8l1.7,0c-0.5-0.8-0.8-1.8-0.8-2.8C12.6,5.6,15.1,3.1,18.1,3.1z"/>
</svg>
