<?xml version="1.0" encoding="utf-8"?>
<!-- Generator: Adobe Illustrator 26.0.3, SVG Export Plug-In . SVG Version: 6.00 Build 0)  -->
<svg version="1.1" id="Layer_1" xmlns="http://www.w3.org/2000/svg" xmlns:xlink="http://www.w3.org/1999/xlink" x="0px" y="0px"
	 viewBox="0 0 36 24" style="enable-background:new 0 0 36 24;" xml:space="preserve">
<style type="text/css">
	.st0{fill:#FFFFFF;}
	.st1{fill:none;stroke:#000000;stroke-width:1.8;stroke-linecap:round;stroke-linejoin:round;stroke-miterlimit:10;}
</style>
<path class="st0" d="M28.2,8.9H7.8C7.3,8.9,6.9,8.5,6.9,8V2.1c0-0.5,0.4-0.9,0.9-0.9h20.4c0.5,0,0.9,0.4,0.9,0.9V8
	C29.1,8.5,28.7,8.9,28.2,8.9z M8.7,7.1h18.6V3H8.7V7.1z"/>
<path class="st0" d="M13.8,17.3h-6c-0.5,0-0.9-0.4-0.9-0.9v-5.1c0-0.5,0.4-0.9,0.9-0.9h6c0.5,0,0.9,0.4,0.9,0.9v5.1
	C14.7,16.9,14.3,17.3,13.8,17.3z M8.7,15.5h4.2v-3.3H8.7V15.5z"/>
<path class="st0" d="M28.2,21h-11c-0.5,0-0.9-0.4-0.9-0.9v-8.8c0-0.5,0.4-0.9,0.9-0.9h11c0.5,0,0.9,0.4,0.9,0.9v8.8
	C29.1,20.6,28.7,21,28.2,21z M18.1,19.2h9.2v-7h-9.2V19.2z"/>
<rect x="-31.3" y="2.1" class="st1" width="20.4" height="5.9"/>
<rect x="-31.3" y="11.3" class="st1" width="6" height="5.1"/>
<rect x="-21.9" y="11.3" class="st1" width="11" height="8.8"/>
</svg>
