<?xml version="1.0" encoding="utf-8"?>
<!-- Generator: Adobe Illustrator 26.0.3, SVG Export Plug-In . SVG Version: 6.00 Build 0)  -->
<svg version="1.1" id="Layer_1" xmlns="http://www.w3.org/2000/svg" xmlns:xlink="http://www.w3.org/1999/xlink" x="0px" y="0px"
	 viewBox="0 0 24 24" style="enable-background:new 0 0 24 24;" xml:space="preserve">
<style type="text/css">
	.st0{fill:#FFFFFF;}
</style>
<g>
	<g>
		<line class="st0" x1="1.6" y1="14.4" x2="22.8" y2="10.1"/>
		<rect x="1.4" y="11.3" transform="matrix(0.9804 -0.1972 0.1972 0.9804 -2.1838 2.6563)" class="st0" width="21.7" height="2"/>
	</g>
	<g>
		<path class="st0" d="M12.2,13.1l-3-1.1c1-0.6,1.6-1.4,2-2.5l1.7-4.7l3.8,1.4L15,10.9c-0.2,0.6-0.3,1.2-0.3,1.7l2.1-0.4
			c0-0.2,0-0.4,0.1-0.6l1.7-4.7l0.9,0.3c0.5,0.2,1.1-0.1,1.3-0.6c0.2-0.5-0.1-1.1-0.6-1.3l-9.4-3.4C10.2,1.7,9.6,2,9.4,2.5
			S9.6,3.6,10,3.8l1,0.3L9.3,8.8c-0.6,1.6-2.2,2.4-3.8,1.8l-0.7,1.9l3.7,1.3L12.2,13.1z"/>
		<path class="st0" d="M10,15.6l-2,5.5l0.6,1.3l1.3-0.6l2.4-6.6l5.6,2.1l0.7-1.9c-0.7-0.2-1.1-0.7-1.5-1.3L10,15.6z"/>
	</g>
</g>
</svg>
