<?xml version="1.0" encoding="utf-8"?>
<!-- Generator: Adobe Illustrator 26.0.3, SVG Export Plug-In . SVG Version: 6.00 Build 0)  -->
<svg version="1.1" id="Layer_1" xmlns="http://www.w3.org/2000/svg" xmlns:xlink="http://www.w3.org/1999/xlink" x="0px" y="0px"
	 viewBox="0 0 36 24" style="enable-background:new 0 0 36 24;" xml:space="preserve">
<style type="text/css">
	.st0{fill:#FFFFFF;}
</style>
<g>
	<path class="st0" d="M18,21.3c-5.2,0-9.4-4.2-9.4-9.3c0-5.2,4.2-9.4,9.4-9.4c5.2,0,9.3,4.2,9.3,9.4C27.3,17.2,23.2,21.3,18,21.3z
		 M18,4.4c-4.2,0-7.6,3.4-7.6,7.6c0,4.2,3.4,7.7,7.6,7.7c4.2,0,7.7-3.4,7.7-7.7C25.7,7.8,22.2,4.4,18,4.4z"/>
	<path class="st0" d="M24.4,18.3h-1.7c0-2.6-2.1-4.8-4.8-4.8s-4.8,2.1-4.8,4.8h-1.7c0-3.6,2.9-6.4,6.5-6.4S24.4,14.7,24.4,18.3z"/>
	<path class="st0" d="M18,13.5c-2.3,0-4.1-1.9-4.1-4.1c0-2.3,1.9-4.1,4.1-4.1s4.1,1.9,4.1,4.1C22.1,11.7,20.3,13.5,18,13.5z M18,7
		c-1.4,0-2.4,1.1-2.4,2.4s1.1,2.5,2.4,2.5s2.5-1.1,2.5-2.5S19.4,7,18,7z"/>
</g>
</svg>
