<?xml version="1.0" encoding="utf-8"?>
<!-- Generator: Adobe Illustrator 26.0.3, SVG Export Plug-In . SVG Version: 6.00 Build 0)  -->
<svg version="1.1" id="Layer_1" xmlns="http://www.w3.org/2000/svg" xmlns:xlink="http://www.w3.org/1999/xlink" x="0px" y="0px"
	 viewBox="0 0 36 24" style="enable-background:new 0 0 36 24;" xml:space="preserve">
<style type="text/css">
	.st0{fill:#FFFFFF;}
</style>
<g>
	<g>
		<path class="st0" d="M15.6,3.3v1.5c-0.9-0.4-1.9-0.5-2.9-0.5c-1.9,0-3.9,0.7-5.4,2.2l3.6,3.6h1.2v1.2c0.9,0.9,2.2,1.4,3.4,1.5v2.5
			h-3.2v3.3c0,1.2,1,2.2,2.2,2.2h10.9c1.8,0,3.3-1.5,3.3-3.3V3.3H15.6z M14.3,10.3V7.9h-2.4l-1.2-1.1c0.6-0.2,1.3-0.4,2-0.4
			c1.5,0,2.8,0.6,3.9,1.6l1.5,1.6l-0.2,0.2c-0.6,0.6-1.3,0.9-2.1,0.9C15.3,10.6,14.8,10.5,14.3,10.3z M26.4,17.4
			c0,0.6-0.5,1.1-1.1,1.1s-1.1-0.5-1.1-1.1v-2.2h-6.5v-2.8c0.6-0.3,1.2-0.6,1.7-1.1l0.2-0.2l3.1,3.1h1.5v-1.5l-6.5-6.5V5.5h8.7
			C26.4,5.5,26.4,17.4,26.4,17.4z"/>
	</g>
</g>
</svg>
