<?xml version="1.0" encoding="utf-8"?>
<!-- Generator: Adobe Illustrator 16.0.0, SVG Export Plug-In . SVG Version: 6.00 Build 0)  -->
<!DOCTYPE svg PUBLIC "-//W3C//DTD SVG 1.1//EN" "http://www.w3.org/Graphics/SVG/1.1/DTD/svg11.dtd">
<svg version="1.1" id="Layer_1" xmlns="http://www.w3.org/2000/svg" xmlns:xlink="http://www.w3.org/1999/xlink" x="0px" y="0px"
	 width="1000px" height="1000px" viewBox="0 0 1000 1000" enable-background="new 0 0 1000 1000" xml:space="preserve">
<g>
	<path fill="#606060" d="M787.422,581.78c-54.869,0-99.508-44.64-99.508-99.508c0-54.869,44.639-99.508,99.508-99.508
		s99.508,44.639,99.508,99.508C886.93,537.141,842.291,581.78,787.422,581.78z M787.422,422.764
		c-32.812,0-59.508,26.695-59.508,59.509c0,32.812,26.695,59.508,59.508,59.508c32.813,0,59.508-26.695,59.508-59.508
		C846.93,449.459,820.234,422.764,787.422,422.764z"/>
	<path fill="#606060" d="M921.332,772.482c-11.046,0-20-8.954-20-20c0-3.021-0.091-6.082-0.27-9.098
		c-1.709-28.703-11.887-56.566-28.658-78.456c-16.312-21.284-38.59-36.62-62.729-43.182c-24.978-6.792-51.707-4.343-75.261,6.894
		c-22.91,10.931-42.685,30.115-55.678,54.021c-5.275,9.706-17.419,13.297-27.123,8.021c-9.705-5.274-13.296-17.419-8.021-27.123
		c16.994-31.265,43.132-56.486,73.601-71.021c32.192-15.358,68.765-18.691,102.978-9.393c32.544,8.849,62.369,29.252,83.981,57.451
		c21.578,28.16,34.662,63.821,36.84,100.413c0.226,3.805,0.34,7.661,0.34,11.47C941.332,763.528,932.378,772.482,921.332,772.482z"
		/>
</g>
<g>
	<path fill="#606060" d="M508.93,574.441c-75.176,0-136.336-61.16-136.336-136.336c0-75.177,61.16-136.336,136.336-136.336
		s136.336,61.16,136.336,136.336C645.266,513.281,584.105,574.441,508.93,574.441z M508.93,341.769
		c-53.12,0-96.336,43.216-96.336,96.336c0,53.119,43.216,96.336,96.336,96.336s96.336-43.217,96.336-96.336
		C605.266,384.985,562.05,341.769,508.93,341.769z"/>
	<path fill="#606060" d="M704.87,853.479c-11.046,0-20-8.953-20-20c0-113.635-82.933-206.084-184.869-206.084
		s-184.87,92.449-184.87,206.084c0,11.047-8.954,20-20,20s-20-8.953-20-20c0-65.361,23.15-126.905,65.187-173.295
		c42.534-46.938,99.245-72.789,159.684-72.789c60.44,0,117.15,25.852,159.685,72.789c42.035,46.389,65.186,107.933,65.186,173.295
		C724.87,844.524,715.916,853.479,704.87,853.479z"/>
</g>
<g>
	<path fill="#606060" d="M212.578,581.78c-54.869,0-99.508-44.64-99.508-99.508c0-54.869,44.639-99.508,99.508-99.508
		c54.869,0,99.508,44.639,99.508,99.508C312.086,537.141,267.447,581.78,212.578,581.78z M212.578,422.764
		c-32.813,0-59.508,26.695-59.508,59.509c0,32.812,26.695,59.508,59.508,59.508c32.812,0,59.508-26.695,59.508-59.508
		C272.086,449.459,245.391,422.764,212.578,422.764z"/>
	<path fill="#606060" d="M78.667,772.482c-11.046,0-20-8.954-20-20c0-3.804,0.114-7.661,0.34-11.467
		c2.179-36.597,15.262-72.257,36.838-100.415c21.613-28.201,51.439-48.604,83.984-57.452c34.217-9.303,70.787-5.968,102.977,9.392
		c30.465,14.532,56.604,39.755,73.599,71.021c5.274,9.705,1.685,21.85-8.021,27.123c-9.704,5.277-21.848,1.688-27.124-8.02
		c-12.996-23.908-32.77-43.094-55.678-54.021c-23.554-11.236-50.283-13.688-75.261-6.895c-24.138,6.562-46.415,21.896-62.727,43.184
		c-16.771,21.888-26.95,49.751-28.659,78.458c-0.179,3.017-0.27,6.076-0.27,9.094C98.667,763.528,89.713,772.482,78.667,772.482z"/>
</g>
<polygon fill="#606060" points="338.834,270.364 232.94,265.868 169.203,350.552 140.756,248.451 40.521,214.003 128.834,155.397 
	130.622,49.423 213.649,115.304 314.99,84.256 277.99,183.578 "/>
</svg>
