<?xml version="1.0" encoding="utf-8"?>
<!-- Generator: Adobe Illustrator 16.0.0, SVG Export Plug-In . SVG Version: 6.00 Build 0)  -->
<!DOCTYPE svg PUBLIC "-//W3C//DTD SVG 1.1//EN" "http://www.w3.org/Graphics/SVG/1.1/DTD/svg11.dtd">
<svg version="1.1" id="Layer_1" xmlns="http://www.w3.org/2000/svg" xmlns:xlink="http://www.w3.org/1999/xlink" x="0px" y="0px"
	 width="1000px" height="1000px" viewBox="0 0 1000 1000" enable-background="new 0 0 1000 1000" xml:space="preserve">
<g>
	<path fill="#606060" d="M787.422,484.156c-54.869,0-99.508-44.64-99.508-99.508s44.639-99.508,99.508-99.508
		s99.508,44.639,99.508,99.508S842.291,484.156,787.422,484.156z M787.422,325.14c-32.812,0-59.508,26.695-59.508,59.508
		s26.695,59.508,59.508,59.508c32.813,0,59.508-26.695,59.508-59.508S820.234,325.14,787.422,325.14z"/>
	<path fill="#606060" d="M921.332,674.858c-11.046,0-20-8.954-20-20c0-3.021-0.091-6.082-0.27-9.098
		c-1.709-28.703-11.887-56.566-28.658-78.456c-16.312-21.283-38.59-36.62-62.729-43.182c-24.978-6.792-51.707-4.343-75.261,6.894
		c-22.91,10.931-42.685,30.115-55.678,54.021c-5.275,9.706-17.419,13.296-27.123,8.021c-9.705-5.274-13.296-17.419-8.021-27.123
		c16.994-31.265,43.132-56.486,73.601-71.021c32.192-15.357,68.765-18.692,102.978-9.391c32.544,8.847,62.369,29.25,83.981,57.45
		c21.578,28.16,34.662,63.821,36.84,100.413c0.226,3.805,0.34,7.661,0.34,11.471C941.332,665.904,932.378,674.858,921.332,674.858z"
		/>
</g>
<g>
	<path fill="#606060" d="M508.93,476.817c-75.176,0-136.336-61.16-136.336-136.336c0-75.176,61.16-136.336,136.336-136.336
		s136.336,61.16,136.336,136.336C645.266,415.657,584.105,476.817,508.93,476.817z M508.93,244.145
		c-53.12,0-96.336,43.216-96.336,96.336s43.216,96.336,96.336,96.336s96.336-43.216,96.336-96.336S562.05,244.145,508.93,244.145z"
		/>
	<path fill="#606060" d="M704.87,755.855c-11.046,0-20-8.954-20-20c0-113.636-82.933-206.084-184.869-206.084
		s-184.87,92.448-184.87,206.084c0,11.046-8.954,20-20,20s-20-8.954-20-20c0-65.363,23.15-126.907,65.187-173.296
		c42.534-46.938,99.245-72.788,159.684-72.788c60.44,0,117.151,25.851,159.685,72.788c42.035,46.389,65.186,107.933,65.186,173.296
		C724.87,746.901,715.916,755.855,704.87,755.855z"/>
</g>
<g>
	<path fill="#606060" d="M212.578,484.156c-54.869,0-99.508-44.64-99.508-99.508s44.639-99.508,99.508-99.508
		c54.869,0,99.508,44.639,99.508,99.508S267.447,484.156,212.578,484.156z M212.578,325.14c-32.813,0-59.508,26.695-59.508,59.508
		s26.695,59.508,59.508,59.508c32.812,0,59.508-26.695,59.508-59.508S245.391,325.14,212.578,325.14z"/>
	<path fill="#606060" d="M78.667,674.858c-11.046,0-20-8.954-20-20c0-3.804,0.114-7.661,0.34-11.467
		c2.179-36.597,15.262-72.257,36.838-100.415c21.613-28.201,51.439-48.604,83.984-57.452c34.217-9.302,70.787-5.966,102.977,9.392
		c30.465,14.532,56.604,39.755,73.599,71.021c5.274,9.704,1.685,21.849-8.021,27.122c-9.704,5.276-21.848,1.688-27.124-8.02
		c-12.996-23.908-32.77-43.094-55.678-54.021c-23.554-11.236-50.283-13.687-75.261-6.895c-24.138,6.562-46.415,21.896-62.727,43.184
		c-16.771,21.888-26.95,49.751-28.659,78.458c-0.179,3.017-0.27,6.076-0.27,9.094C98.667,665.904,89.713,674.858,78.667,674.858z"/>
</g>
<path fill="#606060" d="M508.93,584.771L508.93,584.771c-6.266,0-12.122-3.11-15.63-8.303l-34.278-50.729
	c-3.906-5.782-4.303-13.248-1.028-19.41c3.272-6.163,9.681-10.015,16.659-10.015h68.558c6.978,0,13.386,3.853,16.659,10.015
	c3.272,6.162,2.877,13.629-1.029,19.41l-34.279,50.729C521.052,581.66,515.194,584.771,508.93,584.771z"/>
<path fill="#606060" d="M560.854,732.326l-34.278-154.254c-1.837-8.266-9.163-14.146-17.628-14.155h-0.019
	c-8.458,0-15.787,5.867-17.638,14.121l-34.278,152.876c-1.441,6.43,0.729,13.135,5.667,17.498l34.278,30.3
	c3.415,3.019,7.691,4.533,11.972,4.533c4.142,0,8.285-1.418,11.655-4.261l34.279-28.923
	C560.006,745.725,562.312,738.892,560.854,732.326z"/>
<path fill="#606060" d="M212.578,545.329c-4.146,0-8.021-2.06-10.343-5.494l-22.685-33.57c-2.585-3.825-2.848-8.767-0.681-12.845
	c2.166-4.078,6.407-6.627,11.024-6.627h45.37c4.618,0,8.858,2.549,11.024,6.627c2.167,4.078,1.904,9.02-0.681,12.845l-22.685,33.57
	C220.6,543.271,216.724,545.329,212.578,545.329z"/>
<path fill="#606060" d="M246.94,642.977l-22.685-102.08c-1.215-5.469-6.063-9.361-11.666-9.366h-0.011
	c-5.597,0-10.447,3.882-11.672,9.345l-22.685,101.168c-0.954,4.255,0.482,8.691,3.75,11.58l22.685,20.052
	c2.26,1.997,5.09,2.999,7.923,2.999c2.74,0,5.483-0.938,7.713-2.818l22.685-19.141C246.379,651.844,247.906,647.321,246.94,642.977z
	"/>
<path fill="#606060" d="M787.422,545.329c-4.146,0-8.021-2.06-10.343-5.494l-22.687-33.57c-2.586-3.825-2.848-8.767-0.682-12.845
	s6.406-6.627,11.024-6.627h45.37c4.617,0,8.857,2.549,11.023,6.627s1.904,9.02-0.682,12.845l-22.686,33.57
	C795.443,543.271,791.568,545.329,787.422,545.329z"/>
<path fill="#606060" d="M821.783,642.977l-22.686-102.08c-1.215-5.469-6.062-9.361-11.665-9.366h-0.012
	c-5.597,0-10.447,3.882-11.672,9.345l-22.686,101.168c-0.954,4.255,0.481,8.692,3.75,11.58l22.686,20.052
	c2.26,1.997,5.09,2.999,7.923,2.999c2.74,0,5.482-0.938,7.713-2.818l22.686-19.141C821.223,651.844,822.749,647.321,821.783,642.977
	z"/>
</svg>
