<?xml version="1.0" encoding="utf-8"?>
<!-- Generator: Adobe Illustrator 16.0.0, SVG Export Plug-In . SVG Version: 6.00 Build 0)  -->
<!DOCTYPE svg PUBLIC "-//W3C//DTD SVG 1.1//EN" "http://www.w3.org/Graphics/SVG/1.1/DTD/svg11.dtd">
<svg version="1.1" id="Layer_1" xmlns="http://www.w3.org/2000/svg" xmlns:xlink="http://www.w3.org/1999/xlink" x="0px" y="0px"
	 width="1000px" height="1000px" viewBox="0 0 1000 1000" enable-background="new 0 0 1000 1000" xml:space="preserve">
<g id="Layer_2">
</g>
<path fill="#606060" d="M500,476.817c-75.176,0-136.336-61.16-136.336-136.336c0-75.176,61.16-136.336,136.336-136.336
	s136.336,61.16,136.336,136.336C636.336,415.657,575.176,476.817,500,476.817z M500,244.145c-53.12,0-96.336,43.216-96.336,96.336
	S446.88,436.817,500,436.817s96.336-43.216,96.336-96.336S553.12,244.145,500,244.145z"/>
<path fill="#606060" d="M704.869,755.855c-11.046,0-20-8.954-20-20c0-113.636-82.932-206.084-184.869-206.084
	S315.13,622.22,315.13,735.855c0,11.046-8.954,20-20,20s-20-8.954-20-20c0-65.363,23.15-126.907,65.188-173.296
	c42.534-46.938,99.245-72.788,159.684-72.788c60.44,0,117.151,25.851,159.685,72.788c42.035,46.389,65.186,107.933,65.186,173.296
	C724.869,746.901,715.915,755.855,704.869,755.855z"/>
<path fill="#606060" d="M199.5,467.496v-50.5c-29-0.5-59-9.5-76.5-22l12-33.5c18,12,44,21.5,72,21.5c35.5,0,59.5-20.5,59.5-49
	c0-27.5-19.5-44.5-56.5-59.5c-51-20-82.5-43-82.5-86.5c0-41.5,29.5-73,75.5-80.5v-50.5h31v48.5c30,1,50.5,9,65,17.5l-12.5,33
	c-10.5-6-31-17-63-17c-38.5,0-53,23-53,43c0,26,18.5,39,62,57c51.5,21,77.5,47,77.5,91.5c0,39.5-27.5,76.5-79,85v52H199.5z"/>
</svg>
