<?xml version="1.0" encoding="utf-8"?>
<!-- Generator: Adobe Illustrator 16.0.0, SVG Export Plug-In . SVG Version: 6.00 Build 0)  -->
<!DOCTYPE svg PUBLIC "-//W3C//DTD SVG 1.1//EN" "http://www.w3.org/Graphics/SVG/1.1/DTD/svg11.dtd">
<svg version="1.1" id="Layer_1" xmlns="http://www.w3.org/2000/svg" xmlns:xlink="http://www.w3.org/1999/xlink" x="0px" y="0px"
	 width="1000px" height="1000px" viewBox="0 0 1000 1000" enable-background="new 0 0 1000 1000" xml:space="preserve">
<g id="Layer_2">
</g>
<path fill="#606060" d="M455.996,476.817c-75.176,0-136.336-61.16-136.336-136.336c0-75.176,61.16-136.336,136.336-136.336
	s136.336,61.16,136.336,136.336C592.332,415.657,531.172,476.817,455.996,476.817z M455.996,244.145
	c-53.12,0-96.336,43.216-96.336,96.336s43.216,96.336,96.336,96.336s96.336-43.216,96.336-96.336S509.116,244.145,455.996,244.145z"
	/>
<path fill="#606060" d="M251.126,755.855c-11.046,0-20-8.954-20-20c0-35.981,7.326-72.094,21.186-104.432
	c13.454-31.389,33.323-59.937,57.459-82.558c24.521-22.983,53.83-40.201,84.761-49.792c32.438-10.061,67.214-11.996,100.567-5.597
	c5.887,1.13,11.799,2.533,17.571,4.174c10.626,3.017,16.794,14.076,13.776,24.701c-3.018,10.626-14.074,16.794-24.702,13.776
	c-4.662-1.323-9.434-2.457-14.184-3.368c-26.925-5.165-54.999-3.604-81.183,4.519c-25.179,7.808-49.127,21.905-69.255,40.771
	c-20.139,18.874-36.753,42.779-48.048,69.13c-11.744,27.4-17.952,58.063-17.952,88.673
	C271.126,746.901,262.172,755.855,251.126,755.855z"/>
<path fill="#606060" d="M743.033,476.817c-75.176,0-136.336-61.16-136.336-136.336c0-75.176,61.16-136.336,136.336-136.336
	s136.336,61.16,136.336,136.336C879.369,415.657,818.209,476.817,743.033,476.817z M743.033,244.145
	c-53.12,0-96.336,43.216-96.336,96.336s43.216,96.336,96.336,96.336s96.336-43.216,96.336-96.336S796.153,244.145,743.033,244.145z"
	/>
<path fill="#606060" d="M947.902,755.855c-11.047,0-20-8.954-20-20c0-18.762-2.267-37.354-6.734-55.266
	c-9.203-36.875-27.496-70.17-52.901-96.283c-25.702-26.423-58.737-44.683-93.021-51.418c-37.12-7.293-76.254-1.578-110.188,16.089
	c-9.801,5.102-21.875,1.294-26.976-8.503c-5.102-9.798-1.294-21.875,8.503-26.976c41.951-21.842,90.383-28.896,136.372-19.86
	c42.185,8.288,82.664,30.582,113.98,62.776c30.328,31.173,52.127,70.763,63.041,114.49c5.259,21.075,7.925,42.928,7.925,64.948
	C967.902,746.901,958.948,755.855,947.902,755.855z"/>
<path fill="#606060" d="M131.5,467.496v-50.5c-29-0.5-59-9.5-76.5-22l12-33.5c18,12,44,21.5,72,21.5c35.5,0,59.5-20.5,59.5-49
	c0-27.5-19.5-44.5-56.5-59.5c-51-20-82.5-43-82.5-86.5c0-41.5,29.5-73,75.5-80.5v-50.5h31v48.5c30,1,50.5,9,65,17.5l-12.5,33
	c-10.5-6-31-17-63-17c-38.5,0-53,23-53,43c0,26,18.5,39,62,57c51.5,21,77.5,47,77.5,91.5c0,39.5-27.5,76.5-79,85v52H131.5z"/>
<path fill="#606060" d="M562.332,681.83c-55.645,0-100.915-45.271-100.915-100.915S506.688,480,562.332,480
	c55.644,0,100.915,45.271,100.915,100.915S617.977,681.83,562.332,681.83z M562.332,520c-33.589,0-60.915,27.326-60.915,60.915
	s27.326,60.915,60.915,60.915s60.915-27.326,60.915-60.915S595.921,520,562.332,520z"/>
<path fill="#606060" d="M704.824,875.909c-11.046,0-20-8.954-20-20c0-75.679-54.95-137.248-122.492-137.248
	c-67.543,0-122.493,61.569-122.493,137.248c0,11.046-8.954,20-20,20s-20-8.954-20-20c0-46.978,16.662-91.234,46.916-124.62
	c30.753-33.938,71.799-52.628,115.578-52.628s84.825,18.689,115.577,52.628c30.254,33.386,46.915,77.644,46.915,124.62
	C724.824,866.955,715.87,875.909,704.824,875.909z"/>
</svg>
