<?xml version="1.0" encoding="utf-8"?>
<!-- Generator: Adobe Illustrator 16.0.0, SVG Export Plug-In . SVG Version: 6.00 Build 0)  -->
<!DOCTYPE svg PUBLIC "-//W3C//DTD SVG 1.1//EN" "http://www.w3.org/Graphics/SVG/1.1/DTD/svg11.dtd">
<svg version="1.1" id="Layer_1" xmlns="http://www.w3.org/2000/svg" xmlns:xlink="http://www.w3.org/1999/xlink" x="0px" y="0px"
	 width="1000px" height="1000px" viewBox="0 0 1000 1000" enable-background="new 0 0 1000 1000" xml:space="preserve">
<g>
	<path fill="#606060" d="M695.429,476.817c-75.176,0-136.336-61.16-136.336-136.336c0-75.176,61.16-136.336,136.336-136.336
		c75.177,0,136.336,61.16,136.336,136.336C831.765,415.657,770.604,476.817,695.429,476.817z M695.429,244.145
		c-53.12,0-96.336,43.216-96.336,96.336s43.216,96.336,96.336,96.336s96.336-43.216,96.336-96.336S748.549,244.145,695.429,244.145z
		"/>
	<path fill="#606060" d="M891.369,755.855c-11.046,0-20-8.954-20-20c0-113.636-82.932-206.084-184.869-206.084
		S501.63,622.22,501.63,735.855c0,11.046-8.954,20-20,20s-20-8.954-20-20c0-65.363,23.15-126.907,65.187-173.296
		c42.534-46.938,99.244-72.788,159.685-72.788s117.151,25.851,159.685,72.788c42.035,46.389,65.186,107.933,65.186,173.296
		C911.369,746.901,902.415,755.855,891.369,755.855z"/>
</g>
<path fill="#606060" d="M954.5,845.659h-904c-10.418,0-18.863-8.445-18.863-18.863V148.932c0-10.418,8.445-18.864,18.863-18.864h904
	c10.418,0,18.863,8.446,18.863,18.864v677.864C973.363,837.214,964.918,845.659,954.5,845.659z M69.363,807.933h866.273V167.795
	H69.363V807.933z"/>
<path fill="#606060" d="M376.5,400h-224c-11.046,0-20-8.954-20-20s8.954-20,20-20h224c11.046,0,20,8.954,20,20
	S387.546,400,376.5,400z"/>
<path fill="#606060" d="M376.5,513.5h-224c-11.046,0-20-8.954-20-20s8.954-20,20-20h224c11.046,0,20,8.954,20,20
	S387.546,513.5,376.5,513.5z"/>
<path fill="#606060" d="M376.5,627h-224c-11.046,0-20-8.954-20-20s8.954-20,20-20h224c11.046,0,20,8.954,20,20
	S387.546,627,376.5,627z"/>
</svg>
