<?xml version="1.0" encoding="utf-8"?>
<!-- Generator: Adobe Illustrator 16.0.0, SVG Export Plug-In . SVG Version: 6.00 Build 0)  -->
<!DOCTYPE svg PUBLIC "-//W3C//DTD SVG 1.1//EN" "http://www.w3.org/Graphics/SVG/1.1/DTD/svg11.dtd">
<svg version="1.1" id="Layer_1" xmlns="http://www.w3.org/2000/svg" xmlns:xlink="http://www.w3.org/1999/xlink" x="0px" y="0px"
	 width="1000px" height="1000px" viewBox="0 0 1000 1000" enable-background="new 0 0 1000 1000" xml:space="preserve">
<g id="Layer_2_1_">
</g>
<g id="Layer_2">
</g>
<path fill="#606060" d="M878,896H206c-11.046,0-20-8.954-20-20V236c0-11.046,8.954-20,20-20h672c11.046,0,20,8.954,20,20v640
	C898,887.046,889.046,896,878,896z M226,856h632V256H226V856z"/>
<rect x="257.262" y="352.381" fill="#606060" width="99.909" height="64"/>
<rect x="374.654" y="352.381" fill="#606060" width="99.908" height="64"/>
<rect x="492.046" y="352.381" fill="#606060" width="99.909" height="64"/>
<rect x="609.438" y="352.381" fill="#606060" width="99.908" height="64"/>
<rect x="726.83" y="352.381" fill="#606060" width="99.908" height="64"/>
<rect x="257.262" y="438.19" fill="#606060" width="99.909" height="64.001"/>
<rect x="257.262" y="523.998" fill="#606060" width="99.909" height="64.002"/>
<rect x="257.262" y="609.809" fill="#606060" width="99.909" height="64"/>
<rect x="257.262" y="695.617" fill="#606060" width="99.909" height="64.002"/>
<path fill="#606060" d="M198.5,800H166V200h632v28.5h40V180c0-11.046-8.954-20-20-20H146c-11.046,0-20,8.954-20,20v640
	c0,11.046,8.954,20,20,20h52.5V800z"/>
<path fill="#606060" d="M139.5,741H107V141h632v28.5h40V121c0-11.046-8.954-20-20-20H87c-11.046,0-20,8.954-20,20v640
	c0,11.046,8.954,20,20,20h52.5V741z"/>
<rect x="492.045" y="491.5" fill="#606060" width="99.91" height="10.691"/>
<rect x="609.437" y="491.5" fill="#606060" width="99.91" height="10.691"/>
<rect x="726.829" y="491.5" fill="#606060" width="99.91" height="10.691"/>
<rect x="374.653" y="491.5" fill="#606060" width="99.91" height="10.691"/>
<rect x="492.045" y="577.309" fill="#606060" width="99.91" height="10.691"/>
<rect x="609.437" y="577.309" fill="#606060" width="99.91" height="10.691"/>
<rect x="726.829" y="577.309" fill="#606060" width="99.91" height="10.691"/>
<rect x="374.653" y="577.309" fill="#606060" width="99.91" height="10.691"/>
<rect x="492.045" y="663.117" fill="#606060" width="99.91" height="10.691"/>
<rect x="609.437" y="663.117" fill="#606060" width="99.91" height="10.691"/>
<rect x="726.829" y="663.117" fill="#606060" width="99.91" height="10.691"/>
<rect x="374.653" y="663.117" fill="#606060" width="99.91" height="10.691"/>
<rect x="492.045" y="748.928" fill="#606060" width="99.91" height="10.691"/>
<rect x="609.437" y="748.928" fill="#606060" width="99.91" height="10.691"/>
<rect x="726.829" y="748.928" fill="#606060" width="99.91" height="10.691"/>
<rect x="374.653" y="748.928" fill="#606060" width="99.91" height="10.691"/>
</svg>
