<?xml version="1.0" encoding="utf-8"?>
<!-- Generator: Adobe Illustrator 16.0.0, SVG Export Plug-In . SVG Version: 6.00 Build 0)  -->
<!DOCTYPE svg PUBLIC "-//W3C//DTD SVG 1.1//EN" "http://www.w3.org/Graphics/SVG/1.1/DTD/svg11.dtd">
<svg version="1.1" id="Layer_1" xmlns="http://www.w3.org/2000/svg" xmlns:xlink="http://www.w3.org/1999/xlink" x="0px" y="0px"
	 width="1000px" height="1000px" viewBox="0 0 1000 1000" enable-background="new 0 0 1000 1000" xml:space="preserve">
<g id="Layer_2">
</g>
<g id="Layer_1_1_">
	<path fill="#606060" d="M890.5,852.5h-788c-11.046,0-20-8.954-20-20v-726c0-11.046,8.954-20,20-20s20,8.954,20,20v706h768
		c11.046,0,20,8.954,20,20S901.546,852.5,890.5,852.5z"/>
	<g>
		<g>
			<path fill="#606060" d="M188.5,708.5c-5.119,0-10.237-1.953-14.142-5.857c-7.811-7.811-7.811-20.475,0-28.284l247-247
				c3.801-3.802,8.977-5.897,14.348-5.857c5.375,0.056,10.502,2.272,14.225,6.151l80.864,84.269l211.372-211.373
				c7.811-7.811,20.475-7.811,28.285,0c7.81,7.811,7.811,20.474,0,28.284L544.642,554.643c-3.802,3.802-8.961,5.935-14.349,5.856
				c-5.376-0.056-10.503-2.271-14.225-6.151l-80.864-84.269L202.642,702.643C198.737,706.547,193.619,708.5,188.5,708.5z"/>
			<g>
				<polygon fill="#606060" points="796.217,387.61 837.5,233.5 683.39,274.783 				"/>
			</g>
		</g>
	</g>
</g>
</svg>
