<?xml version="1.0" encoding="utf-8"?>
<!-- Generator: Adobe Illustrator 16.0.0, SVG Export Plug-In . SVG Version: 6.00 Build 0)  -->
<!DOCTYPE svg PUBLIC "-//W3C//DTD SVG 1.1//EN" "http://www.w3.org/Graphics/SVG/1.1/DTD/svg11.dtd">
<svg version="1.1" id="Layer_1" xmlns="http://www.w3.org/2000/svg" xmlns:xlink="http://www.w3.org/1999/xlink" x="0px" y="0px"
	 width="1000px" height="1000px" viewBox="0 0 1000 1000" enable-background="new 0 0 1000 1000" xml:space="preserve">
<g id="Layer_2_1_">
</g>
<path fill="#606060" d="M739,862.732H261c-10.069,0-18.232-8.163-18.232-18.232v-328c0-10.069,8.163-18.232,18.232-18.232h478
	c10.069,0,18.232,8.163,18.232,18.232v328C757.232,854.569,749.069,862.732,739,862.732z M279.232,826.268h441.536V534.732H279.232
	V826.268z"/>
<path fill="#606060" d="M358.5,524.732c-10.069,0-18.232-8.163-18.232-18.232v-172c0-54.483,16.642-100.481,48.124-133.022
	c28.362-29.315,66.573-45.46,107.596-45.46c40.681,0,78.646,15.87,106.9,44.685c31.3,31.921,47.846,76.804,47.846,129.798
	c0,10.069-8.163,18.232-18.232,18.232s-18.231-8.163-18.231-18.232c0-66.474-37.015-138.019-118.281-138.019
	c-31.053,0-59.958,12.199-81.389,34.351c-24.771,25.605-37.866,62.836-37.866,107.668v172
	C376.732,516.569,368.569,524.732,358.5,524.732z"/>
<path fill="#606060" d="M529,786.732h-58c-10.069,0-18.232-8.163-18.232-18.232v-166c0-10.069,8.163-18.232,18.232-18.232h58
	c10.069,0,18.232,8.163,18.232,18.232v166C547.232,778.569,539.069,786.732,529,786.732z M489.232,750.268h21.535V620.732h-21.535
	V750.268z"/>
</svg>
