<?xml version="1.0" encoding="utf-8"?>
<!-- Generator: Adobe Illustrator 16.0.0, SVG Export Plug-In . SVG Version: 6.00 Build 0)  -->
<!DOCTYPE svg PUBLIC "-//W3C//DTD SVG 1.1//EN" "http://www.w3.org/Graphics/SVG/1.1/DTD/svg11.dtd">
<svg version="1.1" id="Layer_1" xmlns="http://www.w3.org/2000/svg" xmlns:xlink="http://www.w3.org/1999/xlink" x="0px" y="0px"
	 width="1000px" height="1000px" viewBox="0 0 1000 1000" enable-background="new 0 0 1000 1000" xml:space="preserve">
<g id="Layer_2_1_">
</g>
<g id="Layer_2">
</g>
<path fill="#606060" d="M836,840H164c-11.046,0-20-8.954-20-20V180c0-11.046,8.954-20,20-20h672c11.046,0,20,8.954,20,20v640
	C856,831.046,847.046,840,836,840z M184,800h632V200H184V800z"/>
<rect x="215.262" y="296.381" fill="#606060" width="99.909" height="64"/>
<rect x="332.654" y="296.381" fill="#606060" width="99.908" height="64"/>
<rect x="450.046" y="296.381" fill="#606060" width="99.909" height="64"/>
<rect x="567.438" y="296.381" fill="#606060" width="99.908" height="64"/>
<rect x="684.83" y="296.381" fill="#606060" width="99.908" height="64"/>
<rect x="215.262" y="382.19" fill="#606060" width="99.909" height="64.001"/>
<rect x="215.262" y="467.999" fill="#606060" width="99.909" height="64.001"/>
<rect x="215.262" y="553.809" fill="#606060" width="99.909" height="64"/>
<rect x="215.262" y="639.617" fill="#606060" width="99.909" height="64.002"/>
<path fill="#606060" d="M355.045,258.293h-31.133c-11.046,0-20-8.954-20-20V100.279c0-11.046,8.954-20,20-20h31.133
	c11.046,0,20,8.954,20,20v138.014C375.045,249.339,366.091,258.293,355.045,258.293z"/>
<path fill="#606060" d="M515.566,258.293h-31.136c-11.045,0-20-8.954-20-20V100.279c0-11.046,8.955-20,20-20h31.136
	c11.046,0,20,8.954,20,20v138.014C535.566,249.339,526.612,258.293,515.566,258.293z"/>
<path fill="#606060" d="M676.088,258.293h-31.133c-11.046,0-20-8.954-20-20V100.279c0-11.046,8.954-20,20-20h31.133
	c11.046,0,20,8.954,20,20v138.014C696.088,249.339,687.134,258.293,676.088,258.293z"/>
<g>
	<rect x="450.045" y="432.5" fill="#606060" width="99.91" height="13.691"/>
	<path fill="#606060" d="M551.111,447.348H448.889v-16.004h102.223V447.348z M451.201,445.035h97.598v-11.379h-97.598V445.035z"/>
</g>
<g>
	<rect x="332.653" y="432.5" fill="#606060" width="99.91" height="13.691"/>
	<path fill="#606060" d="M433.72,447.348H331.497v-16.004H433.72V447.348z M333.81,445.035h97.598v-11.379H333.81V445.035z"/>
</g>
<g>
	<rect x="567.437" y="432.5" fill="#606060" width="99.91" height="13.691"/>
	<path fill="#606060" d="M668.503,447.348H566.28v-16.004h102.223V447.348z M568.593,445.035h97.598v-11.379h-97.598V445.035z"/>
</g>
<g>
	<rect x="684.829" y="432.5" fill="#606060" width="99.91" height="13.691"/>
	<path fill="#606060" d="M785.896,447.348H683.673v-16.004h102.223V447.348z M685.985,445.035h97.598v-11.379h-97.598V445.035z"/>
</g>
<g>
	<rect x="450.045" y="518.309" fill="#606060" width="99.91" height="13.691"/>
	<path fill="#606060" d="M551.111,533.156H448.889v-16.004h102.223V533.156z M451.201,530.844h97.598v-11.379h-97.598V530.844z"/>
</g>
<g>
	<rect x="332.653" y="518.309" fill="#606060" width="99.91" height="13.691"/>
	<path fill="#606060" d="M433.72,533.156H331.497v-16.004H433.72V533.156z M333.81,530.844h97.598v-11.379H333.81V530.844z"/>
</g>
<g>
	<rect x="567.437" y="518.309" fill="#606060" width="99.91" height="13.691"/>
	<path fill="#606060" d="M668.503,533.156H566.28v-16.004h102.223V533.156z M568.593,530.844h97.598v-11.379h-97.598V530.844z"/>
</g>
<g>
	<rect x="684.829" y="518.309" fill="#606060" width="99.91" height="13.691"/>
	<path fill="#606060" d="M785.896,533.156H683.673v-16.004h102.223V533.156z M685.985,530.844h97.598v-11.379h-97.598V530.844z"/>
</g>
<g>
	<rect x="450.045" y="604.117" fill="#606060" width="99.91" height="13.691"/>
	<path fill="#606060" d="M551.111,618.965H448.889v-16.004h102.223V618.965z M451.201,616.652h97.598v-11.379h-97.598V616.652z"/>
</g>
<g>
	<rect x="332.653" y="604.117" fill="#606060" width="99.91" height="13.691"/>
	<path fill="#606060" d="M433.72,618.965H331.497v-16.004H433.72V618.965z M333.81,616.652h97.598v-11.379H333.81V616.652z"/>
</g>
<g>
	<rect x="567.437" y="604.117" fill="#606060" width="99.91" height="13.691"/>
	<path fill="#606060" d="M668.503,618.965H566.28v-16.004h102.223V618.965z M568.593,616.652h97.598v-11.379h-97.598V616.652z"/>
</g>
<g>
	<rect x="684.829" y="604.117" fill="#606060" width="99.91" height="13.691"/>
	<path fill="#606060" d="M785.896,618.965H683.673v-16.004h102.223V618.965z M685.985,616.652h97.598v-11.379h-97.598V616.652z"/>
</g>
<g>
	<rect x="450.045" y="689.928" fill="#606060" width="99.91" height="13.691"/>
	<path fill="#606060" d="M551.111,704.775H448.889v-16.004h102.223V704.775z M451.201,702.463h97.598v-11.379h-97.598V702.463z"/>
</g>
<g>
	<rect x="332.653" y="689.928" fill="#606060" width="99.91" height="13.691"/>
	<path fill="#606060" d="M433.72,704.775H331.497v-16.004H433.72V704.775z M333.81,702.463h97.598v-11.379H333.81V702.463z"/>
</g>
<g>
	<rect x="567.437" y="689.928" fill="#606060" width="99.91" height="13.691"/>
	<path fill="#606060" d="M668.503,704.775H566.28v-16.004h102.223V704.775z M568.593,702.463h97.598v-11.379h-97.598V702.463z"/>
</g>
<g>
	<rect x="684.829" y="689.928" fill="#606060" width="99.91" height="13.691"/>
	<path fill="#606060" d="M785.896,704.775H683.673v-16.004h102.223V704.775z M685.985,702.463h97.598v-11.379h-97.598V702.463z"/>
</g>
</svg>
