<?xml version="1.0" encoding="utf-8"?>
<!-- Generator: Adobe Illustrator 16.0.0, SVG Export Plug-In . SVG Version: 6.00 Build 0)  -->
<!DOCTYPE svg PUBLIC "-//W3C//DTD SVG 1.1//EN" "http://www.w3.org/Graphics/SVG/1.1/DTD/svg11.dtd">
<svg version="1.1" id="Layer_1" xmlns="http://www.w3.org/2000/svg" xmlns:xlink="http://www.w3.org/1999/xlink" x="0px" y="0px"
	 width="1000px" height="1000px" viewBox="0 0 1000 1000" enable-background="new 0 0 1000 1000" xml:space="preserve">
<g id="Layer_2_1_">
</g>
<path fill="#606060" d="M686.5,296.732h-398c-10.069,0-18.232-8.163-18.232-18.232v-136c0-10.069,8.163-18.232,18.232-18.232h398
	c10.069,0,18.232,8.163,18.232,18.232v136C704.732,288.569,696.569,296.732,686.5,296.732z M306.732,260.268h361.535v-99.536
	H306.732V260.268z"/>
<path fill="#606060" d="M686.5,876.5h-398c-11.046,0-20-8.954-20-20v-390c0-11.046,8.954-20,20-20h398c11.046,0,20,8.954,20,20v390
	C706.5,867.546,697.546,876.5,686.5,876.5z M308.5,836.5h358v-350h-358V836.5z"/>
<path fill="#606060" d="M888.268,604.268H686.5c-11.046,0-20-8.953-20-20V486.5h-358v97.768c0,11.047-8.954,20-20,20H92.732
	c-11.045,0-20-8.953-20-20V282.732c0-11.045,8.955-20,20-20h795.536c11.047,0,20,8.955,20,20v301.536
	C908.268,595.312,899.312,604.268,888.268,604.268z M706.5,564.268h161.768V302.732H112.732v261.536H268.5V466.5
	c0-11.046,8.954-20,20-20h398c11.046,0,20,8.954,20,20V564.268z"/>
<path fill="#606060" d="M600.5,572.732h-228c-10.069,0-18.232-8.163-18.232-18.232s8.163-18.232,18.232-18.232h228
	c10.069,0,18.232,8.163,18.232,18.232S610.569,572.732,600.5,572.732z"/>
<path fill="#606060" d="M600.5,649.399h-228c-10.069,0-18.232-8.163-18.232-18.232s8.163-18.232,18.232-18.232h228
	c10.069,0,18.232,8.163,18.232,18.232S610.569,649.399,600.5,649.399z"/>
<path fill="#606060" d="M600.5,726.065h-228c-10.069,0-18.232-8.163-18.232-18.232s8.163-18.232,18.232-18.232h228
	c10.069,0,18.232,8.163,18.232,18.232S610.569,726.065,600.5,726.065z"/>
<path fill="#606060" d="M600.5,802.732h-228c-10.069,0-18.232-8.163-18.232-18.232s8.163-18.232,18.232-18.232h228
	c10.069,0,18.232,8.163,18.232,18.232S610.569,802.732,600.5,802.732z"/>
<path fill="#606060" d="M786.5,416.732c-23.287,0-42.232-18.945-42.232-42.232s18.945-42.232,42.232-42.232
	s42.232,18.945,42.232,42.232S809.787,416.732,786.5,416.732z M786.5,368.732c-3.181,0-5.768,2.587-5.768,5.768
	s2.587,5.768,5.768,5.768s5.768-2.587,5.768-5.768S789.681,368.732,786.5,368.732z"/>
</svg>
