<?xml version="1.0" encoding="utf-8"?>
<!-- Generator: Adobe Illustrator 16.0.0, SVG Export Plug-In . SVG Version: 6.00 Build 0)  -->
<!DOCTYPE svg PUBLIC "-//W3C//DTD SVG 1.1//EN" "http://www.w3.org/Graphics/SVG/1.1/DTD/svg11.dtd">
<svg version="1.1" id="Layer_1" xmlns="http://www.w3.org/2000/svg" xmlns:xlink="http://www.w3.org/1999/xlink" x="0px" y="0px"
	 width="1000px" height="1000px" viewBox="0 0 1000 1000" enable-background="new 0 0 1000 1000" xml:space="preserve">
<g id="Layer_2">
</g>
<path fill="#606060" d="M842.715,934.041h-685.43c-11.045,0-20-8.954-20-20V85.959c0-11.046,8.955-20,20-20h685.43
	c11.046,0,20,8.954,20,20v828.082C862.715,925.087,853.761,934.041,842.715,934.041z M177.285,894.041h645.43V105.959h-645.43
	V894.041L177.285,894.041z"/>
<path fill="#606060" d="M759.523,192.287H222.36c-11.046,0-20-8.955-20-20s8.954-20,20-20h537.165c11.046,0,20,8.955,20,20
	S770.569,192.287,759.523,192.287z"/>
<path fill="#606060" d="M759.523,289.496H222.36c-11.046,0-20-8.955-20-20s8.954-20,20-20h537.165c11.046,0,20,8.955,20,20
	S770.569,289.496,759.523,289.496z"/>
<path fill="#606060" d="M759.523,386.706H222.36c-11.046,0-20-8.955-20-20s8.954-20,20-20h537.165c11.046,0,20,8.955,20,20
	S770.569,386.706,759.523,386.706z"/>
<path fill="#606060" d="M759.523,581.125H222.36c-11.046,0-20-8.954-20-20s8.954-20,20-20h537.165c11.046,0,20,8.954,20,20
	S770.569,581.125,759.523,581.125z"/>
<path fill="#606060" d="M565.074,483.916H222.36c-11.046,0-20-8.954-20-20s8.954-20,20-20h342.714c11.046,0,20,8.954,20,20
	S576.12,483.916,565.074,483.916z"/>
<path fill="#606060" d="M377.918,678.335H222.36c-11.046,0-20-8.954-20-20s8.954-20,20-20h155.558c11.046,0,20,8.954,20,20
	S388.964,678.335,377.918,678.335z"/>
<path fill="#606060" d="M630.15,846.796c-0.275,0-0.552-0.006-0.826-0.017c-6.336-0.263-12.172-3.513-15.729-8.761l-65.073-95.979
	c-6.199-9.143-3.812-21.579,5.33-27.777c9.146-6.198,21.579-3.811,27.776,5.33l49.906,73.609l118.789-147.415
	c6.931-8.6,19.521-9.955,28.122-3.024c8.601,6.932,9.955,19.521,3.023,28.122L645.722,839.345
	C641.916,844.067,636.185,846.796,630.15,846.796z"/>
</svg>
