<?xml version="1.0" encoding="utf-8"?>
<!-- Generator: Adobe Illustrator 16.0.0, SVG Export Plug-In . SVG Version: 6.00 Build 0)  -->
<!DOCTYPE svg PUBLIC "-//W3C//DTD SVG 1.1//EN" "http://www.w3.org/Graphics/SVG/1.1/DTD/svg11.dtd">
<svg version="1.1" id="Layer_1" xmlns="http://www.w3.org/2000/svg" xmlns:xlink="http://www.w3.org/1999/xlink" x="0px" y="0px"
	 width="1000px" height="1000px" viewBox="0 0 1000 1000" enable-background="new 0 0 1000 1000" xml:space="preserve">
<g>
	<g>
		<path fill="#606060" d="M504.611,741.624c-38.833,0-70.425-31.591-70.425-70.425c0-38.831,31.593-70.425,70.425-70.425
			c38.832,0,70.424,31.594,70.424,70.425C575.035,710.033,543.443,741.624,504.611,741.624z M504.611,621.437
			c-27.439,0-49.763,22.324-49.763,49.763c0,27.439,22.324,49.763,49.763,49.763c27.439,0,49.762-22.323,49.762-49.763
			C554.373,643.761,532.051,621.437,504.611,621.437z"/>
		<path fill="#606060" d="M605.826,885.763c-5.707,0-10.332-4.625-10.332-10.33c0-58.699-42.84-106.454-95.495-106.454
			c-52.656,0-95.496,47.755-95.496,106.454c0,5.705-4.625,10.33-10.331,10.33s-10.331-4.625-10.331-10.33
			c0-33.764,11.958-65.555,33.673-89.518c21.971-24.247,51.266-37.599,82.486-37.599c31.22,0,60.513,13.354,82.486,37.599
			c21.713,23.963,33.672,55.754,33.672,89.518C616.156,881.138,611.531,885.763,605.826,885.763z"/>
	</g>
	<path fill="#606060" d="M500,797.389L500,797.389c-3.237,0-6.263-1.605-8.074-4.288l-17.706-26.204
		c-2.018-2.987-2.224-6.843-0.531-10.026c1.69-3.184,5.001-5.174,8.605-5.174h35.414c3.605,0,6.914,1.99,8.605,5.174
		c1.689,3.184,1.486,7.039-0.531,10.026l-17.709,26.204C506.26,795.783,503.236,797.389,500,797.389z"/>
	<path fill="#606060" d="M526.822,873.609l-17.707-79.681c-0.949-4.271-4.734-7.308-9.105-7.312H500
		c-4.369,0-8.155,3.032-9.111,7.295l-17.707,78.968c-0.743,3.323,0.377,6.785,2.928,9.04l17.707,15.651
		c1.764,1.559,3.973,2.341,6.185,2.341c2.14,0,4.279-0.733,6.019-2.201l17.707-14.94
		C526.383,880.531,527.574,877.001,526.822,873.609z"/>
</g>
<g>
	<g>
		<path fill="#606060" d="M807.164,299.197c-38.832,0-70.424-31.591-70.424-70.425c0-38.831,31.592-70.425,70.424-70.425
			c38.834,0,70.426,31.594,70.426,70.425C877.59,267.606,845.998,299.197,807.164,299.197z M807.164,179.009
			c-27.439,0-49.762,22.324-49.762,49.763c0,27.439,22.322,49.763,49.762,49.763c27.441,0,49.764-22.323,49.764-49.763
			C856.928,201.333,834.605,179.009,807.164,179.009z"/>
		<path fill="#606060" d="M908.379,443.335c-5.705,0-10.33-4.625-10.33-10.33c0-58.699-42.84-106.454-95.496-106.454
			s-95.496,47.755-95.496,106.454c0,5.705-4.625,10.33-10.33,10.33c-5.707,0-10.332-4.625-10.332-10.33
			c0-33.764,11.959-65.555,33.674-89.518c21.971-24.247,51.264-37.599,82.484-37.599s60.516,13.354,82.486,37.599
			c21.713,23.963,33.672,55.754,33.672,89.518C918.711,438.71,914.084,443.335,908.379,443.335z"/>
	</g>
	<path fill="#606060" d="M802.553,354.961L802.553,354.961c-3.236,0-6.262-1.605-8.074-4.288l-17.707-26.204
		c-2.018-2.987-2.223-6.843-0.529-10.026c1.689-3.184,5-5.174,8.604-5.174h35.414c3.605,0,6.916,1.99,8.607,5.174
		c1.689,3.184,1.484,7.039-0.533,10.026l-17.707,26.204C808.814,353.356,805.789,354.961,802.553,354.961z"/>
	<path fill="#606060" d="M829.375,431.182l-17.707-79.681c-0.949-4.271-4.732-7.308-9.105-7.312h-0.01
		c-4.369,0-8.154,3.032-9.111,7.295l-17.707,78.968c-0.744,3.323,0.377,6.785,2.928,9.04l17.707,15.652
		c1.764,1.559,3.973,2.34,6.184,2.34c2.141,0,4.279-0.732,6.021-2.201l17.707-14.94
		C828.936,438.104,830.129,434.574,829.375,431.182z"/>
</g>
<g>
	<g>
		<path fill="#606060" d="M202.058,299.197c-38.833,0-70.425-31.591-70.425-70.425c0-38.831,31.592-70.425,70.425-70.425
			c38.833,0,70.425,31.594,70.425,70.425C272.483,267.606,240.891,299.197,202.058,299.197z M202.058,179.009
			c-27.439,0-49.763,22.324-49.763,49.763c0,27.439,22.324,49.763,49.763,49.763c27.44,0,49.763-22.323,49.763-49.763
			C251.821,201.333,229.499,179.009,202.058,179.009z"/>
		<path fill="#606060" d="M303.273,443.335c-5.706,0-10.331-4.625-10.331-10.33c0-58.699-42.84-106.454-95.496-106.454
			s-95.496,47.755-95.496,106.454c0,5.705-4.625,10.33-10.331,10.33c-5.706,0-10.331-4.625-10.331-10.33
			c0-33.764,11.958-65.555,33.673-89.518c21.971-24.247,51.265-37.599,82.485-37.599c31.221,0,60.515,13.354,82.486,37.599
			c21.713,23.963,33.672,55.754,33.672,89.518C313.604,438.71,308.978,443.335,303.273,443.335z"/>
	</g>
	<path fill="#606060" d="M197.446,354.961L197.446,354.961c-3.237,0-6.262-1.605-8.074-4.288l-17.707-26.204
		c-2.018-2.987-2.223-6.843-0.531-10.026c1.69-3.184,5-5.174,8.605-5.174h35.414c3.605,0,6.915,1.99,8.606,5.174
		c1.689,3.184,1.485,7.039-0.532,10.026l-17.708,26.204C203.708,353.356,200.683,354.961,197.446,354.961z"/>
	<path fill="#606060" d="M224.269,431.182l-17.707-79.681c-0.949-4.271-4.733-7.308-9.105-7.312h-0.01
		c-4.369,0-8.155,3.032-9.111,7.295l-17.707,78.968c-0.744,3.323,0.377,6.785,2.928,9.04l17.707,15.651
		c1.764,1.559,3.973,2.341,6.184,2.341c2.141,0,4.279-0.733,6.021-2.201l17.707-14.94
		C223.83,438.104,225.022,434.574,224.269,431.182z"/>
</g>
<path fill="#606060" d="M190.466,505.301c-13.828-0.548-27.241-2.706-40.052-6.31c-0.001,0.337-0.012,0.672-0.012,1.009
	c0,47.187,9.246,92.973,27.481,136.086c17.609,41.632,42.813,79.018,74.914,111.117c22.695,22.694,48.043,41.925,75.655,57.479
	c2.006-13.931,5.667-27.325,10.779-39.979c-20.888-12.738-40.41-28.043-58.15-45.783
	C223.857,661.695,191.813,586.014,190.466,505.301z"/>
<g>
	<path fill="#606060" d="M685.926,203.881c-15.827-9.95-32.458-18.645-49.841-25.998c-43.113-18.235-88.899-27.481-136.085-27.481
		c-47.187,0-92.972,9.246-136.085,27.481c-17.383,7.353-34.014,16.048-49.841,25.998c9.997,9.097,18.92,19.352,26.57,30.545
		c47.631-28.697,102.314-44.024,159.356-44.024s111.724,15.328,159.356,44.024C667.006,223.233,675.929,212.978,685.926,203.881z"/>
	<path fill="#606060" d="M809.533,505.301c-1.347,80.713-33.392,156.395-90.615,213.618c-17.74,17.74-37.263,33.045-58.15,45.783
		c5.113,12.654,8.773,26.049,10.779,39.979c27.612-15.554,52.961-34.784,75.655-57.479c32.101-32.1,57.305-69.485,74.914-111.117
		c18.235-43.113,27.481-88.899,27.481-136.086c0-0.337-0.012-0.672-0.013-1.009C836.774,502.595,823.361,504.753,809.533,505.301z"
		/>
</g>
</svg>
