<?xml version="1.0" encoding="utf-8"?>
<!-- Generator: Adobe Illustrator 16.0.0, SVG Export Plug-In . SVG Version: 6.00 Build 0)  -->
<!DOCTYPE svg PUBLIC "-//W3C//DTD SVG 1.1//EN" "http://www.w3.org/Graphics/SVG/1.1/DTD/svg11.dtd">
<svg version="1.1" id="Layer_1" xmlns="http://www.w3.org/2000/svg" xmlns:xlink="http://www.w3.org/1999/xlink" x="0px" y="0px"
	 width="1000px" height="1000px" viewBox="0 0 1000 1000" enable-background="new 0 0 1000 1000" xml:space="preserve">
<g id="Layer_2">
</g>
<path fill="#606060" d="M500,476.817c-75.176,0-136.336-61.16-136.336-136.336c0-75.176,61.16-136.336,136.336-136.336
	s136.336,61.16,136.336,136.336C636.336,415.657,575.176,476.817,500,476.817z M500,244.145c-53.12,0-96.336,43.216-96.336,96.336
	c0,53.12,43.216,96.336,96.336,96.336c53.12,0,96.336-43.216,96.336-96.336C596.336,287.361,553.12,244.145,500,244.145z"/>
<path fill="#606060" d="M704.869,755.855c-11.046,0-20-8.954-20-20c0-113.635-82.932-206.084-184.869-206.084
	s-184.87,92.449-184.87,206.084c0,11.046-8.954,20-20,20s-20-8.954-20-20c0-65.362,23.15-126.907,65.187-173.295
	c42.535-46.938,99.245-72.789,159.684-72.789c60.44,0,117.151,25.851,159.685,72.789c42.035,46.388,65.185,107.932,65.185,173.295
	C724.869,746.901,715.915,755.855,704.869,755.855z"/>
<g>
	<path fill="#606060" d="M95,437.496l13-98H67v-29.5h45.5l9.5-72.5H79v-29.5h47.5l13-95.5h29l-12.5,95.5h52l13-95.5h29.5l-12.5,95.5
		h41v29.5h-45.5l-9,72.5h43v29.5H220l-13,98h-30l13-98h-52l-13,98H95z M194.5,309.996l9.5-72.5h-52l-9.5,72.5H194.5z"/>
</g>
</svg>
