<?xml version="1.0" encoding="utf-8"?>
<!-- Generator: Adobe Illustrator 16.0.0, SVG Export Plug-In . SVG Version: 6.00 Build 0)  -->
<!DOCTYPE svg PUBLIC "-//W3C//DTD SVG 1.1//EN" "http://www.w3.org/Graphics/SVG/1.1/DTD/svg11.dtd">
<svg version="1.1" id="Layer_1" xmlns="http://www.w3.org/2000/svg" xmlns:xlink="http://www.w3.org/1999/xlink" x="0px" y="0px"
	 width="1000px" height="1000px" viewBox="0 0 1000 1000" enable-background="new 0 0 1000 1000" xml:space="preserve">
<circle fill="none" stroke="#606060" stroke-width="40" stroke-miterlimit="10" cx="508.93" cy="340.481" r="116.336"/>
<path fill="none" stroke="#606060" stroke-width="40" stroke-linecap="round" stroke-miterlimit="10" d="M295.131,735.855
	c0-124.862,91.727-226.084,204.87-226.084c31.793,0,46.412,0.623,73.263,14.886"/>
<g>
	<circle fill="none" stroke="#606060" stroke-width="40" stroke-miterlimit="10" cx="212.578" cy="384.648" r="79.508"/>
	<path fill="none" stroke="#606060" stroke-width="40" stroke-linecap="round" stroke-miterlimit="10" d="M338.834,575.488
		c-14.556-26.777-37.021-49.347-64.639-62.521c-27.636-13.185-59.551-16.181-89.119-8.143
		c-29.292,7.963-54.971,26.329-73.355,50.317c-19.656,25.652-30.832,57.243-32.749,89.436c-0.203,3.423-0.305,6.853-0.305,10.281"/>
</g>
<polygon fill="none" stroke="#606060" stroke-width="37.7271" stroke-linecap="round" stroke-linejoin="round" stroke-miterlimit="10" points="
	474.651,515.179 508.93,565.907 543.209,515.179 "/>
<polygon fill="#606060" stroke="#606060" stroke-width="36.1515" stroke-linecap="round" stroke-linejoin="round" stroke-miterlimit="10" points="
	508.93,581.993 474.651,734.869 508.93,765.169 543.209,736.247 "/>
<polygon fill="none" stroke="#606060" stroke-width="24.9665" stroke-linecap="round" stroke-linejoin="round" stroke-miterlimit="10" points="
	189.893,499.275 212.578,532.846 235.263,499.275 "/>
<polygon fill="#606060" stroke="#606060" stroke-width="23.9239" stroke-linecap="round" stroke-linejoin="round" stroke-miterlimit="10" points="
	212.578,543.491 189.893,644.659 212.578,664.711 235.263,645.571 "/>
<g>
	<g>
		<path fill="#606060" d="M777.684,723.619c-9.772,17.737-28.318,27.153-48.405,24.578c-7.262-0.932-13.928-3.335-19.721-6.943
			l-6.224,59.982c-0.283,2.729,1.51,4.118,2.293,4.589c0.783,0.47,2.853,1.398,5.127-0.133l15.571-10.487
			c1.774-1.194,3.664-2.114,5.614-2.763c8.223-2.737,17.512-0.658,23.805,5.813l13.088,13.461c1.912,1.967,4.112,1.495,4.99,1.184
			c0.863-0.301,2.902-1.291,3.185-4.021l9.896-95.413C783.179,716.023,779.983,719.444,777.684,723.619z"/>
	</g>
</g>
<g>
	<g>
		<path fill="#606060" d="M924.817,727.534l-40.923-44.294c-2.476,6.361-6.372,12.28-11.628,17.376
			c-14.539,14.097-35.028,17.671-53.48,9.326c-4.343-1.965-8.95-2.79-13.466-2.604l65.093,70.46
			c1.861,2.016,4.088,1.586,4.958,1.311c0.89-0.276,2.936-1.218,3.287-3.938l2.413-18.619c1.159-8.951,7.352-16.182,15.575-18.918
			c1.948-0.648,4.013-1.045,6.149-1.151l18.75-0.934c2.739-0.137,3.841-2.12,4.185-2.966
			C926.077,731.735,926.68,729.549,924.817,727.534z"/>
	</g>
</g>
<g>
	<g>
		<path fill="#606060" d="M882.285,537.909c-24.038-6.891-38.97-31.483-33.993-55.991c2.991-14.731-4.773-25.721-13.038-31.093
			c-8.264-5.37-21.461-8.003-33.707,0.709c-20.371,14.496-48.912,10.838-64.971-8.333c-9.651-11.523-23.085-12.304-32.437-9.192
			c-9.353,3.112-19.639,11.786-20.462,26.796c-1.368,24.97-22.025,44.999-47.023,45.599c-15.026,0.365-24.013,10.378-27.411,19.631
			c-3.397,9.253-3.03,22.701,8.191,32.705c18.668,16.638,21.451,45.274,6.334,65.194c-9.087,11.977-6.858,25.245-1.744,33.671
			c5.113,8.426,15.859,16.523,30.676,13.985c24.647-4.221,48.771,11.458,54.921,35.697c3.695,14.571,15.461,21.103,25.236,22.356
			c9.776,1.254,22.809-2.096,30.062-15.263c6.033-10.95,15.877-18.699,27.057-22.419c11.183-3.722,23.701-3.416,35.094,1.737
			c13.698,6.195,26.141,1.068,33.215-5.793c7.075-6.861,12.58-19.139,6.809-33.02c-9.599-23.091,0.319-50.099,22.581-61.487
			c13.384-6.847,17.133-19.769,16.181-29.578C902.901,554.01,896.734,542.052,882.285,537.909z M783.173,671.514
			c-51.312,17.075-106.949-10.779-124.023-62.091c-17.075-51.312,10.777-106.949,62.091-124.024
			c51.312-17.075,106.948,10.779,124.023,62.091C862.337,598.802,834.484,654.439,783.173,671.514z"/>
	</g>
</g>
<circle fill="#606060" cx="753.679" cy="577.625" r="78.827"/>
</svg>
