<?xml version="1.0" encoding="utf-8"?>
<!-- Generator: Adobe Illustrator 16.0.0, SVG Export Plug-In . SVG Version: 6.00 Build 0)  -->
<!DOCTYPE svg PUBLIC "-//W3C//DTD SVG 1.1//EN" "http://www.w3.org/Graphics/SVG/1.1/DTD/svg11.dtd">
<svg version="1.1" id="Layer_1" xmlns="http://www.w3.org/2000/svg" xmlns:xlink="http://www.w3.org/1999/xlink" x="0px" y="0px"
	 width="1000px" height="1000px" viewBox="0 0 1000 1000" enable-background="new 0 0 1000 1000" xml:space="preserve">
<g id="Layer_2">
</g>
<g>
	<path fill="#606060" d="M806.107,206.5c11.046,0,20,8.954,20,20v431.835c0,11.046-8.954,20-20,20H193.893c-11.046,0-20-8.954-20-20
		V226.5c0-11.046,8.954-20,20-20H806.107 M806.107,166.5H193.893c-33.084,0-60,26.916-60,60v431.835c0,33.084,26.916,60,60,60
		h612.215c33.084,0,60-26.916,60-60V226.5C866.107,193.416,839.191,166.5,806.107,166.5L806.107,166.5z"/>
</g>
<line fill="none" stroke="#606060" stroke-width="40" stroke-linejoin="round" stroke-miterlimit="10" x1="500" y1="694.5" x2="500" y2="846.796"/>
<line fill="none" stroke="#606060" stroke-width="40" stroke-linecap="round" stroke-linejoin="round" stroke-miterlimit="10" x1="356.507" y1="846.796" x2="643.492" y2="846.796"/>
<circle fill="none" stroke="#606060" stroke-width="40" stroke-miterlimit="10" cx="500" cy="452.5" r="153.558"/>
<polygon fill="none" stroke="#606060" stroke-width="40" stroke-linecap="round" stroke-linejoin="round" stroke-miterlimit="10" points="
	583.025,452.5 452.974,527.585 452.975,377.415 "/>
</svg>
