<?xml version="1.0" encoding="utf-8"?>
<!-- Generator: Adobe Illustrator 16.0.0, SVG Export Plug-In . SVG Version: 6.00 Build 0)  -->
<!DOCTYPE svg PUBLIC "-//W3C//DTD SVG 1.1//EN" "http://www.w3.org/Graphics/SVG/1.1/DTD/svg11.dtd">
<svg version="1.1" xmlns="http://www.w3.org/2000/svg" xmlns:xlink="http://www.w3.org/1999/xlink" x="0px" y="0px" width="1000px"
	 height="1000px" viewBox="0 0 1000 1000" enable-background="new 0 0 1000 1000" xml:space="preserve">
<g id="Layer_1" display="none">
	<g id="Layer_2" display="inline">
	</g>
	<g display="inline">
		<path fill="#606060" d="M806.107,206.5c11.046,0,20,8.954,20,20v431.835c0,11.046-8.954,20-20,20H193.893
			c-11.046,0-20-8.954-20-20V226.5c0-11.046,8.954-20,20-20H806.107 M806.107,166.5H193.893c-33.084,0-60,26.916-60,60v431.835
			c0,33.084,26.916,60,60,60h612.215c33.084,0,60-26.916,60-60V226.5C866.107,193.416,839.191,166.5,806.107,166.5L806.107,166.5z"
			/>
	</g>
	
		<line display="inline" fill="none" stroke="#606060" stroke-width="40" stroke-linejoin="round" stroke-miterlimit="10" x1="500" y1="694.5" x2="500" y2="846.796"/>
	
		<line display="inline" fill="none" stroke="#606060" stroke-width="40" stroke-linecap="round" stroke-linejoin="round" stroke-miterlimit="10" x1="356.507" y1="846.796" x2="643.492" y2="846.796"/>
	
		<circle display="inline" fill="none" stroke="#606060" stroke-width="40" stroke-miterlimit="10" cx="500" cy="452.5" r="153.558"/>
	
		<polygon display="inline" fill="none" stroke="#606060" stroke-width="40" stroke-linecap="round" stroke-linejoin="round" stroke-miterlimit="10" points="
		583.025,452.5 452.974,527.585 452.975,377.415 	"/>
	<path display="inline" d="M843.996,170.634c-19.497-0.057-38.208,7.69-51.956,21.515l-52.672,52.669l-4.105,4.107v-64.275
		c0-7.741-6.275-14.016-14.015-14.016H90.546c-7.741,0-14.016,6.275-14.016,14.016v630.7c0,7.741,6.275,14.017,14.016,14.017
		h630.702c7.739,0,14.015-6.275,14.015-14.017V456.748l108.02-108.018l52.669-52.671c28.694-28.688,28.699-75.207,0.01-103.901
		C882.18,178.374,863.486,170.631,843.996,170.634z M595.107,596.89l49.923,134.368h-82.006l-26.391-75.883L595.107,596.89z
		 M454.951,697.423l-64.275-64.274l358.603-358.603l64.274,64.275L454.951,697.423z M449.149,535.039h-93.106l38.403-98.109h36.524
		l30.007,86.279L449.149,535.039z M482.982,501.191l-28.83-82.874c-1.955-5.63-7.257-9.408-13.217-9.418h-56.062
		c-5.775-0.003-10.961,3.535-13.063,8.914l-49.349,126.141c-2.818,7.209,0.742,15.338,7.952,18.155
		c1.628,0.637,3.362,0.963,5.11,0.963h85.593l-60.169,60.168c-0.126,0.126-0.167,0.308-0.294,0.447
		c-0.994,1.073-1.808,2.3-2.411,3.631c-0.14,0.309-0.321,0.588-0.448,0.91c-0.126,0.323-0.167,0.31-0.224,0.493l-1.486,4.428
		h-58.963c-5.77,0.002-10.949,3.54-13.049,8.913l-34.912,89.196h-81.852l185.006-462.515h120.927l65.592,176.596L482.982,501.191z
		 M359.463,711.635l17.001,17.002l-25.48,8.492L359.463,711.635z M406.177,718.713l-36.805-36.791l7.61-22.816l52.012,51.997
		L406.177,718.713z M707.231,801.335h-602.67v-602.67h602.67v78.291L560.643,423.545l-64.472-173.709
		c-2.05-5.505-7.315-9.147-13.188-9.124H342.827c-5.735-0.001-10.894,3.49-13.021,8.815L133.587,740.074
		c-2.872,7.187,0.628,15.343,7.815,18.215c1.657,0.66,3.423,1,5.206,1h112.125c5.775,0.003,10.96-3.535,13.062-8.914l34.898-89.195
		h40.057l-31.227,93.681c-2.446,7.344,1.524,15.278,8.868,17.725c1.425,0.476,2.917,0.72,4.418,0.72
		c1.507,0,3.002-0.247,4.429-0.729l126.141-42.047c0.182,0,0.322-0.168,0.491-0.225c0.168-0.056,0.602-0.308,0.912-0.448
		c1.332-0.604,2.558-1.416,3.629-2.409c0.14-0.128,0.322-0.168,0.449-0.296l49.756-49.756l25.228,72.476
		c1.955,5.63,7.256,9.408,13.217,9.419h112.125c7.739,0,14.015-6.276,14.013-14.018c0-1.671-0.3-3.325-0.881-4.89L616.929,575.08
		l90.303-90.301V801.335z M876.134,276.242l-42.762,42.761l-64.275-64.275l42.761-42.762c17.951-17.547,46.728-17.221,64.276,0.73
		C893.399,230.358,893.399,258.578,876.134,276.242z"/>
</g>
<g id="Layer_2_1_">
	<path fill="#606060" d="M698.5,834.5h-588c-22.056,0-40-17.944-40-40v-590c0-22.056,17.944-40,40-40h588c22.056,0,40,17.944,40,40
		v590C738.5,816.556,720.556,834.5,698.5,834.5z M110.5,204.5v590h588c0.018,0,0.025-0.001,0.025-0.001L698.5,204.5H110.5z"/>
	<g>
		<path fill="#606060" d="M655.041,765.788c-0.004,0.001-0.012,0-0.02,0H537.938c-8.472,0-16.024-5.338-18.853-13.324l-33.288-94
			H332.922l-32.929,93.94c-2.81,8.017-10.378,13.384-18.874,13.384H164.035c-6.571,0-12.723-3.228-16.457-8.635
			c-3.734-5.407-4.574-12.304-2.247-18.449l188.486-497.656c2.944-7.774,10.391-12.916,18.704-12.916h114.781
			c8.323,0,15.775,5.154,18.713,12.941l187.377,496.751c1.061,2.44,1.648,5.134,1.648,7.964
			C675.041,756.834,666.087,765.788,655.041,765.788z M552.072,725.788h74.029L453.471,268.132h-87.138L192.997,725.788h73.94
			l32.929-93.94c2.81-8.017,10.378-13.384,18.874-13.384h181.193c8.472,0,16.025,5.338,18.853,13.324L552.072,725.788z
			 M472.676,580.192H346.379c-6.496,0-12.588-3.155-16.336-8.461c-3.748-5.306-4.685-12.102-2.514-18.225l62.189-175.342
			c2.831-7.981,10.381-13.314,18.85-13.314h2.303c8.483,0,16.042,5.351,18.863,13.351l61.805,175.342
			c2.157,6.12,1.211,12.906-2.538,18.203C485.251,577.044,479.166,580.192,472.676,580.192z M374.693,540.192h69.728l-34.755-98.602
			L374.693,540.192z"/>
	</g>
	<g>
		
			<rect x="559.353" y="264.199" transform="matrix(0.7071 0.7071 -0.7071 0.7071 545.1744 -288.2216)" fill="#606060" width="122.296" height="499.548"/>
		<path fill="#606060" d="M894.843,326.108c23.881-23.88,23.881-62.597,0-86.477c-23.88-23.88-62.597-23.88-86.477,0
			c-0.181,0.181-0.347,0.371-0.525,0.552l-0.014-0.013l-42.16,42.161l36.426,36.425c1.868,2.572,3.956,5.035,6.273,7.353
			c2.319,2.318,4.781,4.405,7.354,6.274l36.424,36.425l42.16-42.161l-0.013-0.013C894.473,326.455,894.662,326.289,894.843,326.108z
			"/>
		<polygon fill="#606060" points="475.539,747.234 363.187,772.199 388.151,659.846 		"/>
	</g>
</g>
</svg>
