<?xml version="1.0" encoding="utf-8"?>
<!-- Generator: Adobe Illustrator 16.0.0, SVG Export Plug-In . SVG Version: 6.00 Build 0)  -->
<!DOCTYPE svg PUBLIC "-//W3C//DTD SVG 1.1//EN" "http://www.w3.org/Graphics/SVG/1.1/DTD/svg11.dtd">
<svg version="1.1" id="Layer_1" xmlns="http://www.w3.org/2000/svg" xmlns:xlink="http://www.w3.org/1999/xlink" x="0px" y="0px"
	 width="1000px" height="1000px" viewBox="0 0 1000 1000" enable-background="new 0 0 1000 1000" xml:space="preserve">
<path fill="#606060" d="M286.66,465.814c-75.176,0-136.336-61.16-136.336-136.336c0-75.176,61.16-136.336,136.336-136.336
	s136.336,61.16,136.336,136.336C422.996,404.654,361.835,465.814,286.66,465.814z M286.66,233.142
	c-53.12,0-96.336,43.216-96.336,96.336s43.216,96.336,96.336,96.336c53.119,0,96.336-43.216,96.336-96.336
	S339.779,233.142,286.66,233.142z"/>
<path fill="#606060" d="M881.031,852.196l-434.393-55.04c-7-0.889-11.956-7.281-11.069-14.28l66.497-524.802
	c0.887-7.001,7.282-11.956,14.281-11.069l434.394,55.042c7,0.887,11.956,7.281,11.068,14.282l-66.497,524.799
	C894.427,848.128,888.032,853.085,881.031,852.196z M462.526,773.411l409.043,51.83l63.284-499.451l-409.043-51.829L462.526,773.411
	L462.526,773.411z"/>
<path fill="#606060" d="M887.875,375.426l-340.431-43.135c-7.001-0.888-11.956-7.281-11.068-14.281
	c0.886-7,7.279-11.956,14.28-11.069l340.432,43.136c7,0.887,11.956,7.282,11.067,14.28
	C901.269,371.358,894.874,376.313,887.875,375.426z"/>
<path fill="#606060" d="M880.067,437.033l-340.429-43.134c-7.001-0.888-11.956-7.282-11.069-14.282
	c0.887-7,7.28-11.956,14.281-11.069l340.43,43.136c7.001,0.887,11.957,7.281,11.069,14.28
	C893.463,432.963,887.067,437.92,880.067,437.033z"/>
<path fill="#606060" d="M872.262,498.64l-340.431-43.135c-6.999-0.886-11.956-7.28-11.067-14.281
	c0.887-7,7.281-11.956,14.279-11.069l340.432,43.136c7.001,0.886,11.956,7.281,11.069,14.281
	C885.657,494.571,879.263,499.527,872.262,498.64z"/>
<path fill="#606060" d="M856.649,621.854L516.22,578.72c-7-0.888-11.955-7.283-11.069-14.282c0.887-7,7.281-11.957,14.282-11.068
	l340.431,43.134c6.999,0.889,11.955,7.283,11.067,14.284C870.044,617.786,863.65,622.742,856.649,621.854z"/>
<path fill="#606060" d="M741.223,544.635l-217.197-27.521c-7.001-0.888-11.955-7.283-11.069-14.284
	c0.888-6.999,7.281-11.955,14.281-11.069l217.197,27.52c7.001,0.889,11.956,7.283,11.068,14.282
	C754.616,540.564,748.223,545.521,741.223,544.635z"/>
<path fill="#606060" d="M462.957,572.036c-5.159-7.103-10.69-13.947-16.61-20.48c-42.537-46.937-99.246-72.788-159.686-72.788
	s-117.151,25.851-159.685,72.788c-42.037,46.39-65.188,107.934-65.188,173.297c0,11.046,8.954,20,20,20s20-8.954,20-20
	c0-113.637,82.934-206.084,184.87-206.084c74.319,0,138.525,49.146,167.867,119.812L462.957,572.036z"/>
<path fill="#606060" d="M788.482,764.04c-0.875,0-1.676-0.039-2.413-0.101c-10.079-0.841-17.659-6.892-20.797-16.601
	c-0.121-0.373-0.234-0.749-0.34-1.125c-7.049,9.489-14.71,17.769-24.973,17.769c-4.17,0-14.266-1.688-17.932-17.314
	c-0.938-3.994-1.436-8.476-1.807-13.013c-11.838,14.821-20.45,25.48-31.969,23.488c-5.631-0.973-10.017-4.889-12.032-10.742
	c-0.616-1.791-1.038-4.04-1.306-6.596c-6.28,6.71-10.67,11.058-11.035,11.419c-4.911,4.852-12.824,4.801-17.676-0.106
	c-4.852-4.91-4.805-12.824,0.104-17.677c0.151-0.15,15.295-15.158,29.75-32.736c0.363-0.441,0.721-0.879,1.074-1.313
	c0.468-3.431,0.853-5.895,0.998-6.801c7.229-45.15,17.011-50.62,21.188-52.955c7.397-4.134,15.952-2.21,21.798,4.898
	c13.706,16.674-2.934,43.083-20.084,64.99c-0.375,3.267-0.674,6.359-0.903,9.228c0.29-0.362,0.569-0.713,0.838-1.049
	c10.771-13.488,17.311-21.633,26.768-21.366c3.716,0.103,12.66,1.85,15.459,15.808c0.85,4.238,1.203,9.234,1.577,14.523
	c0.09,1.273,0.195,2.761,0.32,4.313c1.433-1.931,2.788-3.839,3.835-5.312c7.813-11.001,13.985-19.69,24.038-19.69
	c3.985,0,7.705,1.544,10.473,4.347c5.146,5.211,5.058,12.278,4.973,19.114c-0.031,2.468-0.09,7.21,0.46,9.6
	c8.265-0.299,33.362-14.84,54.905-31.926c5.408-4.289,13.271-3.384,17.562,2.026c4.29,5.409,3.383,13.271-2.026,17.562
	c-0.485,0.385-12.043,9.526-26.153,18.598C808.292,761.283,795.773,764.04,788.482,764.04z"/>
</svg>
