<?xml version="1.0" encoding="utf-8"?>
<!-- Generator: Adobe Illustrator 16.0.0, SVG Export Plug-In . SVG Version: 6.00 Build 0)  -->
<!DOCTYPE svg PUBLIC "-//W3C//DTD SVG 1.1//EN" "http://www.w3.org/Graphics/SVG/1.1/DTD/svg11.dtd">
<svg version="1.1" id="Layer_1" xmlns="http://www.w3.org/2000/svg" xmlns:xlink="http://www.w3.org/1999/xlink" x="0px" y="0px"
	 width="1000px" height="1000px" viewBox="0 0 1000 1000" enable-background="new 0 0 1000 1000" xml:space="preserve">
<g>
	<path fill="#606060" d="M760,524.5V810H140V190h620v86.5h40V170c0-11.046-8.954-20-20-20H120c-11.046,0-20,8.954-20,20v660
		c0,11.046,8.954,20,20,20h660c11.046,0,20-8.954,20-20V524.5H760z"/>
	<g>
		<path fill="#606060" d="M780,850.5H120c-11.304,0-20.5-9.196-20.5-20.5V170c0-11.304,9.196-20.5,20.5-20.5h660
			c11.304,0,20.5,9.196,20.5,20.5v107h-41v-86.5h-619v619h619v-285h1v286h-621v-621h621V276h39V170c0-10.752-8.748-19.5-19.5-19.5
			H120c-10.752,0-19.5,8.748-19.5,19.5v660c0,10.752,8.748,19.5,19.5,19.5h660c10.752,0,19.5-8.748,19.5-19.5V525h-36.63v-1h37.63
			v306C800.5,841.304,791.304,850.5,780,850.5z"/>
		<g>
			<polygon fill="#606060" points="763.454,522.506 760,524.5 763.454,526.494 			"/>
		</g>
	</g>
</g>
<g id="Layer_2_1_">
</g>
<g>
	<g>
		<path fill="#606060" d="M456.484,508.505c-9.021,0-17.208-6.146-19.424-15.302c-2.598-10.736,4-21.545,14.736-24.143l384.398-93
			c10.737-2.595,21.545,4,24.143,14.736c2.598,10.736-4,21.545-14.736,24.142l-384.397,93
			C459.623,508.321,458.041,508.505,456.484,508.505z"/>
		<g>
			<polygon fill="#606060" points="836.971,478.534 952.5,368.5 799.449,323.445 			"/>
		</g>
	</g>
</g>
</svg>
