<?xml version="1.0" encoding="utf-8"?>
<!-- Generator: Adobe Illustrator 26.0.3, SVG Export Plug-In . SVG Version: 6.00 Build 0)  -->
<svg version="1.1" id="Layer_1" xmlns="http://www.w3.org/2000/svg" xmlns:xlink="http://www.w3.org/1999/xlink" x="0px" y="0px"
	 viewBox="0 0 400 400" style="enable-background:new 0 0 400 400;" xml:space="preserve">
<style type="text/css">
	.st0{fill:#FFFFFF;}
	.st1{stroke:#000000;stroke-width:20;stroke-miterlimit:10;}
</style>
<g>
	<path class="st0" d="M29.6,185.9L59,52.4h50.3l29.4,133.4h-26.5l-5.2-24.1H61.3l-5.2,24.1H29.6z M79.6,74.8l-13.3,63.4H102
		L88.8,74.8H79.6z"/>
	<path class="st0" d="M203.4,185.9v-21.4h-53.8v-20.6L181,56.4h29.2l-34,84.6h27.3v-36.3h26.5v36.3H242v23.5h-12.1v21.4H203.4z"/>
</g>
<g>
	<path class="st0" d="M173.5,378.5l29.4-133.4h50.3l29.4,133.4H256l-5.2-24.1h-45.7l-5.2,24.1H173.5z M223.4,267.4l-13.3,63.4h35.7
		l-13.3-63.4H223.4z"/>
	<path class="st0" d="M297.7,253.7c11.8-4.7,24.9-7.1,39.5-7.1c14.5,0,25.1,2.8,31.8,8.5c6.7,5.7,10,14.8,10,27.4
		s-4.9,22.2-14.8,28.8c6.1,3.4,10.5,6.9,13.2,10.6c2.6,3.7,3.9,9.5,3.9,17.5c0,14-3.4,24.4-10.3,31.2c-6.9,6.8-17.8,10.2-32.9,10.2
		c-11.1,0-22.9-1.7-35.1-5.1l-6.1-1.6l1.3-20.6c14.3,2.5,26.4,3.7,36.1,3.7c13.2,0,19.8-5.8,19.8-17.3c0-4.8-1.7-8.7-5.1-11.6
		c-3.4-2.9-7.8-4.3-13.3-4.3H310v-22.4h25.5c4.2,0,8-1.8,11.2-5.5c3.3-3.7,4.9-7.7,4.9-12.2c0-9.3-6.3-13.9-19-13.9
		c-8.8,0-18.2,0.9-28.2,2.7l-5,0.8L297.7,253.7z"/>
</g>
<g>
	<line class="st0" x1="103.8" y1="263.2" x2="321.4" y2="163.7"/>
	<path class="st0" d="M103.8,274.9c-4.4,0-8.6-2.6-10.5-6.9c-2.6-5.9,0-12.8,5.8-15.5l217.7-99.5c5.8-2.6,12.6,0,15.1,5.9
		c2.6,5.9,0,12.8-5.8,15.5l-217.7,99.5C106.9,274.6,105.3,274.9,103.8,274.9z"/>
</g>
<path class="st1" d="M-404-90"/>
</svg>
