<?xml version="1.0" encoding="utf-8"?>
<!-- Generator: Adobe Illustrator 26.0.3, SVG Export Plug-In . SVG Version: 6.00 Build 0)  -->
<svg version="1.1" id="Layer_1" xmlns="http://www.w3.org/2000/svg" xmlns:xlink="http://www.w3.org/1999/xlink" x="0px" y="0px"
	 viewBox="0 0 400 400" style="enable-background:new 0 0 400 400;" xml:space="preserve">
<style type="text/css">
	.st0{fill:#FFFFFF;}
	.st1{fill:none;}
	.st2{fill:#FFFFFF;stroke:#000000;stroke-width:20;stroke-linejoin:round;stroke-miterlimit:10;}
	.st3{stroke:#000000;stroke-width:20;stroke-linejoin:round;stroke-miterlimit:10;}
	.st4{fill:#09FF00;stroke:#FFFFFF;stroke-width:20;stroke-linejoin:round;stroke-miterlimit:10;}
	.st5{fill:none;stroke:#FFFFFF;stroke-width:20;stroke-miterlimit:10;}
</style>
<path class="st0" d="M275.6,214.8c33.8,0,61.4,27,61.4,60.3s-27.5,60.3-61.4,60.3c-33.8,0-61.4-27-61.4-60.3
	S241.8,214.8,275.6,214.8 M275.6,198.9c-42.7,0-77.4,34-77.4,76s34.6,76,77.4,76s77.4-34,77.4-76S318.4,198.9,275.6,198.9
	L275.6,198.9z"/>
<g>
	<line class="st1" x1="275.6" y1="231.9" x2="275.6" y2="318.2"/>
	<rect x="267.6" y="231.9" class="st0" width="16" height="86.2"/>
</g>
<g>
	<line class="st1" x1="319" y1="275" x2="231.2" y2="275"/>
	<rect x="231.2" y="267.2" class="st0" width="87.8" height="15.8"/>
</g>
<path class="st2" d="M-339,129.6"/>
<path class="st3" d="M87.8,476"/>
<g>
	<path class="st0" d="M-70.2,84.2v202.6H-296V84.2H-70.2 M-50.2,64.2H-316v242.6h265.8L-50.2,64.2L-50.2,64.2z"/>
</g>
<path class="st4" d="M-253.2,114.5"/>
<line class="st5" x1="-316" y1="142.4" x2="-50.2" y2="142.4"/>
<line class="st5" x1="-316" y1="196.3" x2="-50.2" y2="196.3"/>
<line class="st5" x1="-316" y1="250.2" x2="-50.2" y2="250.2"/>
<line class="st5" x1="-210.5" y1="306.8" x2="-210.5" y2="65.5"/>
<path class="st0" d="M201.1,319.9h-35.6v-26.6h24.7c-1.3-5.9-2-12.1-2-18.4c0-0.5,0-1.1,0-1.6h-22.7v-33.9H196
	c3.4-7.3,7.7-14,12.9-20h-43.4v-33.9h130.3v5.7c7,1.6,13.7,4.1,20,7.3V97.3H50v68.2v20v33.9v20v33.9v20v46.6h95.5l0,0h20l0,0h52.9
	C211.7,334.1,205.8,327.4,201.1,319.9z M165.5,117.3h130.3v48.2H165.5V117.3z M145.5,319.9H70v-26.6h75.5V319.9z M145.5,273.3H70
	v-33.9h75.5V273.3z M145.5,219.4H70v-33.9h75.5V219.4z M145.5,165.5H70v-48.2h75.5V165.5z"/>
</svg>
