<?xml version="1.0" encoding="utf-8"?>
<!-- Generator: Adobe Illustrator 26.0.3, SVG Export Plug-In . SVG Version: 6.00 Build 0)  -->
<svg version="1.1" id="Layer_1" xmlns="http://www.w3.org/2000/svg" xmlns:xlink="http://www.w3.org/1999/xlink" x="0px" y="0px"
	 viewBox="0 0 400 400" style="enable-background:new 0 0 400 400;" xml:space="preserve">
<style type="text/css">
	.st0{stroke:#000000;stroke-width:20;stroke-linejoin:round;stroke-miterlimit:10;}
	.st1{fill:#09FF00;stroke:#000000;stroke-width:20;stroke-linejoin:round;stroke-miterlimit:10;}
	.st2{fill:none;stroke:#000000;stroke-width:20;stroke-miterlimit:10;}
	.st3{fill:#FFFFFF;}
</style>
<path class="st0" d="M87.8,476"/>
<path class="st1" d="M-246.7,144.5"/>
<line class="st2" x1="-309.5" y1="172.4" x2="-144.5" y2="172.4"/>
<line class="st2" x1="-309.5" y1="226.3" x2="-144.5" y2="226.3"/>
<line class="st2" x1="-309.5" y1="280.2" x2="-144.5" y2="280.2"/>
<line class="st2" x1="-227" y1="336.8" x2="-227" y2="95.5"/>
<g>
	<path d="M-164.5,114.9v202.6h-125V114.9H-164.5 M-144.5,94.9h-165v242.6h165V94.9L-144.5,94.9z"/>
</g>
<g>
	<path d="M-62.3,71.1v202.6h-53.2V71.1H-62.3 M-42.3,51.1h-93.2v242.6h93.2L-42.3,51.1L-42.3,51.1z"/>
</g>
<path class="st3" d="M127.4,144.5"/>
<rect x="64.6" y="162.4" class="st3" width="165" height="20"/>
<rect x="137.1" y="95.5" class="st3" width="20" height="241.3"/>
<path class="st3" d="M188.2,274.9c0-1.6,0-3.1,0.1-4.7H64.6v20h125C188.7,285.2,188.2,280.1,188.2,274.9z"/>
<path class="st3" d="M275.6,214.8c33.8,0,61.4,27,61.4,60.3s-27.5,60.3-61.4,60.3c-33.8,0-61.4-27-61.4-60.3
	S241.8,214.8,275.6,214.8 M275.6,198.9c-42.7,0-77.4,34-77.4,76s34.6,76,77.4,76s77.4-34,77.4-76S318.4,198.9,275.6,198.9
	L275.6,198.9z"/>
<g>
	<line class="st3" x1="275.6" y1="231.9" x2="275.6" y2="318.2"/>
	<rect x="267.6" y="231.9" class="st3" width="16" height="86.2"/>
</g>
<g>
	<line class="st3" x1="319" y1="275" x2="231.2" y2="275"/>
	<rect x="231.2" y="267.2" class="st3" width="87.8" height="15.8"/>
</g>
<path class="st3" d="M211.7,216.3H64.6v20h132.9C201.3,229,206.1,222.2,211.7,216.3z"/>
<path class="st3" d="M199.7,317.5H84.6V114.9h125v103.7c5.8-6.5,12.5-12.2,20-16.8V94.9h-165v242.6h151.1
	C209.4,331.7,204,324.9,199.7,317.5z"/>
<path class="st3" d="M258.6,190.5V71.1h53.2v125.5c7.3,3.3,14,7.5,20,12.5v-158h-93.2V197C244.9,194.1,251.6,191.9,258.6,190.5z"/>
</svg>
