<?xml version="1.0" encoding="utf-8"?>
<!-- Generator: Adobe Illustrator 25.4.1, SVG Export Plug-In . SVG Version: 6.00 Build 0)  -->
<svg version="1.1" id="Layer_1" xmlns="http://www.w3.org/2000/svg" xmlns:xlink="http://www.w3.org/1999/xlink" x="0px" y="0px"
	 viewBox="0 0 36 24" style="enable-background:new 0 0 36 24;" xml:space="preserve">
<style type="text/css">
	.st0{fill:none;}
</style>
<path class="st0" d="M-2.1,0.6h24v24h-24C-2.1,24.6-2.1,0.6-2.1,0.6z"/>
<path d="M13.3,20c-0.2,0-0.4,0-0.7,0c-4.4,0-8-3.6-8-8c0-0.3,0-0.6,0.1-0.9c2.4-1.1,4.2-3,5.2-5.4C11.6,8.3,14.6,10,18,10
	c0.8,0,1.5-0.1,2.2-0.3c0.1,0.3,0.1,0.5,0.2,0.8l1.7-1.7C20.7,4.9,17,2,12.6,2C7,2,2.6,6.5,2.6,12s4.5,10,10,10c0.1,0,0.3,0,0.4,0
	L13.3,20z"/>
<path d="M16.8,13c0-0.6-0.6-1.2-1.2-1.2c-0.7,0-1.2,0.6-1.2,1.2s0.6,1.2,1.2,1.2C16.3,14.2,16.8,13.6,16.8,13z"/>
<path d="M8.4,13c0,0.6,0.6,1.2,1.2,1.2c0.6,0,1.2-0.6,1.2-1.2s-0.6-1.2-1.2-1.2C8.9,11.8,8.4,12.4,8.4,13z"/>
<polygon points="14.5,17.7 14.2,20.9 17.3,20.5 26,11.8 23.2,9 "/>
<rect x="24.6" y="7.1" transform="matrix(0.7071 -0.7071 0.7071 0.7071 1.2197 21.0312)" width="2.8" height="3.9"/>
</svg>
