<?xml version="1.0" encoding="utf-8"?>
<!-- Generator: Adobe Illustrator 25.4.1, SVG Export Plug-In . SVG Version: 6.00 Build 0)  -->
<svg version="1.1" id="Layer_1" xmlns="http://www.w3.org/2000/svg" xmlns:xlink="http://www.w3.org/1999/xlink" x="0px" y="0px"
	 viewBox="0 0 36 24" style="enable-background:new 0 0 36 24;" xml:space="preserve">
<style type="text/css">
	.st0{fill:none;}
</style>
<path class="st0" d="M0.6,0h24v24h-24C0.6,24,0.6,0,0.6,0z"/>
<path d="M16.1,19.2c-1.1,0.5-2.3,0.8-3.5,0.8c-4.4,0-8-3.6-8-8c0-0.3,0-0.6,0.1-0.9c2.4-1.1,4.2-3,5.2-5.4c0.7,1,1.5,1.9,2.5,2.6
	c1.1-2.3,3.2-4,5.8-4.5C16.6,2.6,14.7,2,12.6,2C7,2,2.6,6.5,2.6,12s4.5,10,10,10c2.3,0,4.4-0.8,6-2.1C17.8,19.8,16.9,19.5,16.1,19.2
	z"/>
<path d="M8.4,13c0,0.6,0.6,1.2,1.2,1.2c0.6,0,1.2-0.6,1.2-1.2s-0.6-1.2-1.2-1.2C8.9,11.8,8.4,12.4,8.4,13z"/>
<path d="M23.2,11.2v1.1c0,0.2-0.2,0.4-0.4,0.4h-1.9v1.9c0,0.2-0.2,0.4-0.4,0.4h-1.1c-0.2,0-0.4-0.2-0.4-0.4v-1.9h-1.9
	c-0.2,0-0.4-0.2-0.4-0.4v-1.1c0-0.2,0.2-0.4,0.4-0.4h1.9V8.9c0-0.2,0.2-0.4,0.4-0.4h1.1c0.2,0,0.4,0.2,0.4,0.4v1.9h1.9
	C23,10.8,23.2,11,23.2,11.2z M30.2,21.2l-1,1c-0.3,0.3-0.9,0.3-1.2,0l-3.5-3.5c-0.2-0.2-0.2-0.4-0.2-0.6v-0.6
	c-1.2,1-2.8,1.5-4.5,1.5c-4,0-7.2-3.2-7.2-7.2s3.2-7.2,7.2-7.2s7.2,3.2,7.2,7.2c0,1.7-0.6,3.2-1.5,4.5h0.6c0.2,0,0.4,0.1,0.6,0.2
	l3.5,3.5C30.5,20.3,30.5,20.8,30.2,21.2z M24.6,11.8c0-2.6-2.1-4.7-4.7-4.7s-4.7,2.1-4.7,4.7s2.1,4.7,4.7,4.7S24.6,14.4,24.6,11.8z"
	/>
</svg>
