<?xml version="1.0" encoding="utf-8"?>
<!-- Generator: Adobe Illustrator 25.3.0, SVG Export Plug-In . SVG Version: 6.00 Build 0)  -->
<svg version="1.1" id="Layer_1" xmlns="http://www.w3.org/2000/svg" xmlns:xlink="http://www.w3.org/1999/xlink" x="0px" y="0px"
	 viewBox="0 0 36 24" style="enable-background:new 0 0 36 24;" xml:space="preserve">
<style type="text/css">
	.st0{fill:none;}
</style>
<path class="st0" d="M0.6,0h24v24h-24V0z"/>
<path d="M9.6,11.8c-0.7,0-1.2,0.6-1.2,1.2s0.6,1.2,1.2,1.2s1.2-0.6,1.2-1.2S10.2,11.8,9.6,11.8z M15.6,11.8c-0.7,0-1.2,0.6-1.2,1.2
	s0.6,1.2,1.2,1.2c0.7,0,1.2-0.6,1.2-1.2S16.2,11.8,15.6,11.8z M12.6,2C7,2,2.6,6.5,2.6,12s4.5,10,10,10s10-4.5,10-10S18.1,2,12.6,2z
	 M12.6,20c-4.4,0-8-3.6-8-8c0-0.3,0-0.6,0.1-0.9c2.4-1.1,4.2-3,5.2-5.4C11.6,8.3,14.6,10,18,10c0.8,0,1.5-0.1,2.2-0.3
	c0.2,0.7,0.3,1.5,0.3,2.3C20.6,16.4,17,20,12.6,20z"/>
</svg>
