<?xml version="1.0" encoding="utf-8"?>
<!-- Generator: Adobe Illustrator 26.0.3, SVG Export Plug-In . SVG Version: 6.00 Build 0)  -->
<svg version="1.1" id="Layer_1" xmlns="http://www.w3.org/2000/svg" xmlns:xlink="http://www.w3.org/1999/xlink" x="0px" y="0px"
	 viewBox="0 0 90 24" style="enable-background:new 0 0 90 24;" xml:space="preserve">
<style type="text/css">
	.st0{fill:none;}
</style>
<path class="st0" d="M-2.1,0.6h24v24h-24C-2.1,24.6-2.1,0.6-2.1,0.6z"/>
<path d="M13.3,20c-0.2,0-0.4,0-0.7,0c-4.4,0-8-3.6-8-8c0-0.3,0-0.6,0.1-0.9c2.4-1.1,4.2-3,5.2-5.4C11.6,8.3,14.6,10,18,10
	c0.8,0,1.5-0.1,2.2-0.3c0.1,0.3,0.1,0.5,0.2,0.8l1.7-1.7C20.7,4.9,17,2,12.6,2C7,2,2.6,6.5,2.6,12s4.5,10,10,10c0.1,0,0.3,0,0.4,0
	L13.3,20z"/>
<path d="M16.8,13c0-0.6-0.6-1.2-1.2-1.2c-0.7,0-1.2,0.6-1.2,1.2s0.6,1.2,1.2,1.2C16.3,14.2,16.8,13.6,16.8,13z"/>
<path d="M8.4,13c0,0.6,0.6,1.2,1.2,1.2c0.6,0,1.2-0.6,1.2-1.2s-0.6-1.2-1.2-1.2C8.9,11.8,8.4,12.4,8.4,13z"/>
<polygon points="14.5,17.7 14.2,20.9 17.3,20.5 26,11.8 23.2,9 "/>
<rect x="24.6" y="7.1" transform="matrix(0.7071 -0.7071 0.7071 0.7071 1.2164 21.0339)" width="2.8" height="3.9"/>
<path d="M30,12l2.2-10h5.3l2.3,10h-3.5l-0.3-1.2h-2.3L33.4,12H30z M34.6,4.7l-0.6,3.5h1.5L35,4.7H34.6z"/>
<path d="M40,12V1.7h3.4V12H40z"/>
<path d="M48.7,4.4H52V12h-3.3v-0.4c-0.6,0.4-1.2,0.6-1.7,0.6c-1.1,0-1.8-0.3-2.2-0.9s-0.6-1.6-0.6-2.9V4.4h3.4v3.7
	c0,0.5,0,0.8,0.1,0.9s0.2,0.3,0.4,0.3l0.7-0.1V4.4z"/>
<path d="M56.2,12h-3.4V4.4h3.3v0.4c0.6-0.4,1.2-0.6,1.6-0.6c1.1,0,1.8,0.3,2.3,0.9c0.4,0.6,0.6,1.6,0.6,3.1V12h-3.4V8.4
	c0-0.9-0.2-1.3-0.5-1.3l-0.6,0.1V12z"/>
<path d="M64.9,12h-3.4V4.4h3.3v0.4c0.6-0.4,1.2-0.6,1.7-0.6c1.1,0,1.8,0.3,2.3,0.9s0.6,1.6,0.6,3.1V12h-3.4V8.4
	c0-0.9-0.2-1.3-0.5-1.3l-0.6,0.1V12z"/>
<path d="M71,5.2c0.7-0.6,1.7-0.9,3-0.9s2.3,0.3,3,0.9s1,1.6,1,3.1s-0.3,2.4-1,3c-0.7,0.6-1.7,0.9-3,0.9s-2.3-0.3-3-0.9
	c-0.7-0.6-1-1.6-1-3S70.4,5.8,71,5.2z M73.6,9.2c0.1,0.2,0.2,0.3,0.5,0.3c0.2,0,0.4-0.1,0.5-0.3s0.1-0.5,0.1-1c0-0.5,0-0.8-0.1-1
	S74.3,6.9,74,6.9c-0.2,0-0.4,0.1-0.5,0.3s-0.1,0.5-0.1,1C73.4,8.7,73.5,9,73.6,9.2z"/>
</svg>
