<?xml version="1.0" encoding="utf-8"?>
<!-- Generator: Adobe Illustrator 26.0.3, SVG Export Plug-In . SVG Version: 6.00 Build 0)  -->
<svg version="1.1" id="Layer_1" xmlns="http://www.w3.org/2000/svg" xmlns:xlink="http://www.w3.org/1999/xlink" x="0px" y="0px"
	 viewBox="0 0 32 24" style="enable-background:new 0 0 32 24;" xml:space="preserve">
<style type="text/css">
	.st0{fill:#1D1D1B;}
</style>
<path class="st0" d="M9.9,8.2C9.4,8.2,9,8.6,9,9.1S9.5,10,9.9,10c0.5,0,0.9-0.5,0.9-0.9S10.4,8.2,9.9,8.2z M14.6,8.2
	c-0.5,0-0.9,0.5-0.9,0.9s0.5,0.9,0.9,0.9c0.5,0,0.9-0.5,0.9-0.9S15,8.2,14.6,8.2z M12.3,0.6C8,0.6,4.6,4.1,4.6,8.3S8,16,12.3,16
	S20,12.6,20,8.3S16.5,0.6,12.3,0.6z M12.3,14.5c-3.4,0-6.2-2.8-6.2-6.2c0-0.2,0-0.5,0.1-0.7c1.8-0.8,3.2-2.3,4-4.2
	c1.3,2,3.6,3.3,6.2,3.3c0.6,0,1.2-0.1,1.7-0.2c0.2,0.5,0.2,1.2,0.2,1.8C18.4,11.7,15.6,14.5,12.3,14.5z"/>
<rect x="17.2" y="17.2" class="st0" width="10.9" height="2"/>
<rect x="21.6" y="12.6" class="st0" width="2" height="10.9"/>
</svg>
