<?xml version="1.0" encoding="utf-8"?>
<!-- Generator: Adobe Illustrator 26.0.3, SVG Export Plug-In . SVG Version: 6.00 Build 0)  -->
<svg version="1.1" id="Layer_1" xmlns="http://www.w3.org/2000/svg" xmlns:xlink="http://www.w3.org/1999/xlink" x="0px" y="0px"
	 viewBox="0 0 36 24" style="enable-background:new 0 0 36 24;" xml:space="preserve">
<polygon points="21.8,18.2 21.5,21.4 24.6,21 33.3,12.3 30.5,9.5 "/>
<rect x="31.9" y="7.6" transform="matrix(0.7071 -0.7071 0.7071 0.7071 2.9857 26.3299)" width="2.8" height="3.9"/>
<path d="M20.7,19.4H11v-10h14v4.2l2-2V5.4c0-1.1-0.9-2-2-2h-1v-2h-2v2h-8v-2h-2v2h-1c-1.1,0-2,0.9-2,2v14c0,1.1,0.9,2,2,2h9.5
	L20.7,19.4z M11,5.4h14v2H11V5.4z"/>
<rect x="21" y="11.4" width="2" height="2"/>
<rect x="17" y="15.4" width="2" height="2"/>
<rect x="13" y="15.4" width="2" height="2"/>
<rect x="13" y="11.4" width="2" height="2"/>
<rect x="17" y="11.4" width="2" height="2"/>
<polygon points="23,15.6 23,15.4 21,15.4 21,17.4 21.2,17.4 "/>
</svg>
