<?xml version="1.0" encoding="utf-8"?>
<!-- Generator: Adobe Illustrator 26.0.3, SVG Export Plug-In . SVG Version: 6.00 Build 0)  -->
<svg version="1.1" id="Layer_1" xmlns="http://www.w3.org/2000/svg" xmlns:xlink="http://www.w3.org/1999/xlink" x="0px" y="0px"
	 viewBox="0 0 90 24" style="enable-background:new 0 0 90 24;" xml:space="preserve">
<style type="text/css">
	.st0{fill:none;}
</style>
<polygon points="4.2,7.2 5.2,7.2 5.2,4.9 7.6,4.9 7.6,3.9 4.2,3.9 "/>
<polygon points="20.8,3.9 20.8,4.9 23.2,4.9 23.2,7.2 24.2,7.2 24.2,3.9 "/>
<polygon points="5.2,17.4 4.2,17.4 4.2,20.7 7.6,20.7 7.6,19.7 5.2,19.7 "/>
<path class="st0" d="M-2.1,0.6h24v24h-24C-2.1,24.6-2.1,0.6-2.1,0.6z"/>
<path d="M10.8,18.8v0.6h2.5l0.2-2.2l1.7-1.7V6.9c0-0.5,0.4-0.7,1.1-0.7c2.1,0,3.2,1.1,3.4,3.4l0.6-0.1V5.1c-0.3,0-0.7,0.1-1,0.1
	c-0.3,0-0.6,0-0.9,0h-8.3c-0.3,0-0.6,0-0.8,0C9,5.1,8.7,5.1,8.3,5.1L7.8,9.6l0.7,0.2c0.3-1.2,0.7-2.2,1.3-2.8
	c0.6-0.6,1.4-0.9,2.3-0.9c0.7,0,1.1,0.3,1.1,0.8v9.9C13.1,18.2,12.3,18.8,10.8,18.8z"/>
<polygon points="14.5,17.7 14.2,20.9 17.3,20.5 26,11.8 23.2,9 "/>
<rect x="24.6" y="7.1" transform="matrix(0.7071 -0.7071 0.7071 0.7071 1.2163 21.036)" width="2.8" height="3.9"/>
<g>
	<path d="M30.1,2.1h4.5c2.4,0,3.7,0.8,3.7,2.5c0,0.6-0.1,1.1-0.2,1.5c-0.1,0.3-0.4,0.7-0.8,1c0.5,0.2,0.8,0.5,1,0.8
		c0.2,0.3,0.3,0.8,0.3,1.5c0,1.9-1.3,2.8-3.9,2.8h-4.6C30.1,12.2,30.1,2.1,30.1,2.1z M34.4,4.4h-0.8V6h0.8c0.3,0,0.5-0.1,0.6-0.2
		s0.2-0.3,0.2-0.6S35.1,4.7,35,4.6S34.6,4.4,34.4,4.4z M34.4,8.2h-0.8v1.6h0.8c0.3,0,0.6-0.1,0.7-0.2c0.1-0.1,0.2-0.3,0.2-0.6
		s-0.1-0.5-0.2-0.7C35,8.2,34.7,8.2,34.4,8.2z"/>
	<path d="M39.2,12.2V1.8h3.4v10.3L39.2,12.2L39.2,12.2z"/>
	<path d="M44.2,5.3c0.7-0.6,1.7-0.9,3-0.9s2.3,0.3,3,0.9s1,1.6,1,3.1s-0.3,2.4-1,3s-1.7,0.9-3,0.9s-2.3-0.3-3-0.9
		c-0.7-0.6-1-1.6-1-3S43.5,6,44.2,5.3z M46.7,9.4c0.1,0.2,0.2,0.3,0.5,0.3c0.2,0,0.4-0.1,0.5-0.3s0.1-0.5,0.1-1s0-0.8-0.1-1
		s-0.2-0.3-0.5-0.3c-0.2,0-0.4,0.1-0.5,0.3s-0.1,0.5-0.1,1C46.6,8.9,46.6,9.2,46.7,9.4z"/>
	<path d="M55.4,4.4c0.7,0,1.5,0.1,2.3,0.3l0.4,0.1L58,7.4c-1-0.1-1.7-0.1-2.1-0.1c-0.4,0-0.6,0.1-0.7,0.2S55.1,8,55.1,8.4
		s0.1,0.7,0.2,0.8c0.1,0.1,0.3,0.2,0.7,0.2l2.1-0.1l0.1,2.6c-1,0.3-1.9,0.4-2.7,0.4c-1.4,0-2.4-0.3-3-0.9c-0.5-0.6-0.8-1.6-0.8-3.1
		s0.3-2.5,0.9-3.1C53.1,4.7,54.1,4.4,55.4,4.4z"/>
	<path d="M62.4,4.4c0.7,0,1.5,0.1,2.3,0.3l0.4,0.1L65,7.4c-1-0.1-1.7-0.1-2.1-0.1c-0.4,0-0.6,0.1-0.7,0.2S62,8,62,8.4
		s0.1,0.7,0.2,0.8c0.1,0.1,0.3,0.2,0.7,0.2L65,9.3l0.1,2.6c-1,0.3-1.9,0.4-2.7,0.4c-1.4,0-2.4-0.3-3-0.9c-0.5-0.6-0.8-1.6-0.8-3.1
		s0.3-2.5,0.9-3.1C60.1,4.7,61,4.4,62.4,4.4z"/>
	<path d="M66.5,5.3c0.7-0.6,1.7-0.9,3-0.9s2.3,0.3,3,0.9s1,1.6,1,3.1s-0.3,2.4-1,3s-1.7,0.9-3,0.9s-2.3-0.3-3-0.9
		c-0.7-0.6-1-1.6-1-3S65.9,6,66.5,5.3z M69.1,9.4c0.1,0.2,0.2,0.3,0.5,0.3c0.2,0,0.4-0.1,0.5-0.3s0.1-0.5,0.1-1s0-0.8-0.1-1
		s-0.2-0.3-0.5-0.3c-0.2,0-0.4,0.1-0.5,0.3S69,7.9,69,8.4C68.9,8.9,69,9.2,69.1,9.4z"/>
</g>
<g>
	<path d="M30.2,15.5v-2.1h5.5v2.1h-1.4v5.3h-2.6v-5.3H30.2z"/>
	<path d="M37.7,18.7c0,0.3,0.2,0.4,0.5,0.4c0.7,0,1.5,0,2.2-0.1l0.4,0l0.1,1.6c-1,0.2-1.9,0.3-2.9,0.3s-1.7-0.2-2.1-0.7
		c-0.4-0.4-0.6-1.2-0.6-2.2c0-1,0.2-1.7,0.7-2.3s1.2-0.8,2.2-0.8s1.7,0.2,2.2,0.6c0.5,0.4,0.7,1.1,0.7,1.9l-0.1,1.1H37.7z
		 M38.5,17.4c0-0.2,0-0.4-0.1-0.5c-0.1-0.1-0.2-0.1-0.3-0.1c-0.2,0-0.3,0-0.3,0.1c-0.1,0.1-0.1,0.2-0.1,0.5H38.5z"/>
	<path d="M46.2,17.1C45.3,17,44.7,17,44.3,17s-0.5,0-0.5,0.1c0,0,0.3,0.1,0.9,0.2c0.6,0.1,1,0.2,1.3,0.5s0.4,0.7,0.4,1.4
		c0,0.6-0.2,1.1-0.6,1.4c-0.4,0.3-1,0.5-1.8,0.5c-0.5,0-0.9,0-1.3-0.1s-0.7-0.1-0.9-0.1l-0.3-0.1l0.1-1.7c0.9,0.1,1.5,0.2,1.9,0.2
		c0.4,0,0.5,0,0.5-0.1c0,0-0.3-0.1-0.9-0.2s-1-0.2-1.3-0.5c-0.3-0.3-0.4-0.7-0.4-1.3c0-0.7,0.2-1.3,0.6-1.6s1-0.5,1.8-0.5
		c0.8,0,1.6,0.1,2.1,0.2l0.3,0.1L46.2,17.1z"/>
	<path d="M49.5,17.2v1.1c0,0.2,0,0.3,0.1,0.4c0,0.1,0.1,0.1,0.3,0.1l0.5,0l0,1.9c-0.6,0.1-1.1,0.2-1.5,0.2c-0.7,0-1.2-0.1-1.5-0.4
		c-0.3-0.3-0.4-0.8-0.4-1.6v-1.7h-0.4v-2h0.4v-1.1h2.5v1.1h0.9v2H49.5z"/>
	<path d="M51.5,15.8c0.5-0.5,1.2-0.7,2.2-0.7c1,0,1.7,0.2,2.2,0.7c0.5,0.5,0.7,1.2,0.7,2.2c0,1-0.2,1.8-0.7,2.2
		c-0.5,0.5-1.2,0.7-2.2,0.7c-1,0-1.7-0.2-2.2-0.7c-0.5-0.5-0.7-1.2-0.7-2.2C50.8,17,51,16.2,51.5,15.8z M53.4,18.7
		c0.1,0.1,0.2,0.2,0.4,0.2c0.2,0,0.3-0.1,0.4-0.2c0.1-0.1,0.1-0.4,0.1-0.7s0-0.6-0.1-0.7c-0.1-0.1-0.2-0.2-0.4-0.2
		c-0.2,0-0.3,0.1-0.4,0.2s-0.1,0.4-0.1,0.7S53.3,18.6,53.4,18.7z"/>
</g>
</svg>
