<?xml version="1.0" encoding="utf-8"?>
<!-- Generator: Adobe Illustrator 26.0.3, SVG Export Plug-In . SVG Version: 6.00 Build 0)  -->
<svg version="1.1" id="Layer_1" xmlns="http://www.w3.org/2000/svg" xmlns:xlink="http://www.w3.org/1999/xlink" x="0px" y="0px"
	 viewBox="0 0 90 24" style="enable-background:new 0 0 90 24;" xml:space="preserve">
<style type="text/css">
	.st0{fill:none;}
</style>
<path class="st0" d="M-2.1,0.6h24v24h-24C-2.1,24.6-2.1,0.6-2.1,0.6z"/>
<path d="M13.3,19.6h-1.4v-2h1.6l0-0.4l1.1-1.1h-2.8v-2.5h5.3l1.5-1.5h-6.8V9.5h9.4l1.9-1.9V2.9h-20V8v1.5v2.5v1.5v2.5v1.5v3.5h10
	L13.3,19.6z M11.9,4.4h9.8V8h-9.8V4.4z M10.4,19.6H4.7v-2h5.7V19.6z M10.4,16.1H4.7v-2.5h5.7V16.1z M10.4,12.1H4.7V9.5h5.7V12.1z
	 M10.4,8H4.7V4.4h5.7V8z"/>
<polygon points="14.5,17.7 14.2,20.9 17.3,20.5 26,11.8 23.2,9 "/>
<rect x="24.6" y="7.1" transform="matrix(0.7071 -0.7071 0.7071 0.7071 1.2163 21.036)" width="2.8" height="3.9"/>
<g>
	<path d="M30.1,2.1h4.5c2.4,0,3.7,0.8,3.7,2.5c0,0.6-0.1,1.1-0.2,1.5c-0.1,0.3-0.4,0.7-0.8,1c0.5,0.2,0.8,0.5,1,0.8
		c0.2,0.3,0.3,0.8,0.3,1.5c0,1.9-1.3,2.8-3.9,2.8h-4.6C30.1,12.2,30.1,2.1,30.1,2.1z M34.4,4.4h-0.8V6h0.8c0.3,0,0.5-0.1,0.6-0.2
		s0.2-0.3,0.2-0.6S35.1,4.7,35,4.6S34.6,4.4,34.4,4.4z M34.4,8.2h-0.8v1.6h0.8c0.3,0,0.6-0.1,0.7-0.2c0.1-0.1,0.2-0.3,0.2-0.6
		s-0.1-0.5-0.2-0.7C35,8.2,34.7,8.2,34.4,8.2z"/>
	<path d="M39.2,12.2V1.8h3.4v10.3L39.2,12.2L39.2,12.2z"/>
	<path d="M44.2,5.3c0.7-0.6,1.7-0.9,3-0.9s2.3,0.3,3,0.9s1,1.6,1,3.1s-0.3,2.4-1,3s-1.7,0.9-3,0.9s-2.3-0.3-3-0.9
		c-0.7-0.6-1-1.6-1-3S43.5,6,44.2,5.3z M46.7,9.4c0.1,0.2,0.2,0.3,0.5,0.3c0.2,0,0.4-0.1,0.5-0.3s0.1-0.5,0.1-1s0-0.8-0.1-1
		s-0.2-0.3-0.5-0.3c-0.2,0-0.4,0.1-0.5,0.3s-0.1,0.5-0.1,1C46.6,8.9,46.6,9.2,46.7,9.4z"/>
	<path d="M55.4,4.4c0.7,0,1.5,0.1,2.3,0.3l0.4,0.1L58,7.4c-1-0.1-1.7-0.1-2.1-0.1c-0.4,0-0.6,0.1-0.7,0.2S55.1,8,55.1,8.4
		s0.1,0.7,0.2,0.8c0.1,0.1,0.3,0.2,0.7,0.2l2.1-0.1l0.1,2.6c-1,0.3-1.9,0.4-2.7,0.4c-1.4,0-2.4-0.3-3-0.9c-0.5-0.6-0.8-1.6-0.8-3.1
		s0.3-2.5,0.9-3.1C53.1,4.7,54.1,4.4,55.4,4.4z"/>
	<path d="M62.4,4.4c0.7,0,1.5,0.1,2.3,0.3l0.4,0.1L65,7.4c-1-0.1-1.7-0.1-2.1-0.1c-0.4,0-0.6,0.1-0.7,0.2S62,8,62,8.4
		s0.1,0.7,0.2,0.8c0.1,0.1,0.3,0.2,0.7,0.2L65,9.3l0.1,2.6c-1,0.3-1.9,0.4-2.7,0.4c-1.4,0-2.4-0.3-3-0.9c-0.5-0.6-0.8-1.6-0.8-3.1
		s0.3-2.5,0.9-3.1C60.1,4.7,61,4.4,62.4,4.4z"/>
	<path d="M66.5,5.3c0.7-0.6,1.7-0.9,3-0.9s2.3,0.3,3,0.9s1,1.6,1,3.1s-0.3,2.4-1,3s-1.7,0.9-3,0.9s-2.3-0.3-3-0.9
		c-0.7-0.6-1-1.6-1-3S65.9,6,66.5,5.3z M69.1,9.4c0.1,0.2,0.2,0.3,0.5,0.3c0.2,0,0.4-0.1,0.5-0.3s0.1-0.5,0.1-1s0-0.8-0.1-1
		s-0.2-0.3-0.5-0.3c-0.2,0-0.4,0.1-0.5,0.3S69,7.9,69,8.4C68.9,8.9,69,9.2,69.1,9.4z"/>
</g>
<g>
	<path d="M30.2,15.5v-2.1h5.5v2.1h-1.4v5.3h-2.6v-5.3H30.2z"/>
	<path d="M41.4,17v2.1c0.1,0.1,0.2,0.1,0.3,0.1l0,1.6c-0.6,0.1-1,0.1-1.2,0.1s-0.4,0-0.6-0.1c-0.2-0.1-0.3-0.1-0.4-0.2l-0.1-0.1
		c-0.5,0.3-1,0.4-1.7,0.4c-0.6,0-1.1-0.1-1.5-0.4s-0.5-0.8-0.5-1.4s0.2-1.1,0.6-1.3s1-0.4,1.8-0.4l0.8,0v-0.1c0-0.1-0.2-0.2-0.5-0.2
		c-0.7,0-1.3,0-2,0.1l-0.4,0L36,15.5c1-0.3,1.9-0.4,2.7-0.4c0.8,0,1.5,0.1,1.9,0.4C41.1,15.7,41.4,16.3,41.4,17z M38.5,19.2
		c0.1,0,0.3-0.1,0.4-0.2v-0.4l-0.4,0c-0.2,0-0.3,0.1-0.3,0.3C38.2,19.2,38.3,19.2,38.5,19.2z"/>
	<path d="M45.7,15.1c1.5,0,2.2,0.9,2.2,2.8c0,1.1-0.2,1.9-0.6,2.4c-0.4,0.4-1.2,0.7-2.4,0.7c-0.5,0-1.2-0.1-2.3-0.2l-0.5-0.1v-7.5
		h2.5v2.1C45,15.2,45.4,15.1,45.7,15.1z M44.9,18.9c0.3,0,0.5-0.3,0.5-1c0-0.3,0-0.6-0.1-0.7c-0.1-0.1-0.2-0.2-0.4-0.2l-0.4,0.1v1.7
		C44.6,18.9,44.8,18.9,44.9,18.9z"/>
	<path d="M50.7,18.7c0,0.3,0.2,0.4,0.5,0.4c0.7,0,1.5,0,2.2-0.1l0.4,0l0.1,1.6c-1,0.2-1.9,0.3-2.9,0.3s-1.7-0.2-2.1-0.7
		s-0.6-1.2-0.6-2.2c0-1,0.2-1.7,0.7-2.3s1.2-0.8,2.2-0.8c1,0,1.7,0.2,2.2,0.6s0.7,1.1,0.7,1.9l-0.1,1.1H50.7z M51.5,17.4
		c0-0.2,0-0.4-0.1-0.5c-0.1-0.1-0.2-0.1-0.3-0.1s-0.3,0-0.3,0.1c-0.1,0.1-0.1,0.2-0.1,0.5H51.5z"/>
	<path d="M54.4,20.8v-7.6h2.5v7.6H54.4z"/>
	<path d="M57.5,20.8v-7.6H60v7.6H57.5z"/>
	<path d="M66,17v2.1c0.1,0.1,0.2,0.1,0.3,0.1l0,1.6c-0.6,0.1-1,0.1-1.2,0.1s-0.4,0-0.6-0.1c-0.2-0.1-0.3-0.1-0.4-0.2L64,20.5
		c-0.5,0.3-1,0.4-1.7,0.4c-0.6,0-1.1-0.1-1.5-0.4c-0.3-0.3-0.5-0.8-0.5-1.4s0.2-1.1,0.6-1.3s1-0.4,1.8-0.4l0.8,0v-0.1
		c0-0.1-0.2-0.2-0.5-0.2c-0.7,0-1.3,0-2,0.1l-0.4,0l-0.1-1.7c1-0.3,1.9-0.4,2.7-0.4c0.8,0,1.5,0.1,1.9,0.4C65.7,15.7,66,16.3,66,17z
		 M63.1,19.2c0.1,0,0.3-0.1,0.4-0.2v-0.4l-0.4,0c-0.2,0-0.3,0.1-0.3,0.3C62.8,19.2,62.9,19.2,63.1,19.2z"/>
</g>
</svg>
