<?xml version="1.0" encoding="utf-8"?>
<!-- Generator: Adobe Illustrator 26.0.3, SVG Export Plug-In . SVG Version: 6.00 Build 0)  -->
<svg version="1.1" id="Layer_1" xmlns="http://www.w3.org/2000/svg" xmlns:xlink="http://www.w3.org/1999/xlink" x="0px" y="0px"
	 viewBox="0 0 90 24" style="enable-background:new 0 0 90 24;" xml:space="preserve">
<style type="text/css">
	.st0{fill:none;}
	.st1{stroke:#000000;stroke-width:20;stroke-linejoin:round;stroke-miterlimit:10;}
</style>
<path class="st0" d="M-2.1,0.6h24v24h-24C-2.1,24.6-2.1,0.6-2.1,0.6z"/>
<polygon points="14.5,17.7 14.2,20.9 17.3,20.5 26,11.8 23.2,9 "/>
<rect x="24.6" y="7.1" transform="matrix(0.7071 -0.7071 0.7071 0.7071 1.2163 21.036)" width="2.8" height="3.9"/>
<g>
	<path d="M30.1,2.1h4.5c2.4,0,3.7,0.8,3.7,2.5c0,0.6-0.1,1.1-0.2,1.5c-0.1,0.3-0.4,0.7-0.8,1c0.5,0.2,0.8,0.5,1,0.8
		c0.2,0.3,0.3,0.8,0.3,1.5c0,1.9-1.3,2.8-3.9,2.8h-4.6C30.1,12.2,30.1,2.1,30.1,2.1z M34.4,4.4h-0.8V6h0.8c0.3,0,0.5-0.1,0.6-0.2
		s0.2-0.3,0.2-0.6S35.1,4.7,35,4.6S34.6,4.4,34.4,4.4z M34.4,8.2h-0.8v1.6h0.8c0.3,0,0.6-0.1,0.7-0.2c0.1-0.1,0.2-0.3,0.2-0.6
		s-0.1-0.5-0.2-0.7C35,8.2,34.7,8.2,34.4,8.2z"/>
	<path d="M39.2,12.2V1.8h3.4v10.3L39.2,12.2L39.2,12.2z"/>
	<path d="M44.2,5.3c0.7-0.6,1.7-0.9,3-0.9s2.3,0.3,3,0.9s1,1.6,1,3.1s-0.3,2.4-1,3s-1.7,0.9-3,0.9s-2.3-0.3-3-0.9
		c-0.7-0.6-1-1.6-1-3S43.5,6,44.2,5.3z M46.7,9.4c0.1,0.2,0.2,0.3,0.5,0.3c0.2,0,0.4-0.1,0.5-0.3s0.1-0.5,0.1-1s0-0.8-0.1-1
		s-0.2-0.3-0.5-0.3c-0.2,0-0.4,0.1-0.5,0.3s-0.1,0.5-0.1,1C46.6,8.9,46.6,9.2,46.7,9.4z"/>
	<path d="M55.4,4.4c0.7,0,1.5,0.1,2.3,0.3l0.4,0.1L58,7.4c-1-0.1-1.7-0.1-2.1-0.1c-0.4,0-0.6,0.1-0.7,0.2S55.1,8,55.1,8.4
		s0.1,0.7,0.2,0.8c0.1,0.1,0.3,0.2,0.7,0.2l2.1-0.1l0.1,2.6c-1,0.3-1.9,0.4-2.7,0.4c-1.4,0-2.4-0.3-3-0.9c-0.5-0.6-0.8-1.6-0.8-3.1
		s0.3-2.5,0.9-3.1C53.1,4.7,54.1,4.4,55.4,4.4z"/>
	<path d="M62.4,4.4c0.7,0,1.5,0.1,2.3,0.3l0.4,0.1L65,7.4c-1-0.1-1.7-0.1-2.1-0.1c-0.4,0-0.6,0.1-0.7,0.2S62,8,62,8.4
		s0.1,0.7,0.2,0.8c0.1,0.1,0.3,0.2,0.7,0.2L65,9.3l0.1,2.6c-1,0.3-1.9,0.4-2.7,0.4c-1.4,0-2.4-0.3-3-0.9c-0.5-0.6-0.8-1.6-0.8-3.1
		s0.3-2.5,0.9-3.1C60.1,4.7,61,4.4,62.4,4.4z"/>
	<path d="M66.5,5.3c0.7-0.6,1.7-0.9,3-0.9s2.3,0.3,3,0.9s1,1.6,1,3.1s-0.3,2.4-1,3s-1.7,0.9-3,0.9s-2.3-0.3-3-0.9
		c-0.7-0.6-1-1.6-1-3S65.9,6,66.5,5.3z M69.1,9.4c0.1,0.2,0.2,0.3,0.5,0.3c0.2,0,0.4-0.1,0.5-0.3s0.1-0.5,0.1-1s0-0.8-0.1-1
		s-0.2-0.3-0.5-0.3c-0.2,0-0.4,0.1-0.5,0.3S69,7.9,69,8.4C68.9,8.9,69,9.2,69.1,9.4z"/>
</g>
<g>
	<path d="M30.4,20.8v-7.4H33v7.4H30.4z"/>
	<path d="M36.1,20.8h-2.5v-5.6h2.5v0.3c0.5-0.3,1-0.4,1.4-0.4c0.5,0,0.8,0.2,1.1,0.5c0.5-0.3,1.1-0.5,1.6-0.5c0.9,0,1.4,0.2,1.8,0.7
		c0.3,0.5,0.5,1.2,0.5,2.2v2.8h-2.5v-2.5c0-0.7-0.1-1.1-0.4-1.1l-0.5,0.1c0.1,0.2,0.1,0.5,0.1,1v2.6h-2.5v-2.5
		c0-0.7-0.1-1.1-0.4-1.1l-0.4,0.1V20.8z"/>
	<path d="M45.6,20.8h-2.5v-5.6h2.5v0.3c0.5-0.3,1-0.4,1.4-0.4c0.5,0,0.8,0.2,1.1,0.5c0.5-0.3,1.1-0.5,1.7-0.5c0.9,0,1.4,0.2,1.8,0.7
		C51.8,16.2,52,17,52,18v2.8h-2.5v-2.5c0-0.7-0.1-1.1-0.4-1.1l-0.5,0.1c0.1,0.2,0.1,0.5,0.1,1v2.6h-2.5v-2.5c0-0.7-0.1-1.1-0.4-1.1
		l-0.4,0.1V20.8z"/>
	<path d="M58,17v2.1c0.1,0.1,0.2,0.1,0.3,0.1l0,1.6c-0.6,0.1-1,0.1-1.2,0.1s-0.4,0-0.6-0.1c-0.2-0.1-0.3-0.1-0.4-0.2L56,20.5
		c-0.5,0.3-1,0.4-1.7,0.4c-0.6,0-1.1-0.1-1.5-0.4c-0.3-0.3-0.5-0.8-0.5-1.4s0.2-1.1,0.6-1.3s1-0.4,1.8-0.4l0.8,0v-0.1
		c0-0.1-0.2-0.2-0.5-0.2c-0.7,0-1.3,0-2,0.1l-0.4,0l-0.1-1.7c1-0.3,1.9-0.4,2.7-0.4c0.8,0,1.5,0.1,1.9,0.4C57.7,15.7,58,16.3,58,17z
		 M55.1,19.2c0.1,0,0.3-0.1,0.4-0.2v-0.4l-0.4,0c-0.2,0-0.3,0.1-0.3,0.3C54.8,19.2,54.9,19.2,55.1,19.2z"/>
	<path d="M59.3,22.9c-0.6-0.2-0.9-0.6-0.9-1.3c0-0.3,0.1-0.5,0.2-0.7c0.1-0.2,0.3-0.4,0.5-0.6c-0.3-0.2-0.4-0.5-0.4-0.8
		c0-0.1,0.1-0.2,0.2-0.3s0.2-0.2,0.3-0.3l0.2-0.1c-0.6-0.3-0.9-0.8-0.9-1.6s0.2-1.3,0.6-1.6c0.4-0.3,1.1-0.4,2.1-0.4
		c0.2,0,0.6,0,1,0.1l0.2,0l2,0v1.4h-0.5C64,16.8,64,17,64,17.1c0,0.8-0.2,1.3-0.6,1.6c-0.4,0.3-1.1,0.4-2.1,0.4c-0.1,0-0.3,0-0.4,0
		c0,0,0,0.1,0,0.1c0,0.1,0.4,0.1,1.3,0.1s1.5,0.1,1.8,0.4c0.3,0.3,0.5,0.7,0.5,1.4c0,0.7-0.2,1.2-0.7,1.6s-1.2,0.6-2.1,0.6
		S59.9,23.1,59.3,22.9z M60.5,21.4c0,0.1,0.3,0.1,0.8,0.1c0.6,0,0.8-0.1,0.8-0.2c0-0.1,0-0.1-0.1-0.1c-0.1,0-0.3,0-0.6,0l-0.8,0
		C60.5,21.2,60.5,21.2,60.5,21.4z M60.9,17.4c0.1,0.1,0.2,0.1,0.3,0.1c0.2,0,0.3,0,0.3-0.1c0.1-0.1,0.1-0.2,0.1-0.3
		c0-0.1,0-0.2-0.1-0.3c-0.1-0.1-0.2-0.1-0.3-0.1c-0.2,0-0.3,0-0.3,0.1c-0.1,0.1-0.1,0.2-0.1,0.3C60.8,17.2,60.9,17.3,60.9,17.4z"/>
	<path d="M64.8,14.9v-1.7h2.5v1.7H64.8z M64.8,20.8v-5.6h2.5v5.6H64.8z"/>
	<path d="M70.4,20.8h-2.5v-5.6h2.5v0.3c0.5-0.3,0.9-0.4,1.2-0.4c0.8,0,1.3,0.2,1.7,0.6s0.5,1.2,0.5,2.3v2.8h-2.5v-2.6
		c0-0.6-0.1-1-0.4-1l-0.5,0.1V20.8z"/>
	<path d="M76.6,18.7c0,0.3,0.2,0.4,0.5,0.4c0.7,0,1.5,0,2.2-0.1l0.4,0l0.1,1.6c-1,0.2-1.9,0.3-2.9,0.3s-1.7-0.2-2.1-0.7
		s-0.6-1.2-0.6-2.2c0-1,0.2-1.7,0.7-2.3s1.2-0.8,2.2-0.8c1,0,1.7,0.2,2.2,0.6s0.7,1.1,0.7,1.9l-0.1,1.1H76.6z M77.4,17.4
		c0-0.2,0-0.4-0.1-0.5c-0.1-0.1-0.2-0.1-0.3-0.1s-0.3,0-0.3,0.1c-0.1,0.1-0.1,0.2-0.1,0.5H77.4z"/>
</g>
<g id="Layer_1_00000165208300123362163180000016449205101247973532_">
	<path class="st1" d="M7.8,7.2"/>
	<path class="st1" d="M11.4,3.6"/>
	<circle cx="10.2" cy="8.5" r="1.8"/>
</g>
<polygon points="13.2,20.4 4.7,20.4 4.7,4.8 21.8,4.8 21.8,9 22.9,7.8 22.9,3.6 3.5,3.6 3.5,21.6 13.1,21.6 "/>
<polygon points="13.5,17.2 20.2,10.6 17.1,8.5 11,13.9 8.6,11.5 5.9,14.2 5.9,18.8 12.6,18.8 13.4,18.8 "/>
</svg>
