<?xml version="1.0" encoding="utf-8"?>
<!-- Generator: Adobe Illustrator 26.0.2, SVG Export Plug-In . SVG Version: 6.00 Build 0)  -->
<svg version="1.1" id="Layer_1" xmlns="http://www.w3.org/2000/svg" xmlns:xlink="http://www.w3.org/1999/xlink" x="0px" y="0px"
	 viewBox="0 0 24 24" style="enable-background:new 0 0 24 24;" xml:space="preserve">
<style type="text/css">
	.st0{fill:#FFFFFF;}
	.st1{fill:none;stroke:#FFFFFF;stroke-miterlimit:10;}
</style>
<polygon class="st0" points="16.8,9 17.4,7.6 18.7,7 17.4,6.4 16.8,5.1 16.2,6.4 14.9,7 16.2,7.6 "/>
<polygon class="st0" points="9.4,9 10,7.6 11.4,7 10,6.4 9.4,5.1 8.8,6.4 7.5,7 8.8,7.6 "/>
<polygon class="st0" points="16.8,12.5 16.2,13.8 14.9,14.4 16.2,15 16.8,16.3 17.4,15 18.7,14.4 17.4,13.8 "/>
<path class="st1" d="M6.7,17.9L5.8,17c-0.2-0.2-0.2-0.6,0-0.9l6.9-6.9c0.2-0.2,0.6-0.2,0.9,0l0.9,0.9c0.2,0.2,0.2,0.6,0,0.9
	l-6.9,6.9C7.4,18.2,7,18.2,6.7,17.9z"/>
<path class="st1" d="M12.7,11.9L11.8,11c-0.2-0.2-0.2-0.6,0-0.9l0.9-0.9c0.2-0.2,0.6-0.2,0.9,0l0.9,0.9c0.2,0.2,0.2,0.6,0,0.9
	l-0.9,0.9C13.3,12.2,12.9,12.2,12.7,11.9z"/>
</svg>
