<?xml version="1.0" encoding="utf-8"?>
<!-- Generator: Adobe Illustrator 26.0.3, SVG Export Plug-In . SVG Version: 6.00 Build 0)  -->
<svg version="1.1" id="Layer_1" xmlns="http://www.w3.org/2000/svg" xmlns:xlink="http://www.w3.org/1999/xlink" x="0px" y="0px"
	 viewBox="0 0 24 24" style="enable-background:new 0 0 24 24;" xml:space="preserve">
<style type="text/css">
	.st0{fill:#FFFFFF;}
	.st1{fill:none;stroke:#FFFFFF;stroke-miterlimit:10;}
</style>
<polygon class="st0" points="19.1,7.7 20,5.6 21.9,4.7 20,3.8 19.1,1.9 18.2,3.8 16.2,4.7 18.2,5.6 "/>
<polygon class="st0" points="8,7.7 8.9,5.6 11,4.7 8.9,3.8 8,1.9 7.1,3.8 5.2,4.7 7.1,5.6 "/>
<polygon class="st0" points="19.1,12.9 18.2,14.9 16.2,15.8 18.2,16.7 19.1,18.6 20,16.7 21.9,15.8 20,14.9 "/>
<path class="st1" d="M4,21l-1.3-1.3c-0.3-0.3-0.3-0.9,0-1.3L13,8c0.3-0.3,0.9-0.3,1.3,0l1.3,1.3c0.3,0.3,0.3,0.9,0,1.3L5.3,21
	C5.1,21.4,4.5,21.4,4,21z"/>
<path class="st1" d="M13,12l-1.3-1.3c-0.3-0.3-0.3-0.9,0-1.3L13,8c0.3-0.3,0.9-0.3,1.3,0l1.3,1.3c0.3,0.3,0.3,0.9,0,1.3L14.3,12
	C13.9,12.5,13.3,12.5,13,12z"/>
</svg>
