<?xml version="1.0" encoding="utf-8"?>
<!-- Generator: Adobe Illustrator 26.0.3, SVG Export Plug-In . SVG Version: 6.00 Build 0)  -->
<svg version="1.1" id="Layer_1" xmlns="http://www.w3.org/2000/svg" xmlns:xlink="http://www.w3.org/1999/xlink" x="0px" y="0px"
	 viewBox="0 0 36 24" style="enable-background:new 0 0 36 24;" xml:space="preserve">
<style type="text/css">
	.st0{fill:none;}
</style>
<path class="st0" d="M0.6-0.6h24v24h-24V-0.6z"/>
<path d="M19.6,3.4h-1v-2h-2v2h-8v-2h-2v2h-1c-1.1,0-2,0.9-2,2l0,14c0,1.1,0.9,2,2,2h14c1.1,0,2-0.9,2-2v-14
	C21.6,4.3,20.7,3.4,19.6,3.4z M19.6,19.4h-14v-10h14V19.4z M19.6,7.4h-14v-2h14V7.4z M12.6,12.4h5v5h-5V12.4z"/>
</svg>
