<?xml version="1.0" encoding="utf-8"?>
<!-- Generator: Adobe Illustrator 26.0.3, SVG Export Plug-In . SVG Version: 6.00 Build 0)  -->
<svg version="1.1" id="Layer_1" xmlns="http://www.w3.org/2000/svg" xmlns:xlink="http://www.w3.org/1999/xlink" x="0px" y="0px"
	 viewBox="0 0 36 24" style="enable-background:new 0 0 36 24;" xml:space="preserve">
<style type="text/css">
	.st0{fill:none;}
</style>
<g>
	<path d="M25,3.4h-1v-2h-2v2h-8v-2h-2v2h-1c-1.1,0-2,0.9-2,2v14c0,1.1,0.9,2,2,2h14c1.1,0,2-0.9,2-2v-14C27,4.3,26.1,3.4,25,3.4z
		 M25,19.4H11v-10h14V19.4z M25,7.4H11v-2h14V7.4z M15,13.4h-2v-2h2V13.4z M19,13.4h-2v-2h2V13.4z M23,13.4h-2v-2h2V13.4z M15,17.4
		h-2v-2h2V17.4z M19,17.4h-2v-2h2V17.4z M23,17.4h-2v-2h2V17.4z"/>
</g>
<path class="st0" d="M0.6-0.6h24v24h-24C0.6,23.4,0.6-0.6,0.6-0.6z"/>
</svg>
