<?xml version="1.0" encoding="utf-8"?>
<!-- Generator: Adobe Illustrator 26.0.3, SVG Export Plug-In . SVG Version: 6.00 Build 0)  -->
<svg version="1.1" id="Layer_1" xmlns="http://www.w3.org/2000/svg" xmlns:xlink="http://www.w3.org/1999/xlink" x="0px" y="0px"
	 viewBox="0 0 36 24" style="enable-background:new 0 0 36 24;" xml:space="preserve">
<style type="text/css">
	.st0{fill:none;}
</style>
<path class="st0" d="M0.6-0.6h24v24h-24C0.6,23.4,0.6-0.6,0.6-0.6z"/>
<path d="M12.3,19.6c0-0.1-0.1-0.2-0.1-0.2H5.6v-10h14v0.3h1.1c0.4,0,0.7,0.1,0.9,0.4V5.4c0-1.1-0.9-2-2-2h-1v-2h-2v2h-8v-2h-2v2h-1
	c-1.1,0-2,0.9-2,2v14c0,1.1,0.9,2,2,2h7.8L12.3,19.6z M5.6,5.4h14v2h-14V5.4z"/>
<path d="M15.6,11.7l0.8,0.3c0.1-0.1,0.2-0.1,0.3-0.2l0.1-0.5h-1.1V11.7z"/>
<rect x="7.6" y="11.4" width="2" height="2"/>
<rect x="7.6" y="15.4" width="2" height="2"/>
<path d="M11.6,17.4h1.7l0.2-0.2c0-0.1,0-0.1,0-0.2c0-0.1,0-0.1,0-0.2l-1-0.8l0,0c-0.2-0.2-0.3-0.4-0.4-0.6h-0.6V17.4z"/>
<path d="M11.6,13.4h1.3l0.7-1.2c0,0,0,0,0,0v-0.8h-2V13.4z"/>
<path d="M24.3,17.6c0-0.2,0.1-0.4,0.1-0.6s0-0.4-0.1-0.6l1.4-1.1c0.1-0.1,0.1-0.3,0.1-0.4l-1.3-2.2c-0.1-0.1-0.3-0.2-0.4-0.1
	l-1.6,0.7c-0.3-0.3-0.7-0.5-1.1-0.6L21,10.9c0-0.1-0.1-0.3-0.3-0.3h-2.6c-0.1,0-0.3,0.1-0.3,0.3l-0.2,1.6c-0.3,0.1-0.7,0.3-1.1,0.6
	l-1.6-0.7c-0.1,0-0.3,0-0.4,0.2l-1.3,2.2c-0.1,0.1,0,0.3,0.1,0.4l1.4,1.1c0,0.2-0.1,0.4-0.1,0.6s0,0.4,0.1,0.6l-1.4,1.1
	c-0.1,0.1-0.1,0.3-0.1,0.4l1.3,2.2c0.1,0.1,0.3,0.2,0.4,0.1l1.6-0.7c0.3,0.3,0.7,0.5,1.1,0.6l0.3,1.7c0.1,0.1,0.1,0.3,0.3,0.3h2.6
	c0.1,0,0.3-0.1,0.3-0.3l0.3-1.7c0.4-0.1,0.7-0.4,1.1-0.6l1.6,0.7c0.1,0.1,0.3,0,0.4-0.1l1.3-2.2c0.1-0.1,0.1-0.3-0.1-0.4L24.3,17.6z
	 M19.4,19.5c-1.4,0-2.4-1.1-2.4-2.4s1.1-2.4,2.4-2.4s2.4,1.1,2.4,2.4S20.8,19.5,19.4,19.5z"/>
</svg>
