<?xml version="1.0" encoding="utf-8"?>
<!-- Generator: Adobe Illustrator 26.0.3, SVG Export Plug-In . SVG Version: 6.00 Build 0)  -->
<svg version="1.1" id="Layer_1" xmlns="http://www.w3.org/2000/svg" xmlns:xlink="http://www.w3.org/1999/xlink" x="0px" y="0px"
	 viewBox="0 0 90 24" style="enable-background:new 0 0 90 24;" xml:space="preserve">
<polygon points="16.9,18.5 16.6,21.7 19.7,21.3 28.4,12.6 25.6,9.8 "/>
<rect x="27" y="7.9" transform="matrix(0.7071 -0.7071 0.7071 0.7071 1.3239 22.9489)" width="2.8" height="3.9"/>
<path d="M15.8,19.7H6.1v-10h14v4.2l2-2V5.7c0-1.1-0.9-2-2-2h-1v-2h-2v2h-8v-2h-2v2h-1c-1.1,0-2,0.9-2,2v14c0,1.1,0.9,2,2,2h9.5
	L15.8,19.7z M6.1,5.7h14v2h-14V5.7z"/>
<rect x="16.1" y="11.7" width="2" height="2"/>
<rect x="12.1" y="15.7" width="2" height="2"/>
<rect x="8.1" y="15.7" width="2" height="2"/>
<rect x="8.1" y="11.7" width="2" height="2"/>
<rect x="12.1" y="11.7" width="2" height="2"/>
<polygon points="18.1,15.9 18.1,15.7 16.1,15.7 16.1,17.7 16.3,17.7 "/>
<g>
	<path d="M32.6,13l2.2-10h5.3l2.3,10h-3.5l-0.3-1.2h-2.3L36.1,13H32.6z M37.3,5.7l-0.6,3.5h1.5l-0.5-3.5H37.3z"/>
	<path d="M46.1,13h-3.4V5.4h3.3v0.4c0.6-0.4,1.2-0.6,1.7-0.6c1.1,0,1.8,0.3,2.3,0.9s0.6,1.6,0.6,3.1V13h-3.4V9.4
		c0-0.9-0.2-1.3-0.5-1.3l-0.6,0.1V13z"/>
	<path d="M54.7,13h-3.4V5.4h3.3v0.4c0.6-0.4,1.2-0.6,1.7-0.6c1.1,0,1.8,0.3,2.3,0.9s0.6,1.6,0.6,3.1V13h-3.4V9.4
		c0-0.9-0.2-1.3-0.5-1.3l-0.6,0.1V13z"/>
	<path d="M60.9,6.1c0.7-0.6,1.7-0.9,3-0.9c1.3,0,2.3,0.3,3,0.9s1,1.6,1,3.1s-0.3,2.4-1,3c-0.7,0.6-1.7,0.9-3,0.9
		c-1.3,0-2.3-0.3-3-0.9c-0.7-0.6-1-1.6-1-3S60.2,6.8,60.9,6.1z M63.4,10.2c0.1,0.2,0.2,0.3,0.5,0.3c0.2,0,0.4-0.1,0.5-0.3
		s0.1-0.5,0.1-1c0-0.5,0-0.8-0.1-1s-0.2-0.3-0.5-0.3c-0.2,0-0.4,0.1-0.5,0.3s-0.1,0.5-0.1,1C63.2,9.7,63.3,10,63.4,10.2z"/>
</g>
</svg>
