<?xml version="1.0" encoding="utf-8"?>
<!-- Generator: Adobe Illustrator 26.0.3, SVG Export Plug-In . SVG Version: 6.00 Build 0)  -->
<svg version="1.1" id="Layer_1" xmlns="http://www.w3.org/2000/svg" xmlns:xlink="http://www.w3.org/1999/xlink" x="0px" y="0px"
	 viewBox="0 0 1179.7 331" style="enable-background:new 0 0 1179.7 331;" xml:space="preserve">
<style type="text/css">
	.st0{fill:#FFFFFF;}
	.st1{fill:#FC9322;stroke:#000000;stroke-width:20;stroke-linejoin:round;stroke-miterlimit:10;}
	.st2{fill:#FC9322;}
	.st3{fill:#FFFFFF;stroke:#000000;stroke-width:20;stroke-linejoin:round;stroke-miterlimit:10;}
	.st4{fill:none;stroke:#FC9322;stroke-width:15;stroke-miterlimit:10;}
	.st5{fill:none;}
	.st6{font-family:'TitilliumWeb-Bold';}
	.st7{font-size:120px;}
</style>
<path class="st0" d="M-348,50.9v241.4h260.8V50.9H-348z M-103.1,275.4h-228.1V67.8h228.1C-103.1,67.8-103.1,275.4-103.1,275.4z"/>
<g id="Layer_1_00000114783152641938966560000013148462418804126633_">
	<path class="st1" d="M111.8,99.9"/>
	<path class="st1" d="M160.2,50.9"/>
	<circle class="st2" cx="144.2" cy="116.6" r="24.6"/>
</g>
<path class="st2" d="M187.2,227.3c0-46.6,37.8-84.6,84.8-86l-35.5-24.7l-82.2,71.8l-31.2-31.2l-36.3,36.3v61.4h105
	C188.8,246.3,187.2,237,187.2,227.3z"/>
<path class="st2" d="M202.1,275.3H71V67.9h226.8v76.5c5.9,1.6,11.6,3.8,17,6.6V50.9H54v241.4h163.4
	C211.6,287.3,206.4,281.6,202.1,275.3z"/>
<path class="st2" d="M274.6,167.1c33.8,0,61.4,27,61.4,60.3s-27.5,60.3-61.4,60.3c-33.8,0-61.4-27-61.4-60.3
	S240.8,167.1,274.6,167.1 M274.6,151.3c-42.7,0-77.4,34-77.4,76s34.6,76,77.4,76s77.4-34,77.4-76S317.4,151.3,274.6,151.3
	L274.6,151.3z"/>
<g>
	<line class="st2" x1="274.6" y1="184.3" x2="274.6" y2="270.5"/>
	<rect x="266.6" y="184.3" class="st2" width="16" height="86.2"/>
</g>
<g id="Layer_1_00000165208300123362163180000016449205101247973532_">
	<path class="st3" d="M-290.2,99.9"/>
	<path class="st3" d="M-241.8,50.9"/>
	<circle class="st0" cx="-257.8" cy="116.6" r="24.6"/>
</g>
<polygon class="st0" points="-165.5,116.6 -247.7,188.4 -278.9,157.2 -315.2,193.5 -315.2,254.9 -225.1,254.9 -210.2,254.9 
	-117.8,254.9 -117.8,148.9 "/>
<polyline class="st4" points="246.5,212.4 274.6,184.3 304.4,214 "/>
<rect x="408.2" y="126.2" class="st5" width="722" height="146"/>
<text transform="matrix(1 0 0 1 408.2002 210.1648)" class="st2 st6 st7">CARICA FOTO</text>
</svg>
