<?xml version="1.0" encoding="utf-8"?>
<!-- Generator: Adobe Illustrator 26.0.3, SVG Export Plug-In . SVG Version: 6.00 Build 0)  -->
<svg version="1.1" id="Layer_1" xmlns="http://www.w3.org/2000/svg" xmlns:xlink="http://www.w3.org/1999/xlink" x="0px" y="0px"
	 viewBox="0 0 36 24" style="enable-background:new 0 0 36 24;" xml:space="preserve">
<path d="M11.2,15.5V7.6c0-0.5,0.4-1,1-1h0.5c-0.2-0.3-0.2-0.8-0.1-1.2c0.2-0.4,0.5-0.7,0.9-0.9h-1.3c-1.7,0-3,1.4-3,3v10.7
	L11.2,15.5z"/>
<path d="M12,19.5l5-6.7V7.5h2v5.3l1.4,1.9l1.4-1.4L21,12.2V8l1.4-1.7c0.2-0.3,0-0.8-0.4-0.8h-8c-0.4,0-0.7,0.5-0.4,0.8L15,8v4.2
	l-5.8,7.7c-0.5,0.7,0,1.6,0.8,1.6h8l0.2-2H12z"/>
<polygon points="19.4,17.1 19.1,20.3 22.2,19.9 30.9,11.2 28.1,8.4 "/>
<rect x="29.5" y="6.5" transform="matrix(0.7071 -0.7071 0.7071 0.7071 3.0904 24.3126)" width="2.8" height="3.9"/>
<path d="M23.3,5.2c0.2,0.5,0.2,1,0,1.4h0.5c0.6,0,0.9,0.5,1,1v2.7l2.1-2.1l0-0.7c-0.2-1.7-1.5-3-3-3h-1.4
	C22.8,4.7,23.1,4.9,23.3,5.2z"/>
</svg>
