<?xml version="1.0" encoding="utf-8"?>
<!-- Generator: Adobe Illustrator 26.0.3, SVG Export Plug-In . SVG Version: 6.00 Build 0)  -->
<svg version="1.1" id="Layer_1" xmlns="http://www.w3.org/2000/svg" xmlns:xlink="http://www.w3.org/1999/xlink" x="0px" y="0px"
	 viewBox="0 0 36 24" style="enable-background:new 0 0 36 24;" xml:space="preserve">
<path d="M9.6,7.7H7.8v12.5c0,1,0.8,1.8,1.8,1.8h12.5v-1.8H9.6C9.6,20.2,9.6,7.7,9.6,7.7z"/>
<path d="M18.2,17.6h-4.9c-0.6,0-1-0.5-1-1V4.9c0-0.6,0.5-1,1-1h11.6c0.6,0,1,0.6,1,1v2.4h0.3c0.6,0,1.2,0.5,1.2,1.1l0.2,1.3
	c0,0,0.1,0,0.1,0.1l0-4.9C27.7,3.2,26.4,2,24.9,2H13.3c-1.6,0-2.9,1.3-2.9,2.9v11.6c0,1.6,1.3,2.9,2.9,2.9h6L18.2,17.6z"/>
<path d="M29.8,15.3c0-0.2,0.1-0.4,0.1-0.6c0-0.2,0-0.4-0.1-0.6l1.4-1.1c0.1-0.1,0.1-0.3,0.1-0.4L30,10.4c-0.1-0.1-0.3-0.2-0.4-0.1
	L28,11c-0.3-0.3-0.7-0.5-1.1-0.6l-0.3-1.8c0-0.1-0.1-0.3-0.3-0.3h-2.6c-0.1,0-0.3,0.1-0.3,0.3l-0.2,1.8c-0.4,0.1-0.8,0.3-1.1,0.6
	l-1.6-0.7c-0.1-0.1-0.3,0-0.4,0.1l-1.3,2.3c-0.1,0.1,0,0.3,0.1,0.4l1.4,1.1c0,0.2-0.1,0.4-0.1,0.6c0,0.2,0,0.4,0.1,0.6l-1.4,1.1
	c-0.1,0.1-0.1,0.3-0.1,0.4l1.3,2.2c0.1,0.1,0.3,0.2,0.4,0.1l1.6-0.7c0.3,0.3,0.7,0.5,1.1,0.6l0.3,1.7c0.1,0.1,0.1,0.3,0.3,0.3h2.6
	c0.1,0,0.3-0.1,0.3-0.3l0.3-1.7c0.4-0.1,0.7-0.4,1.1-0.6l1.6,0.7c0.1,0.1,0.3,0,0.4-0.1l1.3-2.2c0.1-0.1,0.1-0.3-0.1-0.4L29.8,15.3z
	 M25,17.2c-1.4,0-2.4-1.1-2.4-2.4s1.1-2.4,2.4-2.4c1.4,0,2.4,1.1,2.4,2.4S26.3,17.2,25,17.2z"/>
</svg>
