<?xml version="1.0" encoding="utf-8"?>
<!-- Generator: Adobe Illustrator 25.3.0, SVG Export Plug-In . SVG Version: 6.00 Build 0)  -->
<svg version="1.1" id="Layer_1" xmlns="http://www.w3.org/2000/svg" xmlns:xlink="http://www.w3.org/1999/xlink" x="0px" y="0px"
	 viewBox="0 0 36 24" style="enable-background:new 0 0 36 24;" xml:space="preserve">
<style type="text/css">
	.st0{fill:none;stroke:#000000;stroke-width:2.1;stroke-miterlimit:10;}
</style>
<path class="st0" d="M22.3,1.9h-13c-1.2,0-2.2,1-2.2,2.2v13c0,1.2,1,2.2,2.2,2.2h13c1.2,0,2.2-1,2.2-2.2v-13
	C24.4,2.9,23.5,1.9,22.3,1.9z"/>
<path d="M5.2,7.2h-2v14c0,1.1,0.9,2,2,2h14v-2h-14V7.2z"/>
<path d="M13.7,10.4c-0.5,0-0.9,0.4-0.9,0.9c0,0.5,0.4,0.9,0.9,0.9c0.5,0,0.9-0.4,0.9-0.9C14.6,10.8,14.2,10.4,13.7,10.4z M17.9,10.4
	c-0.5,0-0.9,0.4-0.9,0.9c0,0.5,0.4,0.9,0.9,0.9c0.5,0,0.9-0.4,0.9-0.9C18.7,10.8,18.4,10.4,17.9,10.4z M15.8,3.7
	c-3.8,0-6.9,3.1-6.9,6.9s3.1,6.9,6.9,6.9s6.9-3.1,6.9-6.9S19.6,3.7,15.8,3.7z M15.8,16.1c-3,0-5.5-2.5-5.5-5.5c0-0.2,0-0.4,0-0.6
	c1.6-0.7,2.9-2.1,3.6-3.7c1.2,1.8,3.3,2.9,5.6,2.9c0.5,0,1.1-0.1,1.6-0.2c0.1,0.5,0.2,1,0.2,1.6C21.3,13.6,18.9,16.1,15.8,16.1z"/>
</svg>
