<?xml version="1.0" encoding="utf-8"?>
<!-- Generator: Adobe Illustrator 26.0.3, SVG Export Plug-In . SVG Version: 6.00 Build 0)  -->
<svg version="1.1" id="Layer_1" xmlns="http://www.w3.org/2000/svg" xmlns:xlink="http://www.w3.org/1999/xlink" x="0px" y="0px"
	 viewBox="0 0 90 24" style="enable-background:new 0 0 90 24;" xml:space="preserve">
<style type="text/css">
	.st0{font-family:'TitilliumWeb-Black';}
	.st1{font-size:15px;}
</style>
<rect x="24.5" y="7.1" transform="matrix(0.7071 -0.7071 0.7071 0.7071 1.1843 20.9656)" width="2.8" height="3.9"/>
<polygon points="23.1,9 14.4,17.7 14.1,20.9 17.2,20.5 25.9,11.8 "/>
<path d="M13.4,17.6H7.7c-0.5,0-1-0.4-1-1V4.9c0-0.5,0.4-1,1-1h11.7c0.6,0,0.9,0.5,1,1v5.4l2.1-2.1V4.8c-0.2-1.7-1.5-3-3-3H7.7
	c-1.7,0-3,1.4-3,3v11.7c0,1.7,1.4,3,3,3h5.5L13.4,17.6z"/>
<g>
	<circle cx="11.7" cy="11.4" r="0.8"/>
	<path d="M15.5,10.6c-0.5,0-0.8,0.4-0.8,0.8c0,0.5,0.4,0.8,0.8,0.8c0.5,0,0.8-0.4,0.8-0.8C16.2,10.9,15.9,10.6,15.5,10.6z"/>
	<path d="M13.7,17l1.6-1.6c-0.5,0.2-1.1,0.3-1.7,0.3c-2.7,0-5-2.3-5-5c0-0.2,0-0.4,0-0.5c1.4-0.6,2.6-1.9,3.2-3.3
		c1.1,1.6,3,2.6,5,2.6c0.5,0,1-0.1,1.4-0.2c0.1,0.5,0.2,0.9,0.2,1.4c0,0.7-0.1,1.3-0.3,1.9l1.7-1.7c0,0,0,0,0-0.1
		c0-3.4-2.8-6.3-6.2-6.3s-6.2,2.8-6.2,6.2C7.4,14.1,10.2,17,13.7,17C13.6,17,13.6,17,13.7,17z"/>
</g>
<path d="M13,22.1L13,22.1l0.2-1.7H4V7.7H2.2v12.6c0,1,0.8,1.8,1.8,1.8L13,22.1L13,22.1z"/>
<text transform="matrix(1 0 0 1 28.6361 11.9997)" class="st0 st1">Classe</text>
</svg>
