<?xml version="1.0" encoding="utf-8"?>
<!-- Generator: Adobe Illustrator 26.0.3, SVG Export Plug-In . SVG Version: 6.00 Build 0)  -->
<svg version="1.1" id="Layer_1" xmlns="http://www.w3.org/2000/svg" xmlns:xlink="http://www.w3.org/1999/xlink" x="0px" y="0px"
	 viewBox="0 0 36 24" style="enable-background:new 0 0 36 24;" xml:space="preserve">
<style type="text/css">
	.st0{fill:none;stroke:#000000;stroke-width:2.1;stroke-miterlimit:10;}
	.st1{fill:#7C7C7C;}
</style>
<g>
	<path class="st0" d="M19.9,2.9H8.2c-1.1,0-2,0.9-2,2v11.7c0,1.1,0.9,2,2,2h11.7c1.1,0,2-0.9,2-2V4.9C21.8,3.8,21,2.9,19.9,2.9z"/>
	<path d="M4.5,7.7H2.7v12.6c0,1,0.8,1.8,1.8,1.8h12.6v-1.8H4.5V7.7z"/>
	<path d="M12.2,10.6c-0.5,0-0.8,0.4-0.8,0.8c0,0.5,0.4,0.8,0.8,0.8c0.5,0,0.8-0.4,0.8-0.8C13,10.9,12.6,10.6,12.2,10.6z M16,10.6
		c-0.5,0-0.8,0.4-0.8,0.8c0,0.5,0.4,0.8,0.8,0.8c0.5,0,0.8-0.4,0.8-0.8C16.7,10.9,16.4,10.6,16,10.6z M14.1,4.5
		c-3.4,0-6.2,2.8-6.2,6.2s2.8,6.3,6.2,6.3s6.2-2.8,6.2-6.2S17.5,4.5,14.1,4.5z M14.1,15.7c-2.7,0-5-2.3-5-5c0-0.2,0-0.4,0-0.5
		c1.4-0.6,2.6-1.9,3.2-3.3c1.1,1.6,3,2.6,5,2.6c0.5,0,1-0.1,1.4-0.2c0.1,0.5,0.2,0.9,0.2,1.4C19,13.4,16.9,15.7,14.1,15.7z"/>
</g>
<path class="st1" d="M34.1,24.8l-4.6,4.6l-4.6-4.6l-1.4,1.4l6,6l6-6L34.1,24.8z"/>
<circle class="st1" cx="27.5" cy="12" r="1.3"/>
<circle class="st1" cx="31.1" cy="12" r="1.3"/>
<circle class="st1" cx="34.7" cy="12" r="1.3"/>
</svg>
