<?xml version="1.0" encoding="utf-8"?>
<!-- Generator: Adobe Illustrator 26.0.3, SVG Export Plug-In . SVG Version: 6.00 Build 0)  -->
<svg version="1.1" id="Layer_1" xmlns="http://www.w3.org/2000/svg" xmlns:xlink="http://www.w3.org/1999/xlink" x="0px" y="0px"
	 viewBox="0 0 36 24" style="enable-background:new 0 0 36 24;" xml:space="preserve">
<path d="M10.4,12.9V5c0-0.5,0.4-1,1-1h0.5c-0.2-0.3-0.2-0.8-0.1-1.2c0.2-0.4,0.5-0.7,0.9-0.9h-1.3c-1.7,0-3,1.4-3,3v10.7L10.4,12.9z
	"/>
<path d="M24.2,13.4l5,6.7h-12l5-6.7V8.1h2 M27.2,6.1h-8c-0.4,0-0.7,0.5-0.4,0.8l1.4,1.7v4.2l-5.8,7.7c-0.5,0.7,0,1.6,0.8,1.6h16
	c0.8,0,1.3-0.9,0.8-1.6l-5.8-7.7V8.6l1.4-1.7C27.8,6.6,27.6,6.1,27.2,6.1L27.2,6.1z"/>
<path d="M28.5,5.9c0.2,0.5,0.2,1,0,1.4H29c0.6,0,0.9,0.5,1,1v7.9l2.1,2.8V8.2c-0.2-1.7-1.5-3-3-3h-1.4C28,5.4,28.3,5.6,28.5,5.9z"/>
<path d="M13.4,16.8h-2.2l2.2-2.9v-3.3l-5,6.6c-0.5,0.7,0,1.6,0.8,1.6h4.2V16.8z"/>
<path d="M16.4,16.2V8.3c0-0.5,0.4-1,1-1h0.5c-0.2-0.3-0.2-0.8-0.1-1.2c0.2-0.4,0.5-0.7,0.9-0.9h-1.3c-1.7,0-3,1.4-3,3v10.7
	L16.4,16.2z"/>
<path d="M18.7,4.2h2.4l0.5-0.6c0.2-0.3,0-0.8-0.4-0.8h-8c-0.4,0-0.7,0.5-0.4,0.8l1.4,1.7v0.6c0.7-1,1.9-1.6,3.2-1.6h0.7H18.7z"/>
<path d="M22.5,2.6c0.2,0.5,0.2,1,0,1.4H23c0.3,0,0.5,0.1,0.6,0.2h2.4c-0.4-1.4-1.6-2.3-2.9-2.3h-1.4C22,2.1,22.3,2.3,22.5,2.6z"/>
</svg>
