<?xml version="1.0" encoding="utf-8"?>
<!-- Generator: Adobe Illustrator 26.0.3, SVG Export Plug-In . SVG Version: 6.00 Build 0)  -->
<svg version="1.1" id="Layer_1" xmlns="http://www.w3.org/2000/svg" xmlns:xlink="http://www.w3.org/1999/xlink" x="0px" y="0px"
	 viewBox="0 0 90 24" style="enable-background:new 0 0 90 24;" xml:space="preserve">
<style type="text/css">
	.st0{enable-background:new    ;}
</style>
<rect x="24.5" y="7.1" transform="matrix(0.7071 -0.7071 0.7071 0.7071 1.1852 20.9632)" width="2.8" height="3.9"/>
<polygon points="23.1,9 14.4,17.7 14.1,20.9 17.2,20.5 25.9,11.8 "/>
<path d="M13.4,17.6H7.7c-0.5,0-1-0.4-1-1V4.9c0-0.5,0.4-1,1-1h11.7c0.6,0,0.9,0.5,1,1v5.4l2.1-2.1V4.8c-0.2-1.7-1.5-3-3-3H7.7
	c-1.7,0-3,1.4-3,3v11.7c0,1.7,1.4,3,3,3h5.5L13.4,17.6z"/>
<g>
	<circle cx="11.7" cy="11.4" r="0.8"/>
	<path d="M15.5,10.6c-0.5,0-0.8,0.4-0.8,0.8c0,0.5,0.4,0.8,0.8,0.8c0.5,0,0.8-0.4,0.8-0.8C16.2,10.9,15.9,10.6,15.5,10.6z"/>
	<path d="M13.7,17l1.6-1.6c-0.5,0.2-1.1,0.3-1.7,0.3c-2.7,0-5-2.3-5-5c0-0.2,0-0.4,0-0.5c1.4-0.6,2.6-1.9,3.2-3.3
		c1.1,1.6,3,2.6,5,2.6c0.5,0,1-0.1,1.4-0.2c0.1,0.5,0.2,0.9,0.2,1.4c0,0.7-0.1,1.3-0.3,1.9l1.7-1.7c0,0,0,0,0-0.1
		c0-3.4-2.8-6.3-6.2-6.3s-6.2,2.8-6.2,6.2C7.4,14.1,10.2,17,13.7,17C13.6,17,13.6,17,13.7,17z"/>
</g>
<path d="M13,22.1L13,22.1l0.2-1.7H4V7.7H2.2v12.6c0,1,0.8,1.8,1.8,1.8L13,22.1L13,22.1z"/>
<g class="st0">
	<path d="M36.4,11.8c-1.1,0.3-2.1,0.4-3.3,0.4c-1.1,0-2-0.2-2.6-0.5c-0.6-0.3-1-0.8-1.3-1.6c-0.3-0.7-0.4-1.8-0.4-3.2
		c0-2,0.3-3.4,0.9-4.1c0.6-0.7,1.8-1.1,3.5-1.1c0.7,0,1.6,0.1,2.5,0.3l0.5,0.1l-0.1,2.7c-0.8-0.1-1.6-0.1-2.3-0.1s-1.1,0.1-1.3,0.4
		c-0.2,0.3-0.3,0.8-0.3,1.6s0,1.4,0.1,1.7S32.8,9,33,9.1c0.2,0.1,0.5,0.2,1,0.2l2.3-0.1L36.4,11.8z"/>
	<path d="M37.1,12V1.6h3.4V12H37.1z"/>
	<path d="M48.6,6.9v2.8c0.1,0.1,0.2,0.1,0.4,0.2l0,2.1c-0.8,0.1-1.3,0.2-1.6,0.2s-0.6,0-0.8-0.1s-0.4-0.2-0.5-0.3l-0.1-0.1
		c-0.6,0.3-1.4,0.5-2.3,0.5c-0.9,0-1.6-0.2-2-0.6c-0.5-0.4-0.7-1.1-0.7-2c0-0.9,0.3-1.5,0.8-1.8c0.5-0.3,1.3-0.5,2.4-0.5l1.1,0V7.1
		c0-0.2-0.2-0.3-0.6-0.3c-0.9,0-1.8,0.1-2.7,0.2l-0.5,0l-0.1-2.3c1.3-0.3,2.5-0.5,3.6-0.5c1.1,0,2,0.2,2.7,0.5
		C48.3,5.1,48.6,5.8,48.6,6.9z M44.7,9.9c0.2,0,0.4-0.1,0.6-0.2V9.1l-0.5,0c-0.3,0-0.4,0.2-0.4,0.4C44.3,9.8,44.5,9.9,44.7,9.9z"/>
	<path d="M56,7c-1.2-0.1-2.1-0.2-2.5-0.2s-0.7,0-0.7,0.1c0,0.1,0.4,0.1,1.2,0.2s1.4,0.3,1.7,0.7c0.4,0.4,0.5,1,0.5,1.9
		c0,0.9-0.3,1.5-0.8,1.9s-1.4,0.6-2.5,0.6c-0.6,0-1.2,0-1.8-0.1c-0.6-0.1-1-0.1-1.2-0.2l-0.4-0.1l0.1-2.3c1.2,0.2,2.1,0.3,2.6,0.3
		c0.5,0,0.7,0,0.7-0.1c0,0-0.4-0.1-1.2-0.2c-0.8-0.1-1.4-0.3-1.7-0.7c-0.4-0.4-0.5-0.9-0.5-1.7c0-1,0.3-1.7,0.9-2.1
		c0.6-0.4,1.4-0.6,2.5-0.6c1.1,0,2.1,0.1,2.9,0.3l0.4,0.1L56,7z"/>
	<path d="M63.4,7c-1.2-0.1-2.1-0.2-2.5-0.2s-0.7,0-0.7,0.1c0,0.1,0.4,0.1,1.2,0.2s1.4,0.3,1.7,0.7c0.4,0.4,0.5,1,0.5,1.9
		c0,0.9-0.3,1.5-0.8,1.9s-1.4,0.6-2.5,0.6c-0.6,0-1.2,0-1.8-0.1c-0.6-0.1-1-0.1-1.2-0.2l-0.4-0.1l0.1-2.3c1.2,0.2,2.1,0.3,2.6,0.3
		c0.5,0,0.7,0,0.7-0.1c0,0-0.4-0.1-1.2-0.2c-0.8-0.1-1.4-0.3-1.7-0.7C57,8.3,56.8,7.8,56.8,7c0-1,0.3-1.7,0.9-2.1
		c0.6-0.4,1.4-0.6,2.5-0.6c1.1,0,2.1,0.1,2.9,0.3l0.4,0.1L63.4,7z"/>
	<path d="M67.4,9.2c0,0.3,0.2,0.5,0.7,0.5c1,0,2,0,3-0.1l0.6,0l0.1,2.2c-1.3,0.3-2.7,0.4-4,0.4c-1.3,0-2.3-0.3-2.9-0.9
		c-0.6-0.6-0.9-1.6-0.9-2.9S64.4,6,65,5.3s1.6-1,2.9-1s2.3,0.3,3,0.9c0.6,0.6,1,1.4,1,2.6l-0.2,1.5H67.4z M68.6,7.4
		c0-0.3,0-0.5-0.1-0.6S68.2,6.6,68,6.6s-0.4,0.1-0.4,0.2s-0.1,0.3-0.1,0.6H68.6z"/>
</g>
</svg>
