<?xml version="1.0" encoding="utf-8"?>
<!-- Generator: Adobe Illustrator 26.0.3, SVG Export Plug-In . SVG Version: 6.00 Build 0)  -->
<svg version="1.1" id="Layer_1" xmlns="http://www.w3.org/2000/svg" xmlns:xlink="http://www.w3.org/1999/xlink" x="0px" y="0px"
	 viewBox="0 0 100 24" style="enable-background:new 0 0 100 24;" xml:space="preserve">
<style type="text/css">
	.st0{fill:none;stroke:#000000;stroke-width:1.8;stroke-linecap:round;stroke-linejoin:round;stroke-miterlimit:10;}
	.st1{enable-background:new    ;}
</style>
<polygon points="14.5,17.7 14.2,20.9 17.3,20.5 26,11.8 23.2,9 "/>
<rect x="24.6" y="7.1" transform="matrix(0.7071 -0.7071 0.7071 0.7071 1.2145 21.0339)" width="2.8" height="3.9"/>
<line class="st0" x1="5.6" y1="8" x2="10.2" y2="9.3"/>
<line class="st0" x1="5.6" y1="11.3" x2="10.2" y2="12.7"/>
<line class="st0" x1="5.5" y1="14.7" x2="10.2" y2="16"/>
<path d="M13.3,19.4L13.3,19.4V7l7.3-2.1v5.3l1.8-1.8V3.7c0-0.3-0.1-0.5-0.4-0.7c-0.2-0.2-0.5-0.2-0.8-0.1l-8.9,2.5L3.5,2.8
	C3.3,2.7,3,2.8,2.8,3C2.5,3.1,2.4,3.4,2.4,3.7V18c0,0.4,0.3,0.8,0.7,0.9l9.1,2.6c0.1,0,0.2,0,0.2,0h0.2l0.5-0.1L13.3,19.4z
	 M11.5,19.4l-7.3-2.1V4.9L11.5,7V19.4z"/>
<g class="st1">
	<path d="M36,11.2c-0.8,0.2-1.7,0.3-2.6,0.3s-1.6-0.1-2.1-0.4s-0.8-0.7-1-1.3C30.1,9.3,30,8.4,30,7.3c0-1.6,0.2-2.7,0.7-3.3
		c0.5-0.6,1.4-0.9,2.8-0.9c0.6,0,1.3,0.1,2,0.2L36,3.5l-0.1,2.1c-0.7-0.1-1.3-0.1-1.8-0.1S33.2,5.6,33,5.8c-0.2,0.2-0.2,0.7-0.2,1.3
		s0,1.1,0.1,1.4C33,8.8,33.1,8.9,33.3,9s0.4,0.1,0.8,0.1L36,9.1L36,11.2z"/>
	<path d="M37.1,5.9c0.5-0.5,1.3-0.8,2.4-0.8c1.1,0,1.9,0.2,2.4,0.8c0.5,0.5,0.8,1.3,0.8,2.4s-0.3,1.9-0.8,2.4
		c-0.5,0.5-1.3,0.7-2.4,0.7c-1.1,0-1.9-0.2-2.4-0.7c-0.5-0.5-0.8-1.3-0.8-2.4S36.6,6.4,37.1,5.9z M39.2,9.1c0.1,0.1,0.2,0.2,0.4,0.2
		s0.3-0.1,0.4-0.2C40,9,40,8.7,40,8.3c0-0.4,0-0.7-0.1-0.8c-0.1-0.1-0.2-0.2-0.4-0.2s-0.3,0.1-0.4,0.2C39.1,7.7,39,7.9,39,8.3
		C39,8.7,39.1,9,39.2,9.1z"/>
	<path d="M45.9,11.3h-2.7V5.3h2.7v0.3c0.5-0.3,1-0.5,1.6-0.5s0.9,0.2,1.3,0.5c0.6-0.4,1.2-0.5,1.8-0.5c0.9,0,1.6,0.2,1.9,0.8
		C52.8,6.4,53,7.2,53,8.3v3.1h-2.7V8.6c0-0.8-0.1-1.2-0.4-1.2l-0.5,0.1c0.1,0.2,0.1,0.5,0.1,1v2.8h-2.7V8.6c0-0.8-0.1-1.2-0.4-1.2
		l-0.4,0.1V11.3z"/>
	<path d="M57.5,5.1c0.8,0,1.5,0.3,1.8,0.8c0.4,0.5,0.6,1.4,0.6,2.4s-0.2,1.9-0.6,2.4s-1.1,0.8-2,0.8c-0.2,0-0.5,0-0.8-0.1l-0.2,0
		v2.3h-2.7V5.3h2.7l0,0.3C56.7,5.3,57.1,5.1,57.5,5.1z M56.7,9.3c0.4,0,0.5-0.4,0.5-1.1c0-0.4,0-0.6-0.1-0.8s-0.2-0.2-0.4-0.2
		l-0.4,0.1v1.9C56.4,9.3,56.5,9.3,56.7,9.3z"/>
	<path d="M60.4,4.9V3.1h2.7v1.8H60.4z M60.4,11.3V5.3h2.7v6.1H60.4z"/>
	<path d="M66.7,7.5v1.2c0,0.2,0,0.3,0.1,0.4c0.1,0.1,0.2,0.1,0.3,0.1l0.5,0l0,2.1c-0.7,0.1-1.2,0.2-1.6,0.2c-0.7,0-1.3-0.2-1.6-0.5
		c-0.3-0.3-0.5-0.9-0.5-1.7V7.5h-0.5V5.3H64V4.1h2.7v1.2h1v2.2H66.7z"/>
	<path d="M68.9,5.9c0.5-0.5,1.3-0.8,2.4-0.8s1.9,0.2,2.4,0.8c0.5,0.5,0.8,1.3,0.8,2.4s-0.3,1.9-0.8,2.4c-0.5,0.5-1.3,0.7-2.4,0.7
		s-1.9-0.2-2.4-0.7s-0.8-1.3-0.8-2.4S68.4,6.4,68.9,5.9z M70.9,9.1c0.1,0.1,0.2,0.2,0.4,0.2c0.2,0,0.3-0.1,0.4-0.2
		c0.1-0.1,0.1-0.4,0.1-0.8c0-0.4,0-0.7-0.1-0.8c-0.1-0.1-0.2-0.2-0.4-0.2c-0.2,0-0.3,0.1-0.4,0.2c-0.1,0.1-0.1,0.4-0.1,0.8
		C70.8,8.7,70.8,9,70.9,9.1z"/>
</g>
</svg>
