<?xml version="1.0" encoding="utf-8"?>
<!-- Generator: Adobe Illustrator 26.0.3, SVG Export Plug-In . SVG Version: 6.00 Build 0)  -->
<svg version="1.1" id="Layer_1" xmlns="http://www.w3.org/2000/svg" xmlns:xlink="http://www.w3.org/1999/xlink" x="0px" y="0px"
	 viewBox="0 0 100 24" style="enable-background:new 0 0 100 24;" xml:space="preserve">
<style type="text/css">
	.st0{fill:none;stroke:#000000;stroke-width:1.8;stroke-linecap:round;stroke-linejoin:round;stroke-miterlimit:10;}
	.st1{font-family:'TitilliumWeb-Black';}
	.st2{font-size:12px;}
</style>
<polygon points="14.5,17.7 14.2,20.9 17.3,20.5 26,11.8 23.2,9 "/>
<rect x="24.6" y="7.1" transform="matrix(0.7071 -0.7071 0.7071 0.7071 1.2136 21.0363)" width="2.8" height="3.9"/>
<line class="st0" x1="5.6" y1="8" x2="10.2" y2="9.3"/>
<line class="st0" x1="5.6" y1="11.3" x2="10.2" y2="12.7"/>
<line class="st0" x1="5.5" y1="14.7" x2="10.2" y2="16"/>
<path d="M13.3,19.4L13.3,19.4V7l7.3-2.1v5.3l1.8-1.8V3.7c0-0.3-0.1-0.5-0.4-0.7c-0.2-0.2-0.5-0.2-0.8-0.1l-8.9,2.5L3.5,2.8
	C3.3,2.7,3,2.8,2.8,3C2.5,3.1,2.4,3.4,2.4,3.7V18c0,0.4,0.3,0.8,0.7,0.9l9.1,2.6c0.1,0,0.2,0,0.2,0h0.2l0.5-0.1L13.3,19.4z
	 M11.5,19.4l-7.3-2.1V4.9L11.5,7V19.4z"/>
<text transform="matrix(1 0 0 1 29.7586 11.3431)" class="st1 st2">Compito</text>
</svg>
