<?xml version="1.0" encoding="utf-8"?>
<!-- Generator: Adobe Illustrator 26.0.3, SVG Export Plug-In . SVG Version: 6.00 Build 0)  -->
<svg version="1.1" id="Layer_1" xmlns="http://www.w3.org/2000/svg" xmlns:xlink="http://www.w3.org/1999/xlink" x="0px" y="0px"
	 viewBox="0 0 90 24" style="enable-background:new 0 0 90 24;" xml:space="preserve">
<style type="text/css">
	.st0{fill:none;}
	.st1{fill:none;stroke:#000000;stroke-width:2;stroke-linecap:round;stroke-linejoin:round;stroke-miterlimit:10;}
</style>
<polygon points="14.5,17.7 14.2,20.9 17.3,20.5 26,11.8 23.2,9 "/>
<rect x="24.6" y="7" transform="matrix(0.7071 -0.7071 0.7071 0.7071 1.2597 21.0175)" width="2.8" height="3.9"/>
<path class="st0" d="M-2.1,0.6h24v24h-24C-2.1,24.6-2.1,0.6-2.1,0.6z"/>
<polygon points="12.4,18.9 3.6,18.9 3.6,5.6 16.9,5.6 16.9,12.4 18.9,10.4 18.9,3.6 1.6,3.6 1.6,20.9 12.2,20.9 "/>
<polyline class="st1" points="15.1,8.9 8.4,15.6 6,13.3 "/>
<g>
	<path d="M34.1,12.1h-3.8V3.4h3.7c1.5,0,2.6,0.3,3.2,1c0.7,0.7,1,1.8,1,3.2s-0.3,2.6-0.9,3.3C36.6,11.7,35.5,12.1,34.1,12.1z
		 M35.1,7.8c0-0.8-0.1-1.3-0.2-1.6c-0.2-0.3-0.5-0.4-1.1-0.4h-0.5v3.8h0.5c0.5,0,0.8-0.1,1-0.3C35,9.1,35.1,8.6,35.1,7.8z"/>
	<path d="M39.4,6.2C40,5.6,40.9,5.3,42,5.3c1.2,0,2,0.3,2.6,0.8c0.6,0.5,0.9,1.4,0.9,2.6c0,1.2-0.3,2.1-0.9,2.6
		c-0.6,0.5-1.4,0.8-2.6,0.8c-1.2,0-2-0.3-2.6-0.8c-0.6-0.5-0.9-1.4-0.9-2.6C38.6,7.6,38.8,6.7,39.4,6.2z M41.6,9.7
		c0.1,0.2,0.2,0.2,0.4,0.2c0.2,0,0.3-0.1,0.4-0.2s0.1-0.4,0.1-0.9c0-0.4,0-0.7-0.1-0.9c-0.1-0.2-0.2-0.2-0.4-0.2
		c-0.2,0-0.3,0.1-0.4,0.2c-0.1,0.2-0.1,0.4-0.1,0.9C41.5,9.2,41.5,9.5,41.6,9.7z"/>
	<path d="M49,12.1h-2.9V5.5H49v0.3c0.6-0.3,1.1-0.5,1.7-0.5s1,0.2,1.4,0.6c0.6-0.4,1.3-0.6,2-0.6c1,0,1.7,0.3,2.1,0.8
		c0.4,0.5,0.6,1.4,0.6,2.6v3.3h-2.9v-3c0-0.8-0.1-1.3-0.4-1.3l-0.6,0.1c0.1,0.2,0.1,0.6,0.1,1.1v3h-2.9v-3c0-0.8-0.1-1.3-0.4-1.3
		L49,7.9V12.1z"/>
	<path d="M63.6,7.6v2.5c0.1,0.1,0.2,0.1,0.3,0.1l0,1.8c-0.7,0.1-1.1,0.2-1.4,0.2c-0.3,0-0.5,0-0.7-0.1s-0.3-0.1-0.4-0.2l-0.1-0.1
		c-0.5,0.3-1.2,0.5-2,0.5c-0.8,0-1.3-0.2-1.7-0.5C57.2,11.4,57,10.8,57,10c0-0.8,0.2-1.3,0.7-1.6C58.1,8.2,58.8,8,59.8,8l0.9,0V7.8
		c0-0.2-0.2-0.2-0.5-0.2c-0.8,0-1.6,0-2.4,0.1l-0.4,0l-0.1-2c1.1-0.3,2.2-0.5,3.1-0.5c1,0,1.8,0.1,2.3,0.4
		C63.3,6.1,63.6,6.7,63.6,7.6z M60.2,10.2c0.2,0,0.3-0.1,0.5-0.2V9.6l-0.4,0c-0.2,0-0.3,0.1-0.3,0.3S60,10.2,60.2,10.2z"/>
	<path d="M67.4,12.1h-2.9V5.5h2.9v0.3c0.5-0.3,1-0.5,1.4-0.5c0.9,0,1.6,0.3,2,0.8c0.4,0.5,0.6,1.4,0.6,2.7v3.3h-2.9V9
		c0-0.8-0.2-1.1-0.5-1.1l-0.6,0.1V12.1z"/>
	<path d="M78.7,3.1v9h-2.9l0-0.3c-0.5,0.3-0.9,0.5-1.4,0.5c-1,0-1.6-0.3-2-0.9c-0.4-0.6-0.6-1.4-0.6-2.6c0-2.3,1-3.5,2.9-3.5
		l1.1,0.1V3.1H78.7z M75.4,7.7c-0.2,0-0.4,0.1-0.5,0.3c-0.1,0.2-0.1,0.5-0.1,0.8c0,0.4,0,0.6,0.1,0.8s0.2,0.3,0.5,0.3l0.4,0V7.7
		C75.6,7.7,75.4,7.7,75.4,7.7z"/>
	<path d="M85.8,7.6v2.5c0.1,0.1,0.2,0.1,0.3,0.1l0,1.8c-0.7,0.1-1.1,0.2-1.4,0.2c-0.3,0-0.5,0-0.7-0.1s-0.3-0.1-0.4-0.2l-0.1-0.1
		c-0.5,0.3-1.2,0.5-2,0.5c-0.8,0-1.3-0.2-1.7-0.5c-0.4-0.4-0.6-0.9-0.6-1.7c0-0.8,0.2-1.3,0.7-1.6C80.3,8.2,81,8,81.9,8l0.9,0V7.8
		c0-0.2-0.2-0.2-0.5-0.2c-0.8,0-1.6,0-2.4,0.1l-0.4,0l-0.1-2c1.1-0.3,2.2-0.5,3.1-0.5c1,0,1.8,0.1,2.3,0.4
		C85.5,6.1,85.8,6.7,85.8,7.6z M82.4,10.2c0.2,0,0.3-0.1,0.5-0.2V9.6l-0.4,0c-0.2,0-0.3,0.1-0.3,0.3S82.2,10.2,82.4,10.2z"/>
</g>
</svg>
