<?xml version="1.0" encoding="utf-8"?>
<!-- Generator: Adobe Illustrator 26.0.3, SVG Export Plug-In . SVG Version: 6.00 Build 0)  -->
<svg version="1.1" id="Layer_1" xmlns="http://www.w3.org/2000/svg" xmlns:xlink="http://www.w3.org/1999/xlink" x="0px" y="0px"
	 viewBox="0 0 36 24" style="enable-background:new 0 0 36 24;" xml:space="preserve">
<style type="text/css">
	.st0{fill:none;stroke:#000000;stroke-width:2;stroke-linecap:round;stroke-linejoin:round;stroke-miterlimit:10;}
</style>
<polygon points="19.4,17.1 19.1,20.3 22.2,19.9 30.9,11.2 28.1,8.4 "/>
<rect x="29.5" y="6.5" transform="matrix(0.7071 -0.7071 0.7071 0.7071 3.0904 24.3126)" width="2.8" height="3.9"/>
<g>
	<path d="M-3.5,5v13.3h-13.3V5H-3.5 M-1.5,3h-17.3v17.3h17.3V3L-1.5,3z"/>
</g>
<polygon points="17.3,18.3 8.5,18.3 8.5,5 21.8,5 21.8,11.8 23.8,9.8 23.8,3 6.5,3 6.5,20.3 17.1,20.3 "/>
<polyline class="st0" points="20,8.3 13.3,15 10.9,12.7 "/>
</svg>
