<?xml version="1.0" encoding="utf-8"?>
<!-- Generator: Adobe Illustrator 26.0.3, SVG Export Plug-In . SVG Version: 6.00 Build 0)  -->
<svg version="1.1" id="Layer_1" xmlns="http://www.w3.org/2000/svg" xmlns:xlink="http://www.w3.org/1999/xlink" x="0px" y="0px"
	 viewBox="0 0 36 24" style="enable-background:new 0 0 36 24;" xml:space="preserve">
<circle cx="9.6" cy="13" r="1.2"/>
<circle cx="1.2" cy="16.4" r="0.8"/>
<circle cx="15.6" cy="13" r="1.2"/>
<rect x="25.6" y="16" width="8.8" height="2"/>
<polygon points="34.4,11 25.6,11 25.6,11.2 25.6,11.2 25.6,11.2 25.6,13 34.4,13 "/>
<rect x="25.6" y="6" width="8.8" height="2"/>
<g>
	<path d="M12.6,4c4.4,0,8,3.6,8,8s-3.6,8-8,8s-8-3.6-8-8S8.1,4,12.6,4 M12.6,2C7,2,2.5,6.5,2.5,12s4.5,10,10,10s10-4.5,10-10
		S18.1,2,12.6,2L12.6,2z"/>
</g>
<path d="M3.5,13.1c2.6-1,4.2-3.6,3.6-6.5C7,6.1,6.8,5.7,6.5,5.3C4.4,7.1,3.1,10,3.5,13.1z"/>
<path d="M18.7,5.3c-0.3,0.4-0.4,0.9-0.6,1.4c-0.6,2.9,1,5.5,3.6,6.5C22.1,10,20.8,7.1,18.7,5.3z"/>
<rect x="3.1" y="2.9" transform="matrix(0.9942 -0.1075 0.1075 0.9942 -0.4636 1.2893)" width="17.3" height="4.1"/>
<rect x="0.4" y="1.8" transform="matrix(0.9942 -0.1075 0.1075 0.9942 -0.2014 1.2655)" width="22.5" height="1.3"/>
<g>
	<line x1="1.2" y1="4.5" x2="1.2" y2="16.4"/>
	<rect x="1" y="4.5" width="0.5" height="11.9"/>
</g>
<polygon points="1.2,15.5 0,19.5 2.4,19.5 "/>
</svg>
