<?xml version="1.0" encoding="utf-8"?>
<!-- Generator: Adobe Illustrator 25.4.1, SVG Export Plug-In . SVG Version: 6.00 Build 0)  -->
<svg version="1.1" id="Layer_1" xmlns="http://www.w3.org/2000/svg" xmlns:xlink="http://www.w3.org/1999/xlink" x="0px" y="0px"
	 viewBox="0 0 36 24" style="enable-background:new 0 0 36 24;" xml:space="preserve">
<circle cx="9.6" cy="13" r="1.2"/>
<circle cx="15.6" cy="13" r="1.2"/>
<path d="M3.5,13.1c2.6-1,4.2-3.6,3.6-6.5C7,6.1,6.8,5.7,6.5,5.3C4.4,7.1,3.1,10,3.5,13.1z"/>
<g>
	<path d="M11.8,13.2V15c0,0.5-0.3,0.8-0.7,0.8H6.5c-0.4,0-0.7-0.4-0.7-0.8v-1.8H11.8 M12.2,12.8H5.3V15c0,0.7,0.5,1.2,1.1,1.2H11
		c0.6,0,1.1-0.6,1.1-1.2L12.2,12.8L12.2,12.8z"/>
</g>
<rect x="24.5" y="7.1" transform="matrix(0.7071 -0.7071 0.7071 0.7071 1.1906 20.966)" width="2.8" height="3.9"/>
<polygon points="23.1,9 14.4,17.7 14.1,20.9 17.2,20.5 25.9,11.8 "/>
<path d="M13.9,16.2h0.6l0.4-0.4H14c-0.4,0-0.7-0.4-0.7-0.8v-1.8h4.2l0.4-0.4h-5.1V15C12.8,15.7,13.3,16.2,13.9,16.2z"/>
<path d="M21.3,9.3c-0.5-1.6-1.4-3-2.6-4c-0.3,0.4-0.4,0.9-0.6,1.4c-0.4,1.8,0.1,3.5,1.2,4.7L21.3,9.3z"/>
<polygon points="17.9,12.8 5.3,12.8 5.3,13.2 17.5,13.2 "/>
<path d="M13.2,20c-0.2,0-0.4,0-0.6,0c-4.4,0-8-3.6-8-8s3.5-8,8-8c3.8,0,7,2.7,7.8,6.3l1.5-1.5C20.6,4.8,17,2,12.6,2
	C7,2,2.5,6.5,2.5,12s4.5,10,10,10c0.1,0,0.3,0,0.4,0l0.2-1.6L13.2,20z"/>
</svg>
