<?xml version="1.0" encoding="utf-8"?>
<!-- Generator: Adobe Illustrator 25.4.1, SVG Export Plug-In . SVG Version: 6.00 Build 0)  -->
<svg version="1.1" id="Layer_1" xmlns="http://www.w3.org/2000/svg" xmlns:xlink="http://www.w3.org/1999/xlink" x="0px" y="0px"
	 viewBox="0 0 36 24" style="enable-background:new 0 0 36 24;" xml:space="preserve">
<style type="text/css">
	.st0{fill:none;stroke:#000000;stroke-miterlimit:10;}
	.st1{fill:none;stroke:#000000;stroke-width:0.4;stroke-miterlimit:10;}
</style>
<circle cx="9.6" cy="13" r="1.2"/>
<circle cx="15.6" cy="13" r="1.2"/>
<rect x="25.6" y="16" width="8.8" height="2"/>
<polygon points="34.4,11 25.6,11 25.6,11.2 25.6,11.2 25.6,11.2 25.6,13 34.4,13 "/>
<rect x="25.6" y="6" width="8.8" height="2"/>
<g>
	<path d="M12.6,4c4.4,0,8,3.6,8,8s-3.6,8-8,8s-8-3.6-8-8S8.1,4,12.6,4 M12.6,2C7,2,2.5,6.5,2.5,12s4.5,10,10,10s10-4.5,10-10
		S18.1,2,12.6,2L12.6,2z"/>
</g>
<path d="M3.5,13.1c2.6-1,4.2-3.6,3.6-6.5C7,6.1,6.8,5.7,6.5,5.3C4.4,7.1,3.1,10,3.5,13.1z"/>
<path d="M18.7,5.3c-0.3,0.4-0.4,0.9-0.6,1.4c-0.6,2.9,1,5.5,3.6,6.5C22.1,10,20.8,7.1,18.7,5.3z"/>
<g>
	<path class="st0" d="M10.9,40.7H6.8c-0.5,0-1-0.4-1-1v-3.3c0-0.5,0.4-1,1-1h4.1c0.5,0,1,0.4,1,1v3.3C11.9,40.3,11.5,40.7,10.9,40.7
		z"/>
	<path class="st0" d="M18.3,40.7h-4.1c-0.5,0-1-0.4-1-1v-3.3c0-0.5,0.4-1,1-1h4.1c0.5,0,1,0.4,1,1v3.3
		C19.3,40.3,18.9,40.7,18.3,40.7z"/>
	<line class="st0" x1="11.9" y1="36.5" x2="13.2" y2="36.5"/>
</g>
<g>
	<path d="M11.8,13.2V15c0,0.5-0.3,0.8-0.7,0.8H6.5c-0.4,0-0.7-0.4-0.7-0.8v-1.8H11.8 M12.2,12.8H5.3V15c0,0.7,0.5,1.2,1.1,1.2h4.6
		c0.6,0,1.1-0.6,1.1-1.2V12.8L12.2,12.8z"/>
</g>
<g>
	<path d="M19.3,13.2V15c0,0.5-0.3,0.8-0.7,0.8h-4.6c-0.4,0-0.7-0.4-0.7-0.8v-1.8H19.3 M19.7,12.8h-6.9V15c0,0.7,0.5,1.2,1.1,1.2h4.6
		c0.6,0,1.1-0.6,1.1-1.2V12.8L19.7,12.8z"/>
</g>
<g>
	<line class="st1" x1="5.3" y1="13" x2="19.7" y2="13"/>
</g>
</svg>
