<?xml version="1.0" encoding="utf-8"?>
<!-- Generator: Adobe Illustrator 26.0.3, SVG Export Plug-In . SVG Version: 6.00 Build 0)  -->
<svg version="1.1" id="Layer_1" xmlns="http://www.w3.org/2000/svg" xmlns:xlink="http://www.w3.org/1999/xlink" x="0px" y="0px"
	 viewBox="0 0 36 24" style="enable-background:new 0 0 36 24;" xml:space="preserve">
<g>
	<path d="M16.2,11.8c-0.7,0-1.2,0.5-1.2,1.2s0.5,1.2,1.2,1.2c0.7,0,1.2-0.5,1.2-1.2S16.8,11.8,16.2,11.8z"/>
	<path d="M8.6,16.4c0-0.3-0.2-0.6-0.5-0.7V4.5H7.6v11.1C7.2,15.7,7,16,7,16.4c0,0.3,0.1,0.5,0.3,0.6l-0.7,2.5H9L8.2,17
		C8.4,16.9,8.6,16.7,8.6,16.4z"/>
	<path d="M22.2,11.8c-0.7,0-1.2,0.5-1.2,1.2s0.5,1.2,1.2,1.2c0.7,0,1.2-0.5,1.2-1.2S22.8,11.8,22.2,11.8z"/>
	<path d="M27.1,6.1l-0.4-3.9l2.7-0.3l-0.1-1.3L6.9,3l0.1,1.3L9.5,4l0.4,3.9l0,0C9.4,9.2,9.1,10.5,9.1,12c0,5.5,4.5,10,10,10
		s10-4.5,10-10C29.1,9.8,28.3,7.7,27.1,6.1L27.1,6.1z M19.2,20c-4.2,0-7.7-3.3-8-7.5c1.7-1.1,2.7-2.9,2.6-5l11-1.2c0,0,0,0,0,0
		c0,0.1-0.1,0.2-0.1,0.4c-0.5,2.4,0.6,4.7,2.5,5.9C26.8,16.7,23.3,20,19.2,20z"/>
</g>
</svg>
