<?xml version="1.0" encoding="utf-8"?>
<!-- Generator: Adobe Illustrator 26.0.3, SVG Export Plug-In . SVG Version: 6.00 Build 0)  -->
<svg version="1.1" id="Layer_1" xmlns="http://www.w3.org/2000/svg" xmlns:xlink="http://www.w3.org/1999/xlink" x="0px" y="0px"
	 viewBox="0 0 36 24" style="enable-background:new 0 0 36 24;" xml:space="preserve">
<circle cx="9.6" cy="13" r="1.2"/>
<circle cx="15.6" cy="13" r="1.2"/>
<path d="M3.5,13.1c2.6-1,4.2-3.6,3.6-6.5C7,6.1,6.8,5.7,6.5,5.3C4.4,7.1,3.1,10,3.5,13.1z"/>
<rect x="24.5" y="7.1" transform="matrix(0.7071 -0.7071 0.7071 0.7071 1.1843 20.9656)" width="2.8" height="3.9"/>
<polygon points="23.1,9 14.4,17.7 14.1,20.9 17.2,20.5 25.9,11.8 "/>
<path d="M13.2,20.1V20c-0.2,0-0.4,0-0.6,0c-4.4,0-8-3.6-8-8s3.5-8,8-8c3.8,0,7,2.7,7.8,6.3l1.5-1.5C20.6,4.8,17,2,12.6,2
	C7,2,2.5,6.5,2.5,12s4.5,10,10,10c0.1,0,0.3,0,0.4,0l0.2-1.6L13.2,20.1z"/>
<path d="M19.6,11.1l1.7-1.8c-0.5-1.6-1.4-3-2.6-4c-0.3,0.4-0.4,0.9-0.6,1.4c-0.4,1.8,0.1,3.5,1.2,4.7L19.6,11.1z"/>
<circle cx="1.2" cy="16.4" r="0.8"/>
<rect x="3.1" y="2.9" transform="matrix(0.9942 -0.1075 0.1075 0.9942 -0.4636 1.2893)" width="17.3" height="4.1"/>
<rect x="0.4" y="1.8" transform="matrix(0.9942 -0.1075 0.1075 0.9942 -0.2014 1.2655)" width="22.5" height="1.3"/>
<g>
	<line x1="1.2" y1="4.5" x2="1.2" y2="16.4"/>
	<rect x="1" y="4.5" width="0.5" height="11.9"/>
</g>
<polygon points="1.2,15.5 0,19.5 2.4,19.5 "/>
</svg>
