<?xml version="1.0" encoding="utf-8"?>
<!-- Generator: Adobe Illustrator 26.0.3, SVG Export Plug-In . SVG Version: 6.00 Build 0)  -->
<svg version="1.1" id="Layer_1" xmlns="http://www.w3.org/2000/svg" xmlns:xlink="http://www.w3.org/1999/xlink" x="0px" y="0px"
	 viewBox="0 0 36 24" style="enable-background:new 0 0 36 24;" xml:space="preserve">
<rect x="24.5" y="7.1" transform="matrix(0.7071 -0.7071 0.7071 0.7071 1.1852 20.9632)" width="2.8" height="3.9"/>
<path d="M13.3,18.8H6c-0.7,0-1.3-0.6-1.3-1.3V3.9c0-0.7,0.6-1.3,1.3-1.3h13.6c0.8,0,1.2,0.7,1.3,1.3v5.8L23,7.7l0-3.8
	c-0.2-1.9-1.6-3.3-3.4-3.3H6c-1.9,0-3.4,1.5-3.4,3.4v13.6c0,1.9,1.5,3.4,3.4,3.4h7.1L13.3,18.8z"/>
<path d="M13.4,17.2l0.7-0.7c-0.1,0-0.3,0-0.4,0c-2.7,0-4.8-2-5-4.6c1-0.7,1.6-1.8,1.5-3.1l6.9-0.7c0,0.1-0.1,0.2-0.1,0.3
	c-0.4,1.5,0.4,3,1.6,3.7l1.1-1.1c-0.1-1.2-0.5-2.3-1.2-3.1l-0.2-2.2l1.9-0.2l-0.1-0.8l-14,1.5l0.1,0.8l1.5-0.2L8,9.1L8,9
	c-0.4,0.8-0.5,1.6-0.5,2.5c0,3.3,2.6,6,5.9,6.2L13.4,17.2z"/>
<polygon points="23.1,9 14.4,17.7 14.1,20.9 17.2,20.5 25.9,11.8 "/>
<path d="M11.9,11.5c-0.4,0-0.7,0.3-0.7,0.7c0,0.4,0.3,0.7,0.7,0.7c0.4,0,0.7-0.3,0.7-0.7C12.6,11.8,12.3,11.5,11.9,11.5z"/>
<path d="M7.1,14.3c0-0.2-0.1-0.4-0.3-0.5V6.9H6.5v6.9c-0.2,0.1-0.3,0.2-0.3,0.5c0,0.2,0.1,0.3,0.2,0.4l-0.5,1.6h1.5l-0.5-1.6
	C7.1,14.6,7.1,14.4,7.1,14.3z"/>
<path d="M15.6,11.5c-0.4,0-0.7,0.3-0.7,0.7c0,0.4,0.3,0.7,0.7,0.7c0.4,0,0.7-0.3,0.7-0.7C16.4,11.8,16,11.5,15.6,11.5z"/>
</svg>
