<?xml version="1.0" encoding="UTF-8"?>
<svg xmlns="http://www.w3.org/2000/svg" version="1.1" viewBox="0 0 90 24">
  <defs>
    <style>
      .cls-1, .cls-2 {
        fill: none;
      }

      .cls-3 {
        isolation: isolate;
      }

      .cls-2 {
        stroke: #000;
        stroke-miterlimit: 10;
      }
    </style>
  </defs>
  <!-- Generator: Adobe Illustrator 28.7.0, SVG Export Plug-In . SVG Version: 1.2.0 Build 136)  -->
  <g>
    <g id="Layer_1">
      <rect class="cls-1" x="30.2" y="4.4" width="58.2" height="8.9"/>
      <g class="cls-3">
        <path d="M33.8,12h-3.2v-7.4h3.1c1.3,0,2.2.3,2.7.9.6.6.8,1.5.8,2.7s-.3,2.2-.8,2.8-1.4.9-2.7.9ZM34.7,8.3c0-.7,0-1.1-.2-1.3-.1-.2-.4-.3-.9-.3h-.5v3.2h.5c.4,0,.7,0,.8-.3.2-.2.3-.6.3-1.3Z"/>
        <path d="M38.3,7c.5-.5,1.2-.7,2.2-.7s1.7.2,2.2.7c.5.5.7,1.2.7,2.2s-.2,1.8-.7,2.2c-.5.5-1.2.7-2.2.7s-1.7-.2-2.2-.7c-.5-.5-.7-1.2-.7-2.2s.2-1.8.7-2.2ZM40.2,9.9c0,.1.2.2.4.2s.3,0,.4-.2,0-.4,0-.7,0-.6,0-.7-.2-.2-.4-.2-.3,0-.4.2,0,.4,0,.7,0,.6,0,.7Z"/>
        <path d="M46.5,6.3c.5,0,1.1,0,1.7.2h.3c0,0,0,2,0,2-.8,0-1.3,0-1.5,0s-.4,0-.5.2c0,.1-.1.3-.1.6s0,.5.1.6c0,.1.3.2.5.2h1.6c0,0,0,1.8,0,1.8-.7.2-1.4.3-2,.3-1.1,0-1.8-.2-2.2-.7-.4-.4-.6-1.2-.6-2.3s.2-1.8.6-2.3c.4-.4,1.1-.6,2.1-.6Z"/>
        <path d="M52.3,6.4h2.5v5.6h-2.4v-.3c-.5.3-.9.4-1.3.4-.8,0-1.3-.2-1.6-.7-.3-.5-.5-1.2-.5-2.2v-2.9h2.5v2.7c0,.3,0,.6,0,.7,0,.1.2.2.3.2h.5v-3.6Z"/>
        <path d="M57.9,12h-2.5v-5.6h2.5v.3c.5-.3,1-.4,1.4-.4s.8.2,1.1.5c.5-.3,1.1-.5,1.6-.5.9,0,1.4.2,1.8.7.3.5.5,1.2.5,2.2v2.8h-2.5v-2.5c0-.7-.1-1.1-.4-1.1h-.5c0,.2,0,.5,0,1v2.6h-2.5v-2.5c0-.7-.1-1.1-.4-1.1h-.4v3.6Z"/>
        <path d="M67.2,9.9c0,.3.2.4.5.4.7,0,1.5,0,2.2,0h.4s0,1.6,0,1.6c-1,.2-1.9.3-2.9.3s-1.7-.2-2.1-.7c-.4-.4-.6-1.2-.6-2.2s.2-1.7.7-2.3,1.2-.8,2.2-.8,1.7.2,2.2.6c.5.4.7,1.1.7,1.9v1.1h-3.3ZM68,8.6c0-.2,0-.4,0-.5,0,0-.2-.1-.3-.1s-.3,0-.3.1c0,0,0,.2,0,.5h.8Z"/>
        <path d="M73.4,12h-2.5v-5.6h2.5v.3c.5-.3.9-.4,1.2-.4.8,0,1.3.2,1.7.6s.5,1.2.5,2.3v2.8h-2.5v-2.6c0-.6-.1-1-.4-1h-.5v3.6Z"/>
        <path d="M80,8.4v1.1c0,.2,0,.3,0,.4,0,0,.1,0,.3,0h.5s0,1.9,0,1.9c-.6.1-1.1.2-1.5.2-.7,0-1.2-.1-1.5-.4-.3-.3-.4-.8-.4-1.6v-1.7h-.4v-2h.4v-1.1h2.5v1.1h.9v2h-.9Z"/>
        <path d="M82,7c.5-.5,1.2-.7,2.2-.7s1.7.2,2.2.7c.5.5.7,1.2.7,2.2s-.2,1.8-.7,2.2c-.5.5-1.2.7-2.2.7s-1.7-.2-2.2-.7c-.5-.5-.7-1.2-.7-2.2s.2-1.8.7-2.2ZM83.8,9.9c0,.1.2.2.4.2s.3,0,.4-.2c0-.1,0-.4,0-.7s0-.6,0-.7c0-.1-.2-.2-.4-.2s-.3,0-.4.2c0,.1,0,.4,0,.7s0,.6,0,.7Z"/>
      </g>
      <polygon points="15.5 17.8 15.2 21 18.3 20.6 27 11.9 24.2 9.1 15.5 17.8"/>
      <rect x="25.6" y="7.2" width="2.8" height="3.9" transform="translate(1.4 21.8) rotate(-45)"/>
      <path d="M7.7,5.3v1.4h-1.5l1.5-1.4M9.2,1.7l-6.6,6.5h6.6V1.7h0Z"/>
      <line class="cls-2" x1="6.3" y1="10.1" x2="16.6" y2="10.1"/>
      <line class="cls-2" x1="6.3" y1="12.5" x2="16.6" y2="12.5"/>
      <line class="cls-2" x1="6.3" y1="14.8" x2="16.6" y2="14.8"/>
      <polygon points="13.4 19.5 4.1 19.5 4.1 8.2 9.1 3.2 18.4 3.2 18.4 12.1 19.9 10.6 19.9 1.7 8.5 1.7 2.6 7.6 2.6 21 13.2 21 13.4 19.5"/>
    </g>
  </g>
</svg>