<?xml version="1.0" encoding="utf-8"?>
<!-- Generator: Adobe Illustrator 26.0.3, SVG Export Plug-In . SVG Version: 6.00 Build 0)  -->
<svg version="1.1" id="Layer_1" xmlns="http://www.w3.org/2000/svg" xmlns:xlink="http://www.w3.org/1999/xlink" x="0px" y="0px"
	 viewBox="0 0 90 24" style="enable-background:new 0 0 90 24;" xml:space="preserve">
<style type="text/css">
	.st0{fill:none;}
	.st1{font-family:'TitilliumWeb-Black';}
	.st2{font-size:11px;}
	.st3{fill:none;stroke:#000000;stroke-miterlimit:10;}
</style>
<rect x="30.2" y="4.4" class="st0" width="58.2" height="8.9"/>
<text transform="matrix(1 0 0 1 30.2188 11.965)" class="st1 st2">Documento</text>
<polygon points="15.5,17.8 15.2,21 18.3,20.6 27,11.9 24.2,9.1 "/>
<rect x="25.6" y="7.2" transform="matrix(0.7071 -0.7071 0.7071 0.7071 1.4647 21.7902)" width="2.8" height="3.9"/>
<g>
	<path d="M7.7,5.3v1.4H6.2L7.7,5.3 M9.2,1.7L2.6,8.2h6.6V1.7L9.2,1.7z"/>
</g>
<g>
	<line class="st3" x1="6.3" y1="10.1" x2="16.6" y2="10.1"/>
</g>
<g>
	<line class="st3" x1="6.3" y1="12.5" x2="16.6" y2="12.5"/>
</g>
<g>
	<line class="st3" x1="6.3" y1="14.8" x2="16.6" y2="14.8"/>
</g>
<polygon points="13.4,19.5 4.1,19.5 4.1,8.2 9.1,3.2 18.4,3.2 18.4,12.1 19.9,10.6 19.9,1.7 8.5,1.7 2.6,7.6 2.6,21 13.2,21 "/>
</svg>
