<?xml version="1.0" encoding="utf-8"?>
<!-- Generator: Adobe Illustrator 26.0.3, SVG Export Plug-In . SVG Version: 6.00 Build 0)  -->
<svg version="1.1" id="Layer_1" xmlns="http://www.w3.org/2000/svg" xmlns:xlink="http://www.w3.org/1999/xlink" x="0px" y="0px"
	 viewBox="0 0 36 24" style="enable-background:new 0 0 36 24;" xml:space="preserve">
<style type="text/css">
	.st0{fill:none;stroke:#000000;stroke-width:3;stroke-linecap:round;stroke-miterlimit:10;}
</style>
<g>
	<path d="M-4.6,2.5v16.3h-14.3V7.5l5-5H-4.6 M-3.1,1h-11.4l-5.9,5.9v13.4h17.3L-3.1,1L-3.1,1z"/>
</g>
<g>
	<path d="M11.6,4.6V6h-1.4L11.6,4.6 M13.1,1L6.5,7.5h6.6V1L13.1,1z"/>
</g>
<path d="M12.9,18.8H8V7.5l5-5h9.3v4.4c0.5,0.2,1,0.5,1.5,0.8V1H12.4L6.5,6.9v13.4h7.7C13.7,19.9,13.3,19.4,12.9,18.8z"/>
<g>
	<path d="M19.5,10.4c2.2,0,4,1.8,4,4s-1.8,4-4,4s-4-1.8-4-4S17.3,10.4,19.5,10.4 M19.5,8.4c-3.3,0-6,2.7-6,6s2.7,6,6,6s6-2.7,6-6
		S22.8,8.4,19.5,8.4L19.5,8.4z"/>
</g>
<line class="st0" x1="27.5" y1="22.3" x2="24.8" y2="19.7"/>
</svg>
