<?xml version="1.0" encoding="utf-8"?>
<!-- Generator: Adobe Illustrator 26.0.3, SVG Export Plug-In . SVG Version: 6.00 Build 0)  -->
<svg version="1.1" id="Layer_1" xmlns="http://www.w3.org/2000/svg" xmlns:xlink="http://www.w3.org/1999/xlink" x="0px" y="0px"
	 viewBox="0 0 24 24" style="enable-background:new 0 0 24 24;" xml:space="preserve">
<style type="text/css">
	.st0{fill:#FFFFFF;}
</style>
<g>
	<path class="st0" d="M6.7,4.6V6H5.3L6.7,4.6 M8.2,1L1.6,7.5h6.6V1L8.2,1z"/>
</g>
<path class="st0" d="M9.2,18.8H3.1V7.5l5-5h9.3v7.3c0.5,0,1,0.1,1.5,0.3V1H7.5L1.6,6.9v13.4h8C9.4,19.8,9.3,19.3,9.2,18.8z"/>
<path class="st0" d="M16.7,11.7c-3.1,0-5.7,2.6-5.7,5.7c0,3.1,2.6,5.7,5.7,5.7c3.1,0,5.7-2.6,5.7-5.7C22.4,14.2,19.8,11.7,16.7,11.7
	z M14.2,16c0.2-0.2,0.5-0.2,0.7,0l1.2,1.2v-4.1c0-0.3,0.2-0.5,0.5-0.5s0.5,0.2,0.5,0.5v4.1l1.2-1.2c0.2-0.2,0.5-0.2,0.7,0
	s0.2,0.5,0,0.7l-2.1,2.1c0,0-0.1,0.1-0.2,0.1c-0.1,0-0.1,0-0.2,0s-0.1,0-0.2,0c-0.1,0-0.1-0.1-0.2-0.1l-2.1-2.1
	C14.1,16.5,14.1,16.2,14.2,16z M19.7,20.7h-6c-0.3,0-0.5-0.2-0.5-0.5s0.2-0.5,0.5-0.5h6c0.3,0,0.5,0.2,0.5,0.5S20,20.7,19.7,20.7z"
	/>
</svg>
