<?xml version="1.0" encoding="utf-8"?>
<!-- Generator: Adobe Illustrator 26.0.3, SVG Export Plug-In . SVG Version: 6.00 Build 0)  -->
<svg version="1.1" id="Layer_1" xmlns="http://www.w3.org/2000/svg" xmlns:xlink="http://www.w3.org/1999/xlink" x="0px" y="0px"
	 viewBox="0 0 36 24" style="enable-background:new 0 0 36 24;" xml:space="preserve">
<style type="text/css">
	.st0{fill:none;stroke:#000000;stroke-miterlimit:10;}
</style>
<polygon points="19.4,17.1 19.1,20.3 22.2,19.9 30.9,11.2 28.1,8.4 "/>
<rect x="29.5" y="6.5" transform="matrix(0.7071 -0.7071 0.7071 0.7071 3.088 24.3315)" width="2.8" height="3.9"/>
<g>
	<path d="M-4.6,2.5v16.3h-14.3V7.5l5-5H-4.6 M-3.1,1h-11.4l-5.9,5.9v13.4h17.3V1L-3.1,1z"/>
</g>
<g>
	<path d="M11.6,4.6V6h-1.4L11.6,4.6 M13.1,1L6.5,7.5h6.6V1L13.1,1z"/>
</g>
<g>
	<line class="st0" x1="10.2" y1="9.4" x2="20.4" y2="9.4"/>
</g>
<g>
	<line class="st0" x1="10.2" y1="11.8" x2="20.4" y2="11.8"/>
</g>
<g>
	<line class="st0" x1="10.2" y1="14.1" x2="20.4" y2="14.1"/>
</g>
<polygon points="17.2,18.8 8,18.8 8,7.5 13,2.5 22.3,2.5 22.3,11.4 23.8,9.9 23.8,1 12.4,1 6.5,6.9 6.5,20.3 17.1,20.3 "/>
</svg>
