<?xml version="1.0" encoding="utf-8"?>
<!-- Generator: Adobe Illustrator 26.0.3, SVG Export Plug-In . SVG Version: 6.00 Build 0)  -->
<svg version="1.1" id="Layer_1" xmlns="http://www.w3.org/2000/svg" xmlns:xlink="http://www.w3.org/1999/xlink" x="0px" y="0px"
	 viewBox="0 0 36 24" style="enable-background:new 0 0 36 24;" xml:space="preserve">
<style type="text/css">
	.st0{fill:none;stroke:#FFFFFF;stroke-linecap:round;stroke-miterlimit:10;}
	.st1{fill:none;stroke:#FFFFFF;stroke-linecap:round;stroke-linejoin:round;stroke-miterlimit:10;}
</style>
<g>
	<path d="M-3,2.5v16.3h-14.3V7.5l5-5H-3 M-1.5,1h-11.4l-5.9,5.9v13.4h17.3L-1.5,1L-1.5,1z"/>
</g>
<g>
	<path d="M11.6,4.6V6h-1.4L11.6,4.6 M13.1,1L6.5,7.5h6.6V1L13.1,1z"/>
</g>
<path d="M14.1,18.8H8V7.5l5-5h9.3v7.3c0.5,0,1,0.1,1.5,0.3V1H12.4L6.5,6.9v13.4h8C14.3,19.8,14.2,19.3,14.1,18.8z"/>
<circle cx="21.6" cy="17.4" r="5.7"/>
<line class="st0" x1="18.6" y1="20.3" x2="24.6" y2="20.3"/>
<polyline class="st1" points="19.5,16.4 21.6,18.5 23.7,16.4 "/>
<line class="st1" x1="21.6" y1="18.5" x2="21.6" y2="13.2"/>
</svg>
