<?xml version="1.0" encoding="utf-8"?>
<!-- Generator: Adobe Illustrator 26.0.3, SVG Export Plug-In . SVG Version: 6.00 Build 0)  -->
<svg version="1.1" id="Layer_1" xmlns="http://www.w3.org/2000/svg" xmlns:xlink="http://www.w3.org/1999/xlink" x="0px" y="0px"
	 viewBox="0 0 90 24" style="enable-background:new 0 0 90 24;" xml:space="preserve">
<style type="text/css">
	.st0{fill:none;}
	.st1{fill:none;stroke:#FFFFFF;stroke-linecap:round;stroke-miterlimit:10;}
	.st2{fill:none;stroke:#FFFFFF;stroke-linecap:round;stroke-linejoin:round;stroke-miterlimit:10;}
</style>
<rect x="30.1" y="1.1" class="st0" width="58.5" height="10.8"/>
<path d="M34,9.3h-3.5v-8h3.4c1.4,0,2.4,0.3,3,0.9c0.6,0.6,0.9,1.6,0.9,3s-0.3,2.4-0.9,3.1C36.3,9,35.3,9.3,34,9.3z M35,5.4
	c0-0.7-0.1-1.2-0.2-1.4s-0.5-0.4-1-0.4h-0.5v3.5h0.5c0.4,0,0.7-0.1,0.9-0.3C34.9,6.5,35,6.1,35,5.4z"/>
<path d="M38.9,3.9c0.5-0.5,1.3-0.8,2.4-0.8c1.1,0,1.9,0.2,2.4,0.8c0.5,0.5,0.8,1.3,0.8,2.4s-0.3,1.9-0.8,2.4
	c-0.5,0.5-1.3,0.7-2.4,0.7c-1.1,0-1.9-0.2-2.4-0.7c-0.5-0.5-0.8-1.3-0.8-2.4S38.4,4.4,38.9,3.9z M41,7.1c0.1,0.1,0.2,0.2,0.4,0.2
	s0.3-0.1,0.4-0.2c0.1-0.1,0.1-0.4,0.1-0.8c0-0.4,0-0.7-0.1-0.8c-0.1-0.1-0.2-0.2-0.4-0.2S41,5.4,41,5.5c-0.1,0.1-0.1,0.4-0.1,0.8
	C40.8,6.7,40.9,7,41,7.1z"/>
<path d="M44.8,3.3h3l0.1,3.8H48l0.3-3.7h2.4l0.4,3.7h0.1l0.1-3.8H54l-0.6,6.1h-3.8l-0.2-2.6l-0.2,2.6h-3.7L44.8,3.3z"/>
<path d="M57.2,9.3h-2.7V3.3h2.7v0.3c0.5-0.3,0.9-0.5,1.3-0.5c0.9,0,1.5,0.2,1.8,0.7c0.3,0.5,0.5,1.3,0.5,2.5v3h-2.7V6.5
	c0-0.7-0.1-1-0.4-1l-0.5,0.1V9.3z"/>
<path d="M61.4,9.3V1.1h2.7v8.3H61.4z"/>
<path d="M65.4,3.9c0.5-0.5,1.3-0.8,2.4-0.8s1.9,0.2,2.4,0.8C70.8,4.4,71,5.2,71,6.3s-0.3,1.9-0.8,2.4c-0.5,0.5-1.3,0.7-2.4,0.7
	S66,9.2,65.4,8.7s-0.8-1.3-0.8-2.4S64.9,4.4,65.4,3.9z M67.5,7.1c0.1,0.1,0.2,0.2,0.4,0.2c0.2,0,0.3-0.1,0.4-0.2
	c0.1-0.1,0.1-0.4,0.1-0.8c0-0.4,0-0.7-0.1-0.8c-0.1-0.1-0.2-0.2-0.4-0.2c-0.2,0-0.3,0.1-0.4,0.2c-0.1,0.1-0.1,0.4-0.1,0.8
	C67.3,6.7,67.4,7,67.5,7.1z"/>
<path d="M77.4,5.2v2.3c0.1,0.1,0.2,0.1,0.3,0.1l0,1.7c-0.6,0.1-1.1,0.1-1.3,0.1s-0.4,0-0.6-0.1c-0.2-0.1-0.3-0.1-0.4-0.2l-0.1-0.1
	c-0.5,0.3-1.1,0.4-1.8,0.4S72.2,9.3,71.9,9c-0.4-0.3-0.5-0.8-0.5-1.6c0-0.7,0.2-1.2,0.6-1.4c0.4-0.2,1.1-0.4,1.9-0.4l0.9,0V5.4
	c0-0.2-0.2-0.2-0.5-0.2c-0.7,0-1.5,0-2.2,0.1l-0.4,0l-0.1-1.8c1.1-0.3,2-0.4,2.9-0.4c0.9,0,1.6,0.1,2.1,0.4
	C77.2,3.8,77.4,4.4,77.4,5.2z M74.3,7.6c0.2,0,0.3-0.1,0.5-0.2V7l-0.4,0c-0.2,0-0.3,0.1-0.3,0.3C74,7.5,74.1,7.6,74.3,7.6z"/>
<path d="M84.4,1.1v8.3h-2.7l0-0.3c-0.4,0.3-0.9,0.4-1.3,0.4c-0.9,0-1.5-0.3-1.8-0.8c-0.4-0.5-0.5-1.3-0.5-2.4c0-2.1,0.9-3.2,2.7-3.2
	l1,0.1V1.1H84.4z M81.3,5.3c-0.2,0-0.4,0.1-0.4,0.3c-0.1,0.2-0.1,0.4-0.1,0.8c0,0.3,0,0.6,0.1,0.8c0.1,0.2,0.2,0.3,0.4,0.3l0.4,0v-2
	C81.5,5.3,81.4,5.3,81.3,5.3z"/>
<rect x="30.1" y="12.1" class="st0" width="58.5" height="10.8"/>
<path d="M33.9,18.3h-0.7v2.1h-2.8v-8h3.4c1.2,0,2.1,0.2,2.7,0.6c0.5,0.4,0.8,1.2,0.8,2.3s-0.3,1.9-0.9,2.4l0.8,2.7h-2.8L33.9,18.3z
	 M33.9,16.1c0.4,0,0.6-0.3,0.6-0.8c0-0.5-0.2-0.8-0.7-0.8h-0.6v1.6H33.9z"/>
<path d="M40.3,18.1c0,0.3,0.2,0.4,0.5,0.4c0.8,0,1.6,0,2.4-0.1l0.5,0l0.1,1.7c-1.1,0.2-2.1,0.3-3.2,0.3c-1.1,0-1.8-0.2-2.3-0.7
	c-0.5-0.5-0.7-1.3-0.7-2.4s0.3-1.9,0.8-2.5s1.3-0.8,2.4-0.8s1.9,0.2,2.4,0.7s0.8,1.2,0.8,2.1l-0.1,1.2H40.3z M41.2,16.7
	c0-0.2,0-0.4-0.1-0.5C41,16.1,40.9,16,40.8,16s-0.3,0-0.3,0.1c-0.1,0.1-0.1,0.3-0.1,0.5H41.2z"/>
<path d="M45.2,22.7c-0.6-0.2-1-0.7-1-1.4c0-0.3,0.1-0.5,0.2-0.8c0.1-0.2,0.3-0.4,0.6-0.7c-0.3-0.2-0.4-0.5-0.4-0.9
	c0-0.1,0.1-0.2,0.2-0.4c0.1-0.1,0.2-0.3,0.4-0.4l0.2-0.2c-0.6-0.3-1-0.9-1-1.7c0-0.8,0.2-1.4,0.7-1.8c0.5-0.3,1.2-0.5,2.3-0.5
	c0.3,0,0.6,0,1,0.1l0.2,0l2.2,0v1.6h-0.6c0.1,0.2,0.1,0.4,0.1,0.5c0,0.9-0.2,1.4-0.7,1.7c-0.4,0.3-1.2,0.4-2.2,0.4
	c-0.2,0-0.3,0-0.5,0c0,0,0,0.1,0,0.1c0,0.1,0.5,0.1,1.4,0.1c0.9,0,1.6,0.1,1.9,0.4c0.3,0.3,0.5,0.8,0.5,1.5s-0.3,1.3-0.8,1.7
	c-0.5,0.4-1.3,0.6-2.3,0.6S45.7,22.9,45.2,22.7z M46.4,21c0,0.1,0.3,0.2,0.9,0.2c0.6,0,0.9-0.1,0.9-0.2c0-0.1-0.1-0.1-0.2-0.1
	c-0.1,0-0.3,0-0.6,0l-0.9,0C46.5,20.8,46.4,20.9,46.4,21z M46.9,16.6c0.1,0.1,0.2,0.1,0.4,0.1s0.3,0,0.4-0.1
	c0.1-0.1,0.1-0.2,0.1-0.3c0-0.2,0-0.3-0.1-0.3c-0.1-0.1-0.2-0.1-0.4-0.1s-0.3,0-0.4,0.1c-0.1,0.1-0.1,0.2-0.1,0.3
	C46.8,16.5,46.8,16.6,46.9,16.6z"/>
<path d="M51.1,13.9v-1.8h2.7v1.8H51.1z M51.2,20.4v-6.1h2.7v6.1H51.2z"/>
<path d="M59.7,16.3c-1-0.1-1.7-0.2-2-0.2c-0.4,0-0.5,0-0.5,0.1c0,0,0.3,0.1,0.9,0.2s1.1,0.2,1.4,0.5s0.4,0.8,0.4,1.5
	s-0.2,1.2-0.7,1.5c-0.4,0.3-1.1,0.5-2,0.5c-0.5,0-1,0-1.4-0.1c-0.5-0.1-0.8-0.1-1-0.2l-0.3-0.1l0.1-1.8c1,0.1,1.7,0.2,2.1,0.2
	c0.4,0,0.6,0,0.6-0.1c0,0-0.3-0.1-0.9-0.2s-1.1-0.3-1.4-0.6s-0.4-0.8-0.4-1.4c0-0.8,0.2-1.4,0.7-1.7c0.5-0.3,1.1-0.5,2-0.5
	c0.9,0,1.7,0.1,2.3,0.2l0.3,0.1L59.7,16.3z"/>
<path d="M63.3,16.5v1.2c0,0.2,0,0.3,0.1,0.4c0.1,0.1,0.2,0.1,0.3,0.1l0.5,0l0,2.1c-0.7,0.1-1.2,0.2-1.6,0.2c-0.7,0-1.3-0.2-1.6-0.5
	c-0.3-0.3-0.5-0.9-0.5-1.7v-1.9h-0.5v-2.2h0.5v-1.2h2.7v1.2h1v2.2H63.3z"/>
<path d="M67.5,20.4h-2.7v-6.1h2.7v0.6c0.5-0.5,0.9-0.7,1.3-0.7v2.5c-0.3,0-0.6,0.1-1.1,0.3l-0.2,0.1V20.4z"/>
<path d="M69.9,14.9c0.5-0.5,1.3-0.8,2.4-0.8s1.9,0.2,2.4,0.8c0.5,0.5,0.8,1.3,0.8,2.4s-0.3,1.9-0.8,2.4c-0.5,0.5-1.3,0.7-2.4,0.7
	s-1.9-0.2-2.4-0.7s-0.8-1.3-0.8-2.4S69.4,15.4,69.9,14.9z M71.9,18.1c0.1,0.1,0.2,0.2,0.4,0.2c0.2,0,0.3-0.1,0.4-0.2
	c0.1-0.1,0.1-0.4,0.1-0.8c0-0.4,0-0.7-0.1-0.8c-0.1-0.1-0.2-0.2-0.4-0.2c-0.2,0-0.3,0.1-0.4,0.2c-0.1,0.1-0.1,0.4-0.1,0.8
	C71.8,17.7,71.8,18,71.9,18.1z"/>
<g>
	<path d="M8.9,4.6V6H7.5L8.9,4.6 M10.4,1L3.8,7.5h6.6V1L10.4,1z"/>
</g>
<path d="M11.4,18.8H5.3V7.5l5-5h9.3v7.3c0.5,0,1,0.1,1.5,0.3V1H9.7L3.8,6.9v13.4h8C11.6,19.8,11.5,19.3,11.4,18.8z"/>
<circle cx="18.9" cy="17.4" r="5.7"/>
<line class="st1" x1="15.9" y1="20.3" x2="21.9" y2="20.3"/>
<polyline class="st2" points="16.8,16.4 18.9,18.5 21,16.4 "/>
<line class="st2" x1="18.9" y1="18.5" x2="18.9" y2="13.2"/>
</svg>
