<?xml version="1.0" encoding="utf-8"?>
<!-- Generator: Adobe Illustrator 26.0.3, SVG Export Plug-In . SVG Version: 6.00 Build 0)  -->
<svg version="1.1" id="Layer_1" xmlns="http://www.w3.org/2000/svg" xmlns:xlink="http://www.w3.org/1999/xlink" x="0px" y="0px"
	 viewBox="0 0 36 24" style="enable-background:new 0 0 36 24;" xml:space="preserve">
<style type="text/css">
	.st0{fill:#FFFFFF;}
	.st1{fill:none;stroke:#000000;stroke-linecap:round;stroke-linejoin:round;stroke-miterlimit:10;}
</style>
<g>
	<path d="M11.6,4.6V6h-1.4L11.6,4.6 M13.1,1L6.5,7.5h6.6V1L13.1,1z"/>
</g>
<path d="M14.1,18.8H8V7.5l5-5h9.3v7.3c0.5,0,1,0.1,1.5,0.3V1H12.4L6.5,6.9v13.4h8C14.3,19.8,14.2,19.3,14.1,18.8z"/>
<g>
	<circle class="st0" cx="21.6" cy="17.4" r="5.1"/>
	<path d="M21.6,12.9c2.5,0,4.5,2,4.5,4.5s-2,4.5-4.5,4.5s-4.5-2-4.5-4.5S19.1,12.9,21.6,12.9 M21.6,11.7c-3.1,0-5.7,2.5-5.7,5.7
		s2.5,5.7,5.7,5.7s5.7-2.5,5.7-5.7S24.8,11.7,21.6,11.7L21.6,11.7z"/>
</g>
<line class="st1" x1="24.8" y1="17.4" x2="18.4" y2="17.4"/>
</svg>
