<?xml version="1.0" encoding="utf-8"?>
<!-- Generator: Adobe Illustrator 26.0.3, SVG Export Plug-In . SVG Version: 6.00 Build 0)  -->
<svg version="1.1" id="Layer_1" xmlns="http://www.w3.org/2000/svg" xmlns:xlink="http://www.w3.org/1999/xlink" x="0px" y="0px"
	 viewBox="0 0 90 24" style="enable-background:new 0 0 90 24;" xml:space="preserve">
<style type="text/css">
	.st0{fill:#B52424;}
	.st1{fill:none;stroke:#666666;stroke-width:0.7;stroke-linecap:round;stroke-linejoin:round;stroke-miterlimit:10;}
	.st2{fill:#666666;}
	.st3{fill:none;stroke:#000000;stroke-miterlimit:10;}
	.st4{fill:none;stroke:#666666;stroke-linecap:round;stroke-linejoin:round;stroke-miterlimit:10;}
	.st5{fill:none;stroke:#666666;stroke-linecap:round;stroke-miterlimit:10;}
	.st6{fill:none;stroke:#666666;stroke-linecap:round;stroke-miterlimit:10;stroke-dasharray:6.1993,2.893,3.3063,2.893;}
</style>
<polygon class="st0" points="-19.9,13.1 -23.6,5.8 -27.3,13.1 -24.4,12.1 -24.4,16.8 -22.7,16.8 -22.8,12.1 "/>
<polygon class="st1" points="52.9,10.1 47.5,8.5 49.4,13.8 50.3,11.9 52.6,14.2 53.4,13.3 51,11.1 "/>
<polygon class="st2" points="42.9,4.8 42.9,1.6 39.6,4.8 "/>
<polygon class="st2" points="-14.1,4.8 -14.1,1.6 -17.4,4.8 "/>
<polygon class="st2" points="48.1,13.1 40.1,13.1 40.1,5 43.1,2.1 48.8,2.1 48.8,7.8 49.8,8.1 49.8,1.1 42.7,1.1 39.1,4.6 
	39.1,14.1 48.4,14.1 "/>
<polygon class="st3" points="29.7,1.6 26.4,4.8 26.4,13.6 36.1,13.6 36.1,1.6 "/>
<polygon points="29.7,4.8 29.7,1.6 26.4,4.8 "/>
<polygon class="st4" points="-5.9,10.1 -11.3,8.5 -9.4,13.8 -8.5,11.9 -6.2,14.2 -5.4,13.3 -7.8,11.1 "/>
<g>
	<g>
		<path class="st5" d="M51.1,8.2c0.4-0.4,1.1-0.9,2-1.5"/>
		<path class="st6" d="M55.6,5.3c1.4-0.6,3-1.1,4.9-1.4C64,3.4,67,4,69.2,4.8"/>
		<path class="st5" d="M70.5,5.4c1,0.5,1.8,0.9,2.2,1.2"/>
	</g>
</g>
<g>
	<g>
		<path class="st5" d="M54,11.4c0.4-0.4,1.1-0.9,2-1.5"/>
		<path class="st6" d="M58.5,8.6c1.4-0.6,3-1.1,4.9-1.4c3.5-0.5,6.4,0.2,8.6,0.9"/>
		<path class="st5" d="M73.4,8.6c1,0.5,1.8,0.9,2.2,1.2"/>
	</g>
</g>
</svg>
