<?xml version="1.0" encoding="utf-8"?>
<!-- Generator: Adobe Illustrator 26.0.3, SVG Export Plug-In . SVG Version: 6.00 Build 0)  -->
<svg version="1.1" id="Layer_1" xmlns="http://www.w3.org/2000/svg" xmlns:xlink="http://www.w3.org/1999/xlink" x="0px" y="0px"
	 viewBox="0 0 90 24" style="enable-background:new 0 0 90 24;" xml:space="preserve">
<style type="text/css">
	.st0{fill:#666666;}
	.st1{fill:#B52424;}
	.st2{fill:none;stroke:#666666;stroke-width:0.7;stroke-linecap:round;stroke-linejoin:round;stroke-miterlimit:10;}
</style>
<path class="st0" d="M46.4,5.8c-0.7,0-1.2-0.6-1.2-1.2c0-0.7,0.6-1.2,1.2-1.2c0.7,0,1.2,0.6,1.2,1.2C47.7,5.3,47.1,5.8,46.4,5.8z
	 M46.4,4c-0.3,0-0.6,0.3-0.6,0.6c0,0.3,0.3,0.6,0.6,0.6c0.3,0,0.6-0.3,0.6-0.6C47,4.3,46.7,4,46.4,4z"/>
<path class="st0" d="M38.3,9.9c-0.1,0-0.2,0-0.3-0.1c-0.1-0.1-0.1-0.4,0-0.5l3.4-3c0.5-0.4,1.2-0.4,1.7,0.1l2.6,2.6
	c0.1,0.1,0.1,0.4,0,0.5c-0.1,0.1-0.4,0.1-0.5,0l-2.6-2.6c-0.2-0.2-0.5-0.2-0.8,0l-3.4,3.1C38.4,9.9,38.4,9.9,38.3,9.9z"/>
<polygon class="st1" points="-19.9,13.1 -23.6,5.8 -27.3,13.1 -24.4,12.1 -24.4,16.8 -22.7,16.8 -22.8,12.1 "/>
<path class="st0" d="M46.6,8c0,0-0.1,0.1-0.1,0.1L43,11.5c-0.1,0.1-0.1,0.3,0,0.5c0.1,0.1,0.2,0.1,0.2,0.1c0.1,0,0.2,0,0.2-0.1
	l3.4-3.3L46.6,8z"/>
<polygon class="st2" points="52.9,10.1 47.5,8.5 49.4,13.8 50.3,11.9 52.6,14.2 53.4,13.3 51,11.1 "/>
<path class="st0" d="M47.8,11.5h-8.2c-0.6,0-1-0.5-1-1V3.2c0-0.6,0.5-1,1-1h9c0.6,0,1,0.5,1,1v5.1l0.7,0.2V3.2
	c0-0.9-0.8-1.7-1.7-1.7h-9c-0.9,0-1.7,0.8-1.7,1.7v7.2c0,0.9,0.8,1.7,1.7,1.7h8.4L47.8,11.5z"/>
</svg>
