<?xml version="1.0" encoding="utf-8"?>
<!-- Generator: Adobe Illustrator 26.0.3, SVG Export Plug-In . SVG Version: 6.00 Build 0)  -->
<svg version="1.1" id="Layer_1" xmlns="http://www.w3.org/2000/svg" xmlns:xlink="http://www.w3.org/1999/xlink" x="0px" y="0px"
	 viewBox="0 0 24 24" style="enable-background:new 0 0 24 24;" xml:space="preserve">
<style type="text/css">
	.st0{fill:#FFFFFF;}
	.st1{fill:none;}
	.st2{fill:#FFFFFF;stroke:#044D7E;stroke-miterlimit:10;}
	.st3{fill:#8C8B8B;stroke:#044D7E;stroke-miterlimit:10;}
</style>
<g>
	<circle class="st0" cx="12" cy="12" r="10"/>
</g>
<path class="st1" d="M0,0h24v24H0V0z"/>
<g>
	<path class="st2" d="M12,19.7c-4.2,0-7.7-3.4-7.7-7.7S7.8,4.4,12,4.4s7.7,3.4,7.7,7.7S16.2,19.7,12,19.7z"/>
	<path class="st3" d="M12,4.9c3.9,0,7.2,3.2,7.2,7.2S16,19.3,12,19.3S4.8,16,4.8,12S8.1,4.9,12,4.9 M12,4c-4.5,0-8.1,3.6-8.1,8
		s3.6,8.1,8.1,8.1s8.1-3.6,8.1-8.1S16.5,4,12,4L12,4z"/>
</g>
</svg>
