<?xml version="1.0" encoding="utf-8"?>
<!-- Generator: Adobe Illustrator 26.0.3, SVG Export Plug-In . SVG Version: 6.00 Build 0)  -->
<svg version="1.1" id="Layer_1" xmlns="http://www.w3.org/2000/svg" xmlns:xlink="http://www.w3.org/1999/xlink" x="0px" y="0px"
	 viewBox="0 0 90 24" style="enable-background:new 0 0 90 24;" xml:space="preserve">
<style type="text/css">
	.st0{fill:none;}
	.st1{enable-background:new    ;}
</style>
<path class="st0" d="M-2.1,0.6h24v24h-24C-2.1,24.6-2.1,0.6-2.1,0.6z"/>
<polygon points="14.5,17.7 14.2,20.9 17.3,20.5 26,11.8 23.2,9 "/>
<rect x="24.6" y="7.1" transform="matrix(0.7071 -0.7071 0.7071 0.7071 1.2145 21.0339)" width="2.8" height="3.9"/>
<path class="st0" d="M0,0h24v24H0V0z"/>
<polygon points="13.5,17.2 17,13.8 17,13 12,13 12,18 13.5,18 "/>
<path d="M13.3,20H5V10h14v1.8l2-2V6c0-1.1-0.9-2-2-2h-1V2h-2v2H8V2H6v2H5C3.9,4,3,4.9,3,6v14c0,1.1,0.9,2,2,2h8.1L13.3,20z M5,6h14
	v2H5V6z"/>
<g class="st1">
	<path d="M29.7,9.7v-8h6v2.2h-3.2v0.7H35v2.2h-2.5v0.7h3.2v2.2H29.7z"/>
	<path d="M36,3.7h2.9l0.4,3.8h0.2l0.4-3.8h2.7l-1,6.1H37L36,3.7z"/>
	<path d="M45.3,7.5c0,0.3,0.2,0.4,0.5,0.4c0.8,0,1.6,0,2.4-0.1l0.5,0l0.1,1.7c-1.1,0.2-2.1,0.3-3.2,0.3c-1.1,0-1.8-0.2-2.3-0.7
		c-0.5-0.5-0.7-1.3-0.7-2.4s0.3-1.9,0.8-2.5s1.3-0.8,2.4-0.8c1.1,0,1.9,0.2,2.4,0.7c0.5,0.5,0.8,1.2,0.8,2.1l-0.1,1.2H45.3z M46.2,6
		c0-0.2,0-0.4-0.1-0.5c-0.1-0.1-0.2-0.1-0.4-0.1s-0.3,0-0.3,0.1c-0.1,0.1-0.1,0.3-0.1,0.5H46.2z"/>
	<path d="M52.1,9.7h-2.7V3.7h2.7V4c0.5-0.3,0.9-0.5,1.3-0.5c0.9,0,1.5,0.2,1.8,0.7c0.3,0.5,0.5,1.3,0.5,2.5v3H53V6.9
		c0-0.7-0.1-1-0.4-1l-0.5,0.1V9.7z"/>
	<path d="M59.3,5.9v1.2c0,0.2,0,0.3,0.1,0.4c0.1,0.1,0.2,0.1,0.3,0.1l0.5,0l0,2.1c-0.7,0.1-1.2,0.2-1.6,0.2c-0.7,0-1.3-0.2-1.6-0.5
		c-0.3-0.3-0.5-0.9-0.5-1.7V5.9h-0.5V3.7h0.5V2.5h2.7v1.2h1v2.2H59.3z"/>
	<path d="M61.4,4.3c0.5-0.5,1.3-0.8,2.4-0.8s1.9,0.2,2.4,0.8C66.8,4.8,67,5.6,67,6.7s-0.3,1.9-0.8,2.4c-0.5,0.5-1.3,0.7-2.4,0.7
		S62,9.6,61.4,9.2s-0.8-1.3-0.8-2.4S60.9,4.8,61.4,4.3z M63.5,7.5c0.1,0.1,0.2,0.2,0.4,0.2c0.2,0,0.3-0.1,0.4-0.2
		c0.1-0.1,0.1-0.4,0.1-0.8c0-0.4,0-0.7-0.1-0.8c-0.1-0.1-0.2-0.2-0.4-0.2c-0.2,0-0.3,0.1-0.4,0.2c-0.1,0.1-0.1,0.4-0.1,0.8
		C63.3,7.1,63.4,7.4,63.5,7.5z"/>
</g>
</svg>
