<?xml version="1.0" encoding="utf-8"?>
<!-- Generator: Adobe Illustrator 26.0.3, SVG Export Plug-In . SVG Version: 6.00 Build 0)  -->
<svg version="1.1" id="Layer_1" xmlns="http://www.w3.org/2000/svg" xmlns:xlink="http://www.w3.org/1999/xlink" x="0px" y="0px"
	 viewBox="0 0 90 24" style="enable-background:new 0 0 90 24;" xml:space="preserve">
<style type="text/css">
	.st0{enable-background:new    ;}
</style>
<circle cx="5.9" cy="9.9" r="0.8"/>
<path d="M1.8,10.6c1.8-0.7,2.9-2.5,2.5-4.5c-0.1-0.4-0.2-0.7-0.4-1C2.4,6.4,1.5,8.4,1.8,10.6z"/>
<path d="M7.9,12.6c0,0-0.7-0.5-1.4-0.3S5.6,13,5.1,13.2C4.8,13.4,5.6,14.1,7.9,12.6z"/>
<path d="M9.3,12.4c-0.6-0.2-1.2,0.3-1.2,0.3c0.4,0.3,0.8,0.5,1.1,0.6C9.2,12.9,9.3,12.6,9.3,12.4z"/>
<path d="M9.9,10.8c0.2-0.5,0.5-0.9,0.8-1.3c-0.2-0.2-0.4-0.4-0.7-0.4c-0.5,0-0.8,0.4-0.8,0.8C9.2,10.4,9.6,10.6,9.9,10.8z"/>
<path d="M13.6,6.9c-0.4-0.7-0.9-1.4-1.5-1.9c-0.2,0.3-0.3,0.6-0.4,1c-0.1,0.7-0.1,1.4,0.1,2C12.3,7.8,12.9,7.4,13.6,6.9z"/>
<path d="M9.1,15.2c-0.4,0.1-0.8,0.1-1.2,0.1c-3,0-5.5-2.5-5.5-5.5s2.5-5.5,5.5-5.5c2.1,0,4,1.2,4.9,3c0.4-0.3,0.9-0.5,1.3-0.7
	c-1.2-2.2-3.5-3.8-6.2-3.8c-3.9,0-7,3.1-7,7s3.1,7,7,7c0.4,0,0.8,0,1.2-0.1C9.1,16.7,9.1,15.2,9.1,15.2z"/>
<path d="M15.1,13.3c-0.4,0-0.8,0.4-0.8,0.8s0.4,0.8,0.8,0.8c0.4,0,0.8-0.4,0.8-0.8S15.5,13.3,15.1,13.3z"/>
<path d="M19.1,14.9L20,14c0-0.4-0.4-0.7-0.8-0.7s-0.8,0.4-0.8,0.8C18.4,14.5,18.7,14.9,19.1,14.9z"/>
<polygon points="17.5,18 17.1,21.1 20.2,20.7 28.9,12 26.2,9.3 "/>
<rect x="27.5" y="7.3" transform="matrix(0.7071 -0.7071 0.7071 0.7071 1.9186 23.1277)" width="2.8" height="3.9"/>
<path d="M16.3,19.5c-2.6-0.4-4.6-2.7-4.6-5.4c0-2.4,1.6-4.5,3.8-5.2c0.8,2.1,2.8,3.5,5.2,3.5c0.4,0,0.7-0.1,1-0.1l1.6-1.6
	c-1.2-2.2-3.5-3.6-6.1-3.6c-3.9,0-7,3.1-7,7v5.5h2.7c0.9,0.7,2,1.2,3.3,1.4L16.3,19.5z"/>
<g class="st0">
	<path d="M40.6,7.6v5.6c-1.8,0.3-3.1,0.4-4,0.4c-0.9,0-1.6-0.1-2.2-0.3c-0.6-0.2-1.1-0.5-1.4-1s-0.6-1-0.7-1.6
		C32,10.2,32,9.4,32,8.5c0-1.9,0.4-3.3,1.1-4c0.7-0.8,1.9-1.2,3.6-1.2c0.5,0,1.1,0,1.7,0.1c0.6,0.1,1.1,0.2,1.5,0.2l0.6,0.1v2.6
		c-1.4-0.1-2.5-0.2-3.1-0.2s-1,0-1.2,0.1c-0.2,0.1-0.3,0.1-0.4,0.2S35.6,6.7,35.6,7c-0.1,0.3-0.1,0.9-0.1,1.6s0.1,1.3,0.3,1.7
		c0.2,0.4,0.5,0.5,1.1,0.5l0.5,0v-0.8h-0.5l0-2.4H40.6z"/>
	<path d="M44.6,10.7c0,0.3,0.2,0.5,0.7,0.5c1,0,2,0,3-0.1l0.6,0l0.1,2.2c-1.3,0.3-2.7,0.4-4,0.4c-1.3,0-2.3-0.3-2.9-0.9
		c-0.6-0.6-0.9-1.6-0.9-2.9s0.3-2.4,0.9-3.1s1.6-1,2.9-1c1.3,0,2.3,0.3,3,0.9s1,1.4,1,2.6l-0.1,1.5H44.6z M45.7,8.9
		c0-0.3,0-0.5-0.1-0.6s-0.2-0.2-0.4-0.2s-0.4,0.1-0.4,0.2s-0.1,0.3-0.1,0.6H45.7z"/>
	<path d="M53,13.5h-3.4V6H53v0.4c0.6-0.4,1.2-0.6,1.6-0.6c1.1,0,1.8,0.3,2.3,0.9c0.4,0.6,0.6,1.6,0.6,3.1v3.8h-3.4V10
		c0-0.9-0.2-1.3-0.5-1.3L53,8.8V13.5z"/>
	<path d="M58.3,5.5V3.2h3.4v2.3H58.3z M58.4,13.5V6h3.4v7.6H58.4z"/>
	<path d="M66.2,8.7v1.6c0,0.2,0,0.4,0.1,0.5c0.1,0.1,0.2,0.1,0.4,0.1l0.7,0l0,2.6c-0.9,0.2-1.5,0.3-2,0.3c-0.9,0-1.6-0.2-2-0.6
		c-0.4-0.4-0.6-1.1-0.6-2.1V8.7h-0.6V6h0.6V4.5h3.4V6h1.2v2.7H66.2z"/>
	<path d="M68.9,6.7c0.7-0.6,1.7-0.9,3-0.9c1.3,0,2.3,0.3,3,0.9s1,1.6,1,3.1s-0.3,2.4-1,3c-0.7,0.6-1.7,0.9-3,0.9
		c-1.3,0-2.3-0.3-3-0.9c-0.7-0.6-1-1.6-1-3S68.3,7.3,68.9,6.7z M71.5,10.7c0.1,0.2,0.2,0.3,0.5,0.3c0.2,0,0.4-0.1,0.5-0.3
		s0.1-0.5,0.1-1c0-0.5,0-0.8-0.1-1s-0.2-0.3-0.5-0.3c-0.2,0-0.4,0.1-0.5,0.3s-0.1,0.5-0.1,1C71.3,10.2,71.4,10.6,71.5,10.7z"/>
	<path d="M79.9,13.5h-3.4V6h3.4v0.7c0.6-0.6,1.2-0.9,1.6-0.9v3.1c-0.3,0-0.8,0.1-1.3,0.4l-0.3,0.1V13.5z"/>
	<path d="M85.3,10.7c0,0.3,0.2,0.5,0.7,0.5c1,0,2,0,3-0.1l0.6,0l0.1,2.2c-1.3,0.3-2.7,0.4-4,0.4s-2.3-0.3-2.8-0.9
		c-0.6-0.6-0.9-1.6-0.9-2.9s0.3-2.4,0.9-3.1s1.6-1,2.9-1s2.3,0.3,3,0.9s1,1.4,1,2.6l-0.1,1.5H85.3z M86.4,8.9c0-0.3,0-0.5-0.1-0.6
		S86,8.1,85.8,8.1s-0.4,0.1-0.4,0.2s-0.1,0.3-0.1,0.6H86.4z"/>
</g>
</svg>
