<?xml version="1.0" encoding="utf-8"?>
<!-- Generator: Adobe Illustrator 25.4.1, SVG Export Plug-In . SVG Version: 6.00 Build 0)  -->
<svg version="1.1" id="Layer_1" xmlns="http://www.w3.org/2000/svg" xmlns:xlink="http://www.w3.org/1999/xlink" x="0px" y="0px"
	 viewBox="0 0 36 24" style="enable-background:new 0 0 36 24;" xml:space="preserve">
<g>
	<path d="M6.7,9.9c0-0.4-0.4-0.8-0.8-0.8S5.1,9.5,5.1,9.9c0,0.4,0.4,0.8,0.8,0.8S6.7,10.3,6.7,9.9z"/>
	<path d="M7.9,12.6c0,0-0.7-0.5-1.4-0.3S5.6,13,5.1,13.2C4.8,13.4,5.6,14.1,7.9,12.6z"/>
	<path d="M8.1,12.7c0.4,0.3,0.8,0.5,1.1,0.6c0-0.4,0.1-0.7,0.1-0.9C8.7,12.2,8.1,12.7,8.1,12.7z"/>
	<path d="M9.2,9.9c0,0.5,0.4,0.7,0.7,0.9c0.2-0.5,0.5-0.9,0.8-1.3c-0.2-0.2-0.4-0.4-0.7-0.4C9.5,9.1,9.2,9.5,9.2,9.9z"/>
	<path d="M14.1,6.6c-1.2-2.2-3.5-3.8-6.2-3.8c-3.9,0-7,3.1-7,7c0,3.9,3.1,7,7,7c0.4,0,0.8,0,1.2-0.1v-1.5c-0.4,0.1-0.8,0.1-1.2,0.1
		c-2.8,0-5.2-2.2-5.5-5c1.4-0.8,2.2-2.4,1.9-4.2c0-0.1-0.1-0.2-0.1-0.3c1-0.9,2.3-1.5,3.7-1.5c1.5,0,2.8,0.6,3.8,1.6
		c0,0,0,0.1,0,0.1c-0.1,0.7-0.1,1.4,0.1,2c0.5-0.2,1.1-0.6,1.8-1.1c0,0,0,0,0,0C13.8,6.8,13.9,6.7,14.1,6.6z"/>
</g>
<path d="M19.4,19.1c-0.7,0.3-1.4,0.5-2.2,0.5c-3,0-5.5-2.5-5.5-5.5c0-2.4,1.6-4.4,3.7-5.2c0.2-0.6,0.5-1.2,0.9-1.7
	c-3.5,0.4-6.1,3.3-6.1,6.9v5.5h2.7c1.2,0.9,2.7,1.5,4.3,1.5c1.5,0,2.9-0.5,4-1.3C20.6,19.6,20,19.4,19.4,19.1z"/>
<path d="M15,13.3c-0.4,0-0.7,0.4-0.7,0.8c0,0.4,0.4,0.8,0.8,0.8c0.1,0,0.3,0,0.4-0.1C15.3,14.3,15.1,13.8,15,13.3z"/>
<path d="M26.5,11.2v1.1c0,0.2-0.2,0.4-0.4,0.4h-1.9v1.9c0,0.2-0.2,0.4-0.4,0.4h-1.1c-0.2,0-0.4-0.2-0.4-0.4v-1.9h-1.9
	c-0.2,0-0.4-0.2-0.4-0.4v-1.1c0-0.2,0.2-0.4,0.4-0.4h1.9V8.9c0-0.2,0.2-0.4,0.4-0.4h1.1c0.2,0,0.4,0.2,0.4,0.4v1.9h1.9
	C26.3,10.8,26.5,11,26.5,11.2z M33.5,21.2l-1,1c-0.3,0.3-0.9,0.3-1.2,0l-3.5-3.5c-0.2-0.2-0.2-0.4-0.2-0.6v-0.6
	c-1.2,1-2.8,1.5-4.5,1.5c-4,0-7.2-3.2-7.2-7.2s3.2-7.2,7.2-7.2s7.2,3.2,7.2,7.2c0,1.7-0.6,3.2-1.5,4.5h0.6c0.2,0,0.4,0.1,0.6,0.2
	l3.5,3.5C33.8,20.3,33.8,20.8,33.5,21.2z M27.9,11.8c0-2.6-2.1-4.7-4.7-4.7s-4.7,2.1-4.7,4.7s2.1,4.7,4.7,4.7S27.9,14.4,27.9,11.8z"
	/>
</svg>
