<?xml version="1.0" encoding="utf-8"?>
<!-- Generator: Adobe Illustrator 25.4.1, SVG Export Plug-In . SVG Version: 6.00 Build 0)  -->
<svg version="1.1" id="Layer_1" xmlns="http://www.w3.org/2000/svg" xmlns:xlink="http://www.w3.org/1999/xlink" x="0px" y="0px"
	 viewBox="0 0 36 24" style="enable-background:new 0 0 36 24;" xml:space="preserve">
<circle cx="5.9" cy="9.9" r="0.8"/>
<path d="M1.8,10.6c1.8-0.7,2.9-2.5,2.5-4.5c-0.1-0.4-0.2-0.7-0.4-1C2.4,6.4,1.5,8.4,1.8,10.6z"/>
<path d="M7.9,12.6c0,0-0.7-0.5-1.4-0.3S5.6,13,5.1,13.2C4.8,13.4,5.6,14.1,7.9,12.6z"/>
<path d="M9.3,12.4c-0.6-0.2-1.2,0.3-1.2,0.3c0.4,0.3,0.8,0.5,1.1,0.6C9.2,12.9,9.3,12.6,9.3,12.4z"/>
<path d="M9.9,10.8c0.2-0.5,0.5-0.9,0.8-1.3c-0.2-0.2-0.4-0.4-0.7-0.4c-0.5,0-0.8,0.4-0.8,0.8C9.2,10.4,9.6,10.6,9.9,10.8z"/>
<path d="M13.6,6.9c-0.4-0.7-0.9-1.4-1.5-1.9c-0.2,0.3-0.3,0.6-0.4,1c-0.1,0.7-0.1,1.4,0.1,2C12.3,7.8,12.9,7.4,13.6,6.9z"/>
<path d="M9.1,15.2c-0.4,0.1-0.8,0.1-1.2,0.1c-3,0-5.5-2.5-5.5-5.5s2.5-5.5,5.5-5.5c2.1,0,4,1.2,4.9,3c0.4-0.3,0.9-0.5,1.3-0.7
	c-1.2-2.2-3.5-3.8-6.2-3.8c-3.9,0-7,3.1-7,7s3.1,7,7,7c0.4,0,0.8,0,1.2-0.1C9.1,16.7,9.1,15.2,9.1,15.2z"/>
<path d="M15.1,13.3c-0.4,0-0.8,0.4-0.8,0.8s0.4,0.8,0.8,0.8c0.4,0,0.8-0.4,0.8-0.8S15.5,13.3,15.1,13.3z"/>
<path d="M19.1,14.9L20,14c0-0.4-0.4-0.7-0.8-0.7c-0.4,0-0.8,0.4-0.8,0.8C18.4,14.5,18.7,14.9,19.1,14.9z"/>
<polygon points="17.5,18 17.1,21.1 20.2,20.7 28.9,12 26.2,9.3 "/>
<rect x="27.5" y="7.3" transform="matrix(0.7071 -0.7071 0.7071 0.7071 1.91 23.1708)" width="2.8" height="3.9"/>
<path d="M16.3,19.5c-2.6-0.4-4.6-2.7-4.6-5.4c0-2.4,1.6-4.5,3.8-5.2c0.8,2.1,2.8,3.5,5.2,3.5c0.4,0,0.7-0.1,1-0.1l1.6-1.6
	c-1.2-2.2-3.5-3.6-6.1-3.6c-3.9,0-7,3.1-7,7v5.5h2.7c0.9,0.7,2,1.2,3.3,1.4L16.3,19.5z"/>
</svg>
