<?xml version="1.0" encoding="utf-8"?>
<!-- Generator: Adobe Illustrator 25.3.0, SVG Export Plug-In . SVG Version: 6.00 Build 0)  -->
<svg version="1.1" id="Layer_1" xmlns="http://www.w3.org/2000/svg" xmlns:xlink="http://www.w3.org/1999/xlink" x="0px" y="0px"
	 viewBox="0 0 36 24" style="enable-background:new 0 0 36 24;" xml:space="preserve">
<g>
	<circle cx="5.9" cy="9.9" r="0.8"/>
	<path d="M1.8,10.6c1.8-0.7,2.9-2.5,2.5-4.5c-0.1-0.4-0.2-0.7-0.4-1C2.4,6.4,1.5,8.4,1.8,10.6z"/>
	<path d="M7.9,12.6c0,0-0.7-0.5-1.4-0.3s-0.9,0.7-1.4,0.9C4.8,13.4,5.6,14.1,7.9,12.6z"/>
	<path d="M9.3,12.4c-0.6-0.2-1.2,0.3-1.2,0.3c0.4,0.3,0.8,0.5,1.1,0.6C9.2,12.9,9.3,12.6,9.3,12.4z"/>
	<path d="M17.2,21.1c-3.9,0-7-3.1-7-7s3.1-7,7-7s7,3.1,7,7S21,21.1,17.2,21.1z M17.2,8.6c-3,0-5.5,2.5-5.5,5.5s2.5,5.5,5.5,5.5
		s5.5-2.5,5.5-5.5S20.2,8.6,17.2,8.6z"/>
	<circle cx="15.1" cy="14.1" r="0.8"/>
	<circle cx="19.2" cy="14.1" r="0.8"/>
	<path d="M15.2,8.1c0.6,2.5,2.8,4.3,5.5,4.3c0.8,0,1.6-0.2,2.3-0.5c-0.9-2.4-3.2-4.1-5.9-4.1C16.5,7.9,15.8,7.9,15.2,8.1z"/>
	<path d="M9.9,10.8c0.2-0.5,0.5-0.9,0.8-1.3c-0.2-0.2-0.4-0.4-0.7-0.4c-0.5,0-0.8,0.4-0.8,0.8C9.2,10.4,9.6,10.6,9.9,10.8z"/>
	<path d="M13.6,6.9c-0.4-0.7-0.9-1.4-1.5-1.9c-0.2,0.3-0.3,0.6-0.4,1c-0.1,0.7-0.1,1.4,0.1,2C12.3,7.8,12.9,7.4,13.6,6.9z"/>
	<path d="M9.1,15.2c-0.4,0.1-0.8,0.1-1.2,0.1c-3,0-5.5-2.5-5.5-5.5s2.5-5.5,5.5-5.5c2.1,0,4,1.2,4.9,3c0.4-0.3,0.9-0.5,1.3-0.7
		c-1.2-2.2-3.5-3.8-6.2-3.8c-3.9,0-7,3.1-7,7s3.1,7,7,7c0.4,0,0.8,0,1.2-0.1V15.2z"/>
	<polygon points="10.1,14.1 10.1,19.6 13.6,19.6 	"/>
	<polygon points="24.2,14.1 24.2,19.6 20.8,19.6 	"/>
</g>
</svg>
