<?xml version="1.0" encoding="utf-8"?>
<!-- Generator: Adobe Illustrator 26.0.2, SVG Export Plug-In . SVG Version: 6.00 Build 0)  -->
<svg version="1.1" id="Layer_1" xmlns="http://www.w3.org/2000/svg" xmlns:xlink="http://www.w3.org/1999/xlink" x="0px" y="0px"
	 viewBox="0 0 36 24" style="enable-background:new 0 0 36 24;" xml:space="preserve">
<path d="M3.6,5v14c0,1.1,0.9,2,2,2h14c1.1,0,2-0.9,2-2V5c0-1.1-0.9-2-2-2h-14C4.5,3,3.6,3.9,3.6,5z M15.6,9c0,1.7-1.3,3-3,3
	s-3-1.3-3-3s1.3-3,3-3S15.6,7.3,15.6,9z M6.6,17c0-2,4-3.1,6-3.1s6,1.1,6,3.1v1h-12V17z"/>
</svg>
