<?xml version="1.0" encoding="utf-8"?>
<!-- Generator: Adobe Illustrator 26.0.3, SVG Export Plug-In . SVG Version: 6.00 Build 0)  -->
<svg version="1.1" id="Layer_1" xmlns="http://www.w3.org/2000/svg" xmlns:xlink="http://www.w3.org/1999/xlink" x="0px" y="0px"
	 viewBox="0 0 90 24" style="enable-background:new 0 0 90 24;" xml:space="preserve">
<style type="text/css">
	.st0{fill:none;stroke:#000000;stroke-width:0.75;stroke-miterlimit:10;}
</style>
<g>
	<path d="M34.2,13.7c-1.1,0.3-2.1,0.4-3.3,0.4c-1.1,0-2-0.2-2.6-0.5c-0.6-0.3-1-0.8-1.3-1.6c-0.3-0.7-0.4-1.8-0.4-3.2
		c0-2,0.3-3.4,0.9-4.1c0.6-0.7,1.8-1.1,3.5-1.1c0.7,0,1.6,0.1,2.5,0.3L34.2,4l-0.1,2.7c-0.8-0.1-1.6-0.2-2.3-0.2S30.7,6.7,30.5,7
		c-0.2,0.3-0.3,0.8-0.3,1.6c0,0.8,0,1.4,0.1,1.7c0.1,0.3,0.2,0.5,0.5,0.6s0.5,0.2,1,0.2l2.3-0.1L34.2,13.7z"/>
	<path d="M35.6,7c0.7-0.6,1.7-0.9,3-0.9c1.3,0,2.3,0.3,3,0.9s1,1.6,1,3.1c0,1.4-0.3,2.4-1,3s-1.7,0.9-3,0.9c-1.3,0-2.3-0.3-3-0.9
		c-0.7-0.6-1-1.6-1-3C34.6,8.7,35,7.7,35.6,7z M38.2,11.1c0.1,0.2,0.2,0.3,0.5,0.3s0.4-0.1,0.5-0.3s0.1-0.5,0.1-1c0-0.5,0-0.8-0.1-1
		c-0.1-0.2-0.2-0.3-0.5-0.3s-0.4,0.1-0.5,0.3c-0.1,0.2-0.1,0.5-0.1,1C38,10.6,38.1,10.9,38.2,11.1z"/>
	<path d="M43.3,13.9V3.5h3.4v10.3H43.3z"/>
	<path d="M48.3,7c0.7-0.6,1.7-0.9,3-0.9c1.3,0,2.3,0.3,3,0.9s1,1.6,1,3.1c0,1.4-0.3,2.4-1,3s-1.7,0.9-3,0.9c-1.3,0-2.3-0.3-3-0.9
		s-1-1.6-1-3C47.3,8.7,47.6,7.7,48.3,7z M50.8,11.1c0.1,0.2,0.2,0.3,0.5,0.3c0.2,0,0.4-0.1,0.5-0.3s0.1-0.5,0.1-1c0-0.5,0-0.8-0.1-1
		c-0.1-0.2-0.2-0.3-0.5-0.3c-0.2,0-0.4,0.1-0.5,0.3c-0.1,0.2-0.1,0.5-0.1,1C50.7,10.6,50.7,10.9,50.8,11.1z"/>
	<path d="M59.3,13.9h-3.4V6.3h3.4V7c0.6-0.6,1.2-0.9,1.6-0.9v3.1c-0.3,0-0.8,0.1-1.3,0.4l-0.3,0.1V13.9z"/>
	<path d="M64.6,11.1c0,0.4,0.2,0.5,0.7,0.5c1,0,2,0,3-0.1l0.6,0l0.1,2.2c-1.3,0.3-2.7,0.4-4,0.4c-1.3,0-2.3-0.3-2.8-0.9
		c-0.6-0.6-0.9-1.6-0.9-2.9s0.3-2.4,0.9-3.1c0.6-0.7,1.6-1,2.9-1s2.3,0.3,3,0.9c0.7,0.6,1,1.4,1,2.6L69,11.1H64.6z M65.8,9.2
		c0-0.3,0-0.5-0.1-0.6s-0.2-0.2-0.4-0.2s-0.4,0.1-0.4,0.2s-0.1,0.3-0.1,0.6H65.8z"/>
</g>
<g>
	<path d="M12.4,11.4l4-4c0.2-0.2,0.2-0.4,0-0.6L16,6.6c-0.2-0.2-0.4-0.2-0.6,0l-4,4c-0.2,0.2-0.2,0.4,0,0.6l0.3,0.3
		C12,11.6,12.2,11.6,12.4,11.4z"/>
	<path d="M9.9,9.4L9.9,9.4C9.4,9.2,9,9,8.6,8.6C7.2,7.2,7.2,5,8.6,3.7c1.4-1.4,3.5-1.4,4.9,0c0.4,0.4,0.6,0.8,0.8,1.3l0,0
		c0,0.1,0,0.2,0.1,0.3c0,0.1,0.1,0.2,0.1,0.3c0.3,1.2,0.2,1.8,1.2,2.7c-1.2,1.2-1.2,1.2-1.2,1.2l-0.9-0.9l0,0l0.9,0.9
		c0,0,0,0-1.2,1.2c-0.9-0.9-1.5-0.9-2.7-1.2c-0.1,0-0.2,0-0.3-0.1C10.1,9.5,10,9.4,9.9,9.4z"/>
	<path class="st0" d="M14,10l0.5-0.5l0,0L15,9.1l0.4-0.4c0,0,5.6,5.6,6.1,6.1c0.4,0.4,0.2,1.1,0.2,1.1s0.7,0.6,0.2,1.1
		c-0.5,0.5-1.1-0.2-1.1-0.2s-0.6,0.2-1.1-0.2c-0.4-0.4-6.1-6.1-6.1-6.1L14,10z"/>
	<polygon points="20,13.4 16.6,13.4 19.7,16.5 20.8,16.7 21.2,17.1 21.5,17.1 22,16.6 21.6,15.9 21.6,15.3 21.4,14.8 	"/>
	<path d="M19.9,20.7c0,1,0.8,1.8,1.8,1.8s1.8-0.8,1.8-1.8s-1.8-3-1.8-3S19.9,19.7,19.9,20.7z"/>
</g>
</svg>
