<?xml version="1.0" encoding="utf-8"?>
<!-- Generator: Adobe Illustrator 26.0.3, SVG Export Plug-In . SVG Version: 6.00 Build 0)  -->
<svg version="1.1" id="Layer_1" xmlns="http://www.w3.org/2000/svg" xmlns:xlink="http://www.w3.org/1999/xlink" x="0px" y="0px"
	 viewBox="0 0 36 24" style="enable-background:new 0 0 36 24;" xml:space="preserve">
<rect x="24.5" y="7.1" transform="matrix(0.7071 -0.7071 0.7071 0.7071 1.1843 20.9656)" width="2.8" height="3.9"/>
<polygon points="23.1,9 14.4,17.7 14.1,20.9 17.2,20.5 25.9,11.8 "/>
<path d="M13.3,18.8H7.7c-0.5,0-1-0.4-1-1V6.1c0-0.5,0.4-1,1-1h11.7c0.6,0,0.9,0.5,1,1v4.2l2.1-2.1l0-2.2c-0.2-1.7-1.5-3-3-3H7.7
	c-1.7,0-3,1.4-3,3v11.7c0,1.7,1.4,3,3,3h5.4L13.3,18.8z"/>
<path d="M16.3,12.7c-0.1-0.5-0.4-0.8-0.8-0.8c-0.5,0-0.8,0.4-0.8,0.8c0,0.5,0.4,0.8,0.8,0.8C16,13.5,16.3,13,16.3,12.7z"/>
<path d="M10.9,12.7c0,0.5,0.4,0.8,0.8,0.8c0.5,0,0.8-0.4,0.8-0.8c0-0.5-0.4-0.8-0.8-0.8C11.2,11.8,10.9,12.2,10.9,12.7z"/>
<path d="M19.7,11c-0.5-2.9-3.1-5.2-6.1-5.2c-3.4,0-6.2,2.8-6.2,6.2c0,3.3,2.7,6.1,5.9,6.3l0.1-1l0-0.3c-2.6-0.1-4.9-2.3-4.9-5
	c0-0.2,0-0.4,0-0.5c1.4-0.6,2.6-1.9,3.2-3.3c1.1,1.6,3,2.6,5,2.6c0.5,0,1-0.1,1.4-0.2c0.1,0.5,0.2,0.9,0.2,1.4c0,0.1,0,0.2,0,0.4
	L19.7,11z"/>
</svg>
