<?xml version="1.0" encoding="utf-8"?>
<!-- Generator: Adobe Illustrator 26.0.3, SVG Export Plug-In . SVG Version: 6.00 Build 0)  -->
<svg version="1.1" id="Layer_1" xmlns="http://www.w3.org/2000/svg" xmlns:xlink="http://www.w3.org/1999/xlink" x="0px" y="0px"
	 viewBox="0 0 36 24" style="enable-background:new 0 0 36 24;" xml:space="preserve">
<style type="text/css">
	.st0{fill:none;stroke:#000000;stroke-width:2.1;stroke-miterlimit:10;}
</style>
<g>
	<path class="st0" d="M23.8,3.9H12.2c-1.1,0-2,0.9-2,2v11.7c0,1.1,0.9,2,2,2h11.7c1.1,0,2-0.9,2-2V5.9C25.8,4.8,25,3.9,23.8,3.9z"/>
	<path d="M16.2,11.6c-0.5,0-0.8,0.4-0.8,0.8c0,0.5,0.4,0.8,0.8,0.8c0.5,0,0.8-0.4,0.8-0.8C17,11.9,16.5,11.6,16.2,11.6z M20,11.6
		c-0.5,0-0.8,0.4-0.8,0.8c0,0.5,0.4,0.8,0.8,0.8c0.5,0,0.8-0.4,0.8-0.8C20.7,11.9,20.3,11.6,20,11.6z M18,5.5
		c-3.4,0-6.2,2.8-6.2,6.2S14.7,18,18,18s6.2-2.8,6.2-6.2S21.5,5.5,18,5.5z M18,16.7c-2.7,0-5-2.3-5-5c0-0.2,0-0.4,0-0.5
		c1.4-0.6,2.6-1.9,3.2-3.3c1.1,1.6,3,2.6,5,2.6c0.5,0,1-0.1,1.4-0.2c0.1,0.5,0.2,0.9,0.2,1.4C23,14.4,20.8,16.7,18,16.7z"/>
</g>
</svg>
