<?xml version="1.0" encoding="utf-8"?>
<!-- Generator: Adobe Illustrator 26.0.3, SVG Export Plug-In . SVG Version: 6.00 Build 0)  -->
<svg version="1.1" id="Layer_1" xmlns="http://www.w3.org/2000/svg" xmlns:xlink="http://www.w3.org/1999/xlink" x="0px" y="0px"
	 viewBox="0 0 90 24" style="enable-background:new 0 0 90 24;" xml:space="preserve">
<style type="text/css">
	.st0{fill:none;}
	.st1{enable-background:new    ;}
</style>
<path class="st0" d="M-2.1,0.6h24v24h-24C-2.1,24.6-2.1,0.6-2.1,0.6z"/>
<polygon points="14.5,17.7 14.2,20.9 17.3,20.5 26,11.8 23.2,9 "/>
<rect x="24.6" y="7.1" transform="matrix(0.7071 -0.7071 0.7071 0.7071 1.2145 21.0339)" width="2.8" height="3.9"/>
<path class="st0" d="M0,0h24v24H0V0z"/>
<polygon points="13.5,17.2 17,13.8 17,13 12,13 12,18 13.5,18 "/>
<path d="M13.3,20H5V10h14v1.8l2-2V6c0-1.1-0.9-2-2-2h-1V2h-2v2H8V2H6v2H5C3.9,4,3,4.9,3,6v14c0,1.1,0.9,2,2,2h8.1L13.3,20z M5,6h14
	v2H5V6z"/>
<g class="st1">
	<path d="M35.1,9.7h-5.4v-8h2.8v5.8h2.6V9.7z"/>
	<path d="M38.1,7.5c0,0.3,0.2,0.4,0.5,0.4c0.8,0,1.6,0,2.4-0.1l0.5,0l0.1,1.7c-1.1,0.2-2.1,0.3-3.2,0.3c-1.1,0-1.8-0.2-2.3-0.7
		c-0.5-0.5-0.7-1.3-0.7-2.4s0.3-1.9,0.8-2.5s1.3-0.8,2.4-0.8s1.9,0.2,2.4,0.7s0.8,1.2,0.8,2.1l-0.1,1.2H38.1z M39,6
		c0-0.2,0-0.4-0.1-0.5c-0.1-0.1-0.2-0.1-0.4-0.1s-0.3,0-0.3,0.1c-0.1,0.1-0.1,0.3-0.1,0.5H39z"/>
	<path d="M42.2,6V3.7h5.4v2.1l-1.8,1.6h1.9v2.3h-5.4V7.5L43.9,6H42.2z"/>
	<path d="M48.2,3.3V1.5h2.7v1.8H48.2z M48.2,9.7V3.7h2.7v6.1H48.2z"/>
	<path d="M52.2,4.3c0.5-0.5,1.3-0.8,2.4-0.8s1.9,0.2,2.4,0.8c0.5,0.5,0.8,1.3,0.8,2.4S57.6,8.7,57,9.2c-0.5,0.5-1.3,0.7-2.4,0.7
		s-1.9-0.2-2.4-0.7s-0.8-1.3-0.8-2.4S51.7,4.8,52.2,4.3z M54.2,7.5c0.1,0.1,0.2,0.2,0.4,0.2c0.2,0,0.3-0.1,0.4-0.2
		c0.1-0.1,0.1-0.4,0.1-0.8c0-0.4,0-0.7-0.1-0.8c-0.1-0.1-0.2-0.2-0.4-0.2c-0.2,0-0.3,0.1-0.4,0.2c-0.1,0.1-0.1,0.4-0.1,0.8
		C54.1,7.1,54.2,7.4,54.2,7.5z"/>
	<path d="M61,9.7h-2.7V3.7H61V4c0.5-0.3,0.9-0.5,1.3-0.5c0.9,0,1.5,0.2,1.8,0.7c0.3,0.5,0.5,1.3,0.5,2.5v3H62V6.9c0-0.7-0.1-1-0.4-1
		L61,5.9V9.7z"/>
	<path d="M67.8,7.5c0,0.3,0.2,0.4,0.5,0.4c0.8,0,1.6,0,2.4-0.1l0.5,0l0.1,1.7c-1.1,0.2-2.1,0.3-3.2,0.3c-1.1,0-1.8-0.2-2.3-0.7
		c-0.5-0.5-0.7-1.3-0.7-2.4s0.3-1.9,0.8-2.5s1.3-0.8,2.4-0.8c1.1,0,1.9,0.2,2.4,0.7c0.5,0.5,0.8,1.2,0.8,2.1l-0.1,1.2H67.8z M68.7,6
		c0-0.2,0-0.4-0.1-0.5c-0.1-0.1-0.2-0.1-0.4-0.1s-0.3,0-0.3,0.1c-0.1,0.1-0.1,0.3-0.1,0.5H68.7z"/>
</g>
</svg>
