<?xml version="1.0" encoding="utf-8"?>
<!-- Generator: Adobe Illustrator 26.0.3, SVG Export Plug-In . SVG Version: 6.00 Build 0)  -->
<svg version="1.1" id="Layer_1" xmlns="http://www.w3.org/2000/svg" xmlns:xlink="http://www.w3.org/1999/xlink" x="0px" y="0px"
	 viewBox="0 0 90 24" style="enable-background:new 0 0 90 24;" xml:space="preserve">
<style type="text/css">
	.st0{fill:none;}
	.st1{font-family:'TitilliumWeb-Black';}
	.st2{font-size:12px;}
</style>
<path class="st0" d="M-2.1,0.6h24v24h-24C-2.1,24.6-2.1,0.6-2.1,0.6z"/>
<polygon points="14.5,17.7 14.2,20.9 17.3,20.5 26,11.8 23.2,9 "/>
<rect x="24.6" y="7.1" transform="matrix(0.7071 -0.7071 0.7071 0.7071 1.2136 21.0363)" width="2.8" height="3.9"/>
<path class="st0" d="M0,0h24v24H0V0z"/>
<polygon points="13.5,17.2 17,13.8 17,13 12,13 12,18 13.5,18 "/>
<path d="M13.3,20H5V10h14v1.8l2-2V6c0-1.1-0.9-2-2-2h-1V2h-2v2H8V2H6v2H5C3.9,4,3,4.9,3,6v14c0,1.1,0.9,2,2,2h8.1L13.3,20z M5,6h14
	v2H5V6z"/>
<text transform="matrix(1 0 0 1 29.3824 9.741)" class="st1 st2">Lezione</text>
</svg>
