<?xml version="1.0" encoding="utf-8"?>
<!-- Generator: Adobe Illustrator 26.0.3, SVG Export Plug-In . SVG Version: 6.00 Build 0)  -->
<svg version="1.1" id="Layer_1" xmlns="http://www.w3.org/2000/svg" xmlns:xlink="http://www.w3.org/1999/xlink" x="0px" y="0px"
	 viewBox="0 0 24 24" style="enable-background:new 0 0 24 24;" xml:space="preserve">
<style type="text/css">
	.st0{fill:#FFFFFF;}
</style>
<path class="st0" d="M15.9,12.8V9c-0.1-1.2-1-3.4-3.7-3.6l0,0c-0.1,0-0.1,0-0.2,0c-0.1,0-0.1,0-0.2,0l0,0C9.1,5.5,8.2,7.8,8.1,9v3.8
	h1.7V9.1c0-0.3,0.3-1.9,2.2-2c1.9,0.1,2.2,1.7,2.2,2v3.8h1.7V12.8z"/>
<path class="st0" d="M16.3,19.2H7.7c-0.5,0-1-0.4-1-1v-5.9c0-0.5,0.4-1,1-1h8.5c0.5,0,1,0.4,1,1v5.9C17.2,18.8,16.8,19.2,16.3,19.2z
	"/>
</svg>
