<?xml version="1.0" encoding="utf-8"?>
<!-- Generator: Adobe Illustrator 25.4.1, SVG Export Plug-In . SVG Version: 6.00 Build 0)  -->
<svg version="1.1" id="Layer_1" xmlns="http://www.w3.org/2000/svg" xmlns:xlink="http://www.w3.org/1999/xlink" x="0px" y="0px"
	 viewBox="0 0 557.6 102.1" style="enable-background:new 0 0 557.6 102.1;" xml:space="preserve">
<style type="text/css">
	.st0{opacity:0.5;fill:#0F5B8B;}
	.st1{opacity:0.5;}
	.st2{fill:#0F5B8B;}
</style>
<path class="st0" d="M83.4,0.5v17.7H31.6c-9.1,0-13.2,4.9-13.2,12c0,6.1,3.1,12,15,12H57c27.5,0,34,15.3,34,29.8
	c0,17.1-9.1,29.6-32.2,29.6H2.5V83.9h56.9c9.6,0,13.9-5.2,13.9-12.6c0-6.6-3.4-12.6-15.9-12.6H34C7,58.7,0.7,43.6,0.7,29.5
	c0-16.8,9-29,31.4-29H83.4z"/>
<path class="st0" d="M172.2,0.5v17.7h-29.5v83.4h-17.8V18.2H95.3V0.5H172.2z"/>
<g class="st1">
	<path class="st2" d="M411.9,0.5c29.5,0,45.5,16.5,45.5,50.6c0,34-15.9,50.5-45.5,50.5h-35.6c-5.7,0-8.4-2.7-8.4-8.2V8.7
		c0-5.5,2.7-8.2,8.4-8.2H411.9z M385.5,82.1c0,1.3,0.6,1.8,1.9,1.8h24.4c19.6,0,27.8-9.7,27.8-32.9c0-23.1-8.2-32.8-27.8-32.8h-24.4
		c-1.3,0-1.9,0.4-1.9,1.8V82.1z"/>
	<path class="st2" d="M479,0.5l28.3,43.3l28.6-43.3h21L516.1,58v43.6h-17.8V58L457.6,0.5H479z"/>
</g>
<path class="st2" d="M354.7,37.8c-0.3-1.1-0.6-2.2-1-3.2c-0.2-0.6-0.4-1.1-0.6-1.7c-0.9-2.3-2-4.5-3.2-6.7c-0.4-0.7-0.8-1.3-1.2-2
	c-0.8-1.2-1.6-2.4-2.5-3.6c-0.9-1.1-1.8-2.2-2.7-3.3c-0.5-0.6-1.1-1.2-1.7-1.7c0,0-0.1-0.1-0.1-0.1c-1.6-1.6-3.2-3-5-4.3
	c-1-0.8-2-1.5-3.1-2.2c-0.8-0.5-1.7-1-2.5-1.5c-1.4-0.8-2.8-1.5-4.3-2.2c-1.3-0.6-2.7-1.1-4.1-1.6c-1.1-0.4-2.1-0.7-3.2-1
	c-2.6-0.7-5.3-1.2-8.1-1.5c-1.7-0.2-3.4-0.3-5.1-0.3c-13.4,0-25.6,5.3-34.6,13.9c4.1,5.3,7.4,11.3,9.5,17.8
	c5.7-7.7,14.8-12.7,25.1-12.7c4.8,0,9.4,1.1,13.5,3.1c0.9,0.4,1.8,0.9,2.6,1.4c0.4,0.3,0.8,0.5,1.3,0.8c1.2,0.8,2.4,1.8,3.5,2.8
	c0.4,0.3,0.7,0.7,1.1,1c5.6,5.6,9.1,13.4,9.1,22c0,10.7-5.5,20.2-13.7,25.8c-0.4,0.3-0.8,0.6-1.3,0.8c-0.9,0.5-1.7,1-2.6,1.4
	c-4.1,2-8.7,3.1-13.5,3.1c-0.6,0-1.2,0-1.8-0.1c-0.2,0-0.4,0-0.6,0c-0.4,0-0.8-0.1-1.2-0.1c-0.2,0-0.4-0.1-0.6-0.1
	c-0.4-0.1-0.8-0.1-1.1-0.2c-0.2,0-0.4-0.1-0.6-0.1c-0.4-0.1-0.8-0.2-1.2-0.3c-0.2,0-0.3-0.1-0.5-0.1c-1.1-0.3-2.2-0.6-3.3-1
	c-0.1,0-0.2-0.1-0.4-0.1c-0.4-0.2-0.8-0.3-1.2-0.5c-0.2-0.1-0.3-0.1-0.5-0.2c-0.4-0.2-0.8-0.4-1.1-0.5c-0.1-0.1-0.3-0.1-0.4-0.2
	c-0.4-0.2-0.8-0.4-1.2-0.7c-0.1-0.1-0.2-0.1-0.3-0.2c-1-0.6-2-1.2-2.9-1.9c0,0-0.1-0.1-0.1-0.1c-0.4-0.3-0.8-0.6-1.2-1
	c-0.1-0.1-0.2-0.1-0.2-0.2c-0.4-0.3-0.7-0.6-1.1-1c-0.1-0.1-0.1-0.1-0.2-0.2c-0.4-0.4-0.7-0.7-1.1-1.1c0,0-0.1-0.1-0.1-0.1
	c-0.8-0.9-1.6-1.8-2.3-2.7v0c-3.8-5.2-6-11.5-6-18.4v0h0v0c0-15.1-6.7-28.6-17.3-37.8c0,0,0,0,0,0c-0.6-0.5-1.2-1-1.8-1.5
	c0,0,0,0,0,0c-0.6-0.5-1.2-0.9-1.8-1.4c0,0,0,0-0.1,0c-0.6-0.4-1.2-0.9-1.8-1.3c0,0-0.1-0.1-0.1-0.1c-0.6-0.4-1.2-0.8-1.9-1.1
	c-0.1,0-0.1-0.1-0.2-0.1c-0.6-0.4-1.2-0.7-1.8-1c-0.1,0-0.2-0.1-0.3-0.1c-0.6-0.3-1.2-0.6-1.8-0.9c-0.1-0.1-0.3-0.1-0.4-0.2
	c-0.6-0.3-1.2-0.5-1.8-0.8c-0.2-0.1-0.3-0.1-0.5-0.2c-0.6-0.2-1.1-0.5-1.7-0.7c-0.2-0.1-0.4-0.1-0.6-0.2c-0.5-0.2-1.1-0.4-1.6-0.5
	c-0.2-0.1-0.5-0.1-0.8-0.2c-0.5-0.1-1-0.3-1.6-0.4c-0.3-0.1-0.6-0.1-0.9-0.2c-0.5-0.1-1-0.2-1.5-0.3c-0.4-0.1-0.7-0.1-1.1-0.2
	c-0.5-0.1-0.9-0.2-1.4-0.2c-0.4-0.1-0.8-0.1-1.2-0.2c-0.4-0.1-0.8-0.1-1.2-0.2c-0.5-0.1-1-0.1-1.5-0.1c-0.3,0-0.6-0.1-1-0.1
	c-0.8,0-1.7-0.1-2.5-0.1c-6.1,0-11.9,1.1-17.2,3c-3.1,1.1-6,2.5-8.8,4.2s-5.3,3.6-7.7,5.8c-10.1,9.2-16.4,22.4-16.4,37.1v0
	c0,4.6,0.6,9,1.8,13.2c0.3,1.1,0.6,2.2,1,3.2c0.2,0.6,0.4,1.1,0.6,1.7c0.9,2.3,2,4.5,3.2,6.7c0.4,0.7,0.8,1.3,1.2,2
	c0.8,1.2,1.6,2.4,2.5,3.6c0.9,1.1,1.8,2.2,2.7,3.3c0.5,0.6,1.1,1.2,1.7,1.7c0,0,0.1,0.1,0.1,0.1c1.6,1.6,3.2,3,5,4.3
	c1,0.8,2,1.5,3.1,2.2c0.8,0.5,1.7,1,2.5,1.5c1.4,0.8,2.8,1.5,4.3,2.2c1.3,0.6,2.7,1.1,4.1,1.6c1.1,0.4,2.1,0.7,3.2,1
	c2.6,0.7,5.3,1.2,8.1,1.5c1.7,0.2,3.4,0.3,5.1,0.3c13.4,0,25.6-5.3,34.6-13.9c-4.1-5.3-7.4-11.3-9.5-17.8
	c-5.7,7.7-14.8,12.7-25.1,12.7c-4.8,0-9.4-1.1-13.5-3.1c-0.9-0.4-1.8-0.9-2.6-1.4c-0.4-0.3-0.8-0.5-1.3-0.8
	c-1.2-0.8-2.4-1.8-3.5-2.8c-0.4-0.3-0.7-0.7-1.1-1c-5.6-5.6-9.1-13.4-9.1-22c0-10.7,5.5-20.2,13.7-25.8c0.4-0.3,0.8-0.6,1.3-0.8
	c0.9-0.5,1.7-1,2.6-1.4c4.1-2,8.7-3.1,13.5-3.1c0.6,0,1.2,0,1.8,0.1c0.2,0,0.4,0,0.6,0c0.4,0,0.8,0.1,1.2,0.1c0.2,0,0.4,0.1,0.6,0.1
	c0.4,0.1,0.8,0.1,1.1,0.2c0.2,0,0.4,0.1,0.6,0.1c0.4,0.1,0.8,0.2,1.2,0.3c0.2,0,0.3,0.1,0.5,0.1c1.1,0.3,2.2,0.6,3.3,1
	c0.1,0,0.2,0.1,0.4,0.1c0.4,0.2,0.8,0.3,1.2,0.5c0.2,0.1,0.3,0.1,0.5,0.2c0.4,0.2,0.8,0.4,1.1,0.5c0.1,0.1,0.3,0.1,0.4,0.2
	c0.4,0.2,0.8,0.4,1.2,0.7c0.1,0.1,0.2,0.1,0.3,0.2c1,0.6,2,1.2,2.9,1.9c0,0,0.1,0.1,0.1,0.1c0.4,0.3,0.8,0.6,1.2,1
	c0.1,0.1,0.2,0.1,0.2,0.2c0.4,0.3,0.7,0.6,1.1,1c0.1,0.1,0.1,0.1,0.2,0.2c0.4,0.4,0.7,0.7,1.1,1.1c0,0,0.1,0.1,0.1,0.1
	c0.8,0.9,1.6,1.8,2.3,2.7v0c3.8,5.2,6,11.5,6,18.4v0h0v0c0,15.1,6.7,28.6,17.3,37.8c0,0,0,0,0,0c0.6,0.5,1.2,1,1.8,1.5c0,0,0,0,0,0
	c0.6,0.5,1.2,0.9,1.8,1.4c0,0,0,0,0.1,0c0.6,0.4,1.2,0.9,1.8,1.3c0,0,0.1,0.1,0.1,0.1c0.6,0.4,1.2,0.8,1.9,1.1
	c0.1,0,0.1,0.1,0.2,0.1c0.6,0.4,1.2,0.7,1.8,1c0.1,0,0.2,0.1,0.3,0.1c0.6,0.3,1.2,0.6,1.8,0.9c0.1,0.1,0.3,0.1,0.4,0.2
	c0.6,0.3,1.2,0.5,1.8,0.8c0.2,0.1,0.3,0.1,0.5,0.2c0.6,0.2,1.1,0.5,1.7,0.7c0.2,0.1,0.4,0.1,0.6,0.2c0.5,0.2,1.1,0.4,1.6,0.5
	c0.2,0.1,0.5,0.1,0.8,0.2c0.5,0.1,1,0.3,1.6,0.4c0.3,0.1,0.6,0.1,0.9,0.2c0.5,0.1,1,0.2,1.5,0.3c0.4,0.1,0.7,0.1,1.1,0.2
	c0.5,0.1,0.9,0.2,1.4,0.2c0.4,0.1,0.8,0.1,1.2,0.2c0.4,0.1,0.8,0.1,1.2,0.2c0.5,0.1,1,0.1,1.5,0.1c0.3,0,0.6,0.1,1,0.1
	c0.8,0,1.7,0.1,2.5,0.1c6.1,0,11.9-1.1,17.2-3c3.1-1.1,6-2.5,8.8-4.2s5.3-3.6,7.7-5.8c10.1-9.2,16.4-22.4,16.4-37.1v0
	C356.5,46.5,355.9,42,354.7,37.8z"/>
</svg>
