<?xml version="1.0" encoding="utf-8"?>
<!-- Generator: Adobe Illustrator 25.4.1, SVG Export Plug-In . SVG Version: 6.00 Build 0)  -->
<svg version="1.1" id="Layer_1" xmlns="http://www.w3.org/2000/svg" xmlns:xlink="http://www.w3.org/1999/xlink" x="0px" y="0px"
	 viewBox="0 0 545.1 301.1" style="enable-background:new 0 0 545.1 301.1;" xml:space="preserve">
<style type="text/css">
	.st0{fill:#FFFFFF;}
</style>
<path class="st0" d="M539.7,110.9c-0.9-3.3-1.9-6.5-3-9.7c-0.6-1.7-1.2-3.4-1.9-5.1c-2.7-6.9-5.9-13.6-9.5-20c-1.2-2-2.4-4-3.6-6
	c-2.4-3.7-4.9-7.3-7.5-10.8c-2.6-3.4-5.4-6.7-8.2-9.9c-1.6-1.8-3.3-3.5-5-5.2c-0.1-0.1-0.2-0.2-0.2-0.2c-4.7-4.7-9.7-9-14.9-13
	c-3-2.3-6.1-4.5-9.3-6.6c-2.5-1.6-5-3.1-7.5-4.6c-4.2-2.4-8.4-4.5-12.8-6.5c-4-1.8-8.1-3.4-12.2-4.9c-3.2-1.1-6.4-2.1-9.7-3
	c-7.9-2.1-15.9-3.7-24.3-4.5C404.8,0.3,399.7,0,394.5,0c-40.3,0-76.9,15.9-103.9,41.7c12.4,15.9,22.1,34,28.6,53.6
	c17-23.2,44.5-38.2,75.3-38.2c14.5,0,28.2,3.3,40.5,9.2c2.7,1.3,5.4,2.8,7.9,4.3c1.3,0.8,2.6,1.6,3.8,2.4c3.7,2.5,7.3,5.3,10.6,8.3
	c1.1,1,2.2,2,3.2,3.1c16.9,16.9,27.4,40.3,27.4,66.1c0,32.2-16.4,60.7-41.3,77.5c-1.2,0.8-2.5,1.7-3.8,2.4c-2.6,1.6-5.2,3-7.9,4.3
	c-12.3,5.9-26,9.2-40.5,9.2c-1.8,0-3.6-0.1-5.3-0.2c-0.6,0-1.1-0.1-1.7-0.1c-1.2-0.1-2.4-0.2-3.6-0.3c-0.6-0.1-1.3-0.2-1.9-0.2
	c-1.1-0.2-2.3-0.3-3.4-0.5c-0.6-0.1-1.2-0.2-1.8-0.3c-1.2-0.2-2.4-0.5-3.6-0.8c-0.5-0.1-1-0.2-1.5-0.3c-3.4-0.8-6.7-1.9-9.9-3.1
	c-0.4-0.1-0.7-0.3-1.1-0.4c-1.2-0.5-2.4-1-3.6-1.5c-0.5-0.2-0.9-0.4-1.4-0.6c-1.1-0.5-2.3-1.1-3.4-1.6c-0.4-0.2-0.8-0.4-1.2-0.6
	c-1.2-0.6-2.4-1.3-3.6-2c-0.3-0.2-0.5-0.3-0.8-0.5c-3-1.8-5.9-3.7-8.7-5.9c-0.1-0.1-0.2-0.2-0.3-0.3c-1.2-1-2.5-1.9-3.6-2.9
	c-0.2-0.2-0.5-0.4-0.7-0.6c-1.1-0.9-2.2-1.9-3.2-2.9c-0.2-0.2-0.4-0.4-0.6-0.6c-1.1-1.1-2.2-2.2-3.3-3.4c-0.1-0.1-0.2-0.2-0.3-0.3
	c-2.4-2.6-4.7-5.3-6.8-8.2v0c-11.4-15.5-18.2-34.6-18.2-55.3v0h0.1v0c0-45.3-20.1-86-51.8-113.6c0,0,0,0,0,0c-1.7-1.5-3.5-3-5.4-4.4
	c0,0-0.1,0-0.1-0.1c-1.8-1.4-3.6-2.8-5.5-4.1c-0.1,0-0.1-0.1-0.2-0.1c-1.8-1.3-3.7-2.6-5.5-3.8c-0.1-0.1-0.2-0.2-0.4-0.2
	c-1.8-1.2-3.7-2.3-5.6-3.4c-0.2-0.1-0.4-0.2-0.6-0.3c-1.8-1.1-3.7-2.1-5.5-3.1c-0.3-0.1-0.6-0.3-0.8-0.4c-1.8-0.9-3.6-1.8-5.5-2.7
	c-0.4-0.2-0.8-0.3-1.1-0.5c-1.8-0.8-3.5-1.6-5.3-2.3c-0.5-0.2-1-0.4-1.5-0.6c-1.7-0.7-3.4-1.4-5.2-2c-0.6-0.2-1.2-0.4-1.8-0.6
	c-1.6-0.6-3.3-1.1-5-1.6c-0.7-0.2-1.5-0.4-2.3-0.6c-1.6-0.4-3.1-0.9-4.7-1.3c-0.9-0.2-1.8-0.4-2.7-0.6c-1.5-0.3-2.9-0.7-4.4-1
	c-1.1-0.2-2.1-0.4-3.2-0.6c-1.4-0.2-2.7-0.5-4.1-0.7c-1.2-0.2-2.5-0.3-3.7-0.5c-1.2-0.2-2.4-0.3-3.7-0.5c-1.5-0.2-3.1-0.2-4.6-0.3
	c-1-0.1-1.9-0.2-2.9-0.2c-2.5-0.1-5.1-0.2-7.6-0.2c-18.2,0-35.6,3.2-51.8,9.1c-9.2,3.4-18,7.6-26.3,12.7s-16,10.8-23.2,17.3
	C19,66.6,0,106.4,0,150.5v0c0,13.7,1.9,27,5.3,39.6c0.9,3.3,1.9,6.5,3,9.7c0.6,1.7,1.2,3.4,1.9,5.1c2.7,6.9,5.9,13.6,9.5,20
	c1.2,2,2.4,4,3.6,6c2.4,3.7,4.9,7.3,7.5,10.8c2.6,3.4,5.4,6.7,8.2,9.9c1.6,1.8,3.3,3.5,5,5.2c0.1,0.1,0.2,0.2,0.2,0.2
	c4.7,4.7,9.7,9,14.9,13c3,2.3,6.1,4.5,9.3,6.6c2.5,1.6,5,3.1,7.5,4.6c4.2,2.4,8.4,4.5,12.8,6.5c4,1.8,8.1,3.4,12.2,4.9
	c3.2,1.1,6.4,2.1,9.7,3c7.9,2.1,15.9,3.7,24.3,4.5c5.1,0.5,10.2,0.8,15.4,0.8c40.3,0,76.9-15.9,103.9-41.7
	c-12.4-15.9-22.1-34-28.6-53.6c-17,23.2-44.5,38.2-75.3,38.2c-14.5,0-28.2-3.3-40.5-9.2c-2.7-1.3-5.4-2.8-7.9-4.3
	c-1.3-0.8-2.6-1.6-3.8-2.4c-3.7-2.5-7.3-5.3-10.6-8.3c-1.1-1-2.2-2-3.2-3.1C67.5,199.7,57,176.3,57,150.5
	c0-32.2,16.4-60.7,41.3-77.5c1.2-0.8,2.5-1.7,3.8-2.4c2.6-1.6,5.2-3,7.9-4.3c12.3-5.9,26-9.2,40.5-9.2c1.8,0,3.6,0.1,5.3,0.2
	c0.6,0,1.1,0.1,1.7,0.1c1.2,0.1,2.4,0.2,3.6,0.3c0.6,0.1,1.3,0.2,1.9,0.2c1.1,0.2,2.3,0.3,3.4,0.5c0.6,0.1,1.2,0.2,1.8,0.3
	c1.2,0.2,2.4,0.5,3.6,0.8c0.5,0.1,1,0.2,1.5,0.3c3.4,0.8,6.7,1.9,9.9,3.1c0.4,0.1,0.7,0.3,1.1,0.4c1.2,0.5,2.4,1,3.6,1.5
	c0.5,0.2,0.9,0.4,1.4,0.6c1.1,0.5,2.3,1.1,3.4,1.6c0.4,0.2,0.8,0.4,1.2,0.6c1.2,0.6,2.4,1.3,3.6,2c0.3,0.2,0.5,0.3,0.8,0.5
	c3,1.8,5.9,3.7,8.7,5.9c0.1,0.1,0.2,0.2,0.3,0.3c1.2,1,2.5,1.9,3.6,2.9c0.2,0.2,0.5,0.4,0.7,0.6c1.1,0.9,2.2,1.9,3.2,2.9
	c0.2,0.2,0.4,0.4,0.6,0.6c1.1,1.1,2.2,2.2,3.3,3.4c0.1,0.1,0.2,0.2,0.3,0.3c2.4,2.6,4.7,5.3,6.8,8.2v0
	c11.4,15.5,18.2,34.6,18.2,55.3v0H244v0c0,45.3,20.1,86,51.8,113.6c0,0,0,0,0,0c1.7,1.5,3.5,3,5.4,4.4c0,0,0.1,0,0.1,0.1
	c1.8,1.4,3.6,2.8,5.5,4.1c0.1,0,0.1,0.1,0.2,0.1c1.8,1.3,3.7,2.6,5.5,3.8c0.1,0.1,0.2,0.2,0.4,0.2c1.8,1.2,3.7,2.3,5.6,3.4
	c0.2,0.1,0.4,0.2,0.6,0.3c1.8,1.1,3.7,2.1,5.5,3.1c0.3,0.1,0.6,0.3,0.8,0.4c1.8,0.9,3.6,1.8,5.5,2.7c0.4,0.2,0.8,0.3,1.1,0.5
	c1.8,0.8,3.5,1.6,5.3,2.3c0.5,0.2,1,0.4,1.5,0.6c1.7,0.7,3.4,1.4,5.2,2c0.6,0.2,1.2,0.4,1.8,0.6c1.6,0.6,3.3,1.1,5,1.6
	c0.7,0.2,1.5,0.4,2.3,0.6c1.6,0.4,3.1,0.9,4.7,1.3c0.9,0.2,1.8,0.4,2.7,0.6c1.5,0.3,2.9,0.7,4.4,1c1.1,0.2,2.1,0.4,3.2,0.6
	c1.4,0.2,2.7,0.5,4.1,0.7c1.2,0.2,2.5,0.3,3.7,0.5c1.2,0.2,2.4,0.3,3.7,0.5c1.5,0.2,3.1,0.2,4.6,0.3c1,0.1,1.9,0.2,2.9,0.2
	c2.5,0.1,5.1,0.2,7.6,0.2c18.2,0,35.6-3.2,51.8-9.1c9.2-3.4,18-7.6,26.3-12.7c8.3-5,16-10.8,23.2-17.3
	c30.3-27.5,49.3-67.3,49.3-111.4v0C545.1,136.8,543.2,123.5,539.7,110.9z"/>
</svg>
