<?xml version="1.0" encoding="utf-8"?>
<!-- Generator: Adobe Illustrator 26.0.3, SVG Export Plug-In . SVG Version: 6.00 Build 0)  -->
<svg version="1.1" id="Layer_1" xmlns="http://www.w3.org/2000/svg" xmlns:xlink="http://www.w3.org/1999/xlink" x="0px" y="0px"
	 viewBox="0 0 400 400" style="enable-background:new 0 0 400 400;" xml:space="preserve">
<style type="text/css">
	.st0{fill:#FFFFFF;}
	.st1{fill:none;stroke:#000000;stroke-width:60;stroke-miterlimit:10;}
</style>
<rect x="241.1" y="109.9" class="st0" width="60" height="40.6"/>
<rect x="102.3" y="109.9" class="st0" width="60" height="40.6"/>
<polyline class="st0" points="216.5,57.8 176.8,108.3 225.6,109.3 183.2,144.5 "/>
<path class="st1" d="M-200.4,109.9c0,0,0,91.9,0,133.9s15.7,69.4,69.4,69.4"/>
<path class="st1" d="M-64.9,109.9c0,0,0,91.9,0,133.9s-15.7,69.4-69.4,69.4"/>
<path class="st0" d="M241.1,243.8c0,15-2.4,25.3-7.1,30.7c-6.4,7.3-21.1,8.8-32.3,8.8c-11.2,0-26-1.5-32.3-8.8
	c-4.7-5.4-7.1-15.7-7.1-30.7v-82.5h-60v82.5c0,30.4,7.2,53.4,22.1,70.3c17,19.3,43,29.1,77.4,29.1s60.4-9.8,77.4-29.1
	c14.8-16.9,22.1-39.9,22.1-70.3v-82.5h-60V243.8z"/>
</svg>
