<?xml version="1.0" encoding="utf-8"?>
<!-- Generator: Adobe Illustrator 26.0.3, SVG Export Plug-In . SVG Version: 6.00 Build 0)  -->
<svg version="1.1" id="Layer_1" xmlns="http://www.w3.org/2000/svg" xmlns:xlink="http://www.w3.org/1999/xlink" x="0px" y="0px"
	 viewBox="0 0 36 24" style="enable-background:new 0 0 36 24;" xml:space="preserve">
<style type="text/css">
	.st0{fill:none;}
</style>
<path class="st0" d="M2.8,0h24v24h-24C2.8,24,2.8,0,2.8,0z"/>
<path d="M18.2,18.3H12l5-6.7V6.3h2v5.3l1.9,2.5l1.4-1.4L21,11V6.8l1.4-1.7c0.2-0.3,0-0.8-0.4-0.8h-8c-0.4,0-0.7,0.5-0.4,0.8L15,6.8
	V11l-5.8,7.7c-0.5,0.7,0,1.6,0.8,1.6h8.1L18.2,18.3z"/>
<polygon points="19.4,17.1 19.1,20.3 22.2,19.9 30.9,11.2 28.1,8.4 "/>
<rect x="29.5" y="6.5" transform="matrix(0.7071 -0.7071 0.7071 0.7071 3.0687 24.3003)" width="2.8" height="3.9"/>
</svg>
