<?xml version="1.0" encoding="utf-8"?>
<!-- Generator: Adobe Illustrator 25.4.1, SVG Export Plug-In . SVG Version: 6.00 Build 0)  -->
<svg version="1.1" id="Layer_1" xmlns="http://www.w3.org/2000/svg" xmlns:xlink="http://www.w3.org/1999/xlink" x="0px" y="0px"
	 viewBox="0 0 36 24" style="enable-background:new 0 0 36 24;" xml:space="preserve">
<g>
	<path d="M12.8,19l0.1-0.6l0.4-0.4v-0.2c0.1,0,0.2,0,0.3-0.1l2.7-2.7c0-0.1,0-0.3,0-0.5c0.2-1.5-0.5-2.7-2.9-3.5
		c-1.8-0.6-2.6-1-2.6-1.9c0-1,1.1-1.4,1.8-1.4c1.3,0,1.8,1,1.9,1.3l1.6-0.7C16,8,15.3,6.5,13.4,6.2V5h-1.8v1.3C9,6.9,9,9.2,9,9.3
		c0,2.3,2.2,2.9,3.3,3.3c1.6,0.6,2.3,1.1,2.3,2c0,1.1-1.1,1.6-2,1.6c-1.8,0-2.3-1.9-2.4-2.1l-1.7,0.7c0.6,2.2,2.3,2.8,3,3V19H12.8z"
		/>
	<path d="M12.7,20c0,0-0.1,0-0.1,0c-4.4,0-8-3.6-8-8s3.6-8,8-8c4,0,7.3,3,7.9,6.8l1.7-1.7C20.9,5,17.1,2,12.6,2C7,2,2.6,6.5,2.6,12
		c0,5.5,4.4,9.9,9.9,10L12.7,20z"/>
</g>
<polygon points="13.9,18.9 13.5,22 16.6,21.6 25.3,12.9 22.6,10.2 "/>
<rect x="23.9" y="8.2" transform="matrix(0.7071 -0.7071 0.7071 0.7071 0.2193 20.8889)" width="2.8" height="3.9"/>
</svg>
