<?xml version="1.0" encoding="utf-8"?>
<!-- Generator: Adobe Illustrator 26.0.3, SVG Export Plug-In . SVG Version: 6.00 Build 0)  -->
<svg version="1.1" id="Layer_1" xmlns="http://www.w3.org/2000/svg" xmlns:xlink="http://www.w3.org/1999/xlink" x="0px" y="0px"
	 viewBox="0 0 90 24" style="enable-background:new 0 0 90 24;" xml:space="preserve">
<style type="text/css">
	.st0{enable-background:new    ;}
</style>
<g>
	<path d="M12.8,19l0.1-0.6l0.4-0.4v-0.2c0.1,0,0.2,0,0.3-0.1l2.7-2.7c0-0.1,0-0.3,0-0.5c0.2-1.5-0.5-2.7-2.9-3.5
		c-1.8-0.6-2.6-1-2.6-1.9c0-1,1.1-1.4,1.8-1.4c1.3,0,1.8,1,1.9,1.3l1.6-0.7C16,8,15.3,6.5,13.4,6.2V5h-1.8v1.3C9,6.9,9,9.2,9,9.3
		c0,2.3,2.2,2.9,3.3,3.3c1.6,0.6,2.3,1.1,2.3,2c0,1.1-1.1,1.6-2,1.6c-1.8,0-2.3-1.9-2.4-2.1l-1.7,0.7c0.6,2.2,2.3,2.8,3,3V19H12.8z"
		/>
	<path d="M12.7,20h-0.1c-4.4,0-8-3.6-8-8s3.6-8,8-8c4,0,7.3,3,7.9,6.8l1.7-1.7C20.9,5,17.1,2,12.6,2C7,2,2.6,6.5,2.6,12
		s4.4,9.9,9.9,10L12.7,20z"/>
</g>
<polygon points="13.9,18.9 13.5,22 16.6,21.6 25.3,12.9 22.6,10.2 "/>
<rect x="23.9" y="8.2" transform="matrix(0.7071 -0.7071 0.7071 0.7071 0.2433 20.8539)" width="2.8" height="3.9"/>
<g class="st0">
	<path d="M31.2,8h-0.4v1.7H28v-8h3.2c1.3,0,2.2,0.2,2.8,0.7s0.9,1.3,0.9,2.5s-0.3,2-0.9,2.5S32.4,8,31.2,8z M30.8,5.8h0.3
		c0.3,0,0.6-0.1,0.7-0.2S32,5.2,32,4.8c0-0.4-0.1-0.6-0.2-0.7c-0.1-0.1-0.4-0.2-0.8-0.2h-0.3V5.8z"/>
	<path d="M41.1,5.6v2.3C41.2,8,41.3,8,41.4,8l0,1.7c-0.6,0.1-1.1,0.1-1.3,0.1c-0.2,0-0.4,0-0.6-0.1c-0.2-0.1-0.3-0.1-0.4-0.2
		l-0.1-0.1c-0.5,0.3-1.1,0.4-1.8,0.4s-1.2-0.2-1.6-0.5C35.2,9.1,35,8.6,35,7.8c0-0.7,0.2-1.2,0.6-1.4C36,6.2,36.7,6,37.5,6l0.9,0
		V5.8c0-0.2-0.2-0.2-0.5-0.2c-0.7,0-1.5,0-2.2,0.1l-0.4,0l-0.1-1.8c1.1-0.3,2-0.4,2.9-0.4c0.9,0,1.6,0.1,2.1,0.4
		C40.8,4.2,41.1,4.8,41.1,5.6z M38,8c0.2,0,0.3-0.1,0.5-0.2V7.4l-0.4,0c-0.2,0-0.3,0.1-0.3,0.3C37.7,8,37.8,8,38,8z"/>
	<path d="M42.6,12.1c-0.6-0.2-1-0.7-1-1.4c0-0.3,0.1-0.5,0.2-0.8c0.1-0.2,0.3-0.4,0.6-0.7C42.1,9.1,42,8.8,42,8.4
		C42,8.3,42,8.2,42.2,8c0.1-0.1,0.2-0.3,0.4-0.4l0.2-0.2c-0.6-0.3-1-0.9-1-1.7c0-0.8,0.2-1.4,0.7-1.8c0.5-0.3,1.2-0.5,2.3-0.5
		c0.3,0,0.6,0,1,0.1l0.2,0l2.2,0v1.6h-0.6c0.1,0.2,0.1,0.4,0.1,0.5c0,0.9-0.2,1.4-0.7,1.7c-0.4,0.3-1.2,0.4-2.2,0.4
		c-0.2,0-0.3,0-0.5,0c0,0,0,0.1,0,0.1c0,0.1,0.5,0.1,1.4,0.1s1.6,0.1,1.9,0.4c0.3,0.3,0.5,0.8,0.5,1.5s-0.3,1.3-0.8,1.7
		c-0.5,0.4-1.3,0.6-2.3,0.6S43.2,12.3,42.6,12.1z M43.8,10.4c0,0.1,0.3,0.2,0.9,0.2s0.9-0.1,0.9-0.2c0-0.1-0.1-0.1-0.2-0.1
		c-0.1,0-0.3,0-0.6,0l-0.9,0C43.9,10.2,43.8,10.2,43.8,10.4z M44.3,6c0.1,0.1,0.2,0.1,0.4,0.1s0.3,0,0.4-0.1
		c0.1-0.1,0.1-0.2,0.1-0.3c0-0.2,0-0.3-0.1-0.3c-0.1-0.1-0.2-0.1-0.4-0.1s-0.3,0-0.4,0.1c-0.1,0.1-0.1,0.2-0.1,0.3
		C44.2,5.8,44.3,5.9,44.3,6z"/>
	<path d="M54.5,5.6v2.3C54.5,8,54.6,8,54.8,8l0,1.7c-0.6,0.1-1.1,0.1-1.3,0.1c-0.2,0-0.4,0-0.6-0.1c-0.2-0.1-0.3-0.1-0.4-0.2
		l-0.1-0.1c-0.5,0.3-1.1,0.4-1.8,0.4s-1.2-0.2-1.6-0.5s-0.5-0.8-0.5-1.6c0-0.7,0.2-1.2,0.6-1.4S50,6,50.9,6l0.9,0V5.8
		c0-0.2-0.2-0.2-0.5-0.2c-0.7,0-1.5,0-2.2,0.1l-0.4,0l-0.1-1.8c1.1-0.3,2-0.4,2.9-0.4c0.9,0,1.6,0.1,2.1,0.4
		C54.2,4.2,54.5,4.8,54.5,5.6z M51.3,8c0.2,0,0.3-0.1,0.5-0.2V7.4l-0.4,0c-0.2,0-0.3,0.1-0.3,0.3C51.1,8,51.1,8,51.3,8z"/>
	<path d="M58,9.7h-2.7V3.7h2.7V4c0.5-0.3,1-0.5,1.6-0.5s0.9,0.2,1.3,0.5c0.6-0.4,1.2-0.5,1.8-0.5c0.9,0,1.6,0.2,1.9,0.8
		C64.8,4.8,65,5.6,65,6.7v3.1h-2.7V7c0-0.8-0.1-1.2-0.4-1.2l-0.5,0.1c0.1,0.2,0.1,0.5,0.1,1v2.8h-2.7V7c0-0.8-0.1-1.2-0.4-1.2
		L58,5.9V9.7z"/>
	<path d="M68.1,7.5c0,0.3,0.2,0.4,0.5,0.4c0.8,0,1.6,0,2.4-0.1l0.5,0l0.1,1.7c-1.1,0.2-2.1,0.3-3.2,0.3c-1.1,0-1.8-0.2-2.3-0.7
		c-0.5-0.5-0.7-1.3-0.7-2.4s0.3-1.9,0.8-2.5s1.3-0.8,2.4-0.8c1.1,0,1.9,0.2,2.4,0.7c0.5,0.5,0.8,1.2,0.8,2.1l-0.1,1.2H68.1z M69,6
		c0-0.2,0-0.4-0.1-0.5c-0.1-0.1-0.2-0.1-0.4-0.1s-0.3,0-0.3,0.1c-0.1,0.1-0.1,0.3-0.1,0.5H69z"/>
	<path d="M74.9,9.7h-2.7V3.7h2.7V4c0.5-0.3,0.9-0.5,1.3-0.5c0.9,0,1.5,0.2,1.8,0.7c0.3,0.5,0.5,1.3,0.5,2.5v3h-2.7V6.9
		c0-0.7-0.1-1-0.4-1l-0.5,0.1V9.7z"/>
	<path d="M82.1,5.9v1.2c0,0.2,0,0.3,0.1,0.4c0.1,0.1,0.2,0.1,0.3,0.1l0.5,0l0,2.1c-0.7,0.1-1.2,0.2-1.6,0.2c-0.7,0-1.3-0.2-1.6-0.5
		c-0.3-0.3-0.5-0.9-0.5-1.7V5.9h-0.5V3.7h0.5V2.5h2.7v1.2h1v2.2H82.1z"/>
	<path d="M83.6,3.3V1.5h2.7v1.8H83.6z M83.6,9.7V3.7h2.7v6.1H83.6z"/>
</g>
</svg>
