<?xml version="1.0" encoding="utf-8"?>
<!-- Generator: Adobe Illustrator 26.0.0, SVG Export Plug-In . SVG Version: 6.00 Build 0)  -->
<svg version="1.1" id="Layer_1" xmlns="http://www.w3.org/2000/svg" xmlns:xlink="http://www.w3.org/1999/xlink" x="0px" y="0px"
	 viewBox="0 0 36 24" style="enable-background:new 0 0 36 24;" xml:space="preserve">
<g>
	<path d="M12.6,2C7,2,2.6,6.5,2.6,12s4.5,10,10,10s10-4.5,10-10S18.1,2,12.6,2z M12.6,20c-4.4,0-8-3.6-8-8s3.6-8,8-8s8,3.6,8,8
		S17,20,12.6,20z M13.4,11.1c-1.8-0.6-2.6-1-2.6-1.9c0-1,1.1-1.4,1.8-1.4c1.3,0,1.8,1,1.9,1.3l1.6-0.7C16,8,15.3,6.5,13.4,6.2V5
		h-1.8v1.3C9,6.9,9,9.2,9,9.3c0,2.3,2.2,2.9,3.3,3.3c1.6,0.6,2.3,1.1,2.3,2c0,1.1-1.1,1.6-2,1.6c-1.8,0-2.3-1.9-2.4-2.1l-1.7,0.7
		c0.6,2.2,2.3,2.8,3,3V19h1.8v-1.2c0.5-0.1,3-0.6,3-3.2C16.5,13.1,15.8,11.9,13.4,11.1z"/>
</g>
<rect x="25.6" y="16" width="8.8" height="2"/>
<polygon points="34.4,11 25.6,11 25.6,11.2 25.6,11.2 25.6,11.2 25.6,13 34.4,13 "/>
<rect x="25.6" y="6" width="8.8" height="2"/>
</svg>
