<?xml version="1.0" encoding="utf-8"?>
<!-- Generator: Adobe Illustrator 25.4.1, SVG Export Plug-In . SVG Version: 6.00 Build 0)  -->
<svg version="1.1" id="Layer_1" xmlns="http://www.w3.org/2000/svg" xmlns:xlink="http://www.w3.org/1999/xlink" x="0px" y="0px"
	 viewBox="0 0 36 24" style="enable-background:new 0 0 36 24;" xml:space="preserve">
<path d="M13.3,19v-1.2c0.1,0,0.4-0.1,0.7-0.2c-0.4-0.4-0.8-0.9-1.1-1.4c-0.1,0-0.2,0-0.3,0c-1.8,0-2.3-1.9-2.4-2.1l-1.7,0.7
	c0.6,2.2,2.3,2.8,3,3V19H13.3z"/>
<path d="M11.6,5v1.3C9,6.9,9,9.2,9,9.3c0,1.9,1.5,2.6,2.6,3.1c0-0.2,0-0.4,0-0.6c0-0.5,0-0.9,0.1-1.4c-0.6-0.3-0.9-0.7-0.9-1.2
	c0-1,1.1-1.4,1.8-1.4c0,0,0,0,0,0c0.3-0.6,0.7-1.1,1.1-1.5c-0.1,0-0.2-0.1-0.3-0.1V5H11.6z"/>
<path d="M16.1,19.2c-1.1,0.5-2.3,0.8-3.5,0.8c-4.4,0-8-3.6-8-8s3.6-8,8-8c1.1,0,2.2,0.2,3.1,0.7c0.8-0.4,1.6-0.8,2.4-0.9
	C16.6,2.6,14.7,2,12.6,2C7,2,2.6,6.5,2.6,12s4.5,10,10,10c2.3,0,4.4-0.8,6-2.1C17.8,19.8,16.9,19.5,16.1,19.2z"/>
<path d="M23.2,11.2v1.1c0,0.2-0.2,0.4-0.4,0.4h-1.9v1.9c0,0.2-0.2,0.4-0.4,0.4h-1.1c-0.2,0-0.4-0.2-0.4-0.4v-1.9h-1.9
	c-0.2,0-0.4-0.2-0.4-0.4v-1.1c0-0.2,0.2-0.4,0.4-0.4h1.9V8.9c0-0.2,0.2-0.4,0.4-0.4h1.1c0.2,0,0.4,0.2,0.4,0.4v1.9h1.9
	C23,10.8,23.2,11,23.2,11.2z M30.2,21.2l-1,1c-0.3,0.3-0.9,0.3-1.2,0l-3.5-3.5c-0.2-0.2-0.2-0.4-0.2-0.6v-0.6
	c-1.2,1-2.8,1.5-4.5,1.5c-4,0-7.2-3.2-7.2-7.2s3.2-7.2,7.2-7.2s7.2,3.2,7.2,7.2c0,1.7-0.6,3.2-1.5,4.5h0.6c0.2,0,0.4,0.1,0.6,0.2
	l3.5,3.5C30.5,20.3,30.5,20.8,30.2,21.2z M24.6,11.8c0-2.6-2.1-4.7-4.7-4.7s-4.7,2.1-4.7,4.7s2.1,4.7,4.7,4.7S24.6,14.4,24.6,11.8z"
	/>
</svg>
