<?xml version="1.0" encoding="utf-8"?>
<!-- Generator: Adobe Illustrator 26.0.3, SVG Export Plug-In . SVG Version: 6.00 Build 0)  -->
<svg version="1.1" id="Layer_1" xmlns="http://www.w3.org/2000/svg" xmlns:xlink="http://www.w3.org/1999/xlink" x="0px" y="0px"
	 viewBox="0 0 36 24" style="enable-background:new 0 0 36 24;" xml:space="preserve">
<style type="text/css">
	.st0{fill:none;stroke:#000000;stroke-width:3;stroke-miterlimit:10;}
</style>
<g>
	<path d="M18,4c4.4,0,8,3.6,8,8s-3.6,8-8,8c-1.7,0-3.2-0.5-4.6-1.4l-0.7-0.5l-0.8,0.2c-0.4,0.1-0.7,0.2-1.1,0.2
		c0.1-0.4,0.3-0.8,0.4-1.1l0.3-0.8L11,15.8c-0.6-1.2-1-2.5-1-3.8C10,7.6,13.6,4,18,4 M18,2C12.5,2,8,6.5,8,12c0,1.7,0.4,3.3,1.2,4.7
		c-0.5,1.3-1.5,4.4-1.5,4.4s2.8-0.6,4.6-0.9c1.6,1.1,3.6,1.8,5.7,1.8c5.5,0,10-4.5,10-10S23.5,2,18,2L18,2z"/>
</g>
<line class="st0" x1="16.4" y1="5.3" x2="18.3" y2="13.3"/>
<circle cx="19" cy="16.4" r="2"/>
</svg>
