<?xml version="1.0" encoding="utf-8"?>
<!-- Generator: Adobe Illustrator 26.0.3, SVG Export Plug-In . SVG Version: 6.00 Build 0)  -->
<svg version="1.1" id="Layer_1" xmlns="http://www.w3.org/2000/svg" xmlns:xlink="http://www.w3.org/1999/xlink" x="0px" y="0px"
	 viewBox="0 0 90 24" style="enable-background:new 0 0 90 24;" xml:space="preserve">
<style type="text/css">
	.st0{fill:none;}
	.st1{fill:none;stroke:#000000;stroke-width:3;stroke-miterlimit:10;}
	.st2{font-family:'TitilliumWeb-Black';}
	.st3{font-size:12px;}
</style>
<path class="st0" d="M-2.1,0.6h24v24h-24C-2.1,24.6-2.1,0.6-2.1,0.6z"/>
<polygon points="14.5,17.7 14.2,20.9 17.3,20.5 26,11.8 23.2,9 "/>
<rect x="24.6" y="7.1" transform="matrix(0.7071 -0.7071 0.7071 0.7071 1.216 21.0385)" width="2.8" height="3.9"/>
<path d="M13.3,20c-0.3,0-0.5,0-0.8,0c-1.7,0-3.2-0.5-4.6-1.4l-0.7-0.5l-0.8,0.2c-0.4,0.1-0.7,0.2-1.1,0.2c0.1-0.4,0.3-0.8,0.4-1.1
	L6,16.6l-0.4-0.8c-0.6-1.2-1-2.5-1-3.8c0-4.4,3.6-8,8-8c3.9,0,7.1,2.8,7.8,6.4L22,8.8c-1.3-4-5.1-6.8-9.5-6.8C7,2,2.5,6.5,2.5,12
	c0,1.7,0.4,3.3,1.2,4.7c-0.5,1.3-1.5,4.4-1.5,4.4s2.8-0.6,4.6-0.9c1.6,1.1,3.6,1.8,5.7,1.8c0.2,0,0.4,0,0.6,0L13.3,20z"/>
<line class="st1" x1="11" y1="5.3" x2="12.9" y2="13.3"/>
<path d="M13.5,17.2l1.8-1.8c-0.3-0.5-1-0.9-1.7-0.9c-1.1,0-2,0.9-2,2c0,1,0.7,1.8,1.7,1.9L13.5,17.2z"/>
<text transform="matrix(1 0 0 1 29.7586 11.3431)" class="st2 st3">Nota</text>
</svg>
