<?xml version="1.0" encoding="utf-8"?>
<!-- Generator: Adobe Illustrator 26.0.3, SVG Export Plug-In . SVG Version: 6.00 Build 0)  -->
<svg version="1.1" id="Layer_1" xmlns="http://www.w3.org/2000/svg" xmlns:xlink="http://www.w3.org/1999/xlink" x="0px" y="0px"
	 viewBox="0 0 90 24" style="enable-background:new 0 0 90 24;" xml:space="preserve">
<style type="text/css">
	.st0{fill:none;}
	.st1{fill:none;stroke:#000000;stroke-width:3;stroke-miterlimit:10;}
	.st2{enable-background:new    ;}
</style>
<path class="st0" d="M-2.1,0.6h24v24h-24C-2.1,24.6-2.1,0.6-2.1,0.6z"/>
<polygon points="14.5,17.7 14.2,20.9 17.3,20.5 26,11.8 23.2,9 "/>
<rect x="24.6" y="7.1" transform="matrix(0.7071 -0.7071 0.7071 0.7071 1.2136 21.0363)" width="2.8" height="3.9"/>
<path d="M13.3,20c-0.3,0-0.5,0-0.8,0c-1.7,0-3.2-0.5-4.6-1.4l-0.7-0.5l-0.8,0.2c-0.4,0.1-0.7,0.2-1.1,0.2c0.1-0.4,0.3-0.8,0.4-1.1
	L6,16.6l-0.4-0.8c-0.6-1.2-1-2.5-1-3.8c0-4.4,3.6-8,8-8c3.9,0,7.1,2.8,7.8,6.4L22,8.8c-1.3-4-5.1-6.8-9.5-6.8C7,2,2.5,6.5,2.5,12
	c0,1.7,0.4,3.3,1.2,4.7c-0.5,1.3-1.5,4.4-1.5,4.4s2.8-0.6,4.6-0.9c1.6,1.1,3.6,1.8,5.7,1.8c0.2,0,0.4,0,0.6,0L13.3,20z"/>
<line class="st1" x1="11" y1="5.3" x2="12.9" y2="13.3"/>
<path d="M13.5,17.2l1.8-1.8c-0.3-0.5-1-0.9-1.7-0.9c-1.1,0-2,0.9-2,2c0,1,0.7,1.8,1.7,1.9L13.5,17.2z"/>
<g class="st2">
	<path d="M30.1,11.3v-8h2.7l1.8,3h0.2v-3h2.8v8h-2.7l-1.8-3.3h-0.2v3.3H30.1z"/>
	<path d="M39,5.9c0.5-0.5,1.3-0.8,2.4-0.8c1.1,0,1.9,0.2,2.4,0.8c0.5,0.5,0.8,1.3,0.8,2.4s-0.3,1.9-0.8,2.4
		c-0.5,0.5-1.3,0.7-2.4,0.7c-1.1,0-1.9-0.2-2.4-0.7c-0.5-0.5-0.8-1.3-0.8-2.4S38.5,6.4,39,5.9z M41,9.1c0.1,0.1,0.2,0.2,0.4,0.2
		s0.3-0.1,0.4-0.2c0.1-0.1,0.1-0.4,0.1-0.8c0-0.4,0-0.7-0.1-0.8c-0.1-0.1-0.2-0.2-0.4-0.2S41.1,7.4,41,7.5c-0.1,0.1-0.1,0.4-0.1,0.8
		C40.9,8.7,40.9,9,41,9.1z"/>
	<path d="M48.1,7.5v1.2c0,0.2,0,0.3,0.1,0.4c0.1,0.1,0.2,0.1,0.3,0.1l0.5,0l0,2.1c-0.7,0.1-1.2,0.2-1.6,0.2c-0.7,0-1.3-0.2-1.6-0.5
		c-0.3-0.3-0.5-0.9-0.5-1.7V7.5h-0.5V5.3h0.5V4.1h2.7v1.2h1v2.2H48.1z"/>
	<path d="M55.5,7.2v2.3c0.1,0.1,0.2,0.1,0.3,0.1l0,1.7c-0.6,0.1-1.1,0.1-1.3,0.1s-0.4,0-0.6-0.1c-0.2-0.1-0.3-0.1-0.4-0.2l-0.1-0.1
		c-0.5,0.3-1.1,0.4-1.8,0.4s-1.2-0.2-1.6-0.5c-0.4-0.3-0.5-0.8-0.5-1.6c0-0.7,0.2-1.2,0.6-1.4c0.4-0.2,1.1-0.4,1.9-0.4l0.9,0V7.4
		c0-0.2-0.2-0.2-0.5-0.2c-0.7,0-1.5,0-2.2,0.1l-0.4,0l-0.1-1.8c1.1-0.3,2-0.4,2.9-0.4c0.9,0,1.6,0.1,2.1,0.4
		C55.2,5.8,55.5,6.4,55.5,7.2z M52.3,9.7c0.2,0,0.3-0.1,0.5-0.2V9l-0.4,0c-0.2,0-0.3,0.1-0.3,0.3C52,9.6,52.1,9.7,52.3,9.7z"/>
</g>
</svg>
