<?xml version="1.0" encoding="utf-8"?>
<!-- Generator: Adobe Illustrator 26.0.3, SVG Export Plug-In . SVG Version: 6.00 Build 0)  -->
<svg version="1.1" id="Layer_1" xmlns="http://www.w3.org/2000/svg" xmlns:xlink="http://www.w3.org/1999/xlink" x="0px" y="0px"
	 viewBox="0 0 36 24" style="enable-background:new 0 0 36 24;" xml:space="preserve">
<style type="text/css">
	.st0{fill:none;stroke:#000000;stroke-width:2;stroke-miterlimit:10;}
</style>
<path d="M18,2C12.5,2,8,6.5,8,12s4.5,10,10,10s10-4.5,10-10S23.5,2,18,2z M18,20c-4.4,0-8-3.6-8-8s3.6-8,8-8s8,3.6,8,8
	S22.4,20,18,20z M21,12c0,1.7-1.3,3-3,3s-3-1.3-3-3s1.3-3,3-3S21,10.3,21,12z"/>
<circle class="st0" cx="18" cy="12" r="5.7"/>
</svg>
