<?xml version="1.0" encoding="utf-8"?>
<!-- Generator: Adobe Illustrator 26.0.3, SVG Export Plug-In . SVG Version: 6.00 Build 0)  -->
<svg version="1.1" id="Layer_1" xmlns="http://www.w3.org/2000/svg" xmlns:xlink="http://www.w3.org/1999/xlink" x="0px" y="0px"
	 viewBox="0 0 36 24" style="enable-background:new 0 0 36 24;" xml:space="preserve">
<path d="M18,2.6c-5.2,0-9.4,4.2-9.4,9.4s4.2,9.4,9.4,9.4s9.4-4.2,9.4-9.4S23.2,2.6,18,2.6z M18,19.5c-4.1,0-7.5-3.4-7.5-7.5
	s3.4-7.5,7.5-7.5s7.5,3.4,7.5,7.5S22.1,19.5,18,19.5z M20.8,12c0,1.6-1.2,2.8-2.8,2.8s-2.8-1.2-2.8-2.8s1.2-2.8,2.8-2.8
	S20.8,10.4,20.8,12z"/>
<path d="M18,18.5c-3.6,0-6.5-2.9-6.5-6.5c0-3.6,2.9-6.5,6.5-6.5c3.6,0,6.5,2.9,6.5,6.5C24.5,15.6,21.6,18.5,18,18.5z M18,7.8
	c-2.3,0-4.2,1.9-4.2,4.2c0,2.3,1.9,4.2,4.2,4.2c2.3,0,4.2-1.9,4.2-4.2C22.2,9.7,20.3,7.8,18,7.8z"/>
</svg>
