<?xml version="1.0" encoding="utf-8"?>
<!-- Generator: Adobe Illustrator 26.0.3, SVG Export Plug-In . SVG Version: 6.00 Build 0)  -->
<svg version="1.1" id="Layer_1" xmlns="http://www.w3.org/2000/svg" xmlns:xlink="http://www.w3.org/1999/xlink" x="0px" y="0px"
	 viewBox="0 0 36 24" style="enable-background:new 0 0 36 24;" xml:space="preserve">
<path d="M18.3,18.5l0.2-1.8l0.5-0.5c-0.3,0.1-0.6,0.1-1,0.1c-2.3,0-4.2-1.9-4.2-4.2c0-2.3,1.9-4.2,4.2-4.2c2.3,0,4.2,1.9,4.2,4.2
	c0,0.3-0.1,0.7-0.1,1l2.3-2.3c-0.6-3-3.2-5.2-6.4-5.2c-3.6,0-6.5,2.9-6.5,6.5c0,3.6,2.9,6.5,6.5,6.5C18.1,18.5,18.2,18.5,18.3,18.5z
	"/>
<polygon points="19.4,17.1 19.1,20.3 22.2,19.9 30.9,11.2 28.1,8.4 "/>
<rect x="29.5" y="6.5" transform="matrix(0.7071 -0.7071 0.7071 0.7071 3.0904 24.3126)" width="2.8" height="3.9"/>
<circle cx="18" cy="12" r="2.8"/>
<path d="M18.2,19.5c-0.1,0-0.1,0-0.2,0c-4.1,0-7.5-3.4-7.5-7.5s3.4-7.5,7.5-7.5c3.4,0,6.3,2.3,7.2,5.4l1.5-1.5
	C25.3,5,21.9,2.6,18,2.6c-5.2,0-9.4,4.2-9.4,9.4c0,5.2,4.2,9.4,9.4,9.4L18.2,19.5z"/>
</svg>
