<?xml version="1.0" encoding="utf-8"?>
<!-- Generator: Adobe Illustrator 26.0.3, SVG Export Plug-In . SVG Version: 6.00 Build 0)  -->
<svg version="1.1" id="Layer_1" xmlns="http://www.w3.org/2000/svg" xmlns:xlink="http://www.w3.org/1999/xlink" x="0px" y="0px"
	 viewBox="0 0 36 24" style="enable-background:new 0 0 36 24;" xml:space="preserve">
<path d="M22.4,4.1c-5.2,0-9.4,4.2-9.4,9.4s4.2,9.4,9.4,9.4s9.4-4.2,9.4-9.4S27.6,4.1,22.4,4.1z M22.4,21c-4.1,0-7.5-3.4-7.5-7.5
	S18.3,6,22.4,6s7.5,3.4,7.5,7.5S26.5,21,22.4,21z M25.2,13.5c0,1.6-1.2,2.8-2.8,2.8s-2.8-1.2-2.8-2.8s1.2-2.8,2.8-2.8
	S25.2,11.9,25.2,13.5z"/>
<path d="M22.4,20c-3.6,0-6.5-2.9-6.5-6.5S18.8,7,22.4,7s6.5,2.9,6.5,6.5S26,20,22.4,20z M22.4,9.3c-2.3,0-4.2,1.9-4.2,4.2
	s1.9,4.2,4.2,4.2s4.2-1.9,4.2-4.2S24.7,9.3,22.4,9.3z"/>
<path d="M12,13.5c0-0.3,0-0.5,0-0.8c-0.2-0.5-0.3-1.1-0.3-1.6c0-1.6,1-3.1,2.4-3.8c0.8-1.1,1.8-2,2.9-2.7c-0.3-0.1-0.7-0.1-1.1-0.1
	c-3.6,0-6.5,2.9-6.5,6.5c0,2.3,1.2,4.4,3.1,5.5C12.2,15.6,12,14.5,12,13.5z"/>
<path d="M13.1,17.9c-2.7-1.1-4.6-3.8-4.6-6.9c0-4.1,3.4-7.5,7.5-7.5c0.8,0,1.6,0.1,2.4,0.4c0.9-0.4,1.8-0.6,2.8-0.8
	c-1.5-1-3.2-1.5-5.2-1.5c-5.2,0-9.4,4.2-9.4,9.4c0,4.8,3.5,8.7,8.1,9.3C14,19.6,13.5,18.8,13.1,17.9z"/>
</svg>
