<?xml version="1.0" encoding="utf-8"?>
<!-- Generator: Adobe Illustrator 26.0.3, SVG Export Plug-In . SVG Version: 6.00 Build 0)  -->
<svg version="1.1" id="Layer_1" xmlns="http://www.w3.org/2000/svg" xmlns:xlink="http://www.w3.org/1999/xlink" x="0px" y="0px"
	 viewBox="0 0 100 24" style="enable-background:new 0 0 100 24;" xml:space="preserve">
<style type="text/css">
	.st0{enable-background:new    ;}
</style>
<polygon points="14.5,17.7 14.2,20.9 17.3,20.5 26,11.8 23.2,9 "/>
<rect x="24.6" y="7.1" transform="matrix(0.7071 -0.7071 0.7071 0.7071 1.2164 21.0339)" width="2.8" height="3.9"/>
<g class="st0">
	<path d="M37.6,7.3c0,1.5-0.3,2.5-0.9,3.2s-1.6,1-2.9,1s-2.3-0.3-2.9-1C30.3,9.8,30,8.8,30,7.3s0.3-2.5,0.9-3.2s1.6-1,2.9-1
		s2.3,0.3,2.9,1S37.6,5.9,37.6,7.3z M32.8,7.3c0,0.7,0.1,1.2,0.2,1.5c0.1,0.3,0.4,0.5,0.8,0.5s0.7-0.1,0.8-0.4
		c0.1-0.3,0.2-0.8,0.2-1.5c0-0.7-0.1-1.2-0.2-1.5s-0.4-0.4-0.8-0.4c-0.4,0-0.7,0.2-0.8,0.5C32.8,6.2,32.8,6.6,32.8,7.3z"/>
	<path d="M40.8,11.3h-2.7V5.3h2.7v0.6c0.5-0.5,0.9-0.7,1.3-0.7v2.5c-0.3,0-0.6,0.1-1.1,0.3l-0.2,0.1V11.3z"/>
	<path d="M48.4,7.2v2.3c0.1,0.1,0.2,0.1,0.3,0.1l0,1.7c-0.6,0.1-1.1,0.1-1.3,0.1c-0.2,0-0.4,0-0.6-0.1c-0.2-0.1-0.3-0.1-0.4-0.2
		l-0.1-0.1c-0.5,0.3-1.1,0.4-1.8,0.4s-1.2-0.2-1.6-0.5c-0.4-0.3-0.5-0.8-0.5-1.6c0-0.7,0.2-1.2,0.6-1.4c0.4-0.2,1.1-0.4,1.9-0.4
		l0.9,0V7.4c0-0.2-0.2-0.2-0.5-0.2c-0.7,0-1.5,0-2.2,0.1l-0.4,0l-0.1-1.8c1.1-0.3,2-0.4,2.9-0.4c0.9,0,1.6,0.1,2.1,0.4
		C48.2,5.8,48.4,6.4,48.4,7.2z M45.3,9.7c0.2,0,0.3-0.1,0.5-0.2V9l-0.4,0c-0.2,0-0.3,0.1-0.3,0.3C45,9.6,45.1,9.7,45.3,9.7z"/>
	<path d="M49.2,11.3V3.1h2.7v8.3H49.2z"/>
	<path d="M55.1,9.1c0,0.3,0.2,0.4,0.5,0.4c0.8,0,1.6,0,2.4-0.1l0.5,0l0.1,1.7c-1.1,0.2-2.1,0.3-3.2,0.3c-1.1,0-1.8-0.2-2.3-0.7
		c-0.5-0.5-0.7-1.3-0.7-2.4s0.3-1.9,0.8-2.5s1.3-0.8,2.4-0.8c1.1,0,1.9,0.2,2.4,0.7c0.5,0.5,0.8,1.2,0.8,2.1l-0.1,1.2H55.1z M56,7.6
		c0-0.2,0-0.4-0.1-0.5C55.9,7,55.7,7,55.6,7s-0.3,0-0.3,0.1c-0.1,0.1-0.1,0.3-0.1,0.5H56z"/>
</g>
<rect x="2.4" y="9.9" width="5.5" height="11"/>
<polygon points="13.5,17.2 14.9,15.9 14.9,3 9.4,3 9.4,20.8 13.2,20.8 "/>
<polygon points="22,8.8 22,6.4 16.5,6.4 16.5,14.3 "/>
</svg>
