<?xml version="1.0" encoding="utf-8"?>
<!-- Generator: Adobe Illustrator 26.0.0, SVG Export Plug-In . SVG Version: 6.00 Build 0)  -->
<svg version="1.1" id="Layer_1" xmlns="http://www.w3.org/2000/svg" xmlns:xlink="http://www.w3.org/1999/xlink" x="0px" y="0px"
	 viewBox="0 0 36 24" style="enable-background:new 0 0 36 24;" xml:space="preserve">
<style type="text/css">
	.st0{fill:none;stroke:#000000;stroke-width:1.4;stroke-linecap:round;stroke-linejoin:round;stroke-miterlimit:10;}
</style>
<g>
	<path d="M13.3,1.2c-2.5,0-4.5,2-4.5,4.5s2,4.5,4.5,4.5s4.5-2,4.5-4.5S15.8,1.2,13.3,1.2z M13.3,9.3c-2,0-3.6-1.6-3.6-3.6
		s1.6-3.6,3.6-3.6s3.6,1.6,3.6,3.6S15.3,9.3,13.3,9.3z M13.7,5.3c-0.8-0.3-1.2-0.4-1.2-0.9c0-0.4,0.5-0.6,0.8-0.6
		c0.6,0,0.8,0.5,0.9,0.6l0.7-0.3c0-0.2-0.4-0.9-1.2-1V2.6h-0.8v0.6c-1.2,0.3-1.2,1.3-1.2,1.4c0,1,1,1.3,1.5,1.5c0.7,0.3,1,0.5,1,0.9
		c0,0.5-0.5,0.7-0.9,0.7c-0.8,0-1-0.9-1.1-0.9L11.5,7c0.3,1,1,1.3,1.3,1.3v0.5h0.8V8.3c0.2,0,1.3-0.3,1.3-1.4
		C15.1,6.2,14.7,5.7,13.7,5.3z"/>
</g>
<path class="st0" d="M5.7,12.8c0,0,1.7-0.7,3-0.9s6.2,1.5,7.5,2.1c1.3,0.7,1.4,2.6,0,2.9s-5.6-0.5-5.6-0.5"/>
<path class="st0" d="M5,18.7c0,0,8.1,2,9.3,1.9c1.2-0.1,10.5-6.7,10.5-6.7c1.6-1.3-0.8-2.9-1.8-2.2c-1.2-1-3.2-0.2-3.2-0.2
	s-0.7-0.9-2-0.3s-3.6,2-3.6,2"/>
<line class="st0" x1="18.2" y1="14.5" x2="23" y2="11.6"/>
<line class="st0" x1="16.8" y1="13.2" x2="19.8" y2="11.4"/>
<rect x="1.9" y="10.3" transform="matrix(0.9948 0.1017 -0.1017 0.9948 1.5654 -0.2835)" class="st0" width="3.2" height="9.9"/>
</svg>
