<?xml version="1.0" encoding="utf-8"?>
<!-- Generator: Adobe Illustrator 26.0.3, SVG Export Plug-In . SVG Version: 6.00 Build 0)  -->
<svg version="1.1" id="Layer_1" xmlns="http://www.w3.org/2000/svg" xmlns:xlink="http://www.w3.org/1999/xlink" x="0px" y="0px"
	 viewBox="0 0 400 400" style="enable-background:new 0 0 400 400;" xml:space="preserve">
<style type="text/css">
	.st0{stroke:#000000;stroke-width:20;stroke-miterlimit:10;}
	.st1{fill:#FFFFFF;}
</style>
<path class="st0" d="M-404-90"/>
<polygon points="504,350.8 504,155 669.4,155 669.4,175 524,175 524,330.8 734.1,330.8 734.1,239.7 754.1,239.7 754.1,350.8 "/>
<polygon points="609.1,155 629.1,155 629.1,59 518,59 518,79 609.1,79 "/>
<polygon points="504,289.1 453.3,289.1 453.3,143.7 433.3,143.7 433.3,309.1 504,309.1 "/>
<g>
	<path d="M734.3,172.1c-3.6,0-6.7-2.8-7-6.4c-1.8-20.8-9.9-36.8-24.3-47.4c-12.6-9.3-29.6-14.3-49.2-14.3c-3.9,0-7-3.1-7-7
		s3.1-7,7-7c22.6,0,42.5,5.9,57.5,17c17.5,13,27.9,32.8,29.9,57.5c0.3,3.9-2.5,7.2-6.4,7.6C734.7,172.1,734.5,172.1,734.3,172.1z"/>
	<g>
		<polygon points="758.7,161.7 709.4,161.8 734.1,186.4 		"/>
	</g>
</g>
<polygon class="st1" points="115,386.9 115,183.8 286.6,183.8 286.6,204.6 135.8,204.6 135.8,366.2 353.7,366.2 353.7,271.7 
	374.5,271.7 374.5,386.9 "/>
<polygon class="st1" points="224,183.8 244.7,183.8 244.7,36.1 129.5,36.1 129.5,56.9 224,56.9 "/>
<polygon class="st1" points="115,274.8 62.4,274.8 62.4,124 41.6,124 41.6,295.6 115,295.6 "/>
<path class="st1" d="M115,71.2v38.3H76.7L115,71.2 M129.5,36.1L41.6,124h87.9V36.1L129.5,36.1z"/>
<g>
	<path d="M505.7,65.5v36.9h-36.9L505.7,65.5 M519.7,31.7L435,116.4h84.7V31.7L519.7,31.7z"/>
</g>
<path class="st1" d="M301.1,218.9l38.3,38.3h-38.3V218.9 M286.6,183.8v87.9h87.9L286.6,183.8L286.6,183.8z"/>
</svg>
