<?xml version="1.0" encoding="utf-8"?>
<!-- Generator: Adobe Illustrator 26.0.3, SVG Export Plug-In . SVG Version: 6.00 Build 0)  -->
<svg version="1.1" id="Layer_1" xmlns="http://www.w3.org/2000/svg" xmlns:xlink="http://www.w3.org/1999/xlink" x="0px" y="0px"
	 viewBox="0 0 36 24" style="enable-background:new 0 0 36 24;" xml:space="preserve">
<style type="text/css">
	.st0{stroke:#000000;stroke-width:2;stroke-linecap:round;stroke-miterlimit:10;}
	.st1{fill:#FFFFFF;stroke:#000000;stroke-width:2;stroke-linecap:round;stroke-miterlimit:10;}
</style>
<line class="st0" x1="8.4" y1="5.8" x2="27.6" y2="5.8"/>
<line class="st0" x1="-31.3" y1="5.8" x2="-12.2" y2="5.8"/>
<line class="st0" x1="-31.3" y1="12" x2="-12.2" y2="12"/>
<line class="st0" x1="-31.3" y1="18.2" x2="-12.2" y2="18.2"/>
<circle class="st1" cx="23.7" cy="5.8" r="2.4"/>
<path d="M12.8,15.4c-1.9,0-3.4-1.5-3.4-3.4s1.5-3.4,3.4-3.4s3.4,1.5,3.4,3.4S14.6,15.4,12.8,15.4z M12.8,10.6
	c-0.8,0-1.4,0.6-1.4,1.4s0.6,1.4,1.4,1.4s1.4-0.6,1.4-1.4S13.5,10.6,12.8,10.6z"/>
<polygon points="21,18.5 20.7,21.7 23.8,21.3 32.5,12.6 29.7,9.8 "/>
<rect x="31" y="7.9" transform="matrix(0.7071 -0.7071 0.7071 0.7071 2.5132 25.8402)" width="2.8" height="3.9"/>
<path d="M17.3,18.2c0-0.4,0.1-0.7,0.2-1h-9c-0.6,0-1,0.4-1,1s0.4,1,1,1h9C17.3,18.9,17.3,18.5,17.3,18.2z"/>
<path d="M19.9,19.4c-0.4-0.3-0.6-0.7-0.6-1.2c0-0.8,0.6-1.4,1.4-1.4c0.2,0,0.4,0,0.5,0.1l1.5-1.5c-0.6-0.4-1.2-0.6-2-0.6
	c-1.9,0-3.4,1.5-3.4,3.4c0,1.5,1,2.8,2.4,3.2L19.9,19.4z"/>
<path d="M9.4,12c0-0.4,0.1-0.7,0.2-1H8.4c-0.6,0-1,0.4-1,1s0.4,1,1,1h1.1C9.4,12.7,9.4,12.4,9.4,12z"/>
<path d="M25.1,13l2-2H16c0.1,0.3,0.2,0.6,0.2,1s-0.1,0.7-0.2,1H25.1z"/>
</svg>
