<?xml version="1.0" encoding="utf-8"?>
<!-- Generator: Adobe Illustrator 26.0.3, SVG Export Plug-In . SVG Version: 6.00 Build 0)  -->
<svg version="1.1" id="Layer_1" xmlns="http://www.w3.org/2000/svg" xmlns:xlink="http://www.w3.org/1999/xlink" x="0px" y="0px"
	 viewBox="0 0 101.4 24" style="enable-background:new 0 0 101.4 24;" xml:space="preserve">
<style type="text/css">
	.st0{stroke:#000000;stroke-width:2;stroke-linecap:round;stroke-miterlimit:10;}
	.st1{fill:#FFFFFF;stroke:#000000;stroke-width:2;stroke-linecap:round;stroke-miterlimit:10;}
</style>
<line class="st0" x1="3.6" y1="5.7" x2="22.8" y2="5.7"/>
<circle class="st1" cx="18.9" cy="5.7" r="2.4"/>
<path d="M7.9,15.3c-1.9,0-3.4-1.5-3.4-3.4s1.5-3.4,3.4-3.4s3.4,1.5,3.4,3.4S9.8,15.3,7.9,15.3z M7.9,10.5c-0.8,0-1.4,0.6-1.4,1.4
	s0.6,1.4,1.4,1.4s1.4-0.6,1.4-1.4S8.7,10.5,7.9,10.5z"/>
<polygon points="16.2,18.5 15.9,21.7 19,21.3 27.7,12.6 24.9,9.8 "/>
<rect x="26.2" y="7.9" transform="matrix(0.7071 -0.7071 0.7071 0.7071 1.1482 22.4148)" width="2.8" height="3.9"/>
<path d="M12.5,18.1c0-0.4,0.1-0.7,0.2-1h-9c-0.6,0-1,0.4-1,1s0.4,1,1,1h9C12.5,18.8,12.5,18.5,12.5,18.1z"/>
<path d="M15.1,19.3c-0.4-0.3-0.6-0.7-0.6-1.2c0-0.8,0.6-1.4,1.4-1.4c0.2,0,0.4,0,0.5,0.1l1.5-1.5c-0.6-0.4-1.2-0.6-2-0.6
	c-1.9,0-3.4,1.5-3.4,3.4c0,1.5,1,2.8,2.4,3.2L15.1,19.3z"/>
<path d="M4.5,11.9c0-0.4,0.1-0.7,0.2-1H3.6c-0.6,0-1,0.4-1,1s0.4,1,1,1h1.1C4.6,12.6,4.5,12.3,4.5,11.9z"/>
<path d="M20.3,12.9l2-2H11.2c0.1,0.3,0.2,0.6,0.2,1s-0.1,0.7-0.2,1H20.3z"/>
<g>
	<path d="M34.4,10.5h-0.5v2.1h-3.4V2.7h3.9c1.6,0,2.7,0.3,3.4,0.8s1.1,1.6,1.1,3.1s-0.4,2.5-1.1,3.1C37.1,10.2,35.9,10.5,34.4,10.5z
		 M33.9,7.8h0.3c0.4,0,0.7-0.1,0.9-0.3s0.3-0.5,0.3-1c0-0.5-0.1-0.8-0.3-0.9c-0.2-0.2-0.5-0.2-0.9-0.2h-0.3V7.8z"/>
	<path d="M46.6,7.5v2.8c0.1,0.1,0.2,0.1,0.4,0.2l0,2.1c-0.8,0.1-1.3,0.2-1.6,0.2c-0.3,0-0.5,0-0.8-0.1c-0.2-0.1-0.4-0.2-0.5-0.3
		l-0.1-0.1c-0.6,0.3-1.4,0.5-2.2,0.5s-1.5-0.2-2-0.6c-0.4-0.4-0.7-1-0.7-1.9c0-0.9,0.3-1.5,0.8-1.8C40.3,8.2,41.1,8,42.2,8l1.1,0
		V7.8c0-0.2-0.2-0.3-0.6-0.3c-0.9,0-1.8,0-2.7,0.1l-0.5,0l-0.1-2.2c1.3-0.3,2.5-0.5,3.6-0.5c1.1,0,2,0.2,2.6,0.5
		C46.3,5.8,46.6,6.5,46.6,7.5z M42.7,10.5c0.2,0,0.4-0.1,0.6-0.2V9.7l-0.5,0c-0.3,0-0.4,0.1-0.4,0.4C42.4,10.4,42.5,10.5,42.7,10.5z
		"/>
	<path d="M50.9,12.6h-3.3V5.1h3.3v0.7c0.6-0.6,1.1-0.9,1.6-0.9V8c-0.3,0-0.8,0.1-1.3,0.4l-0.3,0.1V12.6z"/>
	<path d="M60.3,7.5v2.8c0.1,0.1,0.2,0.1,0.4,0.2l0,2.1c-0.8,0.1-1.3,0.2-1.6,0.2c-0.3,0-0.5,0-0.8-0.1c-0.2-0.1-0.4-0.2-0.5-0.3
		l-0.1-0.1c-0.6,0.3-1.4,0.5-2.2,0.5c-0.9,0-1.5-0.2-2-0.6c-0.4-0.4-0.7-1-0.7-1.9c0-0.9,0.3-1.5,0.8-1.8C54,8.2,54.8,8,55.9,8
		l1.1,0V7.8c0-0.2-0.2-0.3-0.6-0.3c-0.9,0-1.8,0-2.7,0.1l-0.5,0l-0.1-2.2c1.3-0.3,2.5-0.5,3.6-0.5c1.1,0,2,0.2,2.6,0.5
		C59.9,5.8,60.3,6.5,60.3,7.5z M56.4,10.5c0.2,0,0.4-0.1,0.6-0.2V9.7l-0.5,0c-0.3,0-0.4,0.1-0.4,0.4C56.1,10.4,56.2,10.5,56.4,10.5z
		"/>
	<path d="M64.6,12.6h-3.3V5.1h3.3v0.4c0.7-0.4,1.3-0.6,1.9-0.6c0.6,0,1.1,0.2,1.5,0.7c0.7-0.4,1.4-0.7,2.2-0.7
		c1.2,0,1.9,0.3,2.4,0.9s0.6,1.6,0.6,3v3.8h-3.3V9.2c0-1-0.2-1.4-0.5-1.4l-0.6,0.1c0.1,0.2,0.1,0.6,0.1,1.3v3.4h-3.3V9.2
		c0-1-0.2-1.4-0.5-1.4l-0.5,0.1V12.6z"/>
	<path d="M77.1,9.8c0,0.3,0.2,0.5,0.7,0.5c1,0,2,0,3-0.1l0.6,0l0.1,2.1c-1.3,0.3-2.6,0.4-3.9,0.4s-2.2-0.3-2.8-0.9
		c-0.6-0.6-0.9-1.6-0.9-2.9s0.3-2.3,0.9-3c0.6-0.7,1.6-1,2.9-1s2.3,0.3,2.9,0.8c0.6,0.6,1,1.4,1,2.6l-0.1,1.5H77.1z M78.2,8
		c0-0.3,0-0.5-0.1-0.6c-0.1-0.1-0.2-0.2-0.4-0.2c-0.2,0-0.3,0.1-0.4,0.2c-0.1,0.1-0.1,0.3-0.1,0.6H78.2z"/>
	<path d="M85.8,7.8v1.5c0,0.2,0,0.4,0.1,0.5c0.1,0.1,0.2,0.1,0.4,0.1l0.7,0l0,2.6c-0.8,0.2-1.5,0.3-2,0.3c-0.9,0-1.6-0.2-2-0.6
		c-0.4-0.4-0.6-1.1-0.6-2.1V7.8h-0.6V5.1h0.6V3.6h3.3v1.5H87v2.7H85.8z"/>
	<path d="M90.9,12.6h-3.3V5.1h3.3v0.7c0.6-0.6,1.1-0.9,1.6-0.9V8c-0.3,0-0.8,0.1-1.3,0.4l-0.3,0.1V12.6z"/>
	<path d="M93.8,5.8c0.7-0.6,1.6-0.9,3-0.9c1.3,0,2.3,0.3,3,0.9c0.7,0.6,1,1.6,1,3s-0.3,2.4-1,3c-0.7,0.6-1.6,0.9-3,0.9
		c-1.3,0-2.3-0.3-3-0.9c-0.7-0.6-1-1.6-1-3S93.2,6.5,93.8,5.8z M96.3,9.8c0.1,0.2,0.2,0.3,0.5,0.3c0.2,0,0.4-0.1,0.5-0.3
		c0.1-0.2,0.1-0.5,0.1-1c0-0.5,0-0.8-0.1-1c-0.1-0.2-0.2-0.3-0.5-0.3c-0.2,0-0.4,0.1-0.5,0.3c-0.1,0.2-0.1,0.5-0.1,1
		C96.2,9.3,96.2,9.6,96.3,9.8z"/>
</g>
</svg>
