<?xml version="1.0" encoding="utf-8"?>
<!-- Generator: Adobe Illustrator 25.2.3, SVG Export Plug-In . SVG Version: 6.00 Build 0)  -->
<svg version="1.1" id="Layer_1" xmlns="http://www.w3.org/2000/svg" xmlns:xlink="http://www.w3.org/1999/xlink" x="0px" y="0px"
	 viewBox="0 0 24 24" style="enable-background:new 0 0 24 24;" xml:space="preserve">
<style type="text/css">
	.st0{fill:none;}
</style>
<path class="st0" d="M29.5,0h24v24h-24V0z"/>
<path class="st0" d="M0,0h24v24H0V0z"/>
<circle cx="5.5" cy="10.7" r="0.8"/>
<path d="M1.4,11.4c1.8-0.7,2.9-2.5,2.5-4.5c-0.1-0.4-0.2-0.7-0.4-1C2,7.2,1.1,9.2,1.4,11.4z"/>
<path d="M7.5,13.4c0,0-0.7-0.5-1.4-0.3S5.2,13.8,4.7,14C4.4,14.1,5.2,14.9,7.5,13.4z"/>
<path d="M8.9,13.1c-0.6-0.2-1.2,0.3-1.2,0.3c0.4,0.3,0.8,0.5,1.1,0.6C8.8,13.7,8.9,13.4,8.9,13.1z"/>
<path d="M16.7,21.9c-3.9,0-7-3.1-7-7s3.1-7,7-7c3.9,0,7,3.1,7,7S20.6,21.9,16.7,21.9z M16.7,9.4c-3,0-5.5,2.5-5.5,5.5
	s2.5,5.5,5.5,5.5s5.5-2.5,5.5-5.5S19.8,9.4,16.7,9.4z"/>
<circle cx="14.7" cy="14.9" r="0.8"/>
<circle cx="18.8" cy="14.9" r="0.8"/>
<path d="M14.8,8.9c0.6,2.5,2.8,4.3,5.5,4.3c0.8,0,1.6-0.2,2.3-0.5c-0.9-2.4-3.2-4.1-5.9-4.1C16.1,8.6,15.4,8.7,14.8,8.9z"/>
<path d="M9.5,11.5c0.2-0.5,0.5-0.9,0.8-1.3C10.1,10,9.9,9.8,9.6,9.8c-0.5,0-0.8,0.4-0.8,0.8C8.8,11.1,9.1,11.4,9.5,11.5z"/>
<path d="M13.1,7.7c-0.4-0.7-0.9-1.4-1.5-1.9c-0.2,0.3-0.3,0.6-0.4,1c-0.1,0.7-0.1,1.4,0.1,2C11.9,8.5,12.5,8.1,13.1,7.7z"/>
<path d="M8.7,16c-0.4,0.1-0.8,0.1-1.2,0.1c-3,0-5.5-2.5-5.5-5.5s2.5-5.5,5.5-5.5c2.1,0,4,1.2,4.9,3c0.4-0.3,0.9-0.5,1.3-0.7
	c-1.2-2.2-3.5-3.8-6.2-3.8c-3.9,0-7,3.1-7,7s3.1,7,7,7c0.4,0,0.8,0,1.2-0.1V16z"/>
<polygon points="9.7,14.9 9.7,20.4 13.1,20.4 "/>
<polygon points="23.8,14.9 23.8,20.4 20.4,20.4 "/>
</svg>
