<?xml version="1.0" encoding="utf-8"?>
<!-- Generator: Adobe Illustrator 26.0.3, SVG Export Plug-In . SVG Version: 6.00 Build 0)  -->
<svg version="1.1"
	 id="svg8" inkscape:version="0.92.3 (2405546, 2018-03-11)" sodipodi:docname="PDF file icon.svg" xmlns:cc="http://creativecommons.org/ns#" xmlns:dc="http://purl.org/dc/elements/1.1/" xmlns:inkscape="http://www.inkscape.org/namespaces/inkscape" xmlns:rdf="http://www.w3.org/1999/02/22-rdf-syntax-ns#" xmlns:sodipodi="http://sodipodi.sourceforge.net/DTD/sodipodi-0.dtd" xmlns:svg="http://www.w3.org/2000/svg"
	 xmlns="http://www.w3.org/2000/svg" xmlns:xlink="http://www.w3.org/1999/xlink" x="0px" y="0px" viewBox="0 0 300 300"
	 style="enable-background:new 0 0 300 300;" xml:space="preserve">
<style type="text/css">
	.st0{fill:#FFFFFF;}
</style>
<sodipodi:namedview  bordercolor="#666666" borderopacity="1.0" fit-margin-bottom="0" fit-margin-left="0" fit-margin-right="0" fit-margin-top="0" id="base" inkscape:current-layer="g899" inkscape:cx="122.12727" inkscape:cy="167.02823" inkscape:document-units="mm" inkscape:object-nodes="false" inkscape:pageopacity="0.0" inkscape:pageshadow="2" inkscape:snap-others="false" inkscape:snap-page="false" inkscape:window-height="705" inkscape:window-maximized="1" inkscape:window-width="1366" inkscape:window-x="-8" inkscape:window-y="-8" inkscape:zoom="0.98994949" pagecolor="#ffffff" showgrid="false">
	</sodipodi:namedview>
<path id="path2697_00000052807460941867793480000016298231385715290295_" inkscape:connector-curvature="0" sodipodi:nodetypes="scccscccscccccssscacccsccccccccccccccccccccaccccccccc" class="st0" d="
	M53.7,238.2c-12.5-12.5,1-29.8,37.8-48l23.2-11.5l9-19.7c5-10.9,12.4-28.6,16.5-39.4l7.4-19.6l-5.1-14.5
	c-6.3-17.9-8.5-44.7-4.5-54.3c5.4-13.1,23.1-11.7,30.2,2.3c5.5,10.9,4.9,30.8-1.6,55.7l-5.3,20.5l4.7,8c2.6,4.4,10.1,14.8,16.8,23.1
	l12.5,15.5l15.5-2c49.3-6.4,66.2,4.5,66.2,20.2c0,19.8-38.7,21.4-71.2-1.4c-7.3-5.1-12.3-10.2-12.3-10.2s-20.4,4.1-30.4,6.8
	c-10.3,2.8-15.5,4.5-30.7,9.7c0,0-5.3,7.7-8.8,13.3c-12.9,20.9-27.9,38.2-38.7,44.5C72.7,244.1,60.1,244.6,53.7,238.2z M73.4,231.2
	c7-4.4,21.3-21.2,31.2-36.9l4-6.3l-18.2,9.1c-28.1,14.1-41,27.4-34.3,35.5C59.8,237.1,64.3,236.8,73.4,231.2L73.4,231.2z
	 M255.9,179.9c6.9-4.8,5.9-14.6-1.9-18.5c-6.1-3.1-10.9-3.7-26.7-3.4c-9.7,0.7-25.2,2.6-27.9,3.2c0,0,8.5,5.9,12.3,8.1
	c5.1,2.9,17.3,8.2,26.3,11C246.9,183,252,182.7,255.9,179.9L255.9,179.9z M182.5,149.4c-4.2-4.4-11.3-13.5-15.8-20.3
	c-5.9-7.7-8.8-13.2-8.8-13.2s-4.3,13.8-7.8,22.1l-11,27.2l-3.2,6.2c0,0,17-5.6,25.6-7.8c9.1-2.4,27.7-6,27.7-6L182.5,149.4z
	 M158.9,54.6c1.1-8.9,1.5-17.8-1.4-22.3c-8-8.7-17.6-1.4-15.9,19.2c0.5,7,2.3,18.8,4.6,26.2l4.2,13.3l3-10
	C154.9,75.4,157.4,63.6,158.9,54.6L158.9,54.6z"/>
<g id="g858_00000014593969563187492030000008249002809986528912_">
	<path id="path845_00000031903802479295549850000002779991679669282232_" inkscape:connector-curvature="0" class="st0" d="
		M127,206.7h12.8c4.1,0,7.4,0.4,10,1.2s4.7,2.5,6.5,5.1c1.7,2.6,2.6,5.8,2.6,9.5c0,3.4-0.7,6.4-2.1,8.8c-1.4,2.5-3.3,4.2-5.7,5.3
		s-6.1,1.6-11,1.6h-4.4v20.3H127V206.7z M135.5,213.3v18.1h4.3c3.8,0,6.4-0.7,7.9-2.1c1.5-1.4,2.2-3.7,2.2-6.9
		c0-2.4-0.5-4.3-1.4-5.8c-1-1.5-2-2.4-3.2-2.7c-1.1-0.4-3-0.5-5.4-0.5L135.5,213.3z"/>
	<path id="path847_00000066516206203859893800000010903575966013225900_" inkscape:connector-curvature="0" class="st0" d="
		M165.5,206.7h11.7c5.7,0,10.2,1,13.5,3c3.4,2,6,5,7.7,8.9c1.7,4,2.6,8.3,2.6,13.1c0,5.1-0.8,9.6-2.4,13.6c-1.5,4-3.9,7.1-7.1,9.6
		c-3.2,2.4-7.8,3.6-13.7,3.6h-12.3V206.7z M174,213.5v38.1h3.6c5,0,8.6-1.7,10.9-5.2c2.3-3.5,3.4-8.1,3.4-13.9
		c0-12.7-4.8-19.1-14.3-19.1L174,213.5z"/>
	<path id="path849_00000106136381823763369140000013944562470959639734_" inkscape:connector-curvature="0" class="st0" d="
		M209.2,206.7H238v6.9h-20.2V229H234v6.9h-16.2v22.6h-8.6V206.7z"/>
</g>
</svg>
