<?xml version="1.0" encoding="utf-8"?>
<!-- Generator: Adobe Illustrator 26.0.3, SVG Export Plug-In . SVG Version: 6.00 Build 0)  -->
<svg version="1.1" id="Layer_1" xmlns="http://www.w3.org/2000/svg" xmlns:xlink="http://www.w3.org/1999/xlink" x="0px" y="0px"
	 viewBox="0 0 90 24" style="enable-background:new 0 0 90 24;" xml:space="preserve">
<style type="text/css">
	.st0{font-family:'TitilliumWeb-Black';}
	.st1{font-size:15px;}
</style>
<circle cx="17.7" cy="16.6" r="0.8"/>
<circle cx="7.3" cy="12.9" r="0.8"/>
<circle cx="11.4" cy="12.9" r="0.8"/>
<circle cx="16.7" cy="7.4" r="0.8"/>
<circle cx="20.8" cy="7.4" r="0.8"/>
<path d="M16.8,1.4c0.6,2.5,2.8,4.3,5.5,4.3c0.8,0,1.6-0.2,2.3-0.5c-0.9-2.4-3.2-4.1-5.9-4.1C18.1,1.2,17.4,1.2,16.8,1.4z"/>
<path d="M11.9,17.8c-0.7,0.4-1.6,0.6-2.5,0.6c-3,0-5.5-2.5-5.5-5.5s2.5-5.5,5.5-5.5c2.2,0,4.1,1.3,5,3.2c0.4-0.3,0.8-0.7,1.2-0.9
	c-1.1-2.3-3.5-3.8-6.2-3.8c-3.9,0-7,3.1-7,7s3.1,7,7,7c1,0,2-0.2,2.8-0.6C12.1,18.8,12,18.3,11.9,17.8z"/>
<path d="M13.9,11.1c0.3-0.3,0.7-0.6,1-0.9c-1-2.1-3.2-3.6-5.7-3.6C8.7,6.7,8,6.7,7.4,6.9c0.6,2.5,2.8,4.3,5.5,4.3
	C13.2,11.2,13.6,11.2,13.9,11.1z"/>
<path d="M18.8,0.4c-3.2,0-5.8,2.1-6.7,5c0.5,0.2,1,0.4,1.4,0.6c0.6-2.3,2.8-4.1,5.3-4.1c3,0,5.5,2.5,5.5,5.5c0,0.8-0.2,1.6-0.5,2.2
	c0.4,0.3,0.9,0.5,1.2,0.9c0.5-0.9,0.7-2,0.7-3.1C25.8,3.5,22.7,0.4,18.8,0.4z"/>
<polygon points="17.8,19.7 17.5,22.9 20.6,22.5 29.3,13.8 26.5,11 "/>
<rect x="27.9" y="9.1" transform="matrix(0.7071 -0.7071 0.7071 0.7071 0.7659 23.9533)" width="2.8" height="3.9"/>
<path d="M21.5,14.6L24,12c-1.1-1.1-2.7-1.8-4.4-1.8c-0.6,0.1-1.3,0.1-1.9,0.3C18.2,12.5,19.6,14,21.5,14.6z"/>
<path d="M16.7,21.1c-1.4-1-2.4-2.7-2.4-4.5c0-3,2.5-5.5,5.5-5.5c1.4,0,2.7,0.6,3.7,1.5l1.1-1.1c-1.2-1.2-2.9-1.9-4.8-1.9
	c-3.9,0-7,3.1-7,7c0,2.7,1.5,5,3.7,6.2L16.7,21.1z"/>
<text transform="matrix(1 0 0 1 33.7035 11.0001)" class="st0 st1">Persona</text>
</svg>
