<?xml version="1.0" encoding="UTF-8"?>
<svg xmlns="http://www.w3.org/2000/svg" version="1.1" viewBox="0 0 90 24">
  <defs>
    <style>
      .cls-1 {
        isolation: isolate;
      }
    </style>
  </defs>
  <!-- Generator: Adobe Illustrator 28.7.0, SVG Export Plug-In . SVG Version: 1.2.0 Build 136)  -->
  <g>
    <g id="Layer_1">
      <circle cx="17.7" cy="16.6" r=".8"/>
      <circle cx="7.3" cy="12.9" r=".8"/>
      <circle cx="11.4" cy="12.9" r=".8"/>
      <circle cx="16.7" cy="7.4" r=".8"/>
      <circle cx="20.8" cy="7.4" r=".8"/>
      <path d="M16.8,1.4c.6,2.5,2.8,4.3,5.5,4.3s1.6-.2,2.3-.5c-.9-2.4-3.2-4.1-5.9-4.1-.6,0-1.3,0-1.9.3Z"/>
      <path d="M11.9,17.8c-.7.4-1.6.6-2.5.6-3,0-5.5-2.5-5.5-5.5s2.5-5.5,5.5-5.5,4.1,1.3,5,3.2c.4-.3.8-.7,1.2-.9-1.1-2.3-3.5-3.8-6.2-3.8-3.9,0-7,3.1-7,7s3.1,7,7,7,2-.2,2.8-.6c0-.5-.2-1-.3-1.5Z"/>
      <path d="M13.9,11.1c.3-.3.7-.6,1-.9-1-2.1-3.2-3.6-5.7-3.6-.5,0-1.2,0-1.8.3.6,2.5,2.8,4.3,5.5,4.3.3,0,.7,0,1-.1Z"/>
      <path d="M18.8.4c-3.2,0-5.8,2.1-6.7,5,.5.2,1,.4,1.4.6.6-2.3,2.8-4.1,5.3-4.1s5.5,2.5,5.5,5.5-.2,1.6-.5,2.2c.4.3.9.5,1.2.9.5-.9.7-2,.7-3.1,0-3.9-3-7-6.9-7Z"/>
      <polygon points="17.8 19.7 17.5 22.9 20.6 22.5 29.3 13.8 26.5 11 17.8 19.7"/>
      <rect x="27.9" y="9.1" width="2.8" height="3.9" transform="translate(.8 24) rotate(-45)"/>
      <path d="M21.5,14.6l2.5-2.6c-1.1-1.1-2.7-1.8-4.4-1.8-.6.1-1.3.1-1.9.3.5,2,1.9,3.5,3.8,4.1Z"/>
      <path d="M16.7,21.1c-1.4-1-2.4-2.7-2.4-4.5,0-3,2.5-5.5,5.5-5.5s2.7.6,3.7,1.5l1.1-1.1c-1.2-1.2-2.9-1.9-4.8-1.9-3.9,0-7,3.1-7,7s1.5,5,3.7,6.2l.2-1.7Z"/>
      <g class="cls-1">
        <path d="M38.1,8.9h-.5v2.1h-3.5V1h3.9c1.6,0,2.7.3,3.5.8.7.5,1.1,1.6,1.1,3.1s-.4,2.6-1.1,3.1-1.9.9-3.5.9ZM37.6,6.1h.3c.4,0,.7,0,.9-.3.2-.2.3-.5.3-1s0-.8-.3-.9c-.2-.2-.5-.2-.9-.2h-.3v2.4Z"/>
        <path d="M46.3,8.2c0,.3.2.5.7.5,1,0,2,0,3,0h.6s0,2.1,0,2.1c-1.3.3-2.7.4-4,.4s-2.3-.3-2.9-.9c-.6-.6-.9-1.6-.9-2.9s.3-2.4.9-3.1,1.6-1,2.9-1,2.3.3,3,.9c.6.6,1,1.4,1,2.6l-.2,1.5h-4.3ZM47.4,6.4c0-.3,0-.5-.1-.6s-.2-.2-.4-.2-.4,0-.4.2-.1.3-.1.6h1.1Z"/>
        <path d="M54.8,11h-3.4V3.4h3.4v.7c.6-.6,1.2-.9,1.6-.9v3.1c-.3,0-.8.1-1.3.4h-.3v4.2Z"/>
        <path d="M63.4,6c-1.2-.1-2.1-.2-2.5-.2s-.7,0-.7.1.4.1,1.2.2,1.4.3,1.7.7c.4.4.5,1,.5,1.9s-.3,1.5-.8,1.9c-.5.4-1.4.6-2.5.6s-1.2,0-1.8,0c-.6,0-1-.1-1.2-.2h-.4c0-.1,0-2.4,0-2.4,1.2.2,2.1.3,2.6.3s.7,0,.7-.1-.4-.1-1.2-.2c-.8-.1-1.4-.3-1.7-.7-.4-.4-.5-.9-.5-1.7s.3-1.7.9-2.1c.6-.4,1.4-.6,2.5-.6s2.1,0,2.9.3h.4c0,0-.1,2.4-.1,2.4Z"/>
        <path d="M65.1,4.2c.7-.6,1.7-.9,3-.9s2.3.3,3,.9,1,1.6,1,3.1-.3,2.4-1,3c-.7.6-1.7.9-3,.9s-2.3-.3-3-.9c-.7-.6-1-1.6-1-3s.3-2.4,1-3.1ZM67.6,8.2c0,.2.2.3.5.3s.4,0,.5-.3.1-.5.1-1,0-.8-.1-1-.2-.3-.5-.3-.4,0-.5.3-.1.5-.1,1,0,.8.1,1Z"/>
        <path d="M76.1,11h-3.4V3.4h3.3v.4c.6-.4,1.2-.6,1.7-.6,1.1,0,1.8.3,2.3.9s.6,1.6.6,3.1v3.8h-3.4v-3.6c0-.9-.2-1.3-.5-1.3h-.6v4.9Z"/>
        <path d="M88.8,5.9v2.8c0,0,.2.1.4.2v2.1c-.8.1-1.4.2-1.7.2s-.6,0-.8-.1-.4-.2-.5-.3h-.1c-.6.2-1.4.4-2.3.4s-1.6-.2-2-.6c-.5-.4-.7-1.1-.7-2s.3-1.5.8-1.8c.5-.3,1.3-.5,2.4-.5h1.1v-.2c0-.2-.2-.3-.6-.3-.9,0-1.8,0-2.7.2h-.5s0-2.2,0-2.2c1.3-.3,2.5-.5,3.6-.5s2,.2,2.7.5c.7.4,1,1.1,1,2.1ZM84.8,8.9c.2,0,.4,0,.6-.2v-.6h-.5c-.3,0-.4.2-.4.4s.1.4.3.4Z"/>
      </g>
    </g>
  </g>
</svg>