<?xml version="1.0" encoding="utf-8"?>
<!-- Generator: Adobe Illustrator 26.0.3, SVG Export Plug-In . SVG Version: 6.00 Build 0)  -->
<svg version="1.1"
	 id="svg8" inkscape:version="0.92.3 (2405546, 2018-03-11)" sodipodi:docname="PDF file icon.svg" xmlns:cc="http://creativecommons.org/ns#" xmlns:dc="http://purl.org/dc/elements/1.1/" xmlns:inkscape="http://www.inkscape.org/namespaces/inkscape" xmlns:rdf="http://www.w3.org/1999/02/22-rdf-syntax-ns#" xmlns:sodipodi="http://sodipodi.sourceforge.net/DTD/sodipodi-0.dtd" xmlns:svg="http://www.w3.org/2000/svg"
	 xmlns="http://www.w3.org/2000/svg" xmlns:xlink="http://www.w3.org/1999/xlink" x="0px" y="0px" viewBox="0 0 300 300"
	 style="enable-background:new 0 0 300 300;" xml:space="preserve">
<style type="text/css">
	.st0{fill:none;stroke:#FFFFFF;stroke-width:10;stroke-miterlimit:10;}
	.st1{fill:#6EB52C;stroke:#FFFFFF;stroke-width:10;stroke-miterlimit:10;}
	.st2{fill:#FFFFFF;}
	.st3{fill:none;}
</style>
<path class="st0" d="M200.9,30H75.5c-11.6,0-21,9.4-21,21v111.1c8.3-3.4,17.3-5.2,26.7-5.2c39.2,0,71.1,31.9,71.1,71.1
	c0,15.7-5.1,30.3-13.8,42.1h86c11.6,0,21-9.4,21-21V74.6L200.9,30z"/>
<sodipodi:namedview  bordercolor="#666666" borderopacity="1.0" fit-margin-bottom="0" fit-margin-left="0" fit-margin-right="0" fit-margin-top="0" id="base" inkscape:current-layer="g899" inkscape:cx="122.12727" inkscape:cy="167.02823" inkscape:document-units="mm" inkscape:object-nodes="false" inkscape:pageopacity="0.0" inkscape:pageshadow="2" inkscape:snap-others="false" inkscape:snap-page="false" inkscape:window-height="705" inkscape:window-maximized="1" inkscape:window-width="1366" inkscape:window-x="-8" inkscape:window-y="-8" inkscape:zoom="0.98994949" pagecolor="#ffffff" showgrid="false">
	</sodipodi:namedview>
<line class="st1" x1="92" y1="87.3" x2="214" y2="87.3"/>
<line class="st1" x1="92" y1="119.3" x2="214" y2="119.3"/>
<line class="st1" x1="92" y1="151.3" x2="214" y2="151.3"/>
<path class="st2" d="M81.2,166.8c-33.7,0-61.1,27.4-61.1,61.1S47.5,289,81.2,289s61.1-27.4,61.1-61.1S115,166.8,81.2,166.8z
	 M121.1,207L81,259.8c-0.9,1.1-2.2,1.9-3.6,2c-0.1,0-0.3,0-0.4,0c-1.3,0-2.5-0.5-3.5-1.4L46.2,234c-2-1.9-2-5.1-0.1-7.1
	c1.9-2,5.1-2,7.1-0.1l23.3,22.5l36.7-48.3c1.7-2.2,4.8-2.6,7-1C122.4,201.7,122.8,204.8,121.1,207z"/>
<polygon class="st3" points="200.9,30 245.7,74.8 200.9,74.8 "/>
</svg>
