<?xml version="1.0" encoding="utf-8"?>
<!-- Generator: Adobe Illustrator 26.0.0, SVG Export Plug-In . SVG Version: 6.00 Build 0)  -->
<svg version="1.1" id="Layer_1" xmlns="http://www.w3.org/2000/svg" xmlns:xlink="http://www.w3.org/1999/xlink" x="0px" y="0px"
	 viewBox="0 0 36 24" style="enable-background:new 0 0 36 24;" xml:space="preserve">
<style type="text/css">
	.st0{fill:#FFFFFF;stroke:#1D1D1B;stroke-width:1.4;stroke-linecap:round;stroke-miterlimit:10;}
	.st1{fill:none;stroke:#1D1D1B;stroke-width:1.4;stroke-linecap:round;stroke-miterlimit:10;}
	.st2{fill:#FFFFFF;stroke:#1D1D1B;stroke-width:1.4;stroke-linecap:round;stroke-linejoin:round;stroke-miterlimit:10;}
</style>
<path class="st0" d="M8.2,6.5c0,0,4.4,0.7,6.2,2s6.1,4,7.2,5s-0.2,2.6-1.6,1.8c1.5,0.9-0.6,2.9-1.7,1.9c1.1,1-0.1,2.9-1.5,2
	c-0.4,0.7-1.2,1.8-3.3,1c-2.1-0.9-8.9-7.6-8.9-7.6L8.2,6.5z"/>
<path class="st0" d="M2.6,10.1"/>
<path class="st0" d="M19.4,6.1h-5c0,0-1.8-0.1-2.5,0.5S9.5,9.3,9.5,9.3S9,10.8,10.9,11c1.9,0.3,2.9-2.9,3.5-2.5s7.2,5,7.2,5L23,12
	L19.4,6.1z"/>
<path class="st0" d="M5.8,16.1l-0.4-0.4c-0.3-0.3-0.3-0.9,0-1.2L7,12.9c0.3-0.3,0.8-0.3,1.2,0l0.4,0.4c0.3,0.3,0.3,0.9,0,1.2L7,16.1
	C6.6,16.4,6.1,16.4,5.8,16.1z"/>
<path class="st0" d="M7.1,17.9l-0.4-0.4c-0.3-0.3-0.3-0.9,0-1.2l2.8-2.8c0.3-0.3,0.8-0.3,1.2,0l0.4,0.4c0.3,0.3,0.3,0.9,0,1.2
	l-2.8,2.8C8,18.2,7.5,18.2,7.1,17.9z"/>
<path class="st0" d="M9.2,19.1l-0.4-0.4c-0.3-0.3-0.3-0.9,0-1.2l2.1-2.2c0.3-0.3,0.8-0.3,1.2,0l0.4,0.4c0.3,0.3,0.3,0.9,0,1.2
	l-2.1,2.2C10,19.4,9.5,19.4,9.2,19.1z"/>
<path class="st0" d="M11,20.6l-0.5-0.5c-0.3-0.3-0.3-0.9,0-1.2l1.5-1.5c0.3-0.3,0.8-0.3,1.2,0l0.4,0.4c0.3,0.3,0.3,0.9,0,1.2
	l-1.5,1.5C11.8,20.9,11.3,20.9,11,20.6z"/>
<line class="st1" x1="20" y1="15.3" x2="16.2" y2="13"/>
<line class="st1" x1="18.4" y1="17.3" x2="14.8" y2="15.3"/>
<line class="st1" x1="16.7" y1="19" x2="14.1" y2="17.7"/>
<polyline class="st2" points="1.1,11.5 5.4,4 8.6,5.8 4.3,13.4 1.1,11.5 "/>
<polyline class="st2" points="26.2,10.8 23.1,12.6 18.8,5.1 21.9,3.3 26.2,10.8 "/>
</svg>
