<?xml version="1.0" encoding="utf-8"?>
<!-- Generator: Adobe Illustrator 26.0.3, SVG Export Plug-In . SVG Version: 6.00 Build 0)  -->
<svg version="1.1" id="Layer_1" xmlns="http://www.w3.org/2000/svg" xmlns:xlink="http://www.w3.org/1999/xlink" x="0px" y="0px"
	 viewBox="0 0 36 24" style="enable-background:new 0 0 36 24;" xml:space="preserve">
<style type="text/css">
	.st0{fill:none;}
	.st1{fill:none;stroke:#000000;stroke-linecap:round;stroke-miterlimit:10;}
</style>
<polygon points="14.5,17.7 14.2,20.9 17.3,20.5 26,11.8 23.2,9 "/>
<rect x="24.6" y="7.1" transform="matrix(0.7071 -0.7071 0.7071 0.7071 1.216 21.0385)" width="2.8" height="3.9"/>
<polygon points="14.5,17.7 14.2,20.9 17.3,20.5 26,11.8 23.2,9 "/>
<g>
	<path d="M45,4v4.9h-4.9V4H45 M47,2h-8.9v8.9H47V2L47,2z"/>
</g>
<path class="st0" d="M33.9,0.6h24v24h-24C33.9,24.6,33.9,0.6,33.9,0.6z"/>
<polygon points="50.5,17.7 50.2,20.9 53.3,20.5 62,11.8 59.2,9 "/>
<rect x="60.6" y="7.1" transform="matrix(0.7071 -0.7071 0.7071 0.7071 11.7624 46.4999)" width="2.8" height="3.9"/>
<g>
	<path d="M47.3,15.1V20h-7.2v-4.9H47.3 M49.3,13.1H38.1V22h11.2V13.1L49.3,13.1z"/>
</g>
<g>
	<path d="M55.1,4v3h-4.9V4H55.1 M57.1,2h-8.9v7h8.9V2L57.1,2z"/>
</g>
<polygon points="52.2,14.6 52.2,12.4 54.4,12.4 56.4,10.4 50.2,10.4 50.2,16.6 "/>
<polygon points="50.5,17.7 50.2,20.9 53.3,20.5 62,11.8 59.2,9 "/>
<g>
	<path d="M14.1,4.4l0.7,0.7h-0.7V4.4 M13.1,2v4.1h4.1L13.1,2L13.1,2z"/>
</g>
<line class="st1" x1="6.1" y1="14.5" x2="13.7" y2="14.5"/>
<line class="st1" x1="6.1" y1="11.6" x2="13.7" y2="11.6"/>
<line class="st1" x1="6.1" y1="8.7" x2="13.7" y2="8.7"/>
<polygon points="17.3,13.5 17.3,6.2 16.3,5.2 16.3,14.5 "/>
<polygon points="13.2,21 3.1,21 3.1,3 14.1,3 13.1,2 2.1,2 2.1,22 13.1,22 "/>
</svg>
