<?xml version="1.0" encoding="utf-8"?>
<!-- Generator: Adobe Illustrator 26.0.3, SVG Export Plug-In . SVG Version: 6.00 Build 0)  -->
<svg version="1.1" id="Layer_1" xmlns="http://www.w3.org/2000/svg" xmlns:xlink="http://www.w3.org/1999/xlink" x="0px" y="0px"
	 viewBox="0 0 90 24" style="enable-background:new 0 0 90 24;" xml:space="preserve">
<style type="text/css">
	.st0{fill:none;}
	.st1{font-family:'TitilliumWeb-Black';}
	.st2{font-size:12px;}
	.st3{fill:none;stroke:#000000;stroke-linecap:round;stroke-miterlimit:10;}
</style>
<rect x="30.1" y="1.1" class="st0" width="58.5" height="10.8"/>
<text transform="matrix(1 0 0 1 30.107 9.3312)" class="st1 st2">Template</text>
<rect x="30.1" y="12.1" class="st0" width="58.5" height="10.8"/>
<text transform="matrix(1 0 0 1 30.107 20.361)" class="st1 st2">Classe</text>
<polygon points="14.5,17.7 14.2,20.9 17.3,20.5 26,11.8 23.2,9 "/>
<rect x="24.6" y="7.1" transform="matrix(0.7071 -0.7071 0.7071 0.7071 1.2136 21.0363)" width="2.8" height="3.9"/>
<polygon points="14.5,17.7 14.2,20.9 17.3,20.5 26,11.8 23.2,9 "/>
<g>
	<path d="M14.1,4.4l0.7,0.7h-0.7V4.4 M13.1,2v4.1h4.1L13.1,2L13.1,2z"/>
</g>
<line class="st3" x1="6.1" y1="14.5" x2="13.7" y2="14.5"/>
<line class="st3" x1="6.1" y1="11.6" x2="13.7" y2="11.6"/>
<line class="st3" x1="6.1" y1="8.7" x2="13.7" y2="8.7"/>
<polygon points="17.3,13.5 17.3,6.2 16.3,5.2 16.3,14.5 "/>
<polygon points="13.2,21 3.1,21 3.1,3 14.1,3 13.1,2 2.1,2 2.1,22 13.1,22 "/>
</svg>
