<?xml version="1.0" encoding="utf-8"?>
<!-- Generator: Adobe Illustrator 26.0.3, SVG Export Plug-In . SVG Version: 6.00 Build 0)  -->
<svg version="1.1" id="Layer_1" xmlns="http://www.w3.org/2000/svg" xmlns:xlink="http://www.w3.org/1999/xlink" x="0px" y="0px"
	 viewBox="0 0 36 24" style="enable-background:new 0 0 36 24;" xml:space="preserve">
<style type="text/css">
	.st0{fill:none;}
</style>
<g>
	<path d="M9,4v4.9H4.1V4H9 M11,2H2.1v8.9H11V2L11,2z"/>
</g>
<path class="st0" d="M-2.1,0.6h24v24h-24C-2.1,24.6-2.1,0.6-2.1,0.6z"/>
<polygon points="14.5,17.7 14.2,20.9 17.3,20.5 26,11.8 23.2,9 "/>
<rect x="24.6" y="7.1" transform="matrix(0.7071 -0.7071 0.7071 0.7071 1.2199 21.0368)" width="2.8" height="3.9"/>
<g>
	<path d="M11.3,15.1V20H4.1v-4.9H11.3 M13.3,13.1H2.1V22h11.2V13.1L13.3,13.1z"/>
</g>
<g>
	<path d="M19.1,4v3h-4.9V4H19.1 M21.1,2h-8.9v7h8.9V2L21.1,2z"/>
</g>
<polygon points="16.2,14.6 16.2,12.4 18.4,12.4 20.4,10.4 14.2,10.4 14.2,16.6 "/>
<polygon points="14.5,17.7 14.2,20.9 17.3,20.5 26,11.8 23.2,9 "/>
</svg>
