<?xml version="1.0" encoding="UTF-8"?>
<svg xmlns="http://www.w3.org/2000/svg" version="1.1" viewBox="0 0 90 24">
  <defs>
    <style>
      .cls-1, .cls-2 {
        fill: none;
      }

      .cls-2 {
        stroke: #000;
        stroke-linecap: round;
        stroke-miterlimit: 10;
      }

      .cls-3 {
        isolation: isolate;
      }
    </style>
  </defs>
  <!-- Generator: Adobe Illustrator 28.7.0, SVG Export Plug-In . SVG Version: 1.2.0 Build 136)  -->
  <g>
    <g id="Layer_1">
      <rect class="cls-1" x="30.1" y="1.1" width="58.5" height="10.8"/>
      <g class="cls-3">
        <path d="M30.2,3.6V1.3h6v2.3h-1.6v5.8h-2.8V3.6h-1.7Z"/>
        <path d="M38.4,7.1c0,.3.2.4.5.4.8,0,1.6,0,2.4,0h.5s0,1.7,0,1.7c-1.1.2-2.1.3-3.2.3s-1.8-.2-2.3-.7c-.5-.5-.7-1.3-.7-2.4s.3-1.9.8-2.5,1.3-.8,2.4-.8,1.9.2,2.4.7.8,1.2.8,2.1v1.2h-3.6ZM39.3,5.6c0-.2,0-.4-.1-.5,0,0-.2-.1-.4-.1s-.3,0-.3.1c0,0-.1.3-.1.5h.9Z"/>
        <path d="M45.2,9.3h-2.7V3.3h2.7v.3c.5-.3,1-.5,1.6-.5s.9.2,1.3.5c.6-.4,1.2-.5,1.8-.5.9,0,1.6.2,1.9.8s.5,1.3.5,2.4v3.1h-2.7v-2.7c0-.8-.1-1.2-.4-1.2h-.5c0,.2,0,.6,0,1.1v2.8h-2.7v-2.7c0-.8-.1-1.2-.4-1.2h-.4v3.9Z"/>
        <path d="M56.8,3.1c.8,0,1.5.3,1.8.8.4.5.6,1.4.6,2.4s-.2,1.9-.6,2.4-1.1.8-2,.8-.5,0-.8-.1h-.2s0,2.3,0,2.3h-2.7V3.3h2.7v.3c.4-.3.8-.5,1.3-.5ZM55.9,7.3c.4,0,.5-.4.5-1.1s0-.6-.1-.8-.2-.2-.4-.2h-.4v2c.1,0,.2,0,.4,0Z"/>
        <path d="M59.7,9.3V1.1h2.7v8.3h-2.7Z"/>
        <path d="M68.9,5.2v2.3c0,0,.2.1.3.1v1.7c-.7,0-1.1.1-1.3.1s-.4,0-.6-.1c-.2,0-.3-.1-.4-.2h0c-.5.2-1.1.3-1.8.3s-1.2-.2-1.6-.5c-.4-.3-.5-.8-.5-1.6s.2-1.2.6-1.4c.4-.2,1.1-.4,1.9-.4h.9c0-.3-.2-.4-.5-.4-.7,0-1.5,0-2.2.1h-.4s0-1.8,0-1.8c1.1-.3,2-.4,2.9-.4s1.6.1,2.1.4c.5.3.8.9.8,1.7ZM65.8,7.6c.2,0,.3,0,.5-.2v-.4h-.4c-.2,0-.3.1-.3.3s0,.3.3.3Z"/>
        <path d="M72.6,5.4v1.2c0,.2,0,.3,0,.4,0,0,.2.1.3.1h.5s0,2.1,0,2.1c-.7.1-1.2.2-1.6.2-.7,0-1.3-.2-1.6-.5-.3-.3-.5-.9-.5-1.7v-1.9h-.5v-2.2h.5v-1.2h2.7v1.2h1v2.2h-1Z"/>
        <path d="M76.6,7.1c0,.3.2.4.5.4.8,0,1.6,0,2.4,0h.5s0,1.7,0,1.7c-1.1.2-2.1.3-3.2.3s-1.8-.2-2.3-.7c-.5-.5-.7-1.3-.7-2.4s.3-1.9.8-2.5,1.3-.8,2.4-.8,1.9.2,2.4.7c.5.5.8,1.2.8,2.1v1.2h-3.6ZM77.5,5.6c0-.2,0-.4-.1-.5,0,0-.2-.1-.4-.1s-.3,0-.3.1c0,0,0,.3-.1.5h.9Z"/>
      </g>
      <rect class="cls-1" x="30.1" y="12.1" width="58.5" height="10.8"/>
      <g class="cls-3">
        <path d="M36.3,20.2c-.8.2-1.7.3-2.6.3s-1.6-.1-2.1-.4-.8-.7-1-1.3c-.2-.6-.3-1.4-.3-2.6,0-1.6.2-2.7.7-3.3.5-.6,1.4-.9,2.8-.9s1.3,0,2,.2h.4c0,0,0,2.2,0,2.2-.7,0-1.3-.1-1.8-.1s-.9.1-1.1.3c-.2.2-.2.7-.2,1.3s0,1.1.1,1.4c0,.3.2.4.4.5s.4.1.8.1h1.9c0,0,0,2,0,2Z"/>
        <path d="M36.8,20.4v-8.3h2.7v8.3h-2.7Z"/>
        <path d="M46.1,16.3v2.3c0,0,.2.1.3.1v1.7c-.7,0-1.1.1-1.3.1s-.4,0-.6-.1c-.2,0-.3-.1-.4-.2h0c-.5.2-1.1.3-1.8.3s-1.2-.2-1.6-.5c-.4-.3-.5-.8-.5-1.6s.2-1.2.6-1.4c.4-.2,1.1-.4,1.9-.4h.9c0-.3-.2-.4-.5-.4-.7,0-1.5,0-2.2.1h-.4s0-1.8,0-1.8c1.1-.3,2-.4,2.9-.4s1.6.1,2.1.4c.5.3.8.9.8,1.7ZM42.9,18.7c.2,0,.3,0,.5-.2v-.4h-.4c-.2,0-.3.1-.3.3s0,.3.3.3Z"/>
        <path d="M52,16.3c-1-.1-1.7-.2-2-.2s-.5,0-.5,0,.3.1.9.2,1.1.2,1.4.5.4.8.4,1.5-.2,1.2-.7,1.5c-.4.3-1.1.5-2,.5s-1,0-1.4,0c-.5,0-.8-.1-1-.2h-.3c0,0,0-1.9,0-1.9,1,.1,1.7.2,2.1.2s.6,0,.6-.1-.3-.1-.9-.2-1.1-.3-1.4-.6-.4-.8-.4-1.4.2-1.4.7-1.7c.5-.3,1.1-.5,2-.5s1.7,0,2.3.2h.3c0,0,0,2,0,2Z"/>
        <path d="M57.9,16.3c-1-.1-1.7-.2-2-.2s-.5,0-.5,0,.3.1.9.2,1.1.2,1.4.5.4.8.4,1.5-.2,1.2-.7,1.5c-.4.3-1.1.5-2,.5s-1,0-1.4,0c-.5,0-.8-.1-1-.2h-.3c0,0,0-1.9,0-1.9,1,.1,1.7.2,2.1.2s.6,0,.6-.1-.3-.1-.9-.2-1.1-.3-1.4-.6c-.3-.3-.4-.8-.4-1.4s.2-1.4.7-1.7,1.1-.5,2-.5,1.7,0,2.3.2h.3c0,0,0,2,0,2Z"/>
        <path d="M61.2,18.1c0,.3.2.4.5.4.8,0,1.6,0,2.4,0h.5s0,1.7,0,1.7c-1.1.2-2.1.3-3.2.3s-1.8-.2-2.3-.7c-.5-.5-.7-1.3-.7-2.4s.3-1.9.8-2.5,1.3-.8,2.4-.8,1.9.2,2.4.7c.5.5.8,1.2.8,2.1v1.2h-3.6ZM62.1,16.7c0-.2,0-.4-.1-.5,0,0-.2-.1-.4-.1s-.3,0-.3.1c0,0-.1.3-.1.5h.9Z"/>
      </g>
      <polygon points="14.5 17.7 14.2 20.9 17.3 20.5 26 11.8 23.2 9 14.5 17.7"/>
      <rect x="24.6" y="7.1" width="2.8" height="3.9" transform="translate(1.2 21) rotate(-45)"/>
      <polygon points="14.5 17.7 14.2 20.9 17.3 20.5 26 11.8 23.2 9 14.5 17.7"/>
      <path d="M14.1,4.4l.7.7h-.7v-.7M13.1,2v4.1h4.1l-4.1-4.1h0Z"/>
      <line class="cls-2" x1="6.1" y1="14.5" x2="13.7" y2="14.5"/>
      <line class="cls-2" x1="6.1" y1="11.6" x2="13.7" y2="11.6"/>
      <line class="cls-2" x1="6.1" y1="8.7" x2="13.7" y2="8.7"/>
      <polygon points="17.3 13.5 17.3 6.2 16.3 5.2 16.3 14.5 17.3 13.5"/>
      <polygon points="13.2 21 3.1 21 3.1 3 14.1 3 13.1 2 2.1 2 2.1 22 13.1 22 13.2 21"/>
    </g>
  </g>
</svg>