<?xml version="1.0" encoding="utf-8"?>
<!-- Generator: Adobe Illustrator 26.0.3, SVG Export Plug-In . SVG Version: 6.00 Build 0)  -->
<svg version="1.1" xmlns="http://www.w3.org/2000/svg" xmlns:xlink="http://www.w3.org/1999/xlink" x="0px" y="0px"
	 viewBox="0 0 36 36" style="enable-background:new 0 0 36 36;" xml:space="preserve">
<style type="text/css">
	.st0{fill:none;stroke:#000000;stroke-width:3;stroke-miterlimit:10;}
</style>
<g id="Layer_2">
	<path d="M13.3,14.8c-0.4,0-0.7-0.1-1-0.4c-0.6-0.6-0.6-1.5,0-2l2.9-2.9l-3-3c-0.6-0.6-0.6-1.5,0-2c0.6-0.6,1.5-0.6,2,0l5.1,5.1
		l-4.9,4.9C14,14.6,13.7,14.8,13.3,14.8z"/>
	<path class="st0" d="M15.5,28.7c-5.3,0-9.7-4.3-9.7-9.7s4.3-9.7,9.7-9.7"/>
	<path d="M22.9,23.2c0.4,0,0.7,0.1,1,0.4c0.6,0.6,0.6,1.5,0,2L21,28.6l3,3c0.6,0.6,0.6,1.5,0,2s-1.5,0.6-2,0L17,28.6l4.9-4.9
		C22.2,23.4,22.6,23.2,22.9,23.2z"/>
	<path class="st0" d="M20.7,9.4c5.3,0,9.7,4.3,9.7,9.7s-4.3,9.7-9.7,9.7"/>
</g>
<g id="Layer_1">
</g>
</svg>
