<?xml version="1.0" encoding="utf-8"?>
<!-- Generator: Adobe Illustrator 26.0.3, SVG Export Plug-In . SVG Version: 6.00 Build 0)  -->
<svg version="1.1" xmlns="http://www.w3.org/2000/svg" xmlns:xlink="http://www.w3.org/1999/xlink" x="0px" y="0px"
	 viewBox="0 0 36 36" style="enable-background:new 0 0 36 36;" xml:space="preserve">
<g id="Layer_2">
	<path d="M20.2,23.5c0-4.4,3.6-8,8-8c0.3,0,0.6,0,0.9,0V10c0-1.7-1.4-3.1-3.1-3.1H6.7C5,6.9,3.6,8.3,3.6,10v14.4
		c0,1.7,1.4,3.1,3.1,3.1h14.5C20.6,26.3,20.2,24.9,20.2,23.5z M7,13.2V9.7l9.3,5.5L25,9.7v3.5l-8.7,5.1L7,13.2z"/>
	<g>
		<line x1="32.4" y1="24.3" x2="23.8" y2="24.3"/>
		<path d="M32.4,25.6h-8.6c-0.7,0-1.3-0.6-1.3-1.3c0-0.7,0.6-1.3,1.3-1.3h8.6c0.7,0,1.3,0.6,1.3,1.3C33.6,25,33.1,25.6,32.4,25.6z"
			/>
	</g>
	<path d="M28.9,29.1c-0.3,0-0.6-0.1-0.9-0.4c-0.5-0.5-0.5-1.3,0-1.8l2.6-2.6l-2.7-2.7c-0.5-0.5-0.5-1.3,0-1.8c0.5-0.5,1.3-0.5,1.8,0
		l4.5,4.5l-4.4,4.4C29.5,29,29.2,29.1,28.9,29.1z"/>
</g>
<g id="Layer_1">
</g>
</svg>
