<?xml version="1.0" encoding="utf-8"?>
<!-- Generator: Adobe Illustrator 26.0.2, SVG Export Plug-In . SVG Version: 6.00 Build 0)  -->
<svg version="1.1" id="Layer_1" xmlns="http://www.w3.org/2000/svg" xmlns:xlink="http://www.w3.org/1999/xlink" x="0px" y="0px"
	 viewBox="0 0 36 24" style="enable-background:new 0 0 36 24;" xml:space="preserve">
<g>
	<path d="M19.7,12.9c0-0.3,0.1-0.6,0.1-0.9c0-0.3,0-0.6-0.1-0.9l2-1.6c0.2-0.1,0.2-0.4,0.1-0.6L20,5.6c-0.1-0.2-0.4-0.3-0.6-0.2
		l-2.4,1c-0.5-0.4-1-0.7-1.6-0.9L15,2.8c0-0.2-0.2-0.4-0.5-0.4h-3.8c-0.2,0-0.4,0.2-0.5,0.4L9.9,5.4C9.3,5.6,8.7,5.9,8.2,6.3l-2.4-1
		c-0.2-0.1-0.5,0-0.6,0.2L3.3,8.9C3.2,9.1,3.3,9.3,3.5,9.5l2,1.6c0,0.3-0.1,0.6-0.1,0.9s0,0.6,0.1,0.9l-2,1.6
		c-0.2,0.1-0.2,0.4-0.1,0.6l1.9,3.3c0.1,0.2,0.4,0.3,0.6,0.2l2.4-1c0.5,0.4,1,0.7,1.6,0.9l0.4,2.5c0.1,0.2,0.2,0.4,0.5,0.4h3.8
		c0.2,0,0.4-0.2,0.5-0.4l0.4-2.5c0.6-0.2,1.1-0.6,1.6-0.9l2.4,1c0.2,0.1,0.5,0,0.6-0.2l1.9-3.3c0.1-0.2,0.1-0.5-0.1-0.6L19.7,12.9z
		 M12.6,15.6C10.6,15.6,9,14,9,12s1.6-3.6,3.6-3.6s3.6,1.6,3.6,3.6S14.6,15.6,12.6,15.6z"/>
</g>
</svg>
