<?xml version="1.0" encoding="utf-8"?>
<!-- Generator: Adobe Illustrator 26.0.3, SVG Export Plug-In . SVG Version: 6.00 Build 0)  -->
<svg version="1.1" id="Layer_1" xmlns="http://www.w3.org/2000/svg" xmlns:xlink="http://www.w3.org/1999/xlink" x="0px" y="0px"
	 viewBox="0 0 24 24" style="enable-background:new 0 0 24 24;" xml:space="preserve">
<style type="text/css">
	.st0{fill:#00B400;}
	.st1{fill:#FAFAFA;}
</style>
<circle class="st0" cx="12" cy="12.3" r="11.7"/>
<g>
	<path class="st1" d="M17.7,6.2c0.2,0,0.4,0.1,0.6,0.2l1.3,1.3c0.3,0.3,0.3,0.9,0,1.2l-0.3,0.3l-2.5-2.4L17,6.4
		C17.2,6.3,17.4,6.2,17.7,6.2 M8.5,3.8c-2.1,0-3,1.2-3.1,1.3C5.1,5.5,5.1,6,5.5,6.3c0.2,0.1,0.4,0.2,0.6,0.2c0.2,0,0.5-0.1,0.6-0.3
		c0.1,0,0.6-0.6,1.7-0.6s1.8,0.5,1.8,0.9C10.2,7,8.9,7.6,8,8c-1.5,0.7-3.2,1.5-3.2,3.1c0,0.9,0.5,1.6,1.4,2.1l1.5-1.3
		c-0.6-0.3-1-0.5-1-0.8c0-0.5,1.2-1,2.1-1.4c1.5-0.7,3.3-1.5,3.3-3.2C12.1,5,10.6,3.8,8.5,3.8L8.5,3.8z M17.7,5.2
		c-0.5,0-1,0.2-1.4,0.5l-1,1l3.9,3.8l1-1c0.7-0.7,0.7-1.9,0-2.6l-1.3-1.3C18.6,5.3,18.1,5.2,17.7,5.2L17.7,5.2z M14.1,8l-8.3,8.4
		v3.8h3.8l8.3-8.3L14.1,8L14.1,8z M7.5,18.3V17l6.5-6.5l1.3,1.3l-6.5,6.5H7.5L7.5,18.3z M17.7,14.6l-1.3,1.3
		c0.7,0.3,1.1,0.7,1.1,1.1c0,0.7-1.3,1.4-2.7,1.4c-0.5,0-0.9,0.4-0.9,0.9s0.4,0.9,0.9,0.9c2.2,0,4.5-1.2,4.5-3.2
		C19.3,15.9,18.7,15.1,17.7,14.6L17.7,14.6z"/>
</g>
<g>
	<path class="st1" d="M12,1.6c5.9,0,10.7,4.8,10.7,10.7S17.9,23,12,23S1.3,18.2,1.3,12.3S6.1,1.6,12,1.6 M12,0.6
		C5.5,0.6,0.3,5.8,0.3,12.3S5.5,24,12,24s11.7-5.2,11.7-11.7S18.5,0.6,12,0.6L12,0.6z"/>
</g>
</svg>
