<?xml version="1.0" encoding="utf-8"?>
<!-- Generator: Adobe Illustrator 26.0.3, SVG Export Plug-In . SVG Version: 6.00 Build 0)  -->
<svg version="1.1" id="Layer_1" xmlns="http://www.w3.org/2000/svg" xmlns:xlink="http://www.w3.org/1999/xlink" x="0px" y="0px"
	 viewBox="0 0 24 24" style="enable-background:new 0 0 24 24;" xml:space="preserve">
<style type="text/css">
	.st0{fill:#FAFAFA;}
	.st1{fill:#00B400;}
</style>
<circle class="st0" cx="12" cy="12.3" r="11.7"/>
<path class="st1" d="M18.2,10.5l1-1c0.7-0.7,0.7-1.9,0-2.6l-1.3-1.3C17.2,5,16,5,15.3,5.7l-1,1L18.2,10.5z M14.3,11.8l-6.5,6.5H6.5
	v-1.3l6.5-6.5L14.3,11.8z M13.1,8l-8.3,8.4v3.8h3.8l8.3-8.3L13.1,8L13.1,8z M18.3,17c0,2-2.3,3.2-4.5,3.2c-0.5,0-0.9-0.4-0.9-0.9
	c0-0.5,0.4-0.9,0.9-0.9c1.4,0,2.7-0.7,2.7-1.4c0-0.4-0.4-0.8-1.1-1.1l1.3-1.3C17.7,15.1,18.3,15.9,18.3,17z M5.2,13.2
	c-0.9-0.5-1.4-1.2-1.4-2.1C3.8,9.5,5.5,8.7,7,8c0.9-0.4,2.2-1,2.2-1.5c0-0.4-0.7-0.9-1.8-0.9c-1.1,0-1.6,0.6-1.7,0.6
	C5.5,6.6,4.9,6.6,4.5,6.3C4.1,6,4.1,5.5,4.4,5.1c0.1-0.1,1-1.3,3.1-1.3s3.6,1.2,3.6,2.7c0,1.7-1.8,2.5-3.3,3.2
	c-0.9,0.4-2.1,0.9-2.1,1.4c0,0.3,0.4,0.5,1,0.8L5.2,13.2z"/>
</svg>
