<?xml version="1.0" encoding="utf-8"?>
<!-- Generator: Adobe Illustrator 26.0.3, SVG Export Plug-In . SVG Version: 6.00 Build 0)  -->
<svg version="1.1" id="Layer_1" xmlns="http://www.w3.org/2000/svg" xmlns:xlink="http://www.w3.org/1999/xlink" x="0px" y="0px"
	 viewBox="0 0 24 24" style="enable-background:new 0 0 24 24;" xml:space="preserve">
<style type="text/css">
	.st0{fill:#FF0000;}
	.st1{fill:#FAFAFA;}
</style>
<circle class="st0" cx="12" cy="12" r="11.7"/>
<g>
	<path class="st1" d="M17.7,5.9c0.2,0,0.4,0.1,0.6,0.2l1.3,1.3c0.3,0.3,0.3,0.9,0,1.2l-0.3,0.3l-2.5-2.4L17,6.1
		C17.2,6,17.4,5.9,17.7,5.9 M8.5,3.5c-2.1,0-3,1.2-3.1,1.3C5.1,5.2,5.1,5.7,5.5,6c0.2,0.1,0.4,0.2,0.6,0.2c0.2,0,0.5-0.1,0.6-0.3
		c0.1,0,0.6-0.6,1.7-0.6s1.8,0.5,1.8,0.9c0,0.5-1.3,1.1-2.2,1.5c-1.5,0.7-3.2,1.5-3.2,3.1c0,0.9,0.5,1.6,1.4,2.1l1.5-1.3
		c-0.6-0.3-1-0.5-1-0.8c0-0.5,1.2-1,2.1-1.4c1.5-0.7,3.3-1.5,3.3-3.2C12.1,4.7,10.6,3.5,8.5,3.5L8.5,3.5z M17.7,4.9
		c-0.5,0-1,0.2-1.4,0.5l-1,1l3.9,3.8l1-1c0.7-0.7,0.7-1.9,0-2.6l-1.3-1.3C18.6,5,18.1,4.9,17.7,4.9L17.7,4.9z M14.1,7.7l-8.3,8.4
		v3.8h3.8l8.3-8.3L14.1,7.7L14.1,7.7z M7.5,18v-1.3l6.5-6.5l1.3,1.3L8.8,18H7.5L7.5,18z M17.7,14.3l-1.3,1.3
		c0.7,0.3,1.1,0.7,1.1,1.1c0,0.7-1.3,1.4-2.7,1.4c-0.5,0-0.9,0.4-0.9,0.9s0.4,0.9,0.9,0.9c2.2,0,4.5-1.2,4.5-3.2
		C19.3,15.6,18.7,14.8,17.7,14.3L17.7,14.3z"/>
</g>
<g>
	<path class="st1" d="M12,1.3c5.9,0,10.7,4.8,10.7,10.7S17.9,22.7,12,22.7S1.3,17.9,1.3,12S6.1,1.3,12,1.3 M12,0.3
		C5.5,0.3,0.3,5.5,0.3,12S5.5,23.7,12,23.7S23.7,18.5,23.7,12S18.5,0.3,12,0.3L12,0.3z"/>
</g>
</svg>
