<?xml version="1.0" encoding="utf-8"?>
<!-- Generator: Adobe Illustrator 26.0.3, SVG Export Plug-In . SVG Version: 6.00 Build 0)  -->
<svg version="1.1" id="Layer_1" xmlns="http://www.w3.org/2000/svg" xmlns:xlink="http://www.w3.org/1999/xlink" x="0px" y="0px"
	 viewBox="0 0 24 24" style="enable-background:new 0 0 24 24;" xml:space="preserve">
<style type="text/css">
	.st0{fill:#FFFFFF;}
	.st1{fill:#FF0000;}
	.st2{fill:none;}
	.st3{fill:#939393;}
</style>
<path class="st0" d="M5,22c-1.7,0-3-1.3-3-3V5c0-1.7,1.3-3,3-3h14c1.7,0,3,1.3,3,3v14c0,1.7-1.3,3-3,3H5z"/>
<path class="st1" d="M19,3H5C3.9,3,3,3.9,3,5v14c0,1.1,0.9,2,2,2h14c1.1,0,2-0.9,2-2V5C21,3.9,20.1,3,19,3z"/>
<path class="st2" d="M0,0h24v24H0V0z"/>
<polygon class="st0" points="18,9 16.6,7.6 10,14.2 7.4,11.6 6,13 10,17 "/>
<rect x="25.3" y="5" class="st3" width="14" height="14"/>
</svg>
