<?xml version="1.0" encoding="utf-8"?>
<!-- Generator: Adobe Illustrator 26.0.3, SVG Export Plug-In . SVG Version: 6.00 Build 0)  -->
<svg version="1.1" id="Layer_1" xmlns="http://www.w3.org/2000/svg" xmlns:xlink="http://www.w3.org/1999/xlink" x="0px" y="0px"
	 viewBox="0 0 400 400" style="enable-background:new 0 0 400 400;" xml:space="preserve">
<style type="text/css">
	.st0{fill:#FFFFFF;}
	.st1{fill:#2CB7AD;}
</style>
<rect x="62" y="76" class="st0" width="12" height="274"/>
<rect x="127.6" y="76" class="st0" width="12" height="35"/>
<rect x="258.8" y="76" class="st0" width="12" height="35"/>
<rect x="127.6" y="315" class="st0" width="12" height="35"/>
<rect x="258.8" y="315" class="st0" width="12" height="35"/>
<rect x="325.5" y="76" class="st0" width="10.5" height="274"/>
<rect x="62" y="338" class="st0" width="274" height="12"/>
<rect x="292.2" y="207" class="st0" width="43.8" height="10.6"/>
<rect x="62" y="207" class="st0" width="43.8" height="10.6"/>
<rect x="62" y="76" class="st0" width="274" height="12"/>
<rect x="62" y="273" class="st0" width="32.1" height="11"/>
<rect x="303.9" y="142" class="st0" width="32.1" height="11"/>
<rect x="62" y="142" class="st0" width="32.1" height="11"/>
<rect x="303.9" y="273" class="st0" width="32.1" height="11"/>
<polygon class="st1" points="423.8,294.5 743.8,76.8 762,104.5 442,322.2 "/>
<rect x="193.7" y="306.2" class="st0" width="10.6" height="43.8"/>
<rect x="193.7" y="76" class="st0" width="10.6" height="43.8"/>
</svg>
