<?xml version="1.0" encoding="utf-8"?>
<!-- Generator: Adobe Illustrator 26.0.3, SVG Export Plug-In . SVG Version: 6.00 Build 0)  -->
<svg version="1.1" id="Layer_1" xmlns="http://www.w3.org/2000/svg" xmlns:xlink="http://www.w3.org/1999/xlink" x="0px" y="0px"
	 viewBox="0 0 400 400" style="enable-background:new 0 0 400 400;" xml:space="preserve">
<style type="text/css">
	.st0{fill:#FFFFFF;}
</style>
<polygon class="st0" points="26,294.5 346,76.8 364.2,104.5 44.2,322.2 "/>
<g>
	<polygon class="st0" points="74,300.9 74,284 94.1,284 94.1,273 74,273 74,217.6 105.8,217.6 105.8,207 74,207 74,153 94.1,153 
		94.1,142 74,142 74,88 127.6,88 127.6,111 139.6,111 139.6,88 193.7,88 193.7,119.8 204.3,119.8 204.3,88 258.8,88 258.8,111 
		270.8,111 270.8,88 325.5,88 325.5,129.9 336,122.7 336,88 336,76 325.5,76 270.8,76 258.8,76 204.3,76 193.7,76 139.6,76 
		127.6,76 74,76 62,76 62,88 62,142 62,153 62,207 62,217.6 62,273 62,284 62,309.1 	"/>
	<polygon class="st0" points="303.9,144.5 307.6,142 303.9,142 	"/>
	<polygon class="st0" points="325.5,169.9 325.5,207 292.2,207 292.2,217.6 325.5,217.6 325.5,273 303.9,273 303.9,284 325.5,284 
		325.5,338 270.8,338 270.8,315 258.8,315 258.8,338 204.3,338 204.3,306.2 193.7,306.2 193.7,338 139.6,338 139.6,315 127.6,315 
		127.6,338 78.5,338 62,349.2 62,350 74,350 127.6,350 139.6,350 193.7,350 204.3,350 258.8,350 270.8,350 325.5,350 336,350 
		336,338 336,284 336,273 336,217.6 336,207 336,162.8 	"/>
</g>
</svg>
