<?xml version="1.0" encoding="utf-8"?>
<!-- Generator: Adobe Illustrator 26.0.3, SVG Export Plug-In . SVG Version: 6.00 Build 0)  -->
<svg version="1.1" id="Layer_1" xmlns="http://www.w3.org/2000/svg" xmlns:xlink="http://www.w3.org/1999/xlink" x="0px" y="0px"
	 viewBox="0 0 36 24" style="enable-background:new 0 0 36 24;" xml:space="preserve">
<circle cx="23.9" cy="11.8" r="0.8"/>
<circle cx="7.8" cy="11.8" r="0.8"/>
<circle cx="11.9" cy="11.8" r="0.8"/>
<path d="M7.9,5.8c0.6,2.5,2.8,4.3,5.5,4.3c0.8,0,1.6-0.2,2.3-0.5c-0.9-2.4-3.2-4.1-5.9-4.1C9.2,5.6,8.5,5.6,7.9,5.8z"/>
<path d="M8.9,17.6V18c0,2,1.7,3.6,3.8,3.6h3.6c-0.6-0.5-1.3-1.2-1.3-2.2l-2.3,0c-0.9,0-1.6-0.6-1.6-1.4v-0.5c0-0.8,0.7-1.4,1.6-1.4
	h3.8c0.9,0,1.6,0.6,1.6,1.4V18c0,0.6,0.5,1.1,1.1,1.1s1.1-0.5,1.1-1.1v-0.5c0-2-1.7-3.6-3.8-3.6h-3.8C10.7,14,8.9,15.6,8.9,17.6z"/>
<path d="M7.9,18v-0.5c0-0.2,0-0.4,0.1-0.7c-2.1-0.8-3.6-2.8-3.6-5.2c0-3,2.5-5.5,5.5-5.5s5.5,2.5,5.5,5.5c0,0.4-0.1,0.8-0.2,1.2h1.4
	c0.1,0,0.1,0,0.2,0c0.1-0.4,0.1-0.8,0.1-1.3c0-3.9-3.1-7-7-7c-3.9,0-7,3.1-7,7C2.9,15,5,17.7,8,18.5C8,18.4,7.9,18.2,7.9,18z"/>
<polygon points="21.7,18.8 21.4,22 24.5,21.6 33.2,12.9 30.4,10.1 "/>
<rect x="31.8" y="8.2" transform="matrix(0.7071 -0.7071 0.7071 0.7071 2.5552 26.4478)" width="2.8" height="3.9"/>
<path d="M28.1,11C28.1,11,28.1,11,28.1,11c-0.5,0-0.9,0.3-0.9,0.8c0,0,0,0,0,0.1L28.1,11z"/>
<g>
	<path d="M20.9,16.6h1.6l2-2c-0.4-0.1-0.8-0.2-1.2-0.2h-3.6C20.2,14.9,20.8,15.6,20.9,16.6z"/>
	<path d="M20.6,19.8h-1.2c-0.9,0-1.6-0.6-1.6-1.4V18c0-0.6-0.5-1.1-1.1-1.1s-1.1,0.5-1.1,1.1v0.5c0,2,1.7,3.6,3.8,3.6h1L20.6,19.8z"
		/>
</g>
<path d="M29,10l2-2c-1.1-1.6-3-2.6-5.1-2.6c-0.6,0.1-1.3,0.1-1.9,0.3C24.6,8.1,26.6,9.8,29,10z"/>
<path d="M20.5,11.8c0-3,2.5-5.5,5.5-5.5c1.8,0,3.5,0.9,4.5,2.3l1.1-1.1c-1.3-1.7-3.3-2.7-5.6-2.7c-3.9,0-7,3.1-7,7
	c0,0.6,0.1,1.1,0.2,1.6h1.6C20.6,12.9,20.5,12.3,20.5,11.8z"/>
</svg>
