<?xml version="1.0" encoding="utf-8"?>
<!-- Generator: Adobe Illustrator 26.0.3, SVG Export Plug-In . SVG Version: 6.00 Build 0)  -->
<svg version="1.1" id="Layer_1" xmlns="http://www.w3.org/2000/svg" xmlns:xlink="http://www.w3.org/1999/xlink" x="0px" y="0px"
	 viewBox="0 0 90 24" style="enable-background:new 0 0 90 24;" xml:space="preserve">
<g>
	<path d="M45.4,5.5c-1.3-0.1-2.3-0.2-2.9-0.2s-0.9,0-1,0s-0.1,0.1-0.1,0.2s0.1,0.2,0.2,0.2s0.4,0.2,1,0.3s1.1,0.3,1.5,0.4
		s0.7,0.3,1,0.5s0.5,0.5,0.6,0.8C45.8,8,45.8,8.5,45.8,9c0,1.2-0.3,2-0.9,2.5c-0.6,0.5-1.5,0.7-2.8,0.7c-0.6,0-1.2,0-1.9-0.1
		s-1.2-0.2-1.5-0.3l-0.5-0.1l0.1-2.5c1.4,0.2,2.6,0.3,3.5,0.3c0.5,0,0.7-0.1,0.7-0.3c0-0.1-0.1-0.2-0.2-0.2c0,0.1-0.3,0-0.8,0
		c-1.3-0.2-2.2-0.5-2.7-1c-0.5-0.4-0.7-1.1-0.7-2.1c0-1.3,0.3-2.1,0.9-2.6c0.6-0.5,1.5-0.7,2.8-0.7c0.9,0,1.9,0.1,3.1,0.3L45.5,3
		L45.4,5.5z"/>
	<path d="M47.1,5.8c0.6-0.6,1.6-0.9,2.8-0.9s2.2,0.3,2.8,0.9s0.9,1.5,0.9,2.8s-0.3,2.3-0.9,2.8s-1.6,0.9-2.8,0.9
		c-1.3,0-2.2-0.3-2.8-0.9s-0.9-1.5-0.9-2.8C46.2,7.3,46.5,6.4,47.1,5.8z M49.5,9.5c0.1,0.2,0.2,0.3,0.4,0.3s0.4-0.1,0.4-0.3
		c0.1-0.2,0.1-0.5,0.1-0.9c0-0.5,0-0.8-0.1-0.9c-0.1-0.2-0.2-0.3-0.4-0.3s-0.4,0.1-0.4,0.3s-0.1,0.5-0.1,0.9
		C49.3,9.1,49.4,9.4,49.5,9.5z"/>
	<path d="M57.6,4.9c0.6,0,1.4,0.1,2.1,0.3l0.4,0.1L60,7.7c-1-0.1-1.6-0.1-1.9-0.1c-0.3,0-0.5,0.1-0.7,0.2c-0.1,0.1-0.2,0.4-0.2,0.8
		s0.1,0.6,0.2,0.8c0.1,0.1,0.3,0.2,0.6,0.2l2-0.1l0.1,2.5c-0.9,0.3-1.8,0.4-2.6,0.4c-1.3,0-2.3-0.3-2.8-0.8S54,10.1,54,8.7
		s0.3-2.3,0.8-2.9C55.4,5.2,56.3,4.9,57.6,4.9z"/>
	<path d="M60.8,4.6V2.5H64v2.1H60.8z M60.8,12.1v-7h3.1v7.1L60.8,12.1L60.8,12.1z"/>
	<path d="M65.4,5.8C66,5.2,67,4.9,68.2,4.9c1.2,0,2.2,0.3,2.8,0.9c0.7,0.6,1,1.5,1,2.8s-0.3,2.3-0.9,2.8s-1.6,0.9-2.8,0.9
		c-1.3,0-2.2-0.3-2.8-0.9c-0.6-0.6-0.9-1.5-0.9-2.8C64.5,7.3,64.8,6.4,65.4,5.8z M67.8,9.5c0.1,0.2,0.2,0.3,0.4,0.3
		c0.2,0,0.4-0.1,0.4-0.3c0.1-0.2,0.1-0.5,0.1-0.9c0-0.5,0-0.8-0.1-0.9c-0.1-0.2-0.2-0.3-0.4-0.3c-0.2,0-0.4,0.1-0.4,0.3
		s-0.1,0.5-0.1,0.9C67.7,9.1,67.7,9.4,67.8,9.5z"/>
</g>
<path d="M5,16.9v0.5c0,2.6,2.2,4.7,5,4.7h4.7c-0.8-0.7-1.7-1.6-1.7-2.9h-3c-1.2,0-2.1-0.8-2.1-1.8v-0.7c0-1,0.9-1.8,2.1-1.8h5
	c1.2,0,2.1,0.8,2.1,1.8v0.7c0,0.8,0.7,1.4,1.4,1.4s1.4-0.7,1.4-1.4v-0.7c0-2.6-2.2-4.7-5-4.7h-5C7.3,12.1,5,14.2,5,16.9z"/>
<circle cx="14.9" cy="8.3" r="0.8"/>
<circle cx="19" cy="8.3" r="0.8"/>
<path d="M15,2.3c0.6,2.5,2.8,4.3,5.5,4.3c0.8,0,1.6-0.2,2.3-0.5C21.9,3.7,19.6,2,16.9,2C16.3,2.1,15.6,2.1,15,2.3z"/>
<path d="M17,2.8c3,0,5.5,2.5,5.5,5.5c0,1.3-0.5,2.5-1.2,3.4h1.8c0.6-1,0.9-2.2,0.9-3.4c0-3.9-3.1-7-7-7c-3.9,0-7,3.1-7,7
	c0,1,0.2,1.9,0.6,2.8l1.7,0c-0.5-0.8-0.8-1.8-0.8-2.8C11.5,5.3,14,2.8,17,2.8z"/>
<path d="M20.8,15.5h2.5l2.5-2.5c-0.6-0.2-1.3-0.4-2-0.4h-4.7C19.9,13.3,20.8,14.2,20.8,15.5z"/>
<path d="M19.6,19.9h-0.8c-1.2,0-2.1-0.8-2.1-1.8v-0.7c0-0.8-0.7-1.4-1.4-1.4c-0.8,0-1.4,0.7-1.4,1.4V18c0,2.6,2.2,4.7,5,4.7h0.5
	L19.6,19.9z"/>
<polygon points="20.7,19.5 20.4,22.7 23.5,22.3 32.2,13.6 29.4,10.8 "/>
<rect x="30.8" y="8.9" transform="matrix(0.7071 -0.7071 0.7071 0.7071 1.7241 25.9342)" width="2.8" height="3.9"/>
</svg>
