<?xml version="1.0" encoding="utf-8"?>
<!-- Generator: Adobe Illustrator 26.0.3, SVG Export Plug-In . SVG Version: 6.00 Build 0)  -->
<svg version="1.1" id="Layer_1" xmlns="http://www.w3.org/2000/svg" xmlns:xlink="http://www.w3.org/1999/xlink" x="0px" y="0px"
	 viewBox="0 0 36 24" style="enable-background:new 0 0 36 24;" xml:space="preserve">
<path d="M6.1,17.1v0.5c0,2.6,2.2,4.7,5,4.7h4.7c-0.8-0.7-1.7-1.6-1.7-2.9h-3c-1.2,0-2.1-0.8-2.1-1.8V17c0-1,0.9-1.8,2.1-1.8h5
	c1.2,0,2.1,0.8,2.1,1.8v0.7c0,0.8,0.7,1.4,1.4,1.4s1.4-0.7,1.4-1.4V17c0-2.6-2.2-4.7-5-4.7h-5C8.5,12.4,6.1,14.5,6.1,17.1z"/>
<circle cx="16" cy="8.6" r="0.8"/>
<circle cx="20.1" cy="8.6" r="0.8"/>
<path d="M16.1,2.6c0.6,2.5,2.8,4.3,5.5,4.3c0.8,0,1.6-0.2,2.3-0.5C23,4,20.7,2.3,18,2.3C17.4,2.4,16.7,2.4,16.1,2.6z"/>
<path d="M18.1,3.1c3,0,5.5,2.5,5.5,5.5c0,1.3-0.5,2.5-1.2,3.4h1.8c0.6-1,0.9-2.2,0.9-3.4c0-3.9-3.1-7-7-7c-3.9,0-7,3.1-7,7
	c0,1,0.2,1.9,0.6,2.8l1.7,0c-0.5-0.8-0.8-1.8-0.8-2.8C12.6,5.6,15.1,3.1,18.1,3.1z"/>
<path d="M21.9,15.8h2.5l2.5-2.5c-0.6-0.2-1.3-0.4-2-0.4h-4.7C21,13.6,21.9,14.5,21.9,15.8z"/>
<path d="M20.8,20.2H20c-1.2,0-2.1-0.8-2.1-1.8v-0.7c0-0.8-0.7-1.4-1.4-1.4c-0.8,0-1.4,0.7-1.4,1.4v0.7c0,2.6,2.2,4.7,5,4.7h0.5
	L20.8,20.2z"/>
<polygon points="21.8,19.8 21.5,23 24.6,22.6 33.3,13.9 30.5,11.1 "/>
<rect x="31.9" y="9.2" transform="matrix(0.7071 -0.7071 0.7071 0.7071 1.8452 26.8232)" width="2.8" height="3.9"/>
</svg>
