<?xml version="1.0" encoding="utf-8"?>
<!-- Generator: Adobe Illustrator 26.0.3, SVG Export Plug-In . SVG Version: 6.00 Build 0)  -->
<svg version="1.1" id="Layer_1" xmlns="http://www.w3.org/2000/svg" xmlns:xlink="http://www.w3.org/1999/xlink" x="0px" y="0px"
	 viewBox="0 0 90 24" style="enable-background:new 0 0 90 24;" xml:space="preserve">
<g>
	<circle cx="23.4" cy="11.4" r="0.8"/>
	<circle cx="7.3" cy="11.4" r="0.8"/>
	<circle cx="11.4" cy="11.4" r="0.8"/>
	<path d="M7.4,5.4c0.6,2.5,2.8,4.3,5.5,4.3c0.8,0,1.6-0.2,2.3-0.5C14.3,6.8,12,5.1,9.3,5.1C8.7,5.2,8,5.2,7.4,5.4z"/>
	<path d="M8.5,17.2v0.5c0,2,1.7,3.6,3.8,3.6h3.6c-0.6-0.5-1.3-1.2-1.3-2.2l-2.3,0c-0.9,0-1.6-0.6-1.6-1.4v-0.5
		c0-0.8,0.7-1.4,1.6-1.4h3.8c0.9,0,1.6,0.6,1.6,1.4v0.5c0,0.6,0.5,1.1,1.1,1.1s1.1-0.5,1.1-1.1v-0.5c0-2-1.7-3.6-3.8-3.6h-3.8
		C10.2,13.7,8.5,15.3,8.5,17.2z"/>
	<path d="M7.5,17.7v-0.5c0-0.2,0-0.4,0.1-0.7c-2.1-0.8-3.6-2.8-3.6-5.2c0-3,2.5-5.5,5.5-5.5s5.5,2.5,5.5,5.5c0,0.4-0.1,0.8-0.2,1.2
		h1.4c0.1,0,0.1,0,0.2,0c0.1-0.4,0.1-0.8,0.1-1.3c0-3.9-3.1-7-7-7c-3.9,0-7,3.1-7,7c0,3.2,2.1,5.9,5.1,6.7C7.5,18,7.5,17.8,7.5,17.7
		z"/>
	<polygon points="21.2,18.4 20.9,21.6 24,21.2 32.7,12.5 29.9,9.7 	"/>
	<rect x="31.3" y="7.8" transform="matrix(0.7071 -0.7071 0.7071 0.7071 2.6617 26.0024)" width="2.8" height="3.9"/>
	<path d="M27.6,10.6C27.6,10.6,27.6,10.6,27.6,10.6c-0.5,0-0.9,0.3-0.9,0.8c0,0,0,0,0,0.1L27.6,10.6z"/>
	<g>
		<path d="M20.4,16.2H22l2-2c-0.4-0.1-0.8-0.2-1.2-0.2h-3.6C19.7,14.5,20.4,15.2,20.4,16.2z"/>
		<path d="M20.1,19.5h-1.2c-0.9,0-1.6-0.6-1.6-1.4v-0.5c0-0.6-0.5-1.1-1.1-1.1c-0.6,0-1.1,0.5-1.1,1.1v0.5c0,2,1.7,3.6,3.8,3.6h1
			L20.1,19.5z"/>
	</g>
	<path d="M28.6,9.7l2-2c-1.1-1.6-3-2.6-5.1-2.6c-0.6,0.1-1.3,0.1-1.9,0.3C24.1,7.8,26.1,9.5,28.6,9.7z"/>
	<path d="M20,11.4c0-3,2.5-5.5,5.5-5.5c1.8,0,3.5,0.9,4.5,2.3l1.1-1.1c-1.3-1.7-3.3-2.7-5.6-2.7c-3.9,0-7,3.1-7,7
		c0,0.6,0.1,1.1,0.2,1.6h1.6C20.1,12.5,20,12,20,11.4z"/>
</g>
<g>
	<path d="M45.4,5.5c-1.3-0.1-2.3-0.2-2.9-0.2s-0.9,0-1,0s-0.1,0.1-0.1,0.2c0,0.1,0.1,0.2,0.2,0.2S42,5.9,42.6,6
		c0.6,0.1,1.1,0.3,1.5,0.4s0.7,0.3,1,0.5c0.3,0.2,0.5,0.5,0.6,0.8c0.1,0.3,0.1,0.8,0.1,1.3c0,1.2-0.3,2-0.9,2.5
		c-0.6,0.5-1.5,0.7-2.8,0.7c-0.6,0-1.2,0-1.9-0.1c-0.7-0.1-1.2-0.2-1.5-0.3l-0.5-0.1l0.1-2.5c1.4,0.2,2.6,0.3,3.5,0.3
		c0.5,0,0.7-0.1,0.7-0.3c0-0.1-0.1-0.2-0.2-0.2C42.3,9.1,42,9,41.5,9c-1.3-0.2-2.2-0.5-2.7-1c-0.5-0.4-0.7-1.1-0.7-2.1
		c0-1.3,0.3-2.1,0.9-2.6c0.6-0.5,1.5-0.7,2.8-0.7c0.9,0,1.9,0.1,3.1,0.3l0.6,0.1L45.4,5.5z"/>
	<path d="M47.1,5.8c0.6-0.6,1.6-0.9,2.8-0.9c1.2,0,2.2,0.3,2.8,0.9c0.6,0.6,0.9,1.5,0.9,2.8c0,1.3-0.3,2.3-0.9,2.8s-1.6,0.9-2.8,0.9
		c-1.3,0-2.2-0.3-2.8-0.9s-0.9-1.5-0.9-2.8C46.2,7.3,46.5,6.4,47.1,5.8z M49.5,9.5c0.1,0.2,0.2,0.3,0.4,0.3c0.2,0,0.4-0.1,0.4-0.3
		c0.1-0.2,0.1-0.5,0.1-0.9c0-0.5,0-0.8-0.1-0.9c-0.1-0.2-0.2-0.3-0.4-0.3c-0.2,0-0.4,0.1-0.4,0.3s-0.1,0.5-0.1,0.9
		C49.3,9.1,49.4,9.4,49.5,9.5z"/>
	<path d="M57.6,4.9c0.6,0,1.4,0.1,2.1,0.3l0.4,0.1L60,7.7c-1-0.1-1.6-0.1-1.9-0.1c-0.3,0-0.5,0.1-0.7,0.2c-0.1,0.1-0.2,0.4-0.2,0.8
		c0,0.4,0.1,0.6,0.2,0.8c0.1,0.1,0.3,0.2,0.6,0.2l2-0.1l0.1,2.5c-0.9,0.3-1.8,0.4-2.6,0.4c-1.3,0-2.3-0.3-2.8-0.8s-0.7-1.5-0.7-2.9
		s0.3-2.3,0.8-2.9C55.4,5.2,56.3,4.9,57.6,4.9z"/>
	<path d="M60.8,4.6V2.5h3.2v2.1H60.8z M60.8,12.1V5.1h3.1v7.1H60.8z"/>
	<path d="M65.4,5.8c0.6-0.6,1.6-0.9,2.8-0.9c1.2,0,2.2,0.3,2.8,0.9C71.7,6.4,72,7.3,72,8.6c0,1.3-0.3,2.3-0.9,2.8s-1.6,0.9-2.8,0.9
		c-1.3,0-2.2-0.3-2.8-0.9c-0.6-0.6-0.9-1.5-0.9-2.8C64.5,7.3,64.8,6.4,65.4,5.8z M67.8,9.5c0.1,0.2,0.2,0.3,0.4,0.3
		c0.2,0,0.4-0.1,0.4-0.3c0.1-0.2,0.1-0.5,0.1-0.9c0-0.5,0-0.8-0.1-0.9c-0.1-0.2-0.2-0.3-0.4-0.3c-0.2,0-0.4,0.1-0.4,0.3
		s-0.1,0.5-0.1,0.9C67.7,9.1,67.7,9.4,67.8,9.5z"/>
</g>
</svg>
