<?xml version="1.0" encoding="utf-8"?>
<!-- Generator: Adobe Illustrator 26.0.3, SVG Export Plug-In . SVG Version: 6.00 Build 0)  -->
<svg version="1.1" id="Layer_1" xmlns="http://www.w3.org/2000/svg" xmlns:xlink="http://www.w3.org/1999/xlink" x="0px" y="0px"
	 viewBox="0 0 36 24" style="enable-background:new 0 0 36 24;" xml:space="preserve">
<rect x="25.6" y="16" width="8.8" height="2"/>
<polygon points="34.4,11 25.6,11 25.6,11.2 25.6,11.2 25.6,11.2 25.6,13 34.4,13 "/>
<rect x="25.6" y="6" width="8.8" height="2"/>
<path d="M10.6,8v7.4l6.5-3.7L10.6,8z M21.7,4.3H5.1c-1,0-1.9,0.8-1.9,1.9v11.1c0,1,0.8,1.9,1.9,1.9h4.6V21h7.4v-1.9h4.6
	c1,0,1.9-0.8,1.9-1.9v-11C23.6,5.1,22.8,4.3,21.7,4.3z M21.7,17.3H5.1V6.2h16.7v11.1H21.7z"/>
</svg>
