<?xml version="1.0" encoding="utf-8"?>
<!-- Generator: Adobe Illustrator 26.0.3, SVG Export Plug-In . SVG Version: 6.00 Build 0)  -->
<svg version="1.1" id="Layer_1" xmlns="http://www.w3.org/2000/svg" xmlns:xlink="http://www.w3.org/1999/xlink" x="0px" y="0px"
	 viewBox="0 0 24 24" style="enable-background:new 0 0 24 24;" xml:space="preserve">
<style type="text/css">
	.st0{fill:#FFFFFF;}
</style>
<path d="M32.1,9.3c-2.8,0-5.3,1.2-5.3,1.2v3.4v3.4c0,0,2.5,1.2,5.3,1.2s5.3-1.2,5.3-1.2v-3.4v-3.4C37.4,10.5,34.9,9.3,32.1,9.3z"/>
<path class="st0" d="M12.2,13.5V9.7c-0.1-1.2-1-3.5-3.8-3.6l0,0c-0.1,0-0.1,0-0.2,0s-0.1,0-0.2,0l0,0C5.4,6.2,4.5,8.5,4.4,9.7v3.8
	h1.7V9.8c0-0.3,0.3-1.9,2.2-2c1.9,0.1,2.2,1.7,2.2,2v3.8h1.7V13.5z"/>
<path d="M-9.9,9.3c-3.3,0-6.1,1.3-6.1,1.3v3.8v3.8c0,0,2.8,1.3,6.1,1.3s6.1-1.3,6.1-1.3v-3.8v-3.8C-3.9,10.6-6.7,9.3-9.9,9.3z"/>
<path d="M-5.3,11.9V7.4C-5.4,6-6.4,3.3-9.7,3.1l0,0c-0.1,0-0.1,0-0.2,0c-0.1,0-0.1,0-0.2,0l0,0c-3.3,0.2-4.3,2.9-4.4,4.3v4.5h2V7.5
	c0-0.4,0.3-2.3,2.6-2.4c2.3,0.1,2.6,2,2.6,2.3v4.5H-5.3z"/>
<path class="st0" d="M18.7,19.9h-8.6c-0.5,0-1-0.4-1-1V13c0-0.5,0.4-1,1-1h8.5c0.5,0,1,0.4,1,1v5.9C19.6,19.5,19.2,19.9,18.7,19.9z"
	/>
</svg>
