<?xml version="1.0" encoding="utf-8"?>
<!-- Generator: Adobe Illustrator 26.0.3, SVG Export Plug-In . SVG Version: 6.00 Build 0)  -->
<svg version="1.1" id="Layer_1" xmlns="http://www.w3.org/2000/svg" xmlns:xlink="http://www.w3.org/1999/xlink" x="0px" y="0px"
	 viewBox="0 0 90 24" style="enable-background:new 0 0 90 24;" xml:space="preserve">
<style type="text/css">
	.st0{fill:none;stroke:#000000;stroke-width:1.7;stroke-miterlimit:10;}
	.st1{font-family:'TitilliumWeb-Black';}
	.st2{font-size:15px;}
</style>
<path d="M17.1,13.7c-1.2-1.1-2.7-1.8-4.5-1.8c-3.5,0-6.4,2.9-6.4,6.4h1.7c0-2.6,2.1-4.7,4.7-4.7c1.3,0,2.4,0.5,3.3,1.4L17.1,13.7z"
	/>
<polygon points="14.5,17.7 14.2,20.9 17.3,20.5 26,11.8 23.2,9 "/>
<rect x="24.6" y="7.1" transform="matrix(0.7071 -0.7071 0.7071 0.7071 1.216 21.0385)" width="2.8" height="3.9"/>
<circle class="st0" cx="12.6" cy="9.4" r="3.3"/>
<path d="M13.3,19.6c-0.3,0-0.5,0-0.8,0c-4.2,0-7.6-3.4-7.6-7.6s3.4-7.6,7.6-7.6c3.8,0,6.9,2.8,7.5,6.3l1.4-1.4
	c-1.2-3.8-4.7-6.6-8.9-6.6c-5.1,0-9.3,4.2-9.3,9.3s4.2,9.3,9.3,9.3c0.2,0,0.4,0,0.6,0L13.3,19.6z"/>
<text transform="matrix(1 0 0 1 28.984 13.3299)" class="st1 st2">Utente</text>
</svg>
