<?xml version="1.0" encoding="UTF-8"?>
<svg xmlns="http://www.w3.org/2000/svg" version="1.1" viewBox="0 0 90 24">
  <defs>
    <style>
      .cls-1 {
        fill: none;
        stroke: #000;
        stroke-miterlimit: 10;
        stroke-width: 1.7px;
      }

      .cls-2 {
        isolation: isolate;
      }
    </style>
  </defs>
  <!-- Generator: Adobe Illustrator 28.7.0, SVG Export Plug-In . SVG Version: 1.2.0 Build 136)  -->
  <g>
    <g id="Layer_1">
      <path d="M17.1,13.7c-1.2-1.1-2.7-1.8-4.5-1.8-3.5,0-6.4,2.9-6.4,6.4h1.7c0-2.6,2.1-4.7,4.7-4.7s2.4.5,3.3,1.4l1.2-1.3Z"/>
      <polygon points="14.5 17.7 14.2 20.9 17.3 20.5 26 11.8 23.2 9 14.5 17.7"/>
      <rect x="24.6" y="7.1" width="2.8" height="3.9" transform="translate(1.2 21) rotate(-45)"/>
      <circle class="cls-1" cx="12.6" cy="9.4" r="3.3"/>
      <path d="M13.3,19.6h-.8c-4.2,0-7.6-3.4-7.6-7.6s3.4-7.6,7.6-7.6,6.9,2.8,7.5,6.3l1.4-1.4c-1.2-3.8-4.7-6.6-8.9-6.6S3.2,6.9,3.2,12s4.2,9.3,9.3,9.3h.6l.2-1.7Z"/>
      <g class="cls-2">
        <path d="M32.9,3.3v6.6c0,.3,0,.5.2.6.1.1.4.2.7.2s.6,0,.7-.2c.1-.1.2-.3.2-.6V3.3h3.5v6.4c0,1.4-.4,2.4-1.1,3-.7.6-1.8.9-3.4.9s-2.6-.3-3.4-.8c-.7-.6-1.1-1.5-1.1-3V3.3h3.5Z"/>
        <path d="M42.7,8.5v1.6c0,.2,0,.4,0,.5s.2.1.4.1h.7s0,2.6,0,2.6c-.9.2-1.5.3-2,.3-.9,0-1.6-.2-2-.6s-.6-1.1-.6-2.1v-2.3h-.6v-2.7h.6v-1.5h3.4v1.5h1.2v2.7h-1.2Z"/>
        <path d="M47.7,10.5c0,.3.2.5.7.5,1,0,2,0,3,0h.6s0,2.1,0,2.1c-1.3.3-2.7.4-4,.4s-2.3-.3-2.9-.9c-.6-.6-.9-1.6-.9-2.9s.3-2.4.9-3.1,1.6-1,2.9-1,2.3.3,3,.9,1,1.4,1,2.6v1.5h-4.5ZM48.9,8.7c0-.3,0-.5-.1-.6s-.2-.2-.4-.2-.4,0-.4.2-.1.3-.1.6h1.1Z"/>
        <path d="M56.2,13.3h-3.4v-7.6h3.3v.4c.6-.4,1.2-.6,1.6-.6,1.1,0,1.8.3,2.3.9.4.6.6,1.6.6,3.1v3.8h-3.4v-3.6c0-.9-.2-1.3-.5-1.3h-.6v4.9Z"/>
        <path d="M65.2,8.5v1.6c0,.2,0,.4,0,.5,0,0,.2.1.4.1h.7s0,2.6,0,2.6c-.9.2-1.5.3-2,.3-.9,0-1.6-.2-2-.6-.4-.4-.6-1.1-.6-2.1v-2.3h-.6v-2.7h.6v-1.5h3.4v1.5h1.2v2.7h-1.2Z"/>
        <path d="M70.3,10.5c0,.3.2.5.7.5,1,0,2,0,3,0h.6s0,2.1,0,2.1c-1.3.3-2.7.4-4,.4s-2.3-.3-2.8-.9c-.6-.6-.9-1.6-.9-2.9s.3-2.4.9-3.1,1.6-1,2.9-1,2.3.3,3,.9,1,1.4,1,2.6v1.5h-4.5ZM71.4,8.7c0-.3,0-.5-.1-.6s-.2-.2-.4-.2-.4,0-.4.2-.1.3-.1.6h1.1Z"/>
      </g>
    </g>
  </g>
</svg>