<?xml version="1.0" encoding="utf-8"?>
<!-- Generator: Adobe Illustrator 26.0.3, SVG Export Plug-In . SVG Version: 6.00 Build 0)  -->
<svg version="1.1" id="Layer_1" xmlns="http://www.w3.org/2000/svg" xmlns:xlink="http://www.w3.org/1999/xlink" x="0px" y="0px"
	 viewBox="0 0 36 24" style="enable-background:new 0 0 36 24;" xml:space="preserve">
<rect x="25.6" y="16" width="8.8" height="2"/>
<polygon points="34.4,11 25.6,11 25.6,11.2 25.6,11.2 25.6,11.2 25.6,13 34.4,13 "/>
<rect x="25.6" y="6" width="8.8" height="2"/>
<g>
	<g>
		<path d="M9.5,3.3v1.5C8.6,4.4,7.6,4.3,6.6,4.3C4.7,4.3,2.7,5,1.2,6.5l3.6,3.6h1.2v1.2c0.9,0.9,2.2,1.4,3.4,1.5v2.5H6.2v3.3
			c0,1.2,1,2.2,2.2,2.2h10.9c1.8,0,3.3-1.5,3.3-3.3V3.3H9.5z M8.2,10.3V7.9H5.8L4.6,6.8c0.6-0.2,1.3-0.4,2-0.4C8.1,6.4,9.4,7,10.5,8
			L12,9.6l-0.2,0.2c-0.6,0.6-1.3,0.9-2.1,0.9C9.2,10.6,8.7,10.5,8.2,10.3z M20.3,17.4c0,0.6-0.5,1.1-1.1,1.1s-1.1-0.5-1.1-1.1v-2.2
			h-6.5v-2.8c0.6-0.3,1.2-0.6,1.7-1.1l0.2-0.2l3.1,3.1h1.5v-1.5l-6.5-6.5V5.5h8.7V17.4z"/>
	</g>
</g>
</svg>
