<?xml version="1.0" encoding="utf-8"?>
<!-- Generator: Adobe Illustrator 26.0.3, SVG Export Plug-In . SVG Version: 6.00 Build 0)  -->
<svg version="1.1" id="Layer_1" xmlns="http://www.w3.org/2000/svg" xmlns:xlink="http://www.w3.org/1999/xlink" x="0px" y="0px"
	 viewBox="0 0 90 24" style="enable-background:new 0 0 90 24;" xml:space="preserve">
<style type="text/css">
	.st0{fill:none;}
	.st1{enable-background:new    ;}
</style>
<path class="st0" d="M-2.1,0.6h24v24h-24C-2.1,24.6-2.1,0.6-2.1,0.6z"/>
<polygon points="14.5,17.7 14.2,20.9 17.3,20.5 26,11.8 23.2,9 "/>
<rect x="24.6" y="7.1" transform="matrix(0.7071 -0.7071 0.7071 0.7071 1.2145 21.0339)" width="2.8" height="3.9"/>
<path d="M12.1,4.5H22c0,0,0,2.4,0,4.2l1.2-1.2l0,0L24.7,6V2h-15v1.7c-1-0.5-2.2-0.6-3.3-0.6c-2.2,0-4.5,0.8-6.2,2.5l4.1,4.1h1.4v1.4
	c1,1,2.5,1.6,3.9,1.7v2.9H5.9v3.8C5.9,20.9,7,22,8.4,22h4.7l0.4-4.8l1.6-1.6H12v-3.2c0.7-0.3,1.4-0.7,1.9-1.3l0.2-0.2l2.8,2.8
	l1.7-1.7l-6.7-6.7V4.5H12.1z M12.6,9.2l-0.2,0.2c-0.7,0.7-1.5,1-2.4,1c-0.6-0.1-1.1-0.2-1.7-0.5V7.3H5.5L4.1,6
	c0.7-0.2,1.5-0.5,2.3-0.5c1.7,0,3.2,0.7,4.5,1.8L12.6,9.2z"/>
<g class="st1">
	<path d="M37,3.3l-1.6,8h-4.1l-1.6-8h3l0.6,5.2h0.2L34,3.3H37z"/>
	<path d="M39.4,9.1c0,0.3,0.2,0.4,0.5,0.4c0.8,0,1.6,0,2.4-0.1l0.5,0l0.1,1.7c-1.1,0.2-2.1,0.3-3.2,0.3c-1.1,0-1.8-0.2-2.3-0.7
		c-0.5-0.5-0.7-1.3-0.7-2.4S37,6.5,37.5,6s1.3-0.8,2.4-0.8s1.9,0.2,2.4,0.7S43,7,43,7.9l-0.1,1.2H39.4z M40.3,7.6
		c0-0.2,0-0.4-0.1-0.5C40.1,7,40,7,39.9,7s-0.3,0-0.3,0.1c-0.1,0.1-0.1,0.3-0.1,0.5H40.3z"/>
	<path d="M46.2,11.3h-2.7V5.3h2.7v0.6c0.5-0.5,0.9-0.7,1.3-0.7v2.5c-0.3,0-0.6,0.1-1.1,0.3l-0.2,0.1V11.3z"/>
	<path d="M51.8,5.1c1.6,0,2.4,1,2.4,3.1c0,1.2-0.2,2.1-0.7,2.6c-0.5,0.5-1.3,0.7-2.6,0.7c-0.5,0-1.3-0.1-2.5-0.2l-0.5-0.1V3.1h2.7
		v2.3C51.1,5.2,51.5,5.1,51.8,5.1z M51,9.3c0.4,0,0.5-0.4,0.5-1.1c0-0.4,0-0.6-0.1-0.8c-0.1-0.1-0.2-0.2-0.4-0.2l-0.4,0.1v1.9
		C50.7,9.3,50.8,9.3,51,9.3z"/>
	<path d="M60.6,7.2v2.3c0.1,0.1,0.2,0.1,0.3,0.1l0,1.7c-0.6,0.1-1.1,0.1-1.3,0.1s-0.4,0-0.6-0.1c-0.2-0.1-0.3-0.1-0.4-0.2l-0.1-0.1
		c-0.5,0.3-1.1,0.4-1.8,0.4s-1.2-0.2-1.6-0.5c-0.4-0.3-0.5-0.8-0.5-1.6c0-0.7,0.2-1.2,0.6-1.4c0.4-0.2,1.1-0.4,1.9-0.4l0.9,0V7.4
		c0-0.2-0.2-0.2-0.5-0.2c-0.7,0-1.5,0-2.2,0.1l-0.4,0l-0.1-1.8c1.1-0.3,2-0.4,2.9-0.4c0.9,0,1.6,0.1,2.1,0.4
		C60.3,5.8,60.6,6.4,60.6,7.2z M57.5,9.7c0.2,0,0.3-0.1,0.5-0.2V9l-0.4,0c-0.2,0-0.3,0.1-0.3,0.3C57.2,9.6,57.3,9.7,57.5,9.7z"/>
	<path d="M61.4,11.3V3.1h2.7v8.3H61.4z"/>
	<path d="M67.3,9.1c0,0.3,0.2,0.4,0.5,0.4c0.8,0,1.6,0,2.4-0.1l0.5,0l0.1,1.7c-1.1,0.2-2.1,0.3-3.2,0.3c-1.1,0-1.8-0.2-2.3-0.7
		c-0.5-0.5-0.7-1.3-0.7-2.4s0.3-1.9,0.8-2.5s1.3-0.8,2.4-0.8c1.1,0,1.9,0.2,2.4,0.7c0.5,0.5,0.8,1.2,0.8,2.1l-0.1,1.2H67.3z
		 M68.2,7.6c0-0.2,0-0.4-0.1-0.5C68,7,67.9,7,67.8,7s-0.3,0-0.3,0.1c-0.1,0.1-0.1,0.3-0.1,0.5H68.2z"/>
</g>
</svg>
