<?xml version="1.0" encoding="utf-8"?>
<!-- Generator: Adobe Illustrator 26.0.3, SVG Export Plug-In . SVG Version: 6.00 Build 0)  -->
<svg version="1.1" id="Layer_1" xmlns="http://www.w3.org/2000/svg" xmlns:xlink="http://www.w3.org/1999/xlink" x="0px" y="0px"
	 viewBox="0 0 36 24" style="enable-background:new 0 0 36 24;" xml:space="preserve">
<style type="text/css">
	.st0{fill:none;}
</style>
<path class="st0" d="M-2.1,0.6h24v24h-24C-2.1,24.6-2.1,0.6-2.1,0.6z"/>
<polygon points="14.5,17.7 14.2,20.9 17.3,20.5 26,11.8 23.2,9 "/>
<rect x="24.6" y="7.1" transform="matrix(0.7071 -0.7071 0.7071 0.7071 1.2136 21.0363)" width="2.8" height="3.9"/>
<path d="M12.1,4.5H22c0,0,0,2.4,0,4.2l1.2-1.2l0,0l1.5-1.5V2h-15v1.7c-1-0.5-2.2-0.6-3.3-0.6c-2.2,0-4.5,0.8-6.2,2.5l4.1,4.1h1.4
	v1.4c1,1,2.5,1.6,3.9,1.7v2.9H5.9v3.8c0,1.4,1.1,2.5,2.5,2.5h4.7l0.4-4.8l1.6-1.6h-3.1v-3.2c0.7-0.3,1.4-0.7,1.9-1.3l0.2-0.2
	l2.8,2.8l1.7-1.7l-6.7-6.7V4.5z M12.6,9.2l-0.2,0.2c-0.7,0.7-1.5,1-2.4,1c-0.6-0.1-1.1-0.2-1.7-0.5V7.3H5.5L4.1,6
	c0.7-0.2,1.5-0.5,2.3-0.5c1.7,0,3.2,0.7,4.5,1.8L12.6,9.2z"/>
</svg>
