<?xml version="1.0" encoding="utf-8"?>
<!-- Generator: Adobe Illustrator 26.0.3, SVG Export Plug-In . SVG Version: 6.00 Build 0)  -->
<svg version="1.1" id="Layer_1" xmlns="http://www.w3.org/2000/svg" xmlns:xlink="http://www.w3.org/1999/xlink" x="0px" y="0px"
	 viewBox="0 0 100 24" style="enable-background:new 0 0 100 24;" xml:space="preserve">
<style type="text/css">
	.st0{enable-background:new    ;}
</style>
<polygon points="14.5,17.7 14.2,20.9 17.3,20.5 26,11.8 23.2,9 "/>
<rect x="24.6" y="7.1" transform="matrix(0.7071 -0.7071 0.7071 0.7071 1.2145 21.0339)" width="2.8" height="3.9"/>
<g class="st0">
	<path d="M37,3.3l-1.6,8h-4.1l-1.6-8h3l0.6,5.2h0.2L34,3.3H37z"/>
	<path d="M37.5,5.9c0.5-0.5,1.3-0.8,2.4-0.8c1.1,0,1.9,0.2,2.4,0.8c0.5,0.5,0.8,1.3,0.8,2.4s-0.3,1.9-0.8,2.4
		c-0.5,0.5-1.3,0.7-2.4,0.7c-1.1,0-1.9-0.2-2.4-0.7c-0.5-0.5-0.8-1.3-0.8-2.4S37,6.4,37.5,5.9z M39.6,9.1c0.1,0.1,0.2,0.2,0.4,0.2
		s0.3-0.1,0.4-0.2c0.1-0.1,0.1-0.4,0.1-0.8c0-0.4,0-0.7-0.1-0.8c-0.1-0.1-0.2-0.2-0.4-0.2s-0.3,0.1-0.4,0.2
		c-0.1,0.1-0.1,0.4-0.1,0.8C39.4,8.7,39.5,9,39.6,9.1z"/>
	<path d="M46.6,7.5v1.2c0,0.2,0,0.3,0.1,0.4c0.1,0.1,0.2,0.1,0.3,0.1l0.5,0l0,2.1c-0.7,0.1-1.2,0.2-1.6,0.2c-0.7,0-1.3-0.2-1.6-0.5
		c-0.3-0.3-0.5-0.9-0.5-1.7V7.5h-0.5V5.3h0.5V4.1h2.7v1.2h1v2.2H46.6z"/>
	<path d="M48.1,4.9V3.1h2.7v1.8H48.1z M48.1,11.3V5.3h2.7v6.1H48.1z"/>
</g>
<rect x="2.4" y="9.9" width="5.5" height="11"/>
<polygon points="13.5,17.2 14.9,15.9 14.9,3 9.4,3 9.4,20.8 13.2,20.8 "/>
<polygon points="22,8.8 22,6.4 16.5,6.4 16.5,14.3 "/>
</svg>
