<?xml version="1.0" encoding="utf-8"?>
<!-- Generator: Adobe Illustrator 26.0.3, SVG Export Plug-In . SVG Version: 6.00 Build 0)  -->
<svg version="1.1" id="Layer_1" xmlns="http://www.w3.org/2000/svg" xmlns:xlink="http://www.w3.org/1999/xlink" x="0px" y="0px"
	 viewBox="0 0 24 24" style="enable-background:new 0 0 24 24;" xml:space="preserve">
<path d="M8.2,0.3c-3.3,0-6,2.7-6,6s2.7,6,6,6s6-2.7,6-6S11.6,0.3,8.2,0.3z M9,10.3H7V8.5h2V10.3z M9.7,6.6C9,7.1,8.9,7.3,8.9,7.9H7
	c0-1.1,0.2-1.4,1.7-2.4c0.5-0.3,0.7-0.6,0.7-1c0-0.5-0.4-0.8-1.1-0.8c-0.6,0-1,0.2-1.3,0.6C6.8,4.5,6.8,4.7,6.8,5.2H4.8
	c0.1-2,1.2-3,3.4-3c1.9,0,3.1,0.9,3.1,2.2C11.3,5.2,11,5.6,9.7,6.6z"/>
</svg>
