<?xml version="1.0" encoding="utf-8"?>
<!-- Generator: Adobe Illustrator 26.0.3, SVG Export Plug-In . SVG Version: 6.00 Build 0)  -->
<svg version="1.1"
	 id="svg8" inkscape:version="0.92.3 (2405546, 2018-03-11)" sodipodi:docname="PDF file icon.svg" xmlns:cc="http://creativecommons.org/ns#" xmlns:dc="http://purl.org/dc/elements/1.1/" xmlns:inkscape="http://www.inkscape.org/namespaces/inkscape" xmlns:rdf="http://www.w3.org/1999/02/22-rdf-syntax-ns#" xmlns:sodipodi="http://sodipodi.sourceforge.net/DTD/sodipodi-0.dtd" xmlns:svg="http://www.w3.org/2000/svg"
	 xmlns="http://www.w3.org/2000/svg" xmlns:xlink="http://www.w3.org/1999/xlink" x="0px" y="0px" viewBox="0 0 300 300"
	 style="enable-background:new 0 0 300 300;" xml:space="preserve">
<style type="text/css">
	.st0{fill:#FFFFFF;}
	.st1{fill:#D2D2D2;}
	.st2{fill:#E4E4E4;}
	.st3{fill:url(#SVGID_1_);}
	.st4{fill:#969696;}
	.st5{opacity:0.2;enable-background:new    ;}
</style>
<g>
	<path class="st0" d="M106.5,60.5c-4.6,0-8.3,3.7-8.3,8.3V101H144c3.2,0,6,1.8,7.3,4.5h23.4v-45H106.5z"/>
	<path class="st1" d="M174.8,195.5v-45h-22.5v41.3c0,4.6-3.7,8.3-8.3,8.3H98.2v32.3c0,4.6,3.7,8.3,8.3,8.3h132.1
		c4.6,0,8.3-3.7,8.3-8.3v-36.8H174.8z"/>
	<path class="st2" d="M151.3,105.5c0.6,1.1,0.9,2.4,0.9,3.8v41.3h22.5v-45H151.3z"/>
	
		<linearGradient id="SVGID_1_" gradientUnits="userSpaceOnUse" x1="70.4113" y1="-1037.4712" x2="135.0447" y2="-925.5289" gradientTransform="matrix(1 0 0 1 0 1132)">
		<stop  offset="0" style="stop-color:#EFEFEF"/>
		<stop  offset="0.5" style="stop-color:#E6E6E6"/>
		<stop  offset="1" style="stop-color:#D4D4D4"/>
	</linearGradient>
	<path class="st3" d="M61.5,101H144c4.6,0,8.3,3.7,8.3,8.3v82.5c0,4.6-3.7,8.3-8.3,8.3H61.5c-4.6,0-8.3-3.7-8.3-8.3v-82.5
		C53.2,104.7,56.9,101,61.5,101z"/>
	<path class="st0" d="M238.5,60.5h-63.8v45h72V68.7C246.8,64.2,243.1,60.5,238.5,60.5L238.5,60.5z"/>
	<path class="st2" d="M174.8,150.5h72v45h-72V150.5z"/>
	<rect x="174.8" y="105.5" class="st0" width="72" height="45"/>
</g>
<sodipodi:namedview  bordercolor="#666666" borderopacity="1.0" fit-margin-bottom="0" fit-margin-left="0" fit-margin-right="0" fit-margin-top="0" id="base" inkscape:current-layer="g899" inkscape:cx="122.12727" inkscape:cy="167.02823" inkscape:document-units="mm" inkscape:object-nodes="false" inkscape:pageopacity="0.0" inkscape:pageshadow="2" inkscape:snap-others="false" inkscape:snap-page="false" inkscape:window-height="705" inkscape:window-maximized="1" inkscape:window-width="1366" inkscape:window-x="-8" inkscape:window-y="-8" inkscape:zoom="0.98994949" pagecolor="#ffffff" showgrid="false">
	</sodipodi:namedview>
<path class="st4" d="M78.8,177.3l17.4-26.9l-15.9-26.8H93l8.7,17.1c0.8,1.6,1.4,2.8,1.6,3.6h0.1c0.6-1.3,1.2-2.6,1.8-3.8l9.3-17
	h11.7L110,150.3l16.7,27h-12.5l-10-18.8c-0.5-0.8-0.9-1.6-1.2-2.5h-0.1c-0.3,0.9-0.7,1.7-1.2,2.4l-10.3,18.9L78.8,177.3L78.8,177.3z
	"/>
<g>
	<polygon class="st5" points="144,101 144,101 144,101 	"/>
	<path class="st5" d="M152.2,109.2C152.2,109.2,152.3,109.2,152.2,109.2l0,82.6c0,4.6-3.7,8.3-8.3,8.3H98.2v4.5H144
		c4.6,0,8.2-3.7,8.3-8.3L152.2,109.2C152.3,109.2,152.2,109.2,152.2,109.2z"/>
</g>
<path class="st5" d="M148.5,101H144c4.6,0,8.3,3.7,8.3,8.3v82.5c0,4.6-3.7,8.3-8.3,8.3H98.2v4.5h50.3c4.6,0,8.2-3.7,8.3-8.3v-87
	C156.7,104.7,153.1,101,148.5,101z"/>
<path class="st5" d="M148.5,101H144c4.6,0,8.3,3.7,8.3,8.3v82.5c0,4.6-3.7,8.3-8.3,8.3H98.2v13.5h50.3c4.6,0,8.2-3.7,8.3-8.3v-96
	C156.7,104.7,153.1,101,148.5,101z"/>
</svg>
