<?xml version="1.0" encoding="utf-8"?>
<!-- Generator: Adobe Illustrator 26.0.3, SVG Export Plug-In . SVG Version: 6.00 Build 0)  -->
<svg version="1.1"
	 id="svg8" inkscape:version="0.92.3 (2405546, 2018-03-11)" sodipodi:docname="PDF file icon.svg" xmlns:cc="http://creativecommons.org/ns#" xmlns:dc="http://purl.org/dc/elements/1.1/" xmlns:inkscape="http://www.inkscape.org/namespaces/inkscape" xmlns:rdf="http://www.w3.org/1999/02/22-rdf-syntax-ns#" xmlns:sodipodi="http://sodipodi.sourceforge.net/DTD/sodipodi-0.dtd" xmlns:svg="http://www.w3.org/2000/svg"
	 xmlns="http://www.w3.org/2000/svg" xmlns:xlink="http://www.w3.org/1999/xlink" x="0px" y="0px" viewBox="0 0 300 300"
	 style="enable-background:new 0 0 300 300;" xml:space="preserve">
<style type="text/css">
	.st0{opacity:0.5;fill:#FFFFFF;}
	.st1{fill:#185C37;}
	.st2{fill:#21A366;}
	.st3{fill:#107C41;}
	.st4{opacity:0.1;enable-background:new    ;}
	.st5{opacity:0.2;enable-background:new    ;}
	.st6{fill:url(#SVGID_1_);}
	.st7{fill:#FFFFFF;}
	.st8{fill:#33C481;}
</style>
<circle class="st0" cx="151.5" cy="150" r="141.7"/>
<sodipodi:namedview  bordercolor="#666666" borderopacity="1.0" fit-margin-bottom="0" fit-margin-left="0" fit-margin-right="0" fit-margin-top="0" id="base" inkscape:current-layer="g899" inkscape:cx="122.12727" inkscape:cy="167.02823" inkscape:document-units="mm" inkscape:object-nodes="false" inkscape:pageopacity="0.0" inkscape:pageshadow="2" inkscape:snap-others="false" inkscape:snap-page="false" inkscape:window-height="705" inkscape:window-maximized="1" inkscape:window-width="1366" inkscape:window-x="-8" inkscape:window-y="-8" inkscape:zoom="0.98994949" pagecolor="#ffffff" showgrid="false">
	</sodipodi:namedview>
<path class="st1" d="M167.6,147.1l-76.5-13.5v99.8c0,4.6,3.7,8.3,8.3,8.3l0,0h132.1c4.6,0,8.3-3.7,8.3-8.3l0,0v-36.8L167.6,147.1z"
	/>
<path class="st2" d="M167.6,61.6H99.3c-4.6,0-8.3,3.7-8.3,8.3l0,0v36.8l76.5,45l40.5,13.5l31.5-13.5v-45L167.6,61.6z"/>
<path class="st3" d="M91.1,106.6h76.5v45H91.1V106.6z"/>
<path class="st4" d="M145.8,97.6H91.1v112.6h54.8c4.6,0,8.2-3.7,8.3-8.3v-96C154.1,101.3,150.4,97.6,145.8,97.6z"/>
<path class="st5" d="M141.3,102.1H91.1v112.6h50.3c4.6,0,8.2-3.7,8.3-8.3v-96C149.6,105.8,145.9,102.1,141.3,102.1z"/>
<path class="st5" d="M141.3,102.1H91.1v103.5h50.3c4.6,0,8.2-3.7,8.3-8.3v-87C149.6,105.8,145.9,102.1,141.3,102.1z"/>
<path class="st5" d="M136.8,102.1H91.1v103.5h45.8c4.6,0,8.2-3.7,8.3-8.3v-87C145.1,105.8,141.4,102.1,136.8,102.1z"/>
<linearGradient id="SVGID_1_" gradientUnits="userSpaceOnUse" x1="63.2439" y1="-1036.3727" x2="127.8773" y2="-924.4304" gradientTransform="matrix(1 0 0 1 0 1132)">
	<stop  offset="0" style="stop-color:#18884F"/>
	<stop  offset="0.5" style="stop-color:#117E43"/>
	<stop  offset="1" style="stop-color:#0B6631"/>
</linearGradient>
<path class="st6" d="M54.3,102.1h82.5c4.6,0,8.3,3.7,8.3,8.3v82.5c0,4.6-3.7,8.3-8.3,8.3H54.3c-4.6,0-8.3-3.7-8.3-8.3v-82.5
	C46,105.8,49.7,102.1,54.3,102.1z"/>
<path class="st7" d="M71.6,178.4L89,151.5l-15.9-26.8h12.8l8.7,17.1c0.8,1.6,1.4,2.8,1.6,3.6h0.1c0.6-1.3,1.2-2.6,1.8-3.8l9.3-17
	h11.7l-16.3,26.6l16.7,27H107l-10-18.8c-0.5-0.8-0.9-1.6-1.2-2.5h-0.1c-0.3,0.9-0.7,1.7-1.2,2.4l-10.3,18.9L71.6,178.4L71.6,178.4z"
	/>
<path class="st8" d="M231.4,61.6h-63.8v45h72V69.8C239.6,65.3,235.9,61.6,231.4,61.6L231.4,61.6z"/>
<path class="st3" d="M167.6,151.6h72v45h-72V151.6z"/>
</svg>
