<?xml version="1.0" encoding="utf-8"?>
<!-- Generator: Adobe Illustrator 26.0.2, SVG Export Plug-In . SVG Version: 6.00 Build 0)  -->
<svg version="1.1" id="Layer_1" xmlns="http://www.w3.org/2000/svg" xmlns:xlink="http://www.w3.org/1999/xlink" x="0px" y="0px"
	 viewBox="0 0 24 24" style="enable-background:new 0 0 24 24;" xml:space="preserve">
<style type="text/css">
	.st0{fill:#FFFFFF;}
</style>
<g>
	<g>
		<polygon class="st0" points="20,7 20.9,4.9 23,4 20.9,3.1 20,1 19.1,3.1 17,4 19.1,4.9 		"/>
		<polygon class="st0" points="8.5,7 9.4,4.9 11.5,4 9.4,3.1 8.5,1 7.6,3.1 5.5,4 7.6,4.9 		"/>
		<polygon class="st0" points="20,12.5 19.1,14.6 17,15.5 19.1,16.4 20,18.5 20.9,16.4 23,15.5 20.9,14.6 		"/>
		<path class="st0" d="M17.7,9.1l-2.8-2.8C14.7,6.1,14.4,6,14.2,6s-0.5,0.1-0.7,0.3L2.3,17.5c-0.4,0.4-0.4,1,0,1.4l2.8,2.8
			C5.3,21.9,5.6,22,5.8,22s0.5-0.1,0.7-0.3l11.2-11.2C18.1,10.1,18.1,9.5,17.7,9.1z M14.2,8.4l1.4,1.4L14.4,11L13,9.6L14.2,8.4z
			 M5.8,19.6l-1.4-1.4l7.2-7.2l1.4,1.4L5.8,19.6z"/>
	</g>
</g>
</svg>
