<?xml version="1.0" encoding="utf-8"?>
<!-- Generator: Adobe Illustrator 26.0.2, SVG Export Plug-In . SVG Version: 6.00 Build 0)  -->
<svg version="1.1" id="Layer_1" xmlns="http://www.w3.org/2000/svg" xmlns:xlink="http://www.w3.org/1999/xlink" x="0px" y="0px"
	 viewBox="0 0 24 24" style="enable-background:new 0 0 24 24;" xml:space="preserve">
<style type="text/css">
	.st0{fill:#FFFFFF;}
</style>
<g>
	<g>
		<polygon class="st0" points="17.7,8.4 18.4,6.9 19.9,6.2 18.4,5.5 17.7,3.9 17,5.5 15.4,6.2 17,6.9 		"/>
		<polygon class="st0" points="9,8.4 9.7,6.9 11.2,6.2 9.7,5.5 9,3.9 8.3,5.5 6.7,6.2 8.3,6.9 		"/>
		<polygon class="st0" points="17.7,12.6 17,14.1 15.4,14.9 17,15.6 17.7,17.1 18.4,15.6 19.9,14.9 18.4,14.1 		"/>
		<path class="st0" d="M15.9,10l-2.1-2.1c-0.2-0.1-0.3-0.2-0.5-0.2s-0.4,0.1-0.5,0.2l-8.4,8.4c-0.3,0.3-0.3,0.8,0,1.1l2.1,2.1
			c0.2,0.2,0.3,0.2,0.5,0.2s0.4-0.1,0.5-0.2l8.4-8.4C16.2,10.8,16.2,10.3,15.9,10z M13.3,9.5l1.1,1.1l-0.9,0.9l-1.1-1.1L13.3,9.5z
			 M7,17.9l-1.1-1.1l5.4-5.4l1.1,1.1L7,17.9z"/>
	</g>
</g>
</svg>
