<?xml version="1.0" encoding="utf-8"?>
<!-- Generator: Adobe Illustrator 26.0.3, SVG Export Plug-In . SVG Version: 6.00 Build 0)  -->
<svg version="1.1" id="Layer_1" xmlns="http://www.w3.org/2000/svg" xmlns:xlink="http://www.w3.org/1999/xlink" x="0px" y="0px"
	 viewBox="0 0 36 24" style="enable-background:new 0 0 36 24;" xml:space="preserve">
<path d="M19,10.5l5,6.7H12l5-6.7V5.2h2 M22,3.2h-8c-0.4,0-0.7,0.5-0.4,0.8L15,5.7v4.2l-5.8,7.7c-0.5,0.7,0,1.6,0.8,1.6h16
	c0.8,0,1.3-0.9,0.8-1.6L21,9.9V5.7L22.4,4C22.6,3.7,22.4,3.2,22,3.2L22,3.2z"/>
<g>
	<path d="M23.3,3c0.2,0.5,0.2,1,0,1.4h0.5c0.6,0,0.9,0.5,1,1v7.9l2.1,2.8l0-10.8c-0.2-1.7-1.5-3-3-3h-1.4C22.8,2.5,23.1,2.7,23.3,3z
		"/>
	<path d="M11.2,13.3V5.4c0-0.5,0.4-1,1-1h0.5c-0.2-0.3-0.2-0.8-0.1-1.2c0.2-0.4,0.5-0.7,0.9-0.9h-1.3c-1.7,0-3,1.4-3,3v10.7
		L11.2,13.3z"/>
</g>
</svg>
