<?xml version="1.0" encoding="utf-8"?>
<!-- Generator: Adobe Illustrator 26.0.0, SVG Export Plug-In . SVG Version: 6.00 Build 0)  -->
<svg version="1.1" id="Layer_1" xmlns="http://www.w3.org/2000/svg" xmlns:xlink="http://www.w3.org/1999/xlink" x="0px" y="0px"
	 viewBox="0 0 36 24" style="enable-background:new 0 0 36 24;" xml:space="preserve">
<style type="text/css">
	.st0{fill:none;stroke:#000000;stroke-width:2.1;stroke-miterlimit:10;}
</style>
<g>
	<path class="st0" d="M19.8,2.9H8.1c-1.1,0-2,0.9-2,2v11.7c0,1.1,0.9,2,2,2h11.7c1.1,0,2-0.9,2-2V4.9C21.7,3.8,20.9,2.9,19.8,2.9z"
		/>
	<path d="M4.4,7.7H2.6v12.6c0,1,0.8,1.8,1.8,1.8H17v-1.8H4.4V7.7z"/>
	<path d="M12.1,10.6c-0.5,0-0.8,0.4-0.8,0.8c0,0.5,0.4,0.8,0.8,0.8c0.5,0,0.8-0.4,0.8-0.8C12.9,10.9,12.5,10.6,12.1,10.6z
		 M15.9,10.6c-0.5,0-0.8,0.4-0.8,0.8c0,0.5,0.4,0.8,0.8,0.8c0.5,0,0.8-0.4,0.8-0.8C16.6,10.9,16.3,10.6,15.9,10.6z M14,4.5
		c-3.4,0-6.2,2.8-6.2,6.2S10.6,17,14,17s6.2-2.8,6.2-6.2S17.4,4.5,14,4.5z M14,15.7c-2.7,0-5-2.3-5-5c0-0.2,0-0.4,0-0.5
		c1.4-0.6,2.6-1.9,3.2-3.3c1.1,1.6,3,2.6,5,2.6c0.5,0,1-0.1,1.4-0.2c0.1,0.5,0.2,0.9,0.2,1.4C18.9,13.4,16.8,15.7,14,15.7z"/>
</g>
</svg>
