<?xml version="1.0" encoding="utf-8"?>
<!-- Generator: Adobe Illustrator 26.0.3, SVG Export Plug-In . SVG Version: 6.00 Build 0)  -->
<svg version="1.1" id="Layer_1" xmlns="http://www.w3.org/2000/svg" xmlns:xlink="http://www.w3.org/1999/xlink" x="0px" y="0px"
	 viewBox="0 0 36 24" style="enable-background:new 0 0 36 24;" xml:space="preserve">
<path d="M4.4,7.7H2.6v12.6c0,1,0.8,1.8,1.8,1.8H17v-1.8H4.4V7.7z"/>
<path d="M23.9,10.4c-0.5,0-0.9,0.4-0.9,0.9s0.4,0.9,0.9,0.9s0.9-0.4,0.9-0.9C24.8,10.7,24.4,10.4,23.9,10.4z"/>
<path d="M18.3,13.8c0-0.2-0.1-0.4-0.4-0.5V4.9h-0.4v8.3c-0.3,0.1-0.4,0.3-0.4,0.6c0,0.2,0.1,0.4,0.2,0.4l-0.5,1.9h1.8L18,14.2
	C18.1,14.2,18.3,14,18.3,13.8z"/>
<path d="M28.4,10.4c-0.5,0-0.9,0.4-0.9,0.9s0.4,0.9,0.9,0.9s0.9-0.4,0.9-0.9C29.3,10.7,28.8,10.4,28.4,10.4z"/>
<path d="M20.7,16.9c-0.1,0.4-0.5,0.7-0.9,0.7H8.1c-0.6,0-1-0.5-1-1V4.9c0-0.6,0.5-1,1-1H16l-0.1-1l5.4-0.6c-0.4-0.3-0.9-0.4-1.5-0.4
	H8.1c-1.6,0-3,1.3-3,3v11.7c0,1.6,1.3,3,3,3h11.7c1.2,0,2.1-0.6,2.6-1.5C21.8,17.8,21.3,17.4,20.7,16.9z"/>
<g>
	<path d="M16,15.3c-0.6,0.3-1.3,0.4-2,0.4c-2.7,0-5-2.3-5-5c0-0.2,0-0.4,0-0.5c1.4-0.6,2.6-1.9,3.2-3.3c1,1.4,2.6,2.4,4.3,2.6V5.9
		h-0.3l-0.1-1c-0.7-0.2-1.4-0.4-2.1-0.4c-3.4,0-6.2,2.8-6.2,6.2S10.6,17,14,17c0.5,0,1.1-0.1,1.6-0.2L16,15.3z"/>
	<path d="M15.9,10.6c-0.5,0-0.8,0.4-0.8,0.8c0,0.5,0.4,0.8,0.8,0.8c0.3,0,0.5-0.1,0.6-0.3v-1C16.4,10.7,16.1,10.6,15.9,10.6z"/>
	<path d="M11.3,11.4c0,0.5,0.4,0.8,0.8,0.8c0.5,0,0.8-0.4,0.8-0.8c0-0.5-0.4-0.8-0.8-0.8C11.6,10.6,11.3,11,11.3,11.4z"/>
</g>
<path d="M32,6.1l-0.3-2.9l2-0.2l-0.1-1L17,3.8l0.1,1L19,4.6l0.3,2.9l0,0c-0.4,1-0.6,1.9-0.6,3c0,4.1,3.3,7.4,7.4,7.4
	s7.4-3.3,7.4-7.4C33.5,8.9,32.9,7.3,32,6.1L32,6.1z M26.2,16.5c-3.1,0-5.7-2.5-5.9-5.6c1.3-0.8,2-2.2,1.9-3.7l8.2-0.9l0,0
	c0,0.1-0.1,0.1-0.1,0.3c-0.4,1.8,0.4,3.5,1.9,4.4C31.8,14,29.2,16.5,26.2,16.5z"/>
</svg>
