<?xml version="1.0" encoding="utf-8"?>
<!-- Generator: Adobe Illustrator 26.0.3, SVG Export Plug-In . SVG Version: 6.00 Build 0)  -->
<svg version="1.1" id="Layer_1" xmlns="http://www.w3.org/2000/svg" xmlns:xlink="http://www.w3.org/1999/xlink" x="0px" y="0px"
	 viewBox="0 0 36 24" style="enable-background:new 0 0 36 24;" xml:space="preserve">
<g>
	<circle cx="11.3" cy="9.9" r="0.8"/>
	<path d="M7.2,10.6C9,9.9,10.1,8.1,9.7,6.1c-0.1-0.4-0.2-0.7-0.4-1C7.8,6.4,6.9,8.4,7.2,10.6z"/>
	<path d="M13.3,12.6c0,0-0.7-0.5-1.4-0.3S11,13,10.5,13.2C10.2,13.4,11,14.1,13.3,12.6z"/>
	<path d="M14.7,12.4c-0.6-0.2-1.2,0.3-1.2,0.3c0.4,0.3,0.8,0.5,1.1,0.6C14.6,12.9,14.7,12.6,14.7,12.4z"/>
	<path d="M22.6,21.1c-3.9,0-7-3.1-7-7s3.1-7,7-7s7,3.1,7,7S26.4,21.1,22.6,21.1z M22.6,8.6c-3,0-5.5,2.5-5.5,5.5s2.5,5.5,5.5,5.5
		s5.5-2.5,5.5-5.5S25.6,8.6,22.6,8.6z"/>
	<circle cx="20.5" cy="14.1" r="0.8"/>
	<circle cx="24.6" cy="14.1" r="0.8"/>
	<path d="M20.6,8.1c0.6,2.5,2.8,4.3,5.5,4.3c0.8,0,1.6-0.2,2.3-0.5c-0.9-2.4-3.2-4.1-5.9-4.1C21.9,7.9,21.2,7.9,20.6,8.1z"/>
	<path d="M15.3,10.8c0.2-0.5,0.5-0.9,0.8-1.3c-0.2-0.2-0.4-0.4-0.7-0.4c-0.5,0-0.8,0.4-0.8,0.8C14.6,10.4,15,10.6,15.3,10.8z"/>
	<path d="M19,6.9c-0.4-0.7-0.9-1.4-1.5-1.9c-0.2,0.3-0.3,0.6-0.4,1C17,6.7,17,7.4,17.2,8C17.8,7.8,18.3,7.4,19,6.9z"/>
	<path d="M14.5,15.2c-0.4,0.1-0.8,0.1-1.2,0.1c-3,0-5.5-2.5-5.5-5.5s2.5-5.5,5.5-5.5c2.1,0,4,1.2,4.9,3c0.4-0.3,0.9-0.5,1.3-0.7
		c-1.2-2.2-3.5-3.8-6.2-3.8c-3.9,0-7,3.1-7,7s3.1,7,7,7c0.4,0,0.8,0,1.2-0.1C14.6,16.7,14.6,15.2,14.5,15.2z"/>
	<polygon points="15.5,14.1 15.5,19.6 19,19.6 	"/>
	<polygon points="29.6,14.1 29.6,19.6 26.2,19.6 	"/>
</g>
</svg>
