<?xml version="1.0" encoding="utf-8"?>
<!-- Generator: Adobe Illustrator 26.0.3, SVG Export Plug-In . SVG Version: 6.00 Build 0)  -->
<svg version="1.1" id="Layer_1" xmlns="http://www.w3.org/2000/svg" xmlns:xlink="http://www.w3.org/1999/xlink" x="0px" y="0px"
	 viewBox="0 0 36 24" style="enable-background:new 0 0 36 24;" xml:space="preserve">
<style type="text/css">
	.st0{fill:none;}
	.st1{fill:#7C7C7C;}
</style>
<g>
	<path d="M12.7,2c-5.6,0-10,4.5-10,10s4.5,10,10,10s10-4.5,10-10S18.2,2,12.7,2z M12.7,20c-4.4,0-8-3.6-8-8s3.6-8,8-8s8,3.6,8,8
		S17.1,20,12.7,20z M13.5,11.1c-1.8-0.6-2.6-1-2.6-1.9c0-1,1.1-1.4,1.8-1.4c1.3,0,1.8,1,1.9,1.3l1.6-0.7c-0.1-0.4-0.8-1.9-2.7-2.2V5
		h-1.8v1.3c-2.6,0.6-2.6,2.9-2.6,3c0,2.3,2.2,2.9,3.3,3.3c1.6,0.6,2.3,1.1,2.3,2c0,1.1-1.1,1.6-2,1.6c-1.8,0-2.3-1.9-2.4-2.1
		l-1.7,0.7c0.6,2.2,2.3,2.8,3,3V19h1.8v-1.2c0.5-0.1,3-0.6,3-3.2C16.6,13.1,15.9,11.9,13.5,11.1z"/>
</g>
<path class="st0" d="M-138,4.5h-24v-24h24V4.5z"/>
<path class="st1" d="M34.1,24.6l-4.6,4.6l-4.6-4.6L23.5,26l6,6l6-6L34.1,24.6z"/>
<circle class="st1" cx="27.5" cy="12" r="1.3"/>
<circle class="st1" cx="31.1" cy="12" r="1.3"/>
<circle class="st1" cx="34.7" cy="12" r="1.3"/>
</svg>
