<?xml version="1.0" encoding="utf-8"?>
<!-- Generator: Adobe Illustrator 26.0.3, SVG Export Plug-In . SVG Version: 6.00 Build 0)  -->
<svg version="1.1" id="Layer_1" xmlns="http://www.w3.org/2000/svg" xmlns:xlink="http://www.w3.org/1999/xlink" x="0px" y="0px"
	 viewBox="0 0 36 24" style="enable-background:new 0 0 36 24;" xml:space="preserve">
<style type="text/css">
	.st0{stroke:#1D1D1B;stroke-width:1.4;stroke-linecap:round;stroke-miterlimit:10;}
	.st1{fill:#FFFFFF;stroke:#1D1D1B;stroke-width:1.4;stroke-linecap:round;stroke-miterlimit:10;}
	.st2{fill:none;stroke:#1D1D1B;stroke-width:1.4;stroke-linecap:round;stroke-miterlimit:10;}
	.st3{fill:#FFFFFF;stroke:#1D1D1B;stroke-width:1.4;stroke-linecap:round;stroke-linejoin:round;stroke-miterlimit:10;}
</style>
<path class="st0" d="M2.6,10.1"/>
<path d="M21.7,14.4l-0.5-0.3c-0.1,0-5.4-3.8-6.9-4.8c-0.1,0.1-0.2,0.3-0.3,0.4c-0.7,0.9-1.7,2.3-3.2,2C10,11.6,9.4,11.3,9,10.7
	C8.5,10,8.8,9.2,8.8,9.1L9,8.9c0.2-0.2,1.8-2.2,2.5-2.8c0.9-0.7,2.6-0.7,3-0.7l5.4,0l4.1,6.7L21.7,14.4z M14.3,7.8
	c0.2,0,0.3,0,0.5,0.2c0.5,0.3,5.2,3.6,6.7,4.7l0.6-0.7L19,6.8h-4.6c-0.7,0-1.7,0-2,0.3c-0.5,0.4-1.7,1.8-2.2,2.5
	c0,0.1,0,0.3,0.1,0.4c0.1,0.2,0.4,0.3,0.8,0.3c0.7,0.1,1.3-0.6,1.9-1.5C13.3,8.4,13.7,7.8,14.3,7.8z"/>
<path d="M6.3,17c-0.4,0-0.8-0.1-1-0.4l-0.4-0.4c-0.6-0.6-0.6-1.6,0-2.2l1.6-1.6c0.5-0.5,1.4-0.6,2.1-0.1l0.5,0.5
	c0.6,0.6,0.6,1.6,0,2.2l-1.6,1.6C7.1,16.9,6.7,17,6.3,17z M7.6,13.4C7.5,13.4,7.5,13.4,7.6,13.4L5.9,15c0,0,0,0.2,0,0.2l0.4,0.4
	c0,0,0.2,0,0.3-0.1L8.1,14c0,0,0-0.2,0-0.2l-0.4-0.4C7.7,13.4,7.6,13.4,7.6,13.4z"/>
<path d="M7.7,18.8c-0.4,0-0.7-0.1-1.1-0.4l-0.1-0.1L6.2,18c-0.3-0.3-0.4-0.7-0.4-1.1c0-0.4,0.2-0.8,0.4-1.1L9,13
	c0.5-0.5,1.4-0.6,2.1-0.1l0.1,0.1l0.4,0.4c0.6,0.6,0.6,1.6,0,2.2l-2.8,2.8C8.5,18.7,8.1,18.8,7.7,18.8z M7.6,17.4
	c0.1,0.1,0.2,0.1,0.3,0l2.8-2.8c0,0,0-0.2,0-0.2L10.2,14C10.1,14,10,14,10,14l-2.8,2.8c0,0,0,0.2,0,0.2L7.6,17.4z"/>
<path d="M9.8,20c-0.4,0-0.8-0.1-1.1-0.4l-0.4-0.4c-0.6-0.6-0.6-1.6,0-2.2l2.1-2.2c0.6-0.6,1.4-0.6,2.1-0.1l0.5,0.5
	c0.6,0.6,0.6,1.6,0,2.2l-2.2,2.3C10.5,19.9,10.1,20,9.8,20z M11.5,15.8C11.4,15.8,11.4,15.8,11.5,15.8L9.3,18c0,0.1,0,0.2,0,0.2
	l0.4,0.4c0,0,0.1,0,0.2,0l2.1-2.1c0,0,0-0.2,0-0.2l-0.4-0.4C11.6,15.8,11.5,15.8,11.5,15.8z"/>
<g>
	<path d="M9.7,16.5l-1,1c0,0,0,0,0.1,0L9.7,16.5C9.8,16.5,9.8,16.5,9.7,16.5z"/>
	<path d="M6.5,13.4c-0.4-0.3-0.7-0.7-1-0.9l3.1-5.2c0.6,0.1,1.4,0.3,2.2,0.5c0.4-0.5,0.8-0.9,1.1-1.1c-1.7-0.5-3.4-0.8-3.6-0.8
		L7.8,5.7l-4.1,7l0.4,0.4c0.2,0.2,0.7,0.7,1.4,1.3L6.5,13.4z"/>
	<path d="M22.1,13l-0.5,0.5c0,0-6.6-4.6-7.2-5c-0.2-0.1-0.4,0.1-0.7,0.4C13.8,9,13.9,9,14,9.1c0.7,0.5,1.7,1.2,2.8,1.9
		c1.7,1.1,3.7,2.4,4.3,3c0.3,0.2,0.2,0.4,0.1,0.6c-0.1,0.2-0.5,0.3-0.9,0.1l-0.7,1.2c0.2,0.1,0.2,0.2,0.2,0.2c0,0.2-0.3,0.5-0.6,0.6
		c-0.2,0.1-0.4,0.1-0.5,0l-0.9,1c0.3,0.3,0.2,0.7,0.1,0.8c-0.1,0.2-0.4,0.3-0.7,0.1l-0.6-0.4l-0.4,0.6c-0.4,0.6-0.9,1.3-2.4,0.7
		c-0.1-0.1-0.3-0.2-0.5-0.3l-1,1c0.4,0.2,0.7,0.4,1,0.6c0.6,0.2,1.1,0.3,1.6,0.3c0.9,0,1.6-0.4,2.2-1.1c0.7,0.2,1.5-0.1,1.9-0.7
		c0.3-0.4,0.4-0.8,0.4-1.3c0.1,0,0.2-0.1,0.3-0.1c0.8-0.3,1.4-1,1.4-1.8c0,0,0-0.1,0-0.1c0.5-0.1,0.9-0.4,1.1-0.8
		C22.9,14.6,22.8,13.7,22.1,13z"/>
</g>
<path d="M11.5,21.5c-0.4,0-0.7-0.1-1-0.4L10,20.6C9.4,20,9.4,19,10,18.4l1.5-1.5c0.5-0.5,1.4-0.6,2.1-0.1l0.5,0.5
	c0.6,0.6,0.6,1.6,0,2.2L12.6,21C12.4,21.3,12,21.5,11.5,21.5C11.6,21.5,11.5,21.5,11.5,21.5z M12.6,17.9
	C12.5,17.9,12.5,17.9,12.6,17.9L11,19.4c0,0,0,0.2,0,0.2l0.5,0.5c0,0,0,0,0,0l0.1-0.1l1.5-1.5c0,0,0-0.2,0-0.2l-0.4-0.4
	C12.7,17.9,12.6,17.9,12.6,17.9z"/>
<path d="M20,16c-0.1,0-0.2,0-0.4-0.1l-3.8-2.3c-0.3-0.2-0.4-0.6-0.2-1c0.2-0.3,0.6-0.4,1-0.2l3.8,2.3c0.3,0.2,0.4,0.6,0.2,1
	C20.5,15.9,20.2,16,20,16z"/>
<path d="M18.4,18c-0.1,0-0.2,0-0.3-0.1l-3.6-2c-0.3-0.2-0.5-0.6-0.3-1c0.2-0.3,0.6-0.5,1-0.3l3.6,2c0.3,0.2,0.5,0.6,0.3,1
	C18.9,17.9,18.6,18,18.4,18z"/>
<path d="M16.7,19.7c-0.1,0-0.2,0-0.3-0.1l-2.6-1.3c-0.3-0.2-0.5-0.6-0.3-0.9c0.2-0.3,0.6-0.5,0.9-0.3l2.6,1.3
	c0.3,0.2,0.5,0.6,0.3,0.9C17.2,19.6,17,19.7,16.7,19.7z"/>
<path d="M4.3,14.1c-0.1,0-0.2,0-0.4-0.1l-3.2-1.9c-0.3-0.2-0.4-0.6-0.2-1l4.3-7.5c0.2-0.3,0.6-0.4,1-0.3l3.2,1.8
	c0.2,0.1,0.3,0.2,0.3,0.4s0,0.4-0.1,0.5l-4.3,7.6c-0.1,0.2-0.2,0.3-0.4,0.3C4.4,14.1,4.4,14.1,4.3,14.1z M2.1,11.2l2,1.2l3.6-6.4
	L5.7,5L2.1,11.2z"/>
<path d="M23.1,13.3c-0.1,0-0.1,0-0.2,0c-0.2,0-0.3-0.2-0.4-0.3l-4.3-7.5c-0.2-0.3-0.1-0.8,0.3-1l3.1-1.8c0.2-0.1,0.4-0.1,0.5-0.1
	s0.3,0.2,0.4,0.3l4.3,7.5c0.2,0.3,0.1,0.8-0.3,1l-3.1,1.8C23.3,13.3,23.2,13.3,23.1,13.3z M19.8,5.4l3.6,6.3l1.9-1.1l-3.6-6.3
	L19.8,5.4z"/>
<path class="st1" d="M45.1,6.5c0,0,4.4,0.7,6.2,2s6.1,4,7.2,5s-0.2,2.6-1.6,1.8c1.5,0.9-0.6,2.9-1.7,1.9c1.1,1-0.1,2.9-1.5,2
	c-0.4,0.7-1.2,1.8-3.3,1c-2.1-0.9-8.9-7.6-8.9-7.6L45.1,6.5z"/>
<path class="st1" d="M39.5,10.1"/>
<path class="st1" d="M56.3,6.1h-5c0,0-1.8-0.1-2.5,0.5s-2.4,2.7-2.4,2.7s-0.5,1.5,1.4,1.7c1.9,0.3,2.9-2.9,3.5-2.5
	c0.6,0.4,7.2,5,7.2,5l1.4-1.5L56.3,6.1z"/>
<path class="st1" d="M42.7,16.1l-0.4-0.4c-0.3-0.3-0.3-0.9,0-1.2l1.6-1.6c0.3-0.3,0.8-0.3,1.2,0l0.4,0.4c0.3,0.3,0.3,0.9,0,1.2
	l-1.6,1.6C43.5,16.4,43,16.4,42.7,16.1z"/>
<path class="st1" d="M44,17.9l-0.4-0.4c-0.3-0.3-0.3-0.9,0-1.2l2.8-2.8c0.3-0.3,0.8-0.3,1.2,0l0.4,0.4c0.3,0.3,0.3,0.9,0,1.2
	l-2.8,2.8C44.9,18.2,44.4,18.2,44,17.9z"/>
<path class="st1" d="M46.1,19.1l-0.4-0.4c-0.3-0.3-0.3-0.9,0-1.2l2.1-2.2c0.3-0.3,0.8-0.3,1.2,0l0.4,0.4c0.3,0.3,0.3,0.9,0,1.2
	l-2.1,2.2C46.9,19.4,46.4,19.4,46.1,19.1z"/>
<path class="st1" d="M47.9,20.6l-0.5-0.5c-0.3-0.3-0.3-0.9,0-1.2l1.5-1.5c0.3-0.3,0.8-0.3,1.2,0l0.4,0.4c0.3,0.3,0.3,0.9,0,1.2
	L49,20.5C48.7,20.9,48.2,20.9,47.9,20.6z"/>
<line class="st2" x1="56.9" y1="15.3" x2="53.1" y2="13"/>
<line class="st2" x1="55.3" y1="17.3" x2="51.7" y2="15.3"/>
<line class="st2" x1="53.6" y1="19" x2="51" y2="17.7"/>
<polyline class="st3" points="38,11.5 42.3,4 45.5,5.8 41.2,13.4 38,11.5 "/>
<polyline class="st3" points="63.1,10.8 60,12.6 55.7,5.1 58.8,3.3 63.1,10.8 "/>
</svg>
